%TF.GenerationSoftware,KiCad,Pcbnew,5.1.9+dfsg1-1~bpo10+1*%
%TF.CreationDate,2021-05-16T10:46:30+08:00*%
%TF.ProjectId,serprog,73657270-726f-4672-9e6b-696361645f70,rev?*%
%TF.SameCoordinates,Original*%
%TF.FileFunction,Legend,Top*%
%TF.FilePolarity,Positive*%
%FSLAX46Y46*%
G04 Gerber Fmt 4.6, Leading zero omitted, Abs format (unit mm)*
G04 Created by KiCad (PCBNEW 5.1.9+dfsg1-1~bpo10+1) date 2021-05-16 10:46:30*
%MOMM*%
%LPD*%
G01*
G04 APERTURE LIST*
%ADD10C,0.150000*%
%ADD11C,0.200000*%
%ADD12C,0.010000*%
%ADD13C,0.120000*%
G04 APERTURE END LIST*
D10*
X109002380Y-69632380D02*
X109097619Y-69632380D01*
X109192857Y-69680000D01*
X109240476Y-69727619D01*
X109288095Y-69822857D01*
X109335714Y-70013333D01*
X109335714Y-70251428D01*
X109288095Y-70441904D01*
X109240476Y-70537142D01*
X109192857Y-70584761D01*
X109097619Y-70632380D01*
X109002380Y-70632380D01*
X108907142Y-70584761D01*
X108859523Y-70537142D01*
X108811904Y-70441904D01*
X108764285Y-70251428D01*
X108764285Y-70013333D01*
X108811904Y-69822857D01*
X108859523Y-69727619D01*
X108907142Y-69680000D01*
X109002380Y-69632380D01*
X109365714Y-72582380D02*
X108794285Y-72582380D01*
X109080000Y-72582380D02*
X109080000Y-71582380D01*
X108984761Y-71725238D01*
X108889523Y-71820476D01*
X108794285Y-71868095D01*
D11*
X106682142Y-83298809D02*
X106753571Y-83120238D01*
X106753571Y-82822619D01*
X106682142Y-82703571D01*
X106610714Y-82644047D01*
X106467857Y-82584523D01*
X106325000Y-82584523D01*
X106182142Y-82644047D01*
X106110714Y-82703571D01*
X106039285Y-82822619D01*
X105967857Y-83060714D01*
X105896428Y-83179761D01*
X105825000Y-83239285D01*
X105682142Y-83298809D01*
X105539285Y-83298809D01*
X105396428Y-83239285D01*
X105325000Y-83179761D01*
X105253571Y-83060714D01*
X105253571Y-82763095D01*
X105325000Y-82584523D01*
X105253571Y-82227380D02*
X105253571Y-81513095D01*
X106753571Y-81870238D02*
X105253571Y-81870238D01*
X106753571Y-81096428D02*
X105253571Y-81096428D01*
X106325000Y-80679761D01*
X105253571Y-80263095D01*
X106753571Y-80263095D01*
X105253571Y-79786904D02*
X105253571Y-79013095D01*
X105825000Y-79429761D01*
X105825000Y-79251190D01*
X105896428Y-79132142D01*
X105967857Y-79072619D01*
X106110714Y-79013095D01*
X106467857Y-79013095D01*
X106610714Y-79072619D01*
X106682142Y-79132142D01*
X106753571Y-79251190D01*
X106753571Y-79608333D01*
X106682142Y-79727380D01*
X106610714Y-79786904D01*
X105396428Y-78536904D02*
X105325000Y-78477380D01*
X105253571Y-78358333D01*
X105253571Y-78060714D01*
X105325000Y-77941666D01*
X105396428Y-77882142D01*
X105539285Y-77822619D01*
X105682142Y-77822619D01*
X105896428Y-77882142D01*
X106753571Y-78596428D01*
X106753571Y-77822619D01*
X106182142Y-77286904D02*
X106182142Y-76334523D01*
X106682142Y-75798809D02*
X106753571Y-75679761D01*
X106753571Y-75441666D01*
X106682142Y-75322619D01*
X106539285Y-75263095D01*
X106467857Y-75263095D01*
X106325000Y-75322619D01*
X106253571Y-75441666D01*
X106253571Y-75620238D01*
X106182142Y-75739285D01*
X106039285Y-75798809D01*
X105967857Y-75798809D01*
X105825000Y-75739285D01*
X105753571Y-75620238D01*
X105753571Y-75441666D01*
X105825000Y-75322619D01*
X106682142Y-74251190D02*
X106753571Y-74370238D01*
X106753571Y-74608333D01*
X106682142Y-74727380D01*
X106539285Y-74786904D01*
X105967857Y-74786904D01*
X105825000Y-74727380D01*
X105753571Y-74608333D01*
X105753571Y-74370238D01*
X105825000Y-74251190D01*
X105967857Y-74191666D01*
X106110714Y-74191666D01*
X106253571Y-74786904D01*
X106753571Y-73655952D02*
X105753571Y-73655952D01*
X106039285Y-73655952D02*
X105896428Y-73596428D01*
X105825000Y-73536904D01*
X105753571Y-73417857D01*
X105753571Y-73298809D01*
X105753571Y-72882142D02*
X107253571Y-72882142D01*
X105825000Y-72882142D02*
X105753571Y-72763095D01*
X105753571Y-72525000D01*
X105825000Y-72405952D01*
X105896428Y-72346428D01*
X106039285Y-72286904D01*
X106467857Y-72286904D01*
X106610714Y-72346428D01*
X106682142Y-72405952D01*
X106753571Y-72525000D01*
X106753571Y-72763095D01*
X106682142Y-72882142D01*
X106753571Y-71751190D02*
X105753571Y-71751190D01*
X106039285Y-71751190D02*
X105896428Y-71691666D01*
X105825000Y-71632142D01*
X105753571Y-71513095D01*
X105753571Y-71394047D01*
X106753571Y-70798809D02*
X106682142Y-70917857D01*
X106610714Y-70977380D01*
X106467857Y-71036904D01*
X106039285Y-71036904D01*
X105896428Y-70977380D01*
X105825000Y-70917857D01*
X105753571Y-70798809D01*
X105753571Y-70620238D01*
X105825000Y-70501190D01*
X105896428Y-70441666D01*
X106039285Y-70382142D01*
X106467857Y-70382142D01*
X106610714Y-70441666D01*
X106682142Y-70501190D01*
X106753571Y-70620238D01*
X106753571Y-70798809D01*
X105753571Y-69310714D02*
X106967857Y-69310714D01*
X107110714Y-69370238D01*
X107182142Y-69429761D01*
X107253571Y-69548809D01*
X107253571Y-69727380D01*
X107182142Y-69846428D01*
X106682142Y-69310714D02*
X106753571Y-69429761D01*
X106753571Y-69667857D01*
X106682142Y-69786904D01*
X106610714Y-69846428D01*
X106467857Y-69905952D01*
X106039285Y-69905952D01*
X105896428Y-69846428D01*
X105825000Y-69786904D01*
X105753571Y-69667857D01*
X105753571Y-69429761D01*
X105825000Y-69310714D01*
D10*
X134317857Y-57927380D02*
X134936904Y-57927380D01*
X134603571Y-58308333D01*
X134746428Y-58308333D01*
X134841666Y-58355952D01*
X134889285Y-58403571D01*
X134936904Y-58498809D01*
X134936904Y-58736904D01*
X134889285Y-58832142D01*
X134841666Y-58879761D01*
X134746428Y-58927380D01*
X134460714Y-58927380D01*
X134365476Y-58879761D01*
X134317857Y-58832142D01*
X135365476Y-58832142D02*
X135413095Y-58879761D01*
X135365476Y-58927380D01*
X135317857Y-58879761D01*
X135365476Y-58832142D01*
X135365476Y-58927380D01*
X135746428Y-57927380D02*
X136365476Y-57927380D01*
X136032142Y-58308333D01*
X136175000Y-58308333D01*
X136270238Y-58355952D01*
X136317857Y-58403571D01*
X136365476Y-58498809D01*
X136365476Y-58736904D01*
X136317857Y-58832142D01*
X136270238Y-58879761D01*
X136175000Y-58927380D01*
X135889285Y-58927380D01*
X135794047Y-58879761D01*
X135746428Y-58832142D01*
X136651190Y-57927380D02*
X136984523Y-58927380D01*
X137317857Y-57927380D01*
X139698809Y-58927380D02*
X139127380Y-58927380D01*
X139413095Y-58927380D02*
X139413095Y-57927380D01*
X139317857Y-58070238D01*
X139222619Y-58165476D01*
X139127380Y-58213095D01*
X140127380Y-58832142D02*
X140175000Y-58879761D01*
X140127380Y-58927380D01*
X140079761Y-58879761D01*
X140127380Y-58832142D01*
X140127380Y-58927380D01*
X140746428Y-58355952D02*
X140651190Y-58308333D01*
X140603571Y-58260714D01*
X140555952Y-58165476D01*
X140555952Y-58117857D01*
X140603571Y-58022619D01*
X140651190Y-57975000D01*
X140746428Y-57927380D01*
X140936904Y-57927380D01*
X141032142Y-57975000D01*
X141079761Y-58022619D01*
X141127380Y-58117857D01*
X141127380Y-58165476D01*
X141079761Y-58260714D01*
X141032142Y-58308333D01*
X140936904Y-58355952D01*
X140746428Y-58355952D01*
X140651190Y-58403571D01*
X140603571Y-58451190D01*
X140555952Y-58546428D01*
X140555952Y-58736904D01*
X140603571Y-58832142D01*
X140651190Y-58879761D01*
X140746428Y-58927380D01*
X140936904Y-58927380D01*
X141032142Y-58879761D01*
X141079761Y-58832142D01*
X141127380Y-58736904D01*
X141127380Y-58546428D01*
X141079761Y-58451190D01*
X141032142Y-58403571D01*
X140936904Y-58355952D01*
X141413095Y-57927380D02*
X141746428Y-58927380D01*
X142079761Y-57927380D01*
D12*
%TO.C,REF\u002A\u002A*%
G36*
X143178600Y-79189054D02*
G01*
X143189465Y-79302993D01*
X143221082Y-79410616D01*
X143271985Y-79509615D01*
X143340707Y-79597684D01*
X143425781Y-79672516D01*
X143522768Y-79730384D01*
X143629036Y-79770005D01*
X143736050Y-79788573D01*
X143841700Y-79787434D01*
X143943875Y-79767930D01*
X144040466Y-79731406D01*
X144129362Y-79679205D01*
X144208454Y-79612673D01*
X144275631Y-79533152D01*
X144328783Y-79441987D01*
X144365801Y-79340523D01*
X144384573Y-79230102D01*
X144386511Y-79180206D01*
X144386511Y-79092267D01*
X144438440Y-79092267D01*
X144474747Y-79095111D01*
X144501645Y-79106911D01*
X144528751Y-79130649D01*
X144567133Y-79169031D01*
X144567133Y-81360602D01*
X144567124Y-81622739D01*
X144567092Y-81863241D01*
X144567028Y-82083048D01*
X144566924Y-82283101D01*
X144566773Y-82464344D01*
X144566566Y-82627716D01*
X144566294Y-82774160D01*
X144565950Y-82904617D01*
X144565526Y-83020029D01*
X144565013Y-83121338D01*
X144564403Y-83209484D01*
X144563688Y-83285410D01*
X144562860Y-83350057D01*
X144561911Y-83404367D01*
X144560833Y-83449280D01*
X144559617Y-83485740D01*
X144558255Y-83514687D01*
X144556739Y-83537063D01*
X144555062Y-83553809D01*
X144553214Y-83565868D01*
X144551187Y-83574180D01*
X144548975Y-83579687D01*
X144547892Y-83581537D01*
X144543729Y-83588549D01*
X144540195Y-83594996D01*
X144536365Y-83600900D01*
X144531318Y-83606286D01*
X144524129Y-83611178D01*
X144513877Y-83615598D01*
X144499636Y-83619572D01*
X144480486Y-83623121D01*
X144455501Y-83626270D01*
X144423760Y-83629042D01*
X144384338Y-83631461D01*
X144336314Y-83633551D01*
X144278763Y-83635335D01*
X144210763Y-83636837D01*
X144131390Y-83638080D01*
X144039721Y-83639089D01*
X143934834Y-83639885D01*
X143815804Y-83640494D01*
X143681710Y-83640939D01*
X143531627Y-83641243D01*
X143364633Y-83641430D01*
X143179804Y-83641524D01*
X142976217Y-83641548D01*
X142752950Y-83641525D01*
X142509078Y-83641480D01*
X142243679Y-83641437D01*
X142205296Y-83641432D01*
X141938318Y-83641389D01*
X141692998Y-83641318D01*
X141468417Y-83641213D01*
X141263655Y-83641066D01*
X141077794Y-83640869D01*
X140909912Y-83640616D01*
X140759092Y-83640300D01*
X140624413Y-83639913D01*
X140504956Y-83639447D01*
X140399801Y-83638897D01*
X140308029Y-83638253D01*
X140228721Y-83637511D01*
X140160957Y-83636661D01*
X140103818Y-83635697D01*
X140056383Y-83634611D01*
X140017734Y-83633397D01*
X139986951Y-83632047D01*
X139963115Y-83630555D01*
X139945306Y-83628911D01*
X139932605Y-83627111D01*
X139924092Y-83625145D01*
X139919734Y-83623477D01*
X139911272Y-83619906D01*
X139903503Y-83617270D01*
X139896398Y-83614634D01*
X139889927Y-83611062D01*
X139884061Y-83605621D01*
X139878771Y-83597375D01*
X139874026Y-83585390D01*
X139869798Y-83568731D01*
X139866057Y-83546463D01*
X139862773Y-83517652D01*
X139859917Y-83481363D01*
X139857460Y-83436661D01*
X139855371Y-83382611D01*
X139853622Y-83318279D01*
X139852183Y-83242730D01*
X139851024Y-83155030D01*
X139850117Y-83054243D01*
X139849431Y-82939434D01*
X139848937Y-82809670D01*
X139848605Y-82664015D01*
X139848407Y-82501535D01*
X139848313Y-82321295D01*
X139848292Y-82122360D01*
X139848315Y-81903796D01*
X139848354Y-81664668D01*
X139848378Y-81404040D01*
X139848378Y-81361889D01*
X139848364Y-81098992D01*
X139848339Y-80857732D01*
X139848329Y-80637165D01*
X139848358Y-80436352D01*
X139848452Y-80254349D01*
X139848638Y-80090216D01*
X139848941Y-79943011D01*
X139849386Y-79811792D01*
X139849966Y-79701867D01*
X140152803Y-79701867D01*
X140192593Y-79759711D01*
X140203764Y-79775479D01*
X140213834Y-79789441D01*
X140222862Y-79802784D01*
X140230903Y-79816693D01*
X140238014Y-79832356D01*
X140244253Y-79850958D01*
X140249675Y-79873686D01*
X140254338Y-79901727D01*
X140258299Y-79936267D01*
X140261615Y-79978492D01*
X140264341Y-80029589D01*
X140266536Y-80090744D01*
X140268255Y-80163144D01*
X140269556Y-80247975D01*
X140270495Y-80346422D01*
X140271130Y-80459674D01*
X140271516Y-80588916D01*
X140271712Y-80735334D01*
X140271773Y-80900116D01*
X140271757Y-81084447D01*
X140271720Y-81289513D01*
X140271711Y-81412133D01*
X140271735Y-81629082D01*
X140271769Y-81824642D01*
X140271757Y-81999999D01*
X140271642Y-82156341D01*
X140271370Y-82294857D01*
X140270882Y-82416734D01*
X140270124Y-82523160D01*
X140269038Y-82615322D01*
X140267569Y-82694409D01*
X140265660Y-82761608D01*
X140263256Y-82818107D01*
X140260299Y-82865093D01*
X140256734Y-82903755D01*
X140252505Y-82935280D01*
X140247554Y-82960855D01*
X140241827Y-82981670D01*
X140235267Y-82998911D01*
X140227817Y-83013765D01*
X140219421Y-83027422D01*
X140210024Y-83041069D01*
X140199568Y-83055893D01*
X140193477Y-83064783D01*
X140154704Y-83122400D01*
X140686268Y-83122400D01*
X140809517Y-83122365D01*
X140912013Y-83122215D01*
X140995580Y-83121878D01*
X141062044Y-83121286D01*
X141113229Y-83120367D01*
X141150959Y-83119051D01*
X141177060Y-83117269D01*
X141193356Y-83114951D01*
X141201672Y-83112026D01*
X141203832Y-83108424D01*
X141201661Y-83104075D01*
X141200465Y-83102645D01*
X141175315Y-83065573D01*
X141149417Y-83012772D01*
X141125808Y-82950770D01*
X141117539Y-82924357D01*
X141112922Y-82906416D01*
X141109021Y-82885355D01*
X141105752Y-82859089D01*
X141103034Y-82825532D01*
X141100785Y-82782599D01*
X141098923Y-82728204D01*
X141097364Y-82660262D01*
X141096028Y-82576688D01*
X141094831Y-82475395D01*
X141093692Y-82354300D01*
X141093315Y-82309600D01*
X141092298Y-82184449D01*
X141091540Y-82080082D01*
X141091097Y-81994707D01*
X141091030Y-81926533D01*
X141091395Y-81873765D01*
X141092252Y-81834614D01*
X141093659Y-81807285D01*
X141095675Y-81789986D01*
X141098357Y-81780926D01*
X141101764Y-81778312D01*
X141105956Y-81780351D01*
X141110429Y-81784667D01*
X141120784Y-81797602D01*
X141142842Y-81826676D01*
X141175043Y-81869759D01*
X141215826Y-81924718D01*
X141263630Y-81989423D01*
X141316895Y-82061742D01*
X141374060Y-82139544D01*
X141433563Y-82220698D01*
X141493845Y-82303072D01*
X141553345Y-82384536D01*
X141610502Y-82462957D01*
X141663755Y-82536204D01*
X141711543Y-82602147D01*
X141752307Y-82658654D01*
X141784484Y-82703593D01*
X141806515Y-82734834D01*
X141811083Y-82741466D01*
X141834004Y-82778369D01*
X141860812Y-82826359D01*
X141886211Y-82875897D01*
X141889432Y-82882577D01*
X141911110Y-82930772D01*
X141923696Y-82968334D01*
X141929426Y-83004160D01*
X141930544Y-83046200D01*
X141929910Y-83122400D01*
X143084349Y-83122400D01*
X142993185Y-83028669D01*
X142946388Y-82978775D01*
X142896101Y-82922295D01*
X142850056Y-82868026D01*
X142829631Y-82842673D01*
X142799193Y-82803128D01*
X142759138Y-82749916D01*
X142710639Y-82684667D01*
X142654865Y-82609011D01*
X142592989Y-82524577D01*
X142526181Y-82432994D01*
X142455613Y-82335892D01*
X142382455Y-82234901D01*
X142307879Y-82131650D01*
X142233056Y-82027768D01*
X142159157Y-81924885D01*
X142087354Y-81824631D01*
X142018816Y-81728636D01*
X141954716Y-81638527D01*
X141896225Y-81555936D01*
X141844514Y-81482492D01*
X141800753Y-81419824D01*
X141766115Y-81369561D01*
X141741770Y-81333334D01*
X141728889Y-81312771D01*
X141727131Y-81308668D01*
X141735090Y-81297342D01*
X141755885Y-81270162D01*
X141788153Y-81228829D01*
X141830530Y-81175044D01*
X141881653Y-81110506D01*
X141940159Y-81036918D01*
X142004686Y-80955978D01*
X142073869Y-80869388D01*
X142146347Y-80778848D01*
X142220754Y-80686060D01*
X142280483Y-80611702D01*
X143291489Y-80611702D01*
X143297398Y-80624659D01*
X143311728Y-80646908D01*
X143312775Y-80648391D01*
X143331562Y-80678544D01*
X143351209Y-80715375D01*
X143355108Y-80723511D01*
X143358644Y-80731940D01*
X143361770Y-80742059D01*
X143364514Y-80755260D01*
X143366908Y-80772938D01*
X143368981Y-80796484D01*
X143370765Y-80827293D01*
X143372288Y-80866757D01*
X143373581Y-80916269D01*
X143374674Y-80977223D01*
X143375597Y-81051011D01*
X143376381Y-81139028D01*
X143377055Y-81242665D01*
X143377650Y-81363316D01*
X143378195Y-81502374D01*
X143378721Y-81661232D01*
X143379255Y-81840089D01*
X143379794Y-82025207D01*
X143380228Y-82189145D01*
X143380491Y-82333303D01*
X143380516Y-82459079D01*
X143380235Y-82567871D01*
X143379581Y-82661077D01*
X143378486Y-82740097D01*
X143376882Y-82806328D01*
X143374703Y-82861170D01*
X143371881Y-82906021D01*
X143368349Y-82942278D01*
X143364039Y-82971341D01*
X143358883Y-82994609D01*
X143352815Y-83013479D01*
X143345767Y-83029351D01*
X143337671Y-83043622D01*
X143328460Y-83057691D01*
X143319960Y-83070158D01*
X143302824Y-83096452D01*
X143292678Y-83114037D01*
X143291489Y-83117257D01*
X143302396Y-83118334D01*
X143333589Y-83119335D01*
X143382777Y-83120235D01*
X143447667Y-83121010D01*
X143525970Y-83121637D01*
X143615393Y-83122091D01*
X143713644Y-83122349D01*
X143782555Y-83122400D01*
X143887548Y-83122180D01*
X143984390Y-83121548D01*
X144070893Y-83120549D01*
X144144868Y-83119227D01*
X144204126Y-83117626D01*
X144246480Y-83115791D01*
X144269740Y-83113765D01*
X144273622Y-83112493D01*
X144265924Y-83097591D01*
X144257926Y-83089560D01*
X144244754Y-83072434D01*
X144227515Y-83042183D01*
X144215593Y-83017622D01*
X144188955Y-82958711D01*
X144185880Y-81781845D01*
X144182805Y-80604978D01*
X143737147Y-80604978D01*
X143639330Y-80605142D01*
X143548936Y-80605611D01*
X143468370Y-80606347D01*
X143400038Y-80607316D01*
X143346344Y-80608480D01*
X143309695Y-80609803D01*
X143292496Y-80611249D01*
X143291489Y-80611702D01*
X142280483Y-80611702D01*
X142295730Y-80592722D01*
X142369910Y-80500537D01*
X142441931Y-80411204D01*
X142510431Y-80326424D01*
X142574045Y-80247898D01*
X142631412Y-80177326D01*
X142681167Y-80116409D01*
X142721948Y-80066847D01*
X142739112Y-80046178D01*
X142825404Y-79945516D01*
X142902003Y-79862259D01*
X142970817Y-79794438D01*
X143033752Y-79740089D01*
X143043133Y-79732722D01*
X143082644Y-79702117D01*
X141950884Y-79701867D01*
X141956173Y-79749844D01*
X141952870Y-79807188D01*
X141931339Y-79875463D01*
X141891365Y-79955212D01*
X141846057Y-80027495D01*
X141829839Y-80050140D01*
X141801786Y-80087696D01*
X141763570Y-80138021D01*
X141716863Y-80198973D01*
X141663339Y-80268411D01*
X141604669Y-80344194D01*
X141542525Y-80424180D01*
X141478579Y-80506228D01*
X141414505Y-80588196D01*
X141351973Y-80667943D01*
X141292657Y-80743327D01*
X141238229Y-80812207D01*
X141190361Y-80872442D01*
X141150725Y-80921889D01*
X141120994Y-80958408D01*
X141102839Y-80979858D01*
X141099780Y-80983156D01*
X141096921Y-80975149D01*
X141094707Y-80944855D01*
X141093143Y-80892556D01*
X141092233Y-80818531D01*
X141091980Y-80723063D01*
X141092387Y-80606434D01*
X141093296Y-80486445D01*
X141094618Y-80354333D01*
X141096143Y-80242594D01*
X141098119Y-80149025D01*
X141100794Y-80071419D01*
X141104418Y-80007574D01*
X141109239Y-79955283D01*
X141115506Y-79912344D01*
X141123468Y-79876551D01*
X141133373Y-79845700D01*
X141145469Y-79817586D01*
X141160007Y-79790005D01*
X141174689Y-79764966D01*
X141212686Y-79701867D01*
X140152803Y-79701867D01*
X139849966Y-79701867D01*
X139849999Y-79695617D01*
X139850805Y-79593544D01*
X139851830Y-79504633D01*
X139853100Y-79427941D01*
X139854640Y-79362527D01*
X139856476Y-79307449D01*
X139858633Y-79261765D01*
X139861137Y-79224534D01*
X139864013Y-79194813D01*
X139867287Y-79171662D01*
X139870985Y-79154139D01*
X139875131Y-79141301D01*
X139879753Y-79132208D01*
X139884874Y-79125918D01*
X139890522Y-79121488D01*
X139896721Y-79117978D01*
X139903496Y-79114445D01*
X139909492Y-79110876D01*
X139914725Y-79108300D01*
X139922901Y-79105972D01*
X139935114Y-79103878D01*
X139952459Y-79102007D01*
X139976031Y-79100347D01*
X140006923Y-79098884D01*
X140046232Y-79097608D01*
X140095050Y-79096504D01*
X140154473Y-79095561D01*
X140225596Y-79094767D01*
X140309512Y-79094109D01*
X140407317Y-79093575D01*
X140520106Y-79093153D01*
X140648971Y-79092829D01*
X140795009Y-79092592D01*
X140959314Y-79092430D01*
X141142980Y-79092330D01*
X141347103Y-79092280D01*
X141558247Y-79092267D01*
X143178600Y-79092267D01*
X143178600Y-79189054D01*
G37*
X143178600Y-79189054D02*
X143189465Y-79302993D01*
X143221082Y-79410616D01*
X143271985Y-79509615D01*
X143340707Y-79597684D01*
X143425781Y-79672516D01*
X143522768Y-79730384D01*
X143629036Y-79770005D01*
X143736050Y-79788573D01*
X143841700Y-79787434D01*
X143943875Y-79767930D01*
X144040466Y-79731406D01*
X144129362Y-79679205D01*
X144208454Y-79612673D01*
X144275631Y-79533152D01*
X144328783Y-79441987D01*
X144365801Y-79340523D01*
X144384573Y-79230102D01*
X144386511Y-79180206D01*
X144386511Y-79092267D01*
X144438440Y-79092267D01*
X144474747Y-79095111D01*
X144501645Y-79106911D01*
X144528751Y-79130649D01*
X144567133Y-79169031D01*
X144567133Y-81360602D01*
X144567124Y-81622739D01*
X144567092Y-81863241D01*
X144567028Y-82083048D01*
X144566924Y-82283101D01*
X144566773Y-82464344D01*
X144566566Y-82627716D01*
X144566294Y-82774160D01*
X144565950Y-82904617D01*
X144565526Y-83020029D01*
X144565013Y-83121338D01*
X144564403Y-83209484D01*
X144563688Y-83285410D01*
X144562860Y-83350057D01*
X144561911Y-83404367D01*
X144560833Y-83449280D01*
X144559617Y-83485740D01*
X144558255Y-83514687D01*
X144556739Y-83537063D01*
X144555062Y-83553809D01*
X144553214Y-83565868D01*
X144551187Y-83574180D01*
X144548975Y-83579687D01*
X144547892Y-83581537D01*
X144543729Y-83588549D01*
X144540195Y-83594996D01*
X144536365Y-83600900D01*
X144531318Y-83606286D01*
X144524129Y-83611178D01*
X144513877Y-83615598D01*
X144499636Y-83619572D01*
X144480486Y-83623121D01*
X144455501Y-83626270D01*
X144423760Y-83629042D01*
X144384338Y-83631461D01*
X144336314Y-83633551D01*
X144278763Y-83635335D01*
X144210763Y-83636837D01*
X144131390Y-83638080D01*
X144039721Y-83639089D01*
X143934834Y-83639885D01*
X143815804Y-83640494D01*
X143681710Y-83640939D01*
X143531627Y-83641243D01*
X143364633Y-83641430D01*
X143179804Y-83641524D01*
X142976217Y-83641548D01*
X142752950Y-83641525D01*
X142509078Y-83641480D01*
X142243679Y-83641437D01*
X142205296Y-83641432D01*
X141938318Y-83641389D01*
X141692998Y-83641318D01*
X141468417Y-83641213D01*
X141263655Y-83641066D01*
X141077794Y-83640869D01*
X140909912Y-83640616D01*
X140759092Y-83640300D01*
X140624413Y-83639913D01*
X140504956Y-83639447D01*
X140399801Y-83638897D01*
X140308029Y-83638253D01*
X140228721Y-83637511D01*
X140160957Y-83636661D01*
X140103818Y-83635697D01*
X140056383Y-83634611D01*
X140017734Y-83633397D01*
X139986951Y-83632047D01*
X139963115Y-83630555D01*
X139945306Y-83628911D01*
X139932605Y-83627111D01*
X139924092Y-83625145D01*
X139919734Y-83623477D01*
X139911272Y-83619906D01*
X139903503Y-83617270D01*
X139896398Y-83614634D01*
X139889927Y-83611062D01*
X139884061Y-83605621D01*
X139878771Y-83597375D01*
X139874026Y-83585390D01*
X139869798Y-83568731D01*
X139866057Y-83546463D01*
X139862773Y-83517652D01*
X139859917Y-83481363D01*
X139857460Y-83436661D01*
X139855371Y-83382611D01*
X139853622Y-83318279D01*
X139852183Y-83242730D01*
X139851024Y-83155030D01*
X139850117Y-83054243D01*
X139849431Y-82939434D01*
X139848937Y-82809670D01*
X139848605Y-82664015D01*
X139848407Y-82501535D01*
X139848313Y-82321295D01*
X139848292Y-82122360D01*
X139848315Y-81903796D01*
X139848354Y-81664668D01*
X139848378Y-81404040D01*
X139848378Y-81361889D01*
X139848364Y-81098992D01*
X139848339Y-80857732D01*
X139848329Y-80637165D01*
X139848358Y-80436352D01*
X139848452Y-80254349D01*
X139848638Y-80090216D01*
X139848941Y-79943011D01*
X139849386Y-79811792D01*
X139849966Y-79701867D01*
X140152803Y-79701867D01*
X140192593Y-79759711D01*
X140203764Y-79775479D01*
X140213834Y-79789441D01*
X140222862Y-79802784D01*
X140230903Y-79816693D01*
X140238014Y-79832356D01*
X140244253Y-79850958D01*
X140249675Y-79873686D01*
X140254338Y-79901727D01*
X140258299Y-79936267D01*
X140261615Y-79978492D01*
X140264341Y-80029589D01*
X140266536Y-80090744D01*
X140268255Y-80163144D01*
X140269556Y-80247975D01*
X140270495Y-80346422D01*
X140271130Y-80459674D01*
X140271516Y-80588916D01*
X140271712Y-80735334D01*
X140271773Y-80900116D01*
X140271757Y-81084447D01*
X140271720Y-81289513D01*
X140271711Y-81412133D01*
X140271735Y-81629082D01*
X140271769Y-81824642D01*
X140271757Y-81999999D01*
X140271642Y-82156341D01*
X140271370Y-82294857D01*
X140270882Y-82416734D01*
X140270124Y-82523160D01*
X140269038Y-82615322D01*
X140267569Y-82694409D01*
X140265660Y-82761608D01*
X140263256Y-82818107D01*
X140260299Y-82865093D01*
X140256734Y-82903755D01*
X140252505Y-82935280D01*
X140247554Y-82960855D01*
X140241827Y-82981670D01*
X140235267Y-82998911D01*
X140227817Y-83013765D01*
X140219421Y-83027422D01*
X140210024Y-83041069D01*
X140199568Y-83055893D01*
X140193477Y-83064783D01*
X140154704Y-83122400D01*
X140686268Y-83122400D01*
X140809517Y-83122365D01*
X140912013Y-83122215D01*
X140995580Y-83121878D01*
X141062044Y-83121286D01*
X141113229Y-83120367D01*
X141150959Y-83119051D01*
X141177060Y-83117269D01*
X141193356Y-83114951D01*
X141201672Y-83112026D01*
X141203832Y-83108424D01*
X141201661Y-83104075D01*
X141200465Y-83102645D01*
X141175315Y-83065573D01*
X141149417Y-83012772D01*
X141125808Y-82950770D01*
X141117539Y-82924357D01*
X141112922Y-82906416D01*
X141109021Y-82885355D01*
X141105752Y-82859089D01*
X141103034Y-82825532D01*
X141100785Y-82782599D01*
X141098923Y-82728204D01*
X141097364Y-82660262D01*
X141096028Y-82576688D01*
X141094831Y-82475395D01*
X141093692Y-82354300D01*
X141093315Y-82309600D01*
X141092298Y-82184449D01*
X141091540Y-82080082D01*
X141091097Y-81994707D01*
X141091030Y-81926533D01*
X141091395Y-81873765D01*
X141092252Y-81834614D01*
X141093659Y-81807285D01*
X141095675Y-81789986D01*
X141098357Y-81780926D01*
X141101764Y-81778312D01*
X141105956Y-81780351D01*
X141110429Y-81784667D01*
X141120784Y-81797602D01*
X141142842Y-81826676D01*
X141175043Y-81869759D01*
X141215826Y-81924718D01*
X141263630Y-81989423D01*
X141316895Y-82061742D01*
X141374060Y-82139544D01*
X141433563Y-82220698D01*
X141493845Y-82303072D01*
X141553345Y-82384536D01*
X141610502Y-82462957D01*
X141663755Y-82536204D01*
X141711543Y-82602147D01*
X141752307Y-82658654D01*
X141784484Y-82703593D01*
X141806515Y-82734834D01*
X141811083Y-82741466D01*
X141834004Y-82778369D01*
X141860812Y-82826359D01*
X141886211Y-82875897D01*
X141889432Y-82882577D01*
X141911110Y-82930772D01*
X141923696Y-82968334D01*
X141929426Y-83004160D01*
X141930544Y-83046200D01*
X141929910Y-83122400D01*
X143084349Y-83122400D01*
X142993185Y-83028669D01*
X142946388Y-82978775D01*
X142896101Y-82922295D01*
X142850056Y-82868026D01*
X142829631Y-82842673D01*
X142799193Y-82803128D01*
X142759138Y-82749916D01*
X142710639Y-82684667D01*
X142654865Y-82609011D01*
X142592989Y-82524577D01*
X142526181Y-82432994D01*
X142455613Y-82335892D01*
X142382455Y-82234901D01*
X142307879Y-82131650D01*
X142233056Y-82027768D01*
X142159157Y-81924885D01*
X142087354Y-81824631D01*
X142018816Y-81728636D01*
X141954716Y-81638527D01*
X141896225Y-81555936D01*
X141844514Y-81482492D01*
X141800753Y-81419824D01*
X141766115Y-81369561D01*
X141741770Y-81333334D01*
X141728889Y-81312771D01*
X141727131Y-81308668D01*
X141735090Y-81297342D01*
X141755885Y-81270162D01*
X141788153Y-81228829D01*
X141830530Y-81175044D01*
X141881653Y-81110506D01*
X141940159Y-81036918D01*
X142004686Y-80955978D01*
X142073869Y-80869388D01*
X142146347Y-80778848D01*
X142220754Y-80686060D01*
X142280483Y-80611702D01*
X143291489Y-80611702D01*
X143297398Y-80624659D01*
X143311728Y-80646908D01*
X143312775Y-80648391D01*
X143331562Y-80678544D01*
X143351209Y-80715375D01*
X143355108Y-80723511D01*
X143358644Y-80731940D01*
X143361770Y-80742059D01*
X143364514Y-80755260D01*
X143366908Y-80772938D01*
X143368981Y-80796484D01*
X143370765Y-80827293D01*
X143372288Y-80866757D01*
X143373581Y-80916269D01*
X143374674Y-80977223D01*
X143375597Y-81051011D01*
X143376381Y-81139028D01*
X143377055Y-81242665D01*
X143377650Y-81363316D01*
X143378195Y-81502374D01*
X143378721Y-81661232D01*
X143379255Y-81840089D01*
X143379794Y-82025207D01*
X143380228Y-82189145D01*
X143380491Y-82333303D01*
X143380516Y-82459079D01*
X143380235Y-82567871D01*
X143379581Y-82661077D01*
X143378486Y-82740097D01*
X143376882Y-82806328D01*
X143374703Y-82861170D01*
X143371881Y-82906021D01*
X143368349Y-82942278D01*
X143364039Y-82971341D01*
X143358883Y-82994609D01*
X143352815Y-83013479D01*
X143345767Y-83029351D01*
X143337671Y-83043622D01*
X143328460Y-83057691D01*
X143319960Y-83070158D01*
X143302824Y-83096452D01*
X143292678Y-83114037D01*
X143291489Y-83117257D01*
X143302396Y-83118334D01*
X143333589Y-83119335D01*
X143382777Y-83120235D01*
X143447667Y-83121010D01*
X143525970Y-83121637D01*
X143615393Y-83122091D01*
X143713644Y-83122349D01*
X143782555Y-83122400D01*
X143887548Y-83122180D01*
X143984390Y-83121548D01*
X144070893Y-83120549D01*
X144144868Y-83119227D01*
X144204126Y-83117626D01*
X144246480Y-83115791D01*
X144269740Y-83113765D01*
X144273622Y-83112493D01*
X144265924Y-83097591D01*
X144257926Y-83089560D01*
X144244754Y-83072434D01*
X144227515Y-83042183D01*
X144215593Y-83017622D01*
X144188955Y-82958711D01*
X144185880Y-81781845D01*
X144182805Y-80604978D01*
X143737147Y-80604978D01*
X143639330Y-80605142D01*
X143548936Y-80605611D01*
X143468370Y-80606347D01*
X143400038Y-80607316D01*
X143346344Y-80608480D01*
X143309695Y-80609803D01*
X143292496Y-80611249D01*
X143291489Y-80611702D01*
X142280483Y-80611702D01*
X142295730Y-80592722D01*
X142369910Y-80500537D01*
X142441931Y-80411204D01*
X142510431Y-80326424D01*
X142574045Y-80247898D01*
X142631412Y-80177326D01*
X142681167Y-80116409D01*
X142721948Y-80066847D01*
X142739112Y-80046178D01*
X142825404Y-79945516D01*
X142902003Y-79862259D01*
X142970817Y-79794438D01*
X143033752Y-79740089D01*
X143043133Y-79732722D01*
X143082644Y-79702117D01*
X141950884Y-79701867D01*
X141956173Y-79749844D01*
X141952870Y-79807188D01*
X141931339Y-79875463D01*
X141891365Y-79955212D01*
X141846057Y-80027495D01*
X141829839Y-80050140D01*
X141801786Y-80087696D01*
X141763570Y-80138021D01*
X141716863Y-80198973D01*
X141663339Y-80268411D01*
X141604669Y-80344194D01*
X141542525Y-80424180D01*
X141478579Y-80506228D01*
X141414505Y-80588196D01*
X141351973Y-80667943D01*
X141292657Y-80743327D01*
X141238229Y-80812207D01*
X141190361Y-80872442D01*
X141150725Y-80921889D01*
X141120994Y-80958408D01*
X141102839Y-80979858D01*
X141099780Y-80983156D01*
X141096921Y-80975149D01*
X141094707Y-80944855D01*
X141093143Y-80892556D01*
X141092233Y-80818531D01*
X141091980Y-80723063D01*
X141092387Y-80606434D01*
X141093296Y-80486445D01*
X141094618Y-80354333D01*
X141096143Y-80242594D01*
X141098119Y-80149025D01*
X141100794Y-80071419D01*
X141104418Y-80007574D01*
X141109239Y-79955283D01*
X141115506Y-79912344D01*
X141123468Y-79876551D01*
X141133373Y-79845700D01*
X141145469Y-79817586D01*
X141160007Y-79790005D01*
X141174689Y-79764966D01*
X141212686Y-79701867D01*
X140152803Y-79701867D01*
X139849966Y-79701867D01*
X139849999Y-79695617D01*
X139850805Y-79593544D01*
X139851830Y-79504633D01*
X139853100Y-79427941D01*
X139854640Y-79362527D01*
X139856476Y-79307449D01*
X139858633Y-79261765D01*
X139861137Y-79224534D01*
X139864013Y-79194813D01*
X139867287Y-79171662D01*
X139870985Y-79154139D01*
X139875131Y-79141301D01*
X139879753Y-79132208D01*
X139884874Y-79125918D01*
X139890522Y-79121488D01*
X139896721Y-79117978D01*
X139903496Y-79114445D01*
X139909492Y-79110876D01*
X139914725Y-79108300D01*
X139922901Y-79105972D01*
X139935114Y-79103878D01*
X139952459Y-79102007D01*
X139976031Y-79100347D01*
X140006923Y-79098884D01*
X140046232Y-79097608D01*
X140095050Y-79096504D01*
X140154473Y-79095561D01*
X140225596Y-79094767D01*
X140309512Y-79094109D01*
X140407317Y-79093575D01*
X140520106Y-79093153D01*
X140648971Y-79092829D01*
X140795009Y-79092592D01*
X140959314Y-79092430D01*
X141142980Y-79092330D01*
X141347103Y-79092280D01*
X141558247Y-79092267D01*
X143178600Y-79092267D01*
X143178600Y-79189054D01*
G36*
X146453429Y-79649071D02*
G01*
X146613570Y-79670245D01*
X146777510Y-79710385D01*
X146947313Y-79769889D01*
X147125043Y-79849154D01*
X147136310Y-79854699D01*
X147194005Y-79882725D01*
X147245552Y-79906802D01*
X147287191Y-79925249D01*
X147315162Y-79936386D01*
X147324733Y-79938933D01*
X147343950Y-79943941D01*
X147348561Y-79948147D01*
X147343458Y-79958580D01*
X147327418Y-79984868D01*
X147302288Y-80024257D01*
X147269914Y-80073991D01*
X147232143Y-80131315D01*
X147190822Y-80193476D01*
X147147798Y-80257718D01*
X147104917Y-80321285D01*
X147064026Y-80381425D01*
X147026971Y-80435380D01*
X146995600Y-80480397D01*
X146971759Y-80513721D01*
X146957294Y-80532597D01*
X146955309Y-80534787D01*
X146945191Y-80530138D01*
X146922850Y-80512962D01*
X146892280Y-80486440D01*
X146876536Y-80471964D01*
X146780047Y-80396682D01*
X146673336Y-80341241D01*
X146557832Y-80306141D01*
X146434962Y-80291880D01*
X146365561Y-80293051D01*
X146244423Y-80310212D01*
X146135205Y-80346094D01*
X146037582Y-80400959D01*
X145951228Y-80475070D01*
X145875815Y-80568688D01*
X145811018Y-80682076D01*
X145773601Y-80768667D01*
X145729748Y-80904366D01*
X145697428Y-81051850D01*
X145676557Y-81207314D01*
X145667051Y-81366956D01*
X145668827Y-81526973D01*
X145681803Y-81683561D01*
X145705894Y-81832918D01*
X145741018Y-81971240D01*
X145787092Y-82094724D01*
X145803373Y-82128978D01*
X145871620Y-82243064D01*
X145952079Y-82339557D01*
X146043570Y-82417670D01*
X146144911Y-82476617D01*
X146254920Y-82515612D01*
X146372415Y-82533868D01*
X146413883Y-82535211D01*
X146535441Y-82524290D01*
X146655878Y-82491474D01*
X146773666Y-82437439D01*
X146887277Y-82362865D01*
X146978685Y-82284539D01*
X147025215Y-82240008D01*
X147206483Y-82537271D01*
X147251580Y-82611433D01*
X147292819Y-82679646D01*
X147328735Y-82739459D01*
X147357866Y-82788420D01*
X147378750Y-82824079D01*
X147389924Y-82843984D01*
X147391375Y-82847079D01*
X147383146Y-82856718D01*
X147357567Y-82873999D01*
X147317873Y-82897283D01*
X147267297Y-82924934D01*
X147209074Y-82955315D01*
X147146437Y-82986790D01*
X147082621Y-83017722D01*
X147020860Y-83046473D01*
X146964388Y-83071408D01*
X146916438Y-83090889D01*
X146892986Y-83099318D01*
X146759221Y-83137133D01*
X146621327Y-83162136D01*
X146473622Y-83175140D01*
X146346833Y-83177468D01*
X146278878Y-83176373D01*
X146213277Y-83174275D01*
X146155847Y-83171434D01*
X146112403Y-83168106D01*
X146098298Y-83166422D01*
X145959284Y-83137587D01*
X145817757Y-83092468D01*
X145680275Y-83033750D01*
X145553394Y-82964120D01*
X145475889Y-82911441D01*
X145348481Y-82803239D01*
X145230178Y-82676671D01*
X145123172Y-82534866D01*
X145029652Y-82380951D01*
X144951810Y-82218053D01*
X144907956Y-82100756D01*
X144857708Y-81917128D01*
X144824209Y-81722581D01*
X144807449Y-81521325D01*
X144807416Y-81317568D01*
X144824101Y-81115521D01*
X144857493Y-80919392D01*
X144907580Y-80733391D01*
X144911397Y-80721803D01*
X144974281Y-80559750D01*
X145051028Y-80411832D01*
X145144242Y-80273865D01*
X145256527Y-80141661D01*
X145300392Y-80096399D01*
X145436534Y-79972457D01*
X145576491Y-79869915D01*
X145722411Y-79787656D01*
X145876442Y-79724564D01*
X146040732Y-79679523D01*
X146136289Y-79662033D01*
X146295023Y-79646466D01*
X146453429Y-79649071D01*
G37*
X146453429Y-79649071D02*
X146613570Y-79670245D01*
X146777510Y-79710385D01*
X146947313Y-79769889D01*
X147125043Y-79849154D01*
X147136310Y-79854699D01*
X147194005Y-79882725D01*
X147245552Y-79906802D01*
X147287191Y-79925249D01*
X147315162Y-79936386D01*
X147324733Y-79938933D01*
X147343950Y-79943941D01*
X147348561Y-79948147D01*
X147343458Y-79958580D01*
X147327418Y-79984868D01*
X147302288Y-80024257D01*
X147269914Y-80073991D01*
X147232143Y-80131315D01*
X147190822Y-80193476D01*
X147147798Y-80257718D01*
X147104917Y-80321285D01*
X147064026Y-80381425D01*
X147026971Y-80435380D01*
X146995600Y-80480397D01*
X146971759Y-80513721D01*
X146957294Y-80532597D01*
X146955309Y-80534787D01*
X146945191Y-80530138D01*
X146922850Y-80512962D01*
X146892280Y-80486440D01*
X146876536Y-80471964D01*
X146780047Y-80396682D01*
X146673336Y-80341241D01*
X146557832Y-80306141D01*
X146434962Y-80291880D01*
X146365561Y-80293051D01*
X146244423Y-80310212D01*
X146135205Y-80346094D01*
X146037582Y-80400959D01*
X145951228Y-80475070D01*
X145875815Y-80568688D01*
X145811018Y-80682076D01*
X145773601Y-80768667D01*
X145729748Y-80904366D01*
X145697428Y-81051850D01*
X145676557Y-81207314D01*
X145667051Y-81366956D01*
X145668827Y-81526973D01*
X145681803Y-81683561D01*
X145705894Y-81832918D01*
X145741018Y-81971240D01*
X145787092Y-82094724D01*
X145803373Y-82128978D01*
X145871620Y-82243064D01*
X145952079Y-82339557D01*
X146043570Y-82417670D01*
X146144911Y-82476617D01*
X146254920Y-82515612D01*
X146372415Y-82533868D01*
X146413883Y-82535211D01*
X146535441Y-82524290D01*
X146655878Y-82491474D01*
X146773666Y-82437439D01*
X146887277Y-82362865D01*
X146978685Y-82284539D01*
X147025215Y-82240008D01*
X147206483Y-82537271D01*
X147251580Y-82611433D01*
X147292819Y-82679646D01*
X147328735Y-82739459D01*
X147357866Y-82788420D01*
X147378750Y-82824079D01*
X147389924Y-82843984D01*
X147391375Y-82847079D01*
X147383146Y-82856718D01*
X147357567Y-82873999D01*
X147317873Y-82897283D01*
X147267297Y-82924934D01*
X147209074Y-82955315D01*
X147146437Y-82986790D01*
X147082621Y-83017722D01*
X147020860Y-83046473D01*
X146964388Y-83071408D01*
X146916438Y-83090889D01*
X146892986Y-83099318D01*
X146759221Y-83137133D01*
X146621327Y-83162136D01*
X146473622Y-83175140D01*
X146346833Y-83177468D01*
X146278878Y-83176373D01*
X146213277Y-83174275D01*
X146155847Y-83171434D01*
X146112403Y-83168106D01*
X146098298Y-83166422D01*
X145959284Y-83137587D01*
X145817757Y-83092468D01*
X145680275Y-83033750D01*
X145553394Y-82964120D01*
X145475889Y-82911441D01*
X145348481Y-82803239D01*
X145230178Y-82676671D01*
X145123172Y-82534866D01*
X145029652Y-82380951D01*
X144951810Y-82218053D01*
X144907956Y-82100756D01*
X144857708Y-81917128D01*
X144824209Y-81722581D01*
X144807449Y-81521325D01*
X144807416Y-81317568D01*
X144824101Y-81115521D01*
X144857493Y-80919392D01*
X144907580Y-80733391D01*
X144911397Y-80721803D01*
X144974281Y-80559750D01*
X145051028Y-80411832D01*
X145144242Y-80273865D01*
X145256527Y-80141661D01*
X145300392Y-80096399D01*
X145436534Y-79972457D01*
X145576491Y-79869915D01*
X145722411Y-79787656D01*
X145876442Y-79724564D01*
X146040732Y-79679523D01*
X146136289Y-79662033D01*
X146295023Y-79646466D01*
X146453429Y-79649071D01*
G36*
X148798574Y-80566552D02*
G01*
X148950492Y-80586567D01*
X149085756Y-80620202D01*
X149205239Y-80667725D01*
X149309815Y-80729405D01*
X149387424Y-80792965D01*
X149456265Y-80867099D01*
X149510006Y-80946871D01*
X149552910Y-81039091D01*
X149568384Y-81082161D01*
X149581244Y-81121142D01*
X149592446Y-81157289D01*
X149602120Y-81192434D01*
X149610396Y-81228410D01*
X149617403Y-81267050D01*
X149623272Y-81310185D01*
X149628131Y-81359649D01*
X149632110Y-81417273D01*
X149635340Y-81484891D01*
X149637949Y-81564334D01*
X149640067Y-81657436D01*
X149641824Y-81766027D01*
X149643349Y-81891942D01*
X149644772Y-82037012D01*
X149646025Y-82179778D01*
X149647351Y-82335968D01*
X149648556Y-82471239D01*
X149649766Y-82587246D01*
X149651106Y-82685645D01*
X149652700Y-82768093D01*
X149654675Y-82836246D01*
X149657156Y-82891760D01*
X149660269Y-82936292D01*
X149664138Y-82971498D01*
X149668889Y-82999034D01*
X149674648Y-83020556D01*
X149681539Y-83037722D01*
X149689689Y-83052186D01*
X149699223Y-83065606D01*
X149710266Y-83079638D01*
X149714566Y-83085071D01*
X149730386Y-83107910D01*
X149737422Y-83123463D01*
X149737444Y-83123922D01*
X149726567Y-83126121D01*
X149695582Y-83128147D01*
X149646957Y-83129942D01*
X149583163Y-83131451D01*
X149506669Y-83132616D01*
X149419944Y-83133380D01*
X149325457Y-83133686D01*
X149314550Y-83133689D01*
X148891657Y-83133689D01*
X148888395Y-83037622D01*
X148885133Y-82941556D01*
X148823044Y-82992543D01*
X148725714Y-83060057D01*
X148615813Y-83114749D01*
X148529349Y-83144978D01*
X148460278Y-83159666D01*
X148376925Y-83169659D01*
X148287159Y-83174646D01*
X148198845Y-83174313D01*
X148119851Y-83168351D01*
X148083622Y-83162638D01*
X147943603Y-83124776D01*
X147817178Y-83069932D01*
X147705260Y-82998924D01*
X147608762Y-82912568D01*
X147528600Y-82811679D01*
X147465687Y-82697076D01*
X147421312Y-82570984D01*
X147408978Y-82514401D01*
X147401368Y-82452202D01*
X147397739Y-82377363D01*
X147397245Y-82343467D01*
X147397310Y-82340282D01*
X148157248Y-82340282D01*
X148166541Y-82415333D01*
X148194728Y-82479160D01*
X148243197Y-82534798D01*
X148248254Y-82539211D01*
X148296548Y-82574037D01*
X148348257Y-82596620D01*
X148408989Y-82608540D01*
X148484352Y-82611383D01*
X148502459Y-82610978D01*
X148556278Y-82608325D01*
X148596308Y-82602909D01*
X148631324Y-82592745D01*
X148670103Y-82575850D01*
X148680745Y-82570672D01*
X148741396Y-82534844D01*
X148788215Y-82492212D01*
X148800952Y-82476973D01*
X148845622Y-82420462D01*
X148845622Y-82224586D01*
X148845086Y-82145939D01*
X148843396Y-82087988D01*
X148840428Y-82048875D01*
X148836057Y-82026741D01*
X148831972Y-82020274D01*
X148816047Y-82017111D01*
X148782264Y-82014488D01*
X148735340Y-82012655D01*
X148679993Y-82011857D01*
X148671106Y-82011842D01*
X148550330Y-82017096D01*
X148447660Y-82033263D01*
X148361106Y-82060961D01*
X148288681Y-82100808D01*
X148233751Y-82147758D01*
X148189204Y-82205645D01*
X148164480Y-82268693D01*
X148157248Y-82340282D01*
X147397310Y-82340282D01*
X147399178Y-82249712D01*
X147407522Y-82170812D01*
X147423768Y-82099590D01*
X147449405Y-82028864D01*
X147473401Y-81976493D01*
X147532020Y-81881196D01*
X147610117Y-81793170D01*
X147705315Y-81714017D01*
X147815238Y-81645340D01*
X147937510Y-81588741D01*
X148069755Y-81545821D01*
X148134422Y-81530882D01*
X148270604Y-81508777D01*
X148419049Y-81494194D01*
X148570505Y-81487813D01*
X148697064Y-81489445D01*
X148858950Y-81496224D01*
X148851530Y-81437245D01*
X148832238Y-81338092D01*
X148801104Y-81257372D01*
X148757269Y-81194466D01*
X148699871Y-81148756D01*
X148628048Y-81119622D01*
X148540941Y-81106447D01*
X148437686Y-81108611D01*
X148399711Y-81112612D01*
X148258520Y-81137780D01*
X148121707Y-81178814D01*
X148027178Y-81216815D01*
X147982018Y-81236190D01*
X147943585Y-81251760D01*
X147917234Y-81261405D01*
X147909546Y-81263452D01*
X147899802Y-81254374D01*
X147883083Y-81225405D01*
X147859232Y-81176217D01*
X147828093Y-81106484D01*
X147789507Y-81015879D01*
X147782910Y-81000089D01*
X147752853Y-80927772D01*
X147725874Y-80862425D01*
X147703136Y-80806906D01*
X147685806Y-80764072D01*
X147675048Y-80736781D01*
X147671941Y-80727942D01*
X147681940Y-80723187D01*
X147708217Y-80717910D01*
X147736489Y-80714231D01*
X147766646Y-80709474D01*
X147814433Y-80700028D01*
X147875612Y-80686820D01*
X147945946Y-80670776D01*
X148021194Y-80652820D01*
X148049755Y-80645797D01*
X148154816Y-80620209D01*
X148242480Y-80600147D01*
X148317068Y-80584969D01*
X148382903Y-80574035D01*
X148444307Y-80566704D01*
X148505602Y-80562335D01*
X148571110Y-80560287D01*
X148629128Y-80559889D01*
X148798574Y-80566552D01*
G37*
X148798574Y-80566552D02*
X148950492Y-80586567D01*
X149085756Y-80620202D01*
X149205239Y-80667725D01*
X149309815Y-80729405D01*
X149387424Y-80792965D01*
X149456265Y-80867099D01*
X149510006Y-80946871D01*
X149552910Y-81039091D01*
X149568384Y-81082161D01*
X149581244Y-81121142D01*
X149592446Y-81157289D01*
X149602120Y-81192434D01*
X149610396Y-81228410D01*
X149617403Y-81267050D01*
X149623272Y-81310185D01*
X149628131Y-81359649D01*
X149632110Y-81417273D01*
X149635340Y-81484891D01*
X149637949Y-81564334D01*
X149640067Y-81657436D01*
X149641824Y-81766027D01*
X149643349Y-81891942D01*
X149644772Y-82037012D01*
X149646025Y-82179778D01*
X149647351Y-82335968D01*
X149648556Y-82471239D01*
X149649766Y-82587246D01*
X149651106Y-82685645D01*
X149652700Y-82768093D01*
X149654675Y-82836246D01*
X149657156Y-82891760D01*
X149660269Y-82936292D01*
X149664138Y-82971498D01*
X149668889Y-82999034D01*
X149674648Y-83020556D01*
X149681539Y-83037722D01*
X149689689Y-83052186D01*
X149699223Y-83065606D01*
X149710266Y-83079638D01*
X149714566Y-83085071D01*
X149730386Y-83107910D01*
X149737422Y-83123463D01*
X149737444Y-83123922D01*
X149726567Y-83126121D01*
X149695582Y-83128147D01*
X149646957Y-83129942D01*
X149583163Y-83131451D01*
X149506669Y-83132616D01*
X149419944Y-83133380D01*
X149325457Y-83133686D01*
X149314550Y-83133689D01*
X148891657Y-83133689D01*
X148888395Y-83037622D01*
X148885133Y-82941556D01*
X148823044Y-82992543D01*
X148725714Y-83060057D01*
X148615813Y-83114749D01*
X148529349Y-83144978D01*
X148460278Y-83159666D01*
X148376925Y-83169659D01*
X148287159Y-83174646D01*
X148198845Y-83174313D01*
X148119851Y-83168351D01*
X148083622Y-83162638D01*
X147943603Y-83124776D01*
X147817178Y-83069932D01*
X147705260Y-82998924D01*
X147608762Y-82912568D01*
X147528600Y-82811679D01*
X147465687Y-82697076D01*
X147421312Y-82570984D01*
X147408978Y-82514401D01*
X147401368Y-82452202D01*
X147397739Y-82377363D01*
X147397245Y-82343467D01*
X147397310Y-82340282D01*
X148157248Y-82340282D01*
X148166541Y-82415333D01*
X148194728Y-82479160D01*
X148243197Y-82534798D01*
X148248254Y-82539211D01*
X148296548Y-82574037D01*
X148348257Y-82596620D01*
X148408989Y-82608540D01*
X148484352Y-82611383D01*
X148502459Y-82610978D01*
X148556278Y-82608325D01*
X148596308Y-82602909D01*
X148631324Y-82592745D01*
X148670103Y-82575850D01*
X148680745Y-82570672D01*
X148741396Y-82534844D01*
X148788215Y-82492212D01*
X148800952Y-82476973D01*
X148845622Y-82420462D01*
X148845622Y-82224586D01*
X148845086Y-82145939D01*
X148843396Y-82087988D01*
X148840428Y-82048875D01*
X148836057Y-82026741D01*
X148831972Y-82020274D01*
X148816047Y-82017111D01*
X148782264Y-82014488D01*
X148735340Y-82012655D01*
X148679993Y-82011857D01*
X148671106Y-82011842D01*
X148550330Y-82017096D01*
X148447660Y-82033263D01*
X148361106Y-82060961D01*
X148288681Y-82100808D01*
X148233751Y-82147758D01*
X148189204Y-82205645D01*
X148164480Y-82268693D01*
X148157248Y-82340282D01*
X147397310Y-82340282D01*
X147399178Y-82249712D01*
X147407522Y-82170812D01*
X147423768Y-82099590D01*
X147449405Y-82028864D01*
X147473401Y-81976493D01*
X147532020Y-81881196D01*
X147610117Y-81793170D01*
X147705315Y-81714017D01*
X147815238Y-81645340D01*
X147937510Y-81588741D01*
X148069755Y-81545821D01*
X148134422Y-81530882D01*
X148270604Y-81508777D01*
X148419049Y-81494194D01*
X148570505Y-81487813D01*
X148697064Y-81489445D01*
X148858950Y-81496224D01*
X148851530Y-81437245D01*
X148832238Y-81338092D01*
X148801104Y-81257372D01*
X148757269Y-81194466D01*
X148699871Y-81148756D01*
X148628048Y-81119622D01*
X148540941Y-81106447D01*
X148437686Y-81108611D01*
X148399711Y-81112612D01*
X148258520Y-81137780D01*
X148121707Y-81178814D01*
X148027178Y-81216815D01*
X147982018Y-81236190D01*
X147943585Y-81251760D01*
X147917234Y-81261405D01*
X147909546Y-81263452D01*
X147899802Y-81254374D01*
X147883083Y-81225405D01*
X147859232Y-81176217D01*
X147828093Y-81106484D01*
X147789507Y-81015879D01*
X147782910Y-81000089D01*
X147752853Y-80927772D01*
X147725874Y-80862425D01*
X147703136Y-80806906D01*
X147685806Y-80764072D01*
X147675048Y-80736781D01*
X147671941Y-80727942D01*
X147681940Y-80723187D01*
X147708217Y-80717910D01*
X147736489Y-80714231D01*
X147766646Y-80709474D01*
X147814433Y-80700028D01*
X147875612Y-80686820D01*
X147945946Y-80670776D01*
X148021194Y-80652820D01*
X148049755Y-80645797D01*
X148154816Y-80620209D01*
X148242480Y-80600147D01*
X148317068Y-80584969D01*
X148382903Y-80574035D01*
X148444307Y-80566704D01*
X148505602Y-80562335D01*
X148571110Y-80560287D01*
X148629128Y-80559889D01*
X148798574Y-80566552D01*
G36*
X152311507Y-81172245D02*
G01*
X152311526Y-81406662D01*
X152311552Y-81619603D01*
X152311625Y-81812168D01*
X152311782Y-81985459D01*
X152312064Y-82140576D01*
X152312509Y-82278620D01*
X152313156Y-82400692D01*
X152314045Y-82507894D01*
X152315213Y-82601326D01*
X152316701Y-82682090D01*
X152318546Y-82751286D01*
X152320789Y-82810015D01*
X152323469Y-82859379D01*
X152326623Y-82900478D01*
X152330292Y-82934413D01*
X152334513Y-82962286D01*
X152339327Y-82985198D01*
X152344773Y-83004249D01*
X152350888Y-83020540D01*
X152357712Y-83035173D01*
X152365285Y-83049249D01*
X152373645Y-83063868D01*
X152378839Y-83072974D01*
X152413104Y-83133689D01*
X151554955Y-83133689D01*
X151554955Y-83037733D01*
X151554224Y-82994370D01*
X151552272Y-82961205D01*
X151549463Y-82943424D01*
X151548221Y-82941778D01*
X151536799Y-82948662D01*
X151514084Y-82966505D01*
X151491385Y-82985879D01*
X151436800Y-83026614D01*
X151367321Y-83067617D01*
X151290270Y-83105123D01*
X151212965Y-83135364D01*
X151182113Y-83145012D01*
X151113616Y-83159578D01*
X151030764Y-83169539D01*
X150941371Y-83174583D01*
X150853248Y-83174396D01*
X150774207Y-83168666D01*
X150736511Y-83162858D01*
X150598414Y-83124797D01*
X150471113Y-83067073D01*
X150355292Y-82990211D01*
X150251637Y-82894739D01*
X150160833Y-82781179D01*
X150094031Y-82670381D01*
X150039164Y-82553625D01*
X149997163Y-82434276D01*
X149967167Y-82308283D01*
X149948311Y-82171594D01*
X149939732Y-82020158D01*
X149939006Y-81942711D01*
X149941100Y-81885934D01*
X150770217Y-81885934D01*
X150770424Y-81979002D01*
X150773337Y-82066692D01*
X150779000Y-82143772D01*
X150787455Y-82205009D01*
X150790038Y-82217350D01*
X150821840Y-82324633D01*
X150863498Y-82411658D01*
X150915363Y-82478642D01*
X150977781Y-82525805D01*
X151051100Y-82553365D01*
X151135669Y-82561541D01*
X151231835Y-82550551D01*
X151295311Y-82534829D01*
X151344454Y-82516639D01*
X151398583Y-82490791D01*
X151439244Y-82467089D01*
X151509800Y-82420721D01*
X151509800Y-81270530D01*
X151442392Y-81226962D01*
X151363867Y-81186040D01*
X151279681Y-81159389D01*
X151194557Y-81147465D01*
X151113216Y-81150722D01*
X151040380Y-81169615D01*
X151008426Y-81185184D01*
X150950501Y-81228181D01*
X150901544Y-81284953D01*
X150860390Y-81357575D01*
X150825874Y-81448121D01*
X150796833Y-81558666D01*
X150795552Y-81564533D01*
X150785381Y-81626788D01*
X150777739Y-81704594D01*
X150772670Y-81792720D01*
X150770217Y-81885934D01*
X149941100Y-81885934D01*
X149946857Y-81729895D01*
X149968802Y-81534059D01*
X150004786Y-81355332D01*
X150054759Y-81193845D01*
X150118668Y-81049726D01*
X150196462Y-80923106D01*
X150288089Y-80814115D01*
X150393497Y-80722883D01*
X150438662Y-80691932D01*
X150539611Y-80635785D01*
X150642901Y-80596174D01*
X150752989Y-80572014D01*
X150874330Y-80562219D01*
X150966836Y-80563265D01*
X151096490Y-80574231D01*
X151209084Y-80596046D01*
X151307875Y-80629714D01*
X151396121Y-80676236D01*
X151444986Y-80710448D01*
X151474353Y-80732362D01*
X151496043Y-80747333D01*
X151504253Y-80751733D01*
X151505868Y-80740904D01*
X151507159Y-80710251D01*
X151508138Y-80662526D01*
X151508817Y-80600479D01*
X151509210Y-80526862D01*
X151509330Y-80444427D01*
X151509188Y-80355925D01*
X151508797Y-80264107D01*
X151508171Y-80171724D01*
X151507320Y-80081528D01*
X151506260Y-79996271D01*
X151505001Y-79918703D01*
X151503556Y-79851576D01*
X151501938Y-79797641D01*
X151500161Y-79759650D01*
X151499669Y-79752667D01*
X151492092Y-79682251D01*
X151480531Y-79627102D01*
X151462792Y-79579981D01*
X151436682Y-79533647D01*
X151430415Y-79524067D01*
X151405983Y-79487378D01*
X152311311Y-79487378D01*
X152311507Y-81172245D01*
G37*
X152311507Y-81172245D02*
X152311526Y-81406662D01*
X152311552Y-81619603D01*
X152311625Y-81812168D01*
X152311782Y-81985459D01*
X152312064Y-82140576D01*
X152312509Y-82278620D01*
X152313156Y-82400692D01*
X152314045Y-82507894D01*
X152315213Y-82601326D01*
X152316701Y-82682090D01*
X152318546Y-82751286D01*
X152320789Y-82810015D01*
X152323469Y-82859379D01*
X152326623Y-82900478D01*
X152330292Y-82934413D01*
X152334513Y-82962286D01*
X152339327Y-82985198D01*
X152344773Y-83004249D01*
X152350888Y-83020540D01*
X152357712Y-83035173D01*
X152365285Y-83049249D01*
X152373645Y-83063868D01*
X152378839Y-83072974D01*
X152413104Y-83133689D01*
X151554955Y-83133689D01*
X151554955Y-83037733D01*
X151554224Y-82994370D01*
X151552272Y-82961205D01*
X151549463Y-82943424D01*
X151548221Y-82941778D01*
X151536799Y-82948662D01*
X151514084Y-82966505D01*
X151491385Y-82985879D01*
X151436800Y-83026614D01*
X151367321Y-83067617D01*
X151290270Y-83105123D01*
X151212965Y-83135364D01*
X151182113Y-83145012D01*
X151113616Y-83159578D01*
X151030764Y-83169539D01*
X150941371Y-83174583D01*
X150853248Y-83174396D01*
X150774207Y-83168666D01*
X150736511Y-83162858D01*
X150598414Y-83124797D01*
X150471113Y-83067073D01*
X150355292Y-82990211D01*
X150251637Y-82894739D01*
X150160833Y-82781179D01*
X150094031Y-82670381D01*
X150039164Y-82553625D01*
X149997163Y-82434276D01*
X149967167Y-82308283D01*
X149948311Y-82171594D01*
X149939732Y-82020158D01*
X149939006Y-81942711D01*
X149941100Y-81885934D01*
X150770217Y-81885934D01*
X150770424Y-81979002D01*
X150773337Y-82066692D01*
X150779000Y-82143772D01*
X150787455Y-82205009D01*
X150790038Y-82217350D01*
X150821840Y-82324633D01*
X150863498Y-82411658D01*
X150915363Y-82478642D01*
X150977781Y-82525805D01*
X151051100Y-82553365D01*
X151135669Y-82561541D01*
X151231835Y-82550551D01*
X151295311Y-82534829D01*
X151344454Y-82516639D01*
X151398583Y-82490791D01*
X151439244Y-82467089D01*
X151509800Y-82420721D01*
X151509800Y-81270530D01*
X151442392Y-81226962D01*
X151363867Y-81186040D01*
X151279681Y-81159389D01*
X151194557Y-81147465D01*
X151113216Y-81150722D01*
X151040380Y-81169615D01*
X151008426Y-81185184D01*
X150950501Y-81228181D01*
X150901544Y-81284953D01*
X150860390Y-81357575D01*
X150825874Y-81448121D01*
X150796833Y-81558666D01*
X150795552Y-81564533D01*
X150785381Y-81626788D01*
X150777739Y-81704594D01*
X150772670Y-81792720D01*
X150770217Y-81885934D01*
X149941100Y-81885934D01*
X149946857Y-81729895D01*
X149968802Y-81534059D01*
X150004786Y-81355332D01*
X150054759Y-81193845D01*
X150118668Y-81049726D01*
X150196462Y-80923106D01*
X150288089Y-80814115D01*
X150393497Y-80722883D01*
X150438662Y-80691932D01*
X150539611Y-80635785D01*
X150642901Y-80596174D01*
X150752989Y-80572014D01*
X150874330Y-80562219D01*
X150966836Y-80563265D01*
X151096490Y-80574231D01*
X151209084Y-80596046D01*
X151307875Y-80629714D01*
X151396121Y-80676236D01*
X151444986Y-80710448D01*
X151474353Y-80732362D01*
X151496043Y-80747333D01*
X151504253Y-80751733D01*
X151505868Y-80740904D01*
X151507159Y-80710251D01*
X151508138Y-80662526D01*
X151508817Y-80600479D01*
X151509210Y-80526862D01*
X151509330Y-80444427D01*
X151509188Y-80355925D01*
X151508797Y-80264107D01*
X151508171Y-80171724D01*
X151507320Y-80081528D01*
X151506260Y-79996271D01*
X151505001Y-79918703D01*
X151503556Y-79851576D01*
X151501938Y-79797641D01*
X151500161Y-79759650D01*
X151499669Y-79752667D01*
X151492092Y-79682251D01*
X151480531Y-79627102D01*
X151462792Y-79579981D01*
X151436682Y-79533647D01*
X151430415Y-79524067D01*
X151405983Y-79487378D01*
X152311311Y-79487378D01*
X152311507Y-81172245D01*
G36*
X143851957Y-78726571D02*
G01*
X143948232Y-78750809D01*
X144034816Y-78793641D01*
X144109627Y-78853419D01*
X144170582Y-78928494D01*
X144215601Y-79017220D01*
X144241864Y-79113530D01*
X144247714Y-79210795D01*
X144232860Y-79304654D01*
X144199160Y-79392511D01*
X144148472Y-79471770D01*
X144082655Y-79539836D01*
X144003566Y-79594112D01*
X143913066Y-79632002D01*
X143861800Y-79644426D01*
X143817302Y-79651947D01*
X143783001Y-79654919D01*
X143750040Y-79653094D01*
X143709566Y-79646225D01*
X143676469Y-79639250D01*
X143583053Y-79607741D01*
X143499381Y-79556617D01*
X143427335Y-79487429D01*
X143368800Y-79401728D01*
X143354852Y-79374489D01*
X143338414Y-79338122D01*
X143328106Y-79307582D01*
X143322540Y-79275450D01*
X143320331Y-79234307D01*
X143320052Y-79188222D01*
X143324139Y-79103865D01*
X143337554Y-79034586D01*
X143362744Y-78973961D01*
X143402154Y-78915567D01*
X143440702Y-78871302D01*
X143512594Y-78805484D01*
X143587687Y-78760053D01*
X143670438Y-78732850D01*
X143748072Y-78722576D01*
X143851957Y-78726571D01*
G37*
X143851957Y-78726571D02*
X143948232Y-78750809D01*
X144034816Y-78793641D01*
X144109627Y-78853419D01*
X144170582Y-78928494D01*
X144215601Y-79017220D01*
X144241864Y-79113530D01*
X144247714Y-79210795D01*
X144232860Y-79304654D01*
X144199160Y-79392511D01*
X144148472Y-79471770D01*
X144082655Y-79539836D01*
X144003566Y-79594112D01*
X143913066Y-79632002D01*
X143861800Y-79644426D01*
X143817302Y-79651947D01*
X143783001Y-79654919D01*
X143750040Y-79653094D01*
X143709566Y-79646225D01*
X143676469Y-79639250D01*
X143583053Y-79607741D01*
X143499381Y-79556617D01*
X143427335Y-79487429D01*
X143368800Y-79401728D01*
X143354852Y-79374489D01*
X143338414Y-79338122D01*
X143328106Y-79307582D01*
X143322540Y-79275450D01*
X143320331Y-79234307D01*
X143320052Y-79188222D01*
X143324139Y-79103865D01*
X143337554Y-79034586D01*
X143362744Y-78973961D01*
X143402154Y-78915567D01*
X143440702Y-78871302D01*
X143512594Y-78805484D01*
X143587687Y-78760053D01*
X143670438Y-78732850D01*
X143748072Y-78722576D01*
X143851957Y-78726571D01*
G36*
X140003629Y-83969066D02*
G01*
X140043111Y-83969467D01*
X140158800Y-83972259D01*
X140255689Y-83980550D01*
X140337081Y-83995232D01*
X140406277Y-84017193D01*
X140466580Y-84047322D01*
X140521292Y-84086510D01*
X140540833Y-84103532D01*
X140573250Y-84143363D01*
X140602480Y-84197413D01*
X140625009Y-84257323D01*
X140637321Y-84314739D01*
X140638600Y-84335956D01*
X140630583Y-84394769D01*
X140609101Y-84459013D01*
X140578001Y-84519821D01*
X140541134Y-84568330D01*
X140535146Y-84574182D01*
X140484421Y-84615321D01*
X140428875Y-84647435D01*
X140365304Y-84671365D01*
X140290506Y-84687953D01*
X140201278Y-84698041D01*
X140094418Y-84702469D01*
X140045472Y-84702845D01*
X139983238Y-84702545D01*
X139939472Y-84701292D01*
X139910069Y-84698554D01*
X139890921Y-84693801D01*
X139877923Y-84686501D01*
X139870955Y-84680267D01*
X139864374Y-84672694D01*
X139859212Y-84662924D01*
X139855297Y-84648340D01*
X139852457Y-84626326D01*
X139850520Y-84594264D01*
X139849316Y-84549536D01*
X139848672Y-84489526D01*
X139848417Y-84411617D01*
X139848378Y-84335956D01*
X139848130Y-84235041D01*
X139848183Y-84154427D01*
X139849143Y-84115822D01*
X139995133Y-84115822D01*
X139995133Y-84556089D01*
X140088266Y-84556004D01*
X140144307Y-84554396D01*
X140203001Y-84550256D01*
X140251972Y-84544464D01*
X140253462Y-84544226D01*
X140332608Y-84525090D01*
X140393998Y-84495287D01*
X140440695Y-84452878D01*
X140470365Y-84406961D01*
X140488647Y-84356026D01*
X140487229Y-84308200D01*
X140466012Y-84256933D01*
X140424511Y-84203899D01*
X140367002Y-84164600D01*
X140292250Y-84138331D01*
X140242292Y-84129035D01*
X140185584Y-84122507D01*
X140125481Y-84117782D01*
X140074361Y-84115817D01*
X140071333Y-84115808D01*
X139995133Y-84115822D01*
X139849143Y-84115822D01*
X139849740Y-84091851D01*
X139854002Y-84045055D01*
X139862170Y-84011778D01*
X139875444Y-83989759D01*
X139895026Y-83976739D01*
X139922117Y-83970457D01*
X139957918Y-83968653D01*
X140003629Y-83969066D01*
G37*
X140003629Y-83969066D02*
X140043111Y-83969467D01*
X140158800Y-83972259D01*
X140255689Y-83980550D01*
X140337081Y-83995232D01*
X140406277Y-84017193D01*
X140466580Y-84047322D01*
X140521292Y-84086510D01*
X140540833Y-84103532D01*
X140573250Y-84143363D01*
X140602480Y-84197413D01*
X140625009Y-84257323D01*
X140637321Y-84314739D01*
X140638600Y-84335956D01*
X140630583Y-84394769D01*
X140609101Y-84459013D01*
X140578001Y-84519821D01*
X140541134Y-84568330D01*
X140535146Y-84574182D01*
X140484421Y-84615321D01*
X140428875Y-84647435D01*
X140365304Y-84671365D01*
X140290506Y-84687953D01*
X140201278Y-84698041D01*
X140094418Y-84702469D01*
X140045472Y-84702845D01*
X139983238Y-84702545D01*
X139939472Y-84701292D01*
X139910069Y-84698554D01*
X139890921Y-84693801D01*
X139877923Y-84686501D01*
X139870955Y-84680267D01*
X139864374Y-84672694D01*
X139859212Y-84662924D01*
X139855297Y-84648340D01*
X139852457Y-84626326D01*
X139850520Y-84594264D01*
X139849316Y-84549536D01*
X139848672Y-84489526D01*
X139848417Y-84411617D01*
X139848378Y-84335956D01*
X139848130Y-84235041D01*
X139848183Y-84154427D01*
X139849143Y-84115822D01*
X139995133Y-84115822D01*
X139995133Y-84556089D01*
X140088266Y-84556004D01*
X140144307Y-84554396D01*
X140203001Y-84550256D01*
X140251972Y-84544464D01*
X140253462Y-84544226D01*
X140332608Y-84525090D01*
X140393998Y-84495287D01*
X140440695Y-84452878D01*
X140470365Y-84406961D01*
X140488647Y-84356026D01*
X140487229Y-84308200D01*
X140466012Y-84256933D01*
X140424511Y-84203899D01*
X140367002Y-84164600D01*
X140292250Y-84138331D01*
X140242292Y-84129035D01*
X140185584Y-84122507D01*
X140125481Y-84117782D01*
X140074361Y-84115817D01*
X140071333Y-84115808D01*
X139995133Y-84115822D01*
X139849143Y-84115822D01*
X139849740Y-84091851D01*
X139854002Y-84045055D01*
X139862170Y-84011778D01*
X139875444Y-83989759D01*
X139895026Y-83976739D01*
X139922117Y-83970457D01*
X139957918Y-83968653D01*
X140003629Y-83969066D01*
G36*
X141412206Y-83969146D02*
G01*
X141481614Y-83969518D01*
X141534003Y-83970385D01*
X141572153Y-83971946D01*
X141598841Y-83974403D01*
X141616847Y-83977957D01*
X141628951Y-83982810D01*
X141637931Y-83989161D01*
X141641182Y-83992084D01*
X141660957Y-84023142D01*
X141664518Y-84058828D01*
X141651509Y-84090510D01*
X141645494Y-84096913D01*
X141635765Y-84103121D01*
X141620099Y-84107910D01*
X141595592Y-84111514D01*
X141559339Y-84114164D01*
X141508435Y-84116095D01*
X141439974Y-84117539D01*
X141377383Y-84118418D01*
X141129666Y-84121467D01*
X141126281Y-84186378D01*
X141122895Y-84251289D01*
X141291042Y-84251289D01*
X141364041Y-84251919D01*
X141417483Y-84254553D01*
X141454372Y-84260309D01*
X141477712Y-84270304D01*
X141490506Y-84285656D01*
X141495758Y-84307482D01*
X141496555Y-84327738D01*
X141494077Y-84352592D01*
X141484723Y-84370906D01*
X141465617Y-84383637D01*
X141433882Y-84391741D01*
X141386641Y-84396176D01*
X141321017Y-84397899D01*
X141285199Y-84398045D01*
X141124022Y-84398045D01*
X141124022Y-84556089D01*
X141372378Y-84556089D01*
X141453787Y-84556202D01*
X141515658Y-84556712D01*
X141561032Y-84557870D01*
X141592946Y-84559930D01*
X141614441Y-84563146D01*
X141628557Y-84567772D01*
X141638332Y-84574059D01*
X141643311Y-84578667D01*
X141660390Y-84605560D01*
X141665889Y-84629467D01*
X141658037Y-84658667D01*
X141643311Y-84680267D01*
X141635454Y-84687066D01*
X141625312Y-84692346D01*
X141610156Y-84696298D01*
X141587259Y-84699113D01*
X141553891Y-84700982D01*
X141507325Y-84702098D01*
X141444833Y-84702651D01*
X141363686Y-84702833D01*
X141321578Y-84702845D01*
X141231402Y-84702765D01*
X141161076Y-84702398D01*
X141107871Y-84701552D01*
X141069060Y-84700036D01*
X141041913Y-84697659D01*
X141023702Y-84694229D01*
X141011700Y-84689554D01*
X141003178Y-84683444D01*
X140999844Y-84680267D01*
X140993245Y-84672670D01*
X140988073Y-84662870D01*
X140984154Y-84648239D01*
X140981316Y-84626152D01*
X140979385Y-84593982D01*
X140978188Y-84549103D01*
X140977552Y-84488889D01*
X140977303Y-84410713D01*
X140977266Y-84337923D01*
X140977300Y-84244707D01*
X140977535Y-84171431D01*
X140978170Y-84115458D01*
X140979406Y-84074151D01*
X140981444Y-84044872D01*
X140984483Y-84024984D01*
X140988723Y-84011850D01*
X140994365Y-84002832D01*
X141001609Y-83995293D01*
X141003394Y-83993612D01*
X141012055Y-83986172D01*
X141022118Y-83980409D01*
X141036375Y-83976112D01*
X141057617Y-83973064D01*
X141088636Y-83971051D01*
X141132223Y-83969860D01*
X141191169Y-83969275D01*
X141268266Y-83969083D01*
X141322999Y-83969067D01*
X141412206Y-83969146D01*
G37*
X141412206Y-83969146D02*
X141481614Y-83969518D01*
X141534003Y-83970385D01*
X141572153Y-83971946D01*
X141598841Y-83974403D01*
X141616847Y-83977957D01*
X141628951Y-83982810D01*
X141637931Y-83989161D01*
X141641182Y-83992084D01*
X141660957Y-84023142D01*
X141664518Y-84058828D01*
X141651509Y-84090510D01*
X141645494Y-84096913D01*
X141635765Y-84103121D01*
X141620099Y-84107910D01*
X141595592Y-84111514D01*
X141559339Y-84114164D01*
X141508435Y-84116095D01*
X141439974Y-84117539D01*
X141377383Y-84118418D01*
X141129666Y-84121467D01*
X141126281Y-84186378D01*
X141122895Y-84251289D01*
X141291042Y-84251289D01*
X141364041Y-84251919D01*
X141417483Y-84254553D01*
X141454372Y-84260309D01*
X141477712Y-84270304D01*
X141490506Y-84285656D01*
X141495758Y-84307482D01*
X141496555Y-84327738D01*
X141494077Y-84352592D01*
X141484723Y-84370906D01*
X141465617Y-84383637D01*
X141433882Y-84391741D01*
X141386641Y-84396176D01*
X141321017Y-84397899D01*
X141285199Y-84398045D01*
X141124022Y-84398045D01*
X141124022Y-84556089D01*
X141372378Y-84556089D01*
X141453787Y-84556202D01*
X141515658Y-84556712D01*
X141561032Y-84557870D01*
X141592946Y-84559930D01*
X141614441Y-84563146D01*
X141628557Y-84567772D01*
X141638332Y-84574059D01*
X141643311Y-84578667D01*
X141660390Y-84605560D01*
X141665889Y-84629467D01*
X141658037Y-84658667D01*
X141643311Y-84680267D01*
X141635454Y-84687066D01*
X141625312Y-84692346D01*
X141610156Y-84696298D01*
X141587259Y-84699113D01*
X141553891Y-84700982D01*
X141507325Y-84702098D01*
X141444833Y-84702651D01*
X141363686Y-84702833D01*
X141321578Y-84702845D01*
X141231402Y-84702765D01*
X141161076Y-84702398D01*
X141107871Y-84701552D01*
X141069060Y-84700036D01*
X141041913Y-84697659D01*
X141023702Y-84694229D01*
X141011700Y-84689554D01*
X141003178Y-84683444D01*
X140999844Y-84680267D01*
X140993245Y-84672670D01*
X140988073Y-84662870D01*
X140984154Y-84648239D01*
X140981316Y-84626152D01*
X140979385Y-84593982D01*
X140978188Y-84549103D01*
X140977552Y-84488889D01*
X140977303Y-84410713D01*
X140977266Y-84337923D01*
X140977300Y-84244707D01*
X140977535Y-84171431D01*
X140978170Y-84115458D01*
X140979406Y-84074151D01*
X140981444Y-84044872D01*
X140984483Y-84024984D01*
X140988723Y-84011850D01*
X140994365Y-84002832D01*
X141001609Y-83995293D01*
X141003394Y-83993612D01*
X141012055Y-83986172D01*
X141022118Y-83980409D01*
X141036375Y-83976112D01*
X141057617Y-83973064D01*
X141088636Y-83971051D01*
X141132223Y-83969860D01*
X141191169Y-83969275D01*
X141268266Y-83969083D01*
X141322999Y-83969067D01*
X141412206Y-83969146D01*
G36*
X142433297Y-83970351D02*
G01*
X142508112Y-83975581D01*
X142577694Y-83983750D01*
X142637998Y-83994550D01*
X142684980Y-84007673D01*
X142714594Y-84022813D01*
X142719140Y-84027269D01*
X142734946Y-84061850D01*
X142730153Y-84097351D01*
X142705636Y-84127725D01*
X142704466Y-84128596D01*
X142690046Y-84137954D01*
X142674992Y-84142876D01*
X142653995Y-84143473D01*
X142621743Y-84139861D01*
X142572927Y-84132154D01*
X142569000Y-84131505D01*
X142496261Y-84122569D01*
X142417783Y-84118161D01*
X142339073Y-84118119D01*
X142265639Y-84122279D01*
X142202989Y-84130479D01*
X142156630Y-84142557D01*
X142153584Y-84143771D01*
X142119952Y-84162615D01*
X142108136Y-84181685D01*
X142117386Y-84200439D01*
X142146953Y-84218337D01*
X142196089Y-84234837D01*
X142264043Y-84249396D01*
X142309355Y-84256406D01*
X142403544Y-84269889D01*
X142478456Y-84282214D01*
X142537283Y-84294449D01*
X142583215Y-84307661D01*
X142619445Y-84322917D01*
X142649162Y-84341285D01*
X142675558Y-84363831D01*
X142696770Y-84385971D01*
X142721935Y-84416819D01*
X142734319Y-84443345D01*
X142738192Y-84476026D01*
X142738333Y-84487995D01*
X142735424Y-84527712D01*
X142723798Y-84557259D01*
X142703677Y-84583486D01*
X142662784Y-84623576D01*
X142617183Y-84654149D01*
X142563487Y-84676203D01*
X142498308Y-84690735D01*
X142418256Y-84698741D01*
X142319943Y-84701218D01*
X142303711Y-84701177D01*
X142238151Y-84699818D01*
X142173134Y-84696730D01*
X142115748Y-84692356D01*
X142073078Y-84687140D01*
X142069628Y-84686541D01*
X142027204Y-84676491D01*
X141991220Y-84663796D01*
X141970850Y-84652190D01*
X141951893Y-84621572D01*
X141950573Y-84585918D01*
X141966915Y-84554144D01*
X141970571Y-84550551D01*
X141985685Y-84539876D01*
X142004585Y-84535276D01*
X142033838Y-84536059D01*
X142069349Y-84540127D01*
X142109030Y-84543762D01*
X142164655Y-84546828D01*
X142229594Y-84549053D01*
X142297215Y-84550164D01*
X142315000Y-84550237D01*
X142382872Y-84549964D01*
X142432546Y-84548646D01*
X142468390Y-84545827D01*
X142494776Y-84541050D01*
X142516074Y-84533857D01*
X142528874Y-84527867D01*
X142557000Y-84511233D01*
X142574932Y-84496168D01*
X142577553Y-84491897D01*
X142572024Y-84474263D01*
X142545740Y-84457192D01*
X142500522Y-84441458D01*
X142438192Y-84427838D01*
X142419829Y-84424804D01*
X142323910Y-84409738D01*
X142247359Y-84397146D01*
X142187220Y-84386111D01*
X142140540Y-84375720D01*
X142104363Y-84365056D01*
X142075735Y-84353205D01*
X142051702Y-84339251D01*
X142029308Y-84322281D01*
X142005598Y-84301378D01*
X141997620Y-84294049D01*
X141969647Y-84266699D01*
X141954840Y-84245029D01*
X141949048Y-84220232D01*
X141948111Y-84188983D01*
X141958425Y-84127705D01*
X141989248Y-84075640D01*
X142040405Y-84032958D01*
X142111717Y-83999825D01*
X142162600Y-83984964D01*
X142217900Y-83975366D01*
X142284147Y-83969936D01*
X142357294Y-83968367D01*
X142433297Y-83970351D01*
G37*
X142433297Y-83970351D02*
X142508112Y-83975581D01*
X142577694Y-83983750D01*
X142637998Y-83994550D01*
X142684980Y-84007673D01*
X142714594Y-84022813D01*
X142719140Y-84027269D01*
X142734946Y-84061850D01*
X142730153Y-84097351D01*
X142705636Y-84127725D01*
X142704466Y-84128596D01*
X142690046Y-84137954D01*
X142674992Y-84142876D01*
X142653995Y-84143473D01*
X142621743Y-84139861D01*
X142572927Y-84132154D01*
X142569000Y-84131505D01*
X142496261Y-84122569D01*
X142417783Y-84118161D01*
X142339073Y-84118119D01*
X142265639Y-84122279D01*
X142202989Y-84130479D01*
X142156630Y-84142557D01*
X142153584Y-84143771D01*
X142119952Y-84162615D01*
X142108136Y-84181685D01*
X142117386Y-84200439D01*
X142146953Y-84218337D01*
X142196089Y-84234837D01*
X142264043Y-84249396D01*
X142309355Y-84256406D01*
X142403544Y-84269889D01*
X142478456Y-84282214D01*
X142537283Y-84294449D01*
X142583215Y-84307661D01*
X142619445Y-84322917D01*
X142649162Y-84341285D01*
X142675558Y-84363831D01*
X142696770Y-84385971D01*
X142721935Y-84416819D01*
X142734319Y-84443345D01*
X142738192Y-84476026D01*
X142738333Y-84487995D01*
X142735424Y-84527712D01*
X142723798Y-84557259D01*
X142703677Y-84583486D01*
X142662784Y-84623576D01*
X142617183Y-84654149D01*
X142563487Y-84676203D01*
X142498308Y-84690735D01*
X142418256Y-84698741D01*
X142319943Y-84701218D01*
X142303711Y-84701177D01*
X142238151Y-84699818D01*
X142173134Y-84696730D01*
X142115748Y-84692356D01*
X142073078Y-84687140D01*
X142069628Y-84686541D01*
X142027204Y-84676491D01*
X141991220Y-84663796D01*
X141970850Y-84652190D01*
X141951893Y-84621572D01*
X141950573Y-84585918D01*
X141966915Y-84554144D01*
X141970571Y-84550551D01*
X141985685Y-84539876D01*
X142004585Y-84535276D01*
X142033838Y-84536059D01*
X142069349Y-84540127D01*
X142109030Y-84543762D01*
X142164655Y-84546828D01*
X142229594Y-84549053D01*
X142297215Y-84550164D01*
X142315000Y-84550237D01*
X142382872Y-84549964D01*
X142432546Y-84548646D01*
X142468390Y-84545827D01*
X142494776Y-84541050D01*
X142516074Y-84533857D01*
X142528874Y-84527867D01*
X142557000Y-84511233D01*
X142574932Y-84496168D01*
X142577553Y-84491897D01*
X142572024Y-84474263D01*
X142545740Y-84457192D01*
X142500522Y-84441458D01*
X142438192Y-84427838D01*
X142419829Y-84424804D01*
X142323910Y-84409738D01*
X142247359Y-84397146D01*
X142187220Y-84386111D01*
X142140540Y-84375720D01*
X142104363Y-84365056D01*
X142075735Y-84353205D01*
X142051702Y-84339251D01*
X142029308Y-84322281D01*
X142005598Y-84301378D01*
X141997620Y-84294049D01*
X141969647Y-84266699D01*
X141954840Y-84245029D01*
X141949048Y-84220232D01*
X141948111Y-84188983D01*
X141958425Y-84127705D01*
X141989248Y-84075640D01*
X142040405Y-84032958D01*
X142111717Y-83999825D01*
X142162600Y-83984964D01*
X142217900Y-83975366D01*
X142284147Y-83969936D01*
X142357294Y-83968367D01*
X142433297Y-83970351D01*
G36*
X143201178Y-83991645D02*
G01*
X143207758Y-83999218D01*
X143212921Y-84008987D01*
X143216836Y-84023571D01*
X143219676Y-84045585D01*
X143221613Y-84077648D01*
X143222817Y-84122375D01*
X143223461Y-84182385D01*
X143223716Y-84260294D01*
X143223755Y-84335956D01*
X143223686Y-84429802D01*
X143223362Y-84503689D01*
X143222614Y-84560232D01*
X143221268Y-84602049D01*
X143219154Y-84631757D01*
X143216100Y-84651973D01*
X143211934Y-84665314D01*
X143206484Y-84674398D01*
X143201178Y-84680267D01*
X143168174Y-84699947D01*
X143133009Y-84698181D01*
X143101545Y-84676717D01*
X143094316Y-84668337D01*
X143088666Y-84658614D01*
X143084401Y-84644861D01*
X143081327Y-84624389D01*
X143079248Y-84594512D01*
X143077970Y-84552541D01*
X143077299Y-84495789D01*
X143077041Y-84421567D01*
X143077000Y-84337537D01*
X143077000Y-84024485D01*
X143104709Y-83996776D01*
X143138863Y-83973463D01*
X143171994Y-83972623D01*
X143201178Y-83991645D01*
G37*
X143201178Y-83991645D02*
X143207758Y-83999218D01*
X143212921Y-84008987D01*
X143216836Y-84023571D01*
X143219676Y-84045585D01*
X143221613Y-84077648D01*
X143222817Y-84122375D01*
X143223461Y-84182385D01*
X143223716Y-84260294D01*
X143223755Y-84335956D01*
X143223686Y-84429802D01*
X143223362Y-84503689D01*
X143222614Y-84560232D01*
X143221268Y-84602049D01*
X143219154Y-84631757D01*
X143216100Y-84651973D01*
X143211934Y-84665314D01*
X143206484Y-84674398D01*
X143201178Y-84680267D01*
X143168174Y-84699947D01*
X143133009Y-84698181D01*
X143101545Y-84676717D01*
X143094316Y-84668337D01*
X143088666Y-84658614D01*
X143084401Y-84644861D01*
X143081327Y-84624389D01*
X143079248Y-84594512D01*
X143077970Y-84552541D01*
X143077299Y-84495789D01*
X143077041Y-84421567D01*
X143077000Y-84337537D01*
X143077000Y-84024485D01*
X143104709Y-83996776D01*
X143138863Y-83973463D01*
X143171994Y-83972623D01*
X143201178Y-83991645D01*
G36*
X144174919Y-83974599D02*
G01*
X144243435Y-83986095D01*
X144296057Y-84003967D01*
X144330292Y-84027499D01*
X144339621Y-84040924D01*
X144349107Y-84072148D01*
X144342723Y-84100395D01*
X144322570Y-84127182D01*
X144291255Y-84139713D01*
X144245817Y-84138696D01*
X144210674Y-84131906D01*
X144132581Y-84118971D01*
X144052774Y-84117742D01*
X143963445Y-84128241D01*
X143938771Y-84132690D01*
X143855709Y-84156108D01*
X143790727Y-84190945D01*
X143744539Y-84236604D01*
X143717855Y-84292494D01*
X143712337Y-84321388D01*
X143715949Y-84380012D01*
X143739271Y-84431879D01*
X143780176Y-84475978D01*
X143836541Y-84511299D01*
X143906240Y-84536829D01*
X143987148Y-84551559D01*
X144077140Y-84554478D01*
X144174090Y-84544575D01*
X144179564Y-84543641D01*
X144218125Y-84536459D01*
X144239506Y-84529521D01*
X144248773Y-84519227D01*
X144250994Y-84501976D01*
X144251044Y-84492841D01*
X144251044Y-84454489D01*
X144182569Y-84454489D01*
X144122100Y-84450347D01*
X144080835Y-84437147D01*
X144056825Y-84413730D01*
X144048123Y-84378936D01*
X144048017Y-84374394D01*
X144053108Y-84344654D01*
X144070567Y-84323419D01*
X144103061Y-84309366D01*
X144153257Y-84301173D01*
X144201877Y-84298161D01*
X144272544Y-84296433D01*
X144323802Y-84299070D01*
X144358761Y-84308800D01*
X144380530Y-84328353D01*
X144392220Y-84360456D01*
X144396940Y-84407838D01*
X144397800Y-84470071D01*
X144396391Y-84539535D01*
X144392152Y-84586786D01*
X144385064Y-84612012D01*
X144383689Y-84613988D01*
X144344772Y-84645508D01*
X144287714Y-84670470D01*
X144216131Y-84688340D01*
X144133642Y-84698586D01*
X144043861Y-84700673D01*
X143950408Y-84694068D01*
X143895444Y-84685956D01*
X143809234Y-84661554D01*
X143729108Y-84621662D01*
X143662023Y-84569887D01*
X143651827Y-84559539D01*
X143618698Y-84516035D01*
X143588806Y-84462118D01*
X143565643Y-84405592D01*
X143552702Y-84354259D01*
X143551142Y-84334544D01*
X143557782Y-84293419D01*
X143575432Y-84242252D01*
X143600703Y-84188394D01*
X143630211Y-84139195D01*
X143656281Y-84106334D01*
X143717235Y-84057452D01*
X143796031Y-84018545D01*
X143889843Y-83990494D01*
X143995850Y-83974179D01*
X144093000Y-83970192D01*
X144174919Y-83974599D01*
G37*
X144174919Y-83974599D02*
X144243435Y-83986095D01*
X144296057Y-84003967D01*
X144330292Y-84027499D01*
X144339621Y-84040924D01*
X144349107Y-84072148D01*
X144342723Y-84100395D01*
X144322570Y-84127182D01*
X144291255Y-84139713D01*
X144245817Y-84138696D01*
X144210674Y-84131906D01*
X144132581Y-84118971D01*
X144052774Y-84117742D01*
X143963445Y-84128241D01*
X143938771Y-84132690D01*
X143855709Y-84156108D01*
X143790727Y-84190945D01*
X143744539Y-84236604D01*
X143717855Y-84292494D01*
X143712337Y-84321388D01*
X143715949Y-84380012D01*
X143739271Y-84431879D01*
X143780176Y-84475978D01*
X143836541Y-84511299D01*
X143906240Y-84536829D01*
X143987148Y-84551559D01*
X144077140Y-84554478D01*
X144174090Y-84544575D01*
X144179564Y-84543641D01*
X144218125Y-84536459D01*
X144239506Y-84529521D01*
X144248773Y-84519227D01*
X144250994Y-84501976D01*
X144251044Y-84492841D01*
X144251044Y-84454489D01*
X144182569Y-84454489D01*
X144122100Y-84450347D01*
X144080835Y-84437147D01*
X144056825Y-84413730D01*
X144048123Y-84378936D01*
X144048017Y-84374394D01*
X144053108Y-84344654D01*
X144070567Y-84323419D01*
X144103061Y-84309366D01*
X144153257Y-84301173D01*
X144201877Y-84298161D01*
X144272544Y-84296433D01*
X144323802Y-84299070D01*
X144358761Y-84308800D01*
X144380530Y-84328353D01*
X144392220Y-84360456D01*
X144396940Y-84407838D01*
X144397800Y-84470071D01*
X144396391Y-84539535D01*
X144392152Y-84586786D01*
X144385064Y-84612012D01*
X144383689Y-84613988D01*
X144344772Y-84645508D01*
X144287714Y-84670470D01*
X144216131Y-84688340D01*
X144133642Y-84698586D01*
X144043861Y-84700673D01*
X143950408Y-84694068D01*
X143895444Y-84685956D01*
X143809234Y-84661554D01*
X143729108Y-84621662D01*
X143662023Y-84569887D01*
X143651827Y-84559539D01*
X143618698Y-84516035D01*
X143588806Y-84462118D01*
X143565643Y-84405592D01*
X143552702Y-84354259D01*
X143551142Y-84334544D01*
X143557782Y-84293419D01*
X143575432Y-84242252D01*
X143600703Y-84188394D01*
X143630211Y-84139195D01*
X143656281Y-84106334D01*
X143717235Y-84057452D01*
X143796031Y-84018545D01*
X143889843Y-83990494D01*
X143995850Y-83974179D01*
X144093000Y-83970192D01*
X144174919Y-83974599D01*
G36*
X144824886Y-83973448D02*
G01*
X144848452Y-83987273D01*
X144879265Y-84009881D01*
X144918922Y-84042338D01*
X144969020Y-84085708D01*
X145031157Y-84141058D01*
X145106928Y-84209451D01*
X145193666Y-84288084D01*
X145374289Y-84451878D01*
X145379933Y-84232029D01*
X145381971Y-84156351D01*
X145383937Y-84099994D01*
X145386266Y-84059706D01*
X145389394Y-84032235D01*
X145393755Y-84014329D01*
X145399784Y-84002737D01*
X145407916Y-83994208D01*
X145412228Y-83990623D01*
X145446759Y-83971670D01*
X145479617Y-83974441D01*
X145505682Y-83990633D01*
X145532333Y-84012199D01*
X145535648Y-84327151D01*
X145536565Y-84419779D01*
X145537032Y-84492544D01*
X145536887Y-84548161D01*
X145535968Y-84589342D01*
X145534113Y-84618803D01*
X145531161Y-84639255D01*
X145526950Y-84653413D01*
X145521318Y-84663991D01*
X145515073Y-84672474D01*
X145501561Y-84688207D01*
X145488117Y-84698636D01*
X145472876Y-84702639D01*
X145453974Y-84699094D01*
X145429545Y-84686879D01*
X145397727Y-84664871D01*
X145356652Y-84631949D01*
X145304458Y-84586991D01*
X145239278Y-84528875D01*
X145165444Y-84462099D01*
X144900155Y-84221458D01*
X144894511Y-84440589D01*
X144892469Y-84516128D01*
X144890498Y-84572354D01*
X144888161Y-84612524D01*
X144885019Y-84639896D01*
X144880636Y-84657728D01*
X144874576Y-84669279D01*
X144866400Y-84677807D01*
X144862216Y-84681282D01*
X144825235Y-84700372D01*
X144790292Y-84697493D01*
X144759864Y-84673100D01*
X144752903Y-84663286D01*
X144747477Y-84651826D01*
X144743397Y-84635968D01*
X144740471Y-84612963D01*
X144738508Y-84580062D01*
X144737317Y-84534516D01*
X144736708Y-84473573D01*
X144736489Y-84394486D01*
X144736466Y-84335956D01*
X144736540Y-84244407D01*
X144736887Y-84172687D01*
X144737699Y-84118045D01*
X144739167Y-84077732D01*
X144741481Y-84048998D01*
X144744833Y-84029093D01*
X144749412Y-84015268D01*
X144755411Y-84004772D01*
X144759864Y-83998811D01*
X144771150Y-83984691D01*
X144781699Y-83974029D01*
X144793107Y-83967892D01*
X144806970Y-83967343D01*
X144824886Y-83973448D01*
G37*
X144824886Y-83973448D02*
X144848452Y-83987273D01*
X144879265Y-84009881D01*
X144918922Y-84042338D01*
X144969020Y-84085708D01*
X145031157Y-84141058D01*
X145106928Y-84209451D01*
X145193666Y-84288084D01*
X145374289Y-84451878D01*
X145379933Y-84232029D01*
X145381971Y-84156351D01*
X145383937Y-84099994D01*
X145386266Y-84059706D01*
X145389394Y-84032235D01*
X145393755Y-84014329D01*
X145399784Y-84002737D01*
X145407916Y-83994208D01*
X145412228Y-83990623D01*
X145446759Y-83971670D01*
X145479617Y-83974441D01*
X145505682Y-83990633D01*
X145532333Y-84012199D01*
X145535648Y-84327151D01*
X145536565Y-84419779D01*
X145537032Y-84492544D01*
X145536887Y-84548161D01*
X145535968Y-84589342D01*
X145534113Y-84618803D01*
X145531161Y-84639255D01*
X145526950Y-84653413D01*
X145521318Y-84663991D01*
X145515073Y-84672474D01*
X145501561Y-84688207D01*
X145488117Y-84698636D01*
X145472876Y-84702639D01*
X145453974Y-84699094D01*
X145429545Y-84686879D01*
X145397727Y-84664871D01*
X145356652Y-84631949D01*
X145304458Y-84586991D01*
X145239278Y-84528875D01*
X145165444Y-84462099D01*
X144900155Y-84221458D01*
X144894511Y-84440589D01*
X144892469Y-84516128D01*
X144890498Y-84572354D01*
X144888161Y-84612524D01*
X144885019Y-84639896D01*
X144880636Y-84657728D01*
X144874576Y-84669279D01*
X144866400Y-84677807D01*
X144862216Y-84681282D01*
X144825235Y-84700372D01*
X144790292Y-84697493D01*
X144759864Y-84673100D01*
X144752903Y-84663286D01*
X144747477Y-84651826D01*
X144743397Y-84635968D01*
X144740471Y-84612963D01*
X144738508Y-84580062D01*
X144737317Y-84534516D01*
X144736708Y-84473573D01*
X144736489Y-84394486D01*
X144736466Y-84335956D01*
X144736540Y-84244407D01*
X144736887Y-84172687D01*
X144737699Y-84118045D01*
X144739167Y-84077732D01*
X144741481Y-84048998D01*
X144744833Y-84029093D01*
X144749412Y-84015268D01*
X144755411Y-84004772D01*
X144759864Y-83998811D01*
X144771150Y-83984691D01*
X144781699Y-83974029D01*
X144793107Y-83967892D01*
X144806970Y-83967343D01*
X144824886Y-83973448D01*
G36*
X146355343Y-83969260D02*
G01*
X146431701Y-83970174D01*
X146490217Y-83972311D01*
X146533255Y-83976175D01*
X146563183Y-83982267D01*
X146582368Y-83991090D01*
X146593176Y-84003146D01*
X146597973Y-84018939D01*
X146599127Y-84038970D01*
X146599133Y-84041335D01*
X146598131Y-84063992D01*
X146593396Y-84081503D01*
X146582333Y-84094574D01*
X146562348Y-84103913D01*
X146530846Y-84110227D01*
X146485232Y-84114222D01*
X146422913Y-84116606D01*
X146341293Y-84118086D01*
X146316277Y-84118414D01*
X146074200Y-84121467D01*
X146070814Y-84186378D01*
X146067429Y-84251289D01*
X146235576Y-84251289D01*
X146301266Y-84251531D01*
X146348172Y-84252556D01*
X146380083Y-84254811D01*
X146400791Y-84258742D01*
X146414084Y-84264798D01*
X146423755Y-84273424D01*
X146423817Y-84273493D01*
X146441356Y-84307112D01*
X146440722Y-84343448D01*
X146422314Y-84374423D01*
X146418671Y-84377607D01*
X146405741Y-84385812D01*
X146388024Y-84391521D01*
X146361570Y-84395162D01*
X146322432Y-84397167D01*
X146266662Y-84397964D01*
X146230994Y-84398045D01*
X146068555Y-84398045D01*
X146068555Y-84556089D01*
X146315161Y-84556089D01*
X146396580Y-84556231D01*
X146458410Y-84556814D01*
X146503637Y-84558068D01*
X146535248Y-84560227D01*
X146556231Y-84563523D01*
X146569573Y-84568189D01*
X146578261Y-84574457D01*
X146580450Y-84576733D01*
X146596614Y-84608280D01*
X146597797Y-84644168D01*
X146584536Y-84675285D01*
X146574043Y-84685271D01*
X146563129Y-84690769D01*
X146546217Y-84695022D01*
X146520633Y-84698180D01*
X146483701Y-84700392D01*
X146432746Y-84701806D01*
X146365094Y-84702572D01*
X146278069Y-84702838D01*
X146258394Y-84702845D01*
X146169911Y-84702787D01*
X146101227Y-84702467D01*
X146049564Y-84701667D01*
X146012145Y-84700167D01*
X145986190Y-84697749D01*
X145968922Y-84694194D01*
X145957562Y-84689282D01*
X145949332Y-84682795D01*
X145944817Y-84678138D01*
X145938021Y-84669889D01*
X145932712Y-84659669D01*
X145928706Y-84644800D01*
X145925821Y-84622602D01*
X145923874Y-84590393D01*
X145922681Y-84545496D01*
X145922061Y-84485228D01*
X145921829Y-84406911D01*
X145921800Y-84340994D01*
X145921871Y-84248628D01*
X145922208Y-84176117D01*
X145922998Y-84120737D01*
X145924426Y-84079765D01*
X145926679Y-84050478D01*
X145929943Y-84030153D01*
X145934404Y-84016066D01*
X145940248Y-84005495D01*
X145945197Y-83998811D01*
X145968594Y-83969067D01*
X146258774Y-83969067D01*
X146355343Y-83969260D01*
G37*
X146355343Y-83969260D02*
X146431701Y-83970174D01*
X146490217Y-83972311D01*
X146533255Y-83976175D01*
X146563183Y-83982267D01*
X146582368Y-83991090D01*
X146593176Y-84003146D01*
X146597973Y-84018939D01*
X146599127Y-84038970D01*
X146599133Y-84041335D01*
X146598131Y-84063992D01*
X146593396Y-84081503D01*
X146582333Y-84094574D01*
X146562348Y-84103913D01*
X146530846Y-84110227D01*
X146485232Y-84114222D01*
X146422913Y-84116606D01*
X146341293Y-84118086D01*
X146316277Y-84118414D01*
X146074200Y-84121467D01*
X146070814Y-84186378D01*
X146067429Y-84251289D01*
X146235576Y-84251289D01*
X146301266Y-84251531D01*
X146348172Y-84252556D01*
X146380083Y-84254811D01*
X146400791Y-84258742D01*
X146414084Y-84264798D01*
X146423755Y-84273424D01*
X146423817Y-84273493D01*
X146441356Y-84307112D01*
X146440722Y-84343448D01*
X146422314Y-84374423D01*
X146418671Y-84377607D01*
X146405741Y-84385812D01*
X146388024Y-84391521D01*
X146361570Y-84395162D01*
X146322432Y-84397167D01*
X146266662Y-84397964D01*
X146230994Y-84398045D01*
X146068555Y-84398045D01*
X146068555Y-84556089D01*
X146315161Y-84556089D01*
X146396580Y-84556231D01*
X146458410Y-84556814D01*
X146503637Y-84558068D01*
X146535248Y-84560227D01*
X146556231Y-84563523D01*
X146569573Y-84568189D01*
X146578261Y-84574457D01*
X146580450Y-84576733D01*
X146596614Y-84608280D01*
X146597797Y-84644168D01*
X146584536Y-84675285D01*
X146574043Y-84685271D01*
X146563129Y-84690769D01*
X146546217Y-84695022D01*
X146520633Y-84698180D01*
X146483701Y-84700392D01*
X146432746Y-84701806D01*
X146365094Y-84702572D01*
X146278069Y-84702838D01*
X146258394Y-84702845D01*
X146169911Y-84702787D01*
X146101227Y-84702467D01*
X146049564Y-84701667D01*
X146012145Y-84700167D01*
X145986190Y-84697749D01*
X145968922Y-84694194D01*
X145957562Y-84689282D01*
X145949332Y-84682795D01*
X145944817Y-84678138D01*
X145938021Y-84669889D01*
X145932712Y-84659669D01*
X145928706Y-84644800D01*
X145925821Y-84622602D01*
X145923874Y-84590393D01*
X145922681Y-84545496D01*
X145922061Y-84485228D01*
X145921829Y-84406911D01*
X145921800Y-84340994D01*
X145921871Y-84248628D01*
X145922208Y-84176117D01*
X145922998Y-84120737D01*
X145924426Y-84079765D01*
X145926679Y-84050478D01*
X145929943Y-84030153D01*
X145934404Y-84016066D01*
X145940248Y-84005495D01*
X145945197Y-83998811D01*
X145968594Y-83969067D01*
X146258774Y-83969067D01*
X146355343Y-83969260D01*
G36*
X147143309Y-83969275D02*
G01*
X147272288Y-83973636D01*
X147381991Y-83986861D01*
X147474226Y-84009741D01*
X147550802Y-84043070D01*
X147613527Y-84087638D01*
X147664212Y-84144236D01*
X147704663Y-84213658D01*
X147705459Y-84215351D01*
X147729601Y-84277483D01*
X147738203Y-84332509D01*
X147731231Y-84387887D01*
X147708654Y-84451073D01*
X147704372Y-84460689D01*
X147675172Y-84516966D01*
X147642356Y-84560451D01*
X147600002Y-84597417D01*
X147542190Y-84634135D01*
X147538831Y-84636052D01*
X147488504Y-84660227D01*
X147431621Y-84678282D01*
X147364527Y-84690839D01*
X147283565Y-84698522D01*
X147185082Y-84701953D01*
X147150286Y-84702251D01*
X146984594Y-84702845D01*
X146961197Y-84673100D01*
X146954257Y-84663319D01*
X146948842Y-84651897D01*
X146944765Y-84636095D01*
X146941837Y-84613175D01*
X146939867Y-84580396D01*
X146939225Y-84556089D01*
X147095844Y-84556089D01*
X147189726Y-84556089D01*
X147244664Y-84554483D01*
X147301060Y-84550255D01*
X147347345Y-84544292D01*
X147350139Y-84543790D01*
X147432348Y-84521736D01*
X147496114Y-84488600D01*
X147543452Y-84442847D01*
X147576382Y-84382939D01*
X147582108Y-84367061D01*
X147587721Y-84342333D01*
X147585291Y-84317902D01*
X147573467Y-84285400D01*
X147566340Y-84269434D01*
X147543000Y-84227006D01*
X147514880Y-84197240D01*
X147483940Y-84176511D01*
X147421966Y-84149537D01*
X147342651Y-84129998D01*
X147250253Y-84118746D01*
X147183333Y-84116270D01*
X147095844Y-84115822D01*
X147095844Y-84556089D01*
X146939225Y-84556089D01*
X146938668Y-84535021D01*
X146938050Y-84474311D01*
X146937825Y-84395526D01*
X146937800Y-84333920D01*
X146937800Y-84024485D01*
X146965509Y-83996776D01*
X146977806Y-83985544D01*
X146991103Y-83977853D01*
X147009672Y-83973040D01*
X147037786Y-83970446D01*
X147079717Y-83969410D01*
X147139737Y-83969270D01*
X147143309Y-83969275D01*
G37*
X147143309Y-83969275D02*
X147272288Y-83973636D01*
X147381991Y-83986861D01*
X147474226Y-84009741D01*
X147550802Y-84043070D01*
X147613527Y-84087638D01*
X147664212Y-84144236D01*
X147704663Y-84213658D01*
X147705459Y-84215351D01*
X147729601Y-84277483D01*
X147738203Y-84332509D01*
X147731231Y-84387887D01*
X147708654Y-84451073D01*
X147704372Y-84460689D01*
X147675172Y-84516966D01*
X147642356Y-84560451D01*
X147600002Y-84597417D01*
X147542190Y-84634135D01*
X147538831Y-84636052D01*
X147488504Y-84660227D01*
X147431621Y-84678282D01*
X147364527Y-84690839D01*
X147283565Y-84698522D01*
X147185082Y-84701953D01*
X147150286Y-84702251D01*
X146984594Y-84702845D01*
X146961197Y-84673100D01*
X146954257Y-84663319D01*
X146948842Y-84651897D01*
X146944765Y-84636095D01*
X146941837Y-84613175D01*
X146939867Y-84580396D01*
X146939225Y-84556089D01*
X147095844Y-84556089D01*
X147189726Y-84556089D01*
X147244664Y-84554483D01*
X147301060Y-84550255D01*
X147347345Y-84544292D01*
X147350139Y-84543790D01*
X147432348Y-84521736D01*
X147496114Y-84488600D01*
X147543452Y-84442847D01*
X147576382Y-84382939D01*
X147582108Y-84367061D01*
X147587721Y-84342333D01*
X147585291Y-84317902D01*
X147573467Y-84285400D01*
X147566340Y-84269434D01*
X147543000Y-84227006D01*
X147514880Y-84197240D01*
X147483940Y-84176511D01*
X147421966Y-84149537D01*
X147342651Y-84129998D01*
X147250253Y-84118746D01*
X147183333Y-84116270D01*
X147095844Y-84115822D01*
X147095844Y-84556089D01*
X146939225Y-84556089D01*
X146938668Y-84535021D01*
X146938050Y-84474311D01*
X146937825Y-84395526D01*
X146937800Y-84333920D01*
X146937800Y-84024485D01*
X146965509Y-83996776D01*
X146977806Y-83985544D01*
X146991103Y-83977853D01*
X147009672Y-83973040D01*
X147037786Y-83970446D01*
X147079717Y-83969410D01*
X147139737Y-83969270D01*
X147143309Y-83969275D01*
G36*
X149869665Y-83971034D02*
G01*
X149889255Y-83978035D01*
X149890010Y-83978377D01*
X149916613Y-83998678D01*
X149931270Y-84019561D01*
X149934138Y-84029352D01*
X149933996Y-84042361D01*
X149929961Y-84060895D01*
X149921146Y-84087257D01*
X149906669Y-84123752D01*
X149885645Y-84172687D01*
X149857188Y-84236365D01*
X149820415Y-84317093D01*
X149800175Y-84361216D01*
X149763625Y-84439985D01*
X149729315Y-84512423D01*
X149698552Y-84575880D01*
X149672648Y-84627708D01*
X149652910Y-84665259D01*
X149640650Y-84685884D01*
X149638224Y-84688733D01*
X149607183Y-84701302D01*
X149572121Y-84699619D01*
X149544000Y-84684332D01*
X149542854Y-84683089D01*
X149531668Y-84666154D01*
X149512904Y-84633170D01*
X149488875Y-84588380D01*
X149461897Y-84536032D01*
X149452201Y-84516742D01*
X149379014Y-84370150D01*
X149299240Y-84529393D01*
X149270767Y-84584415D01*
X149244350Y-84632132D01*
X149222148Y-84668893D01*
X149206319Y-84691044D01*
X149200954Y-84695741D01*
X149159257Y-84702102D01*
X149124849Y-84688733D01*
X149114728Y-84674446D01*
X149097214Y-84642692D01*
X149073735Y-84596597D01*
X149045720Y-84539285D01*
X149014599Y-84473880D01*
X148981799Y-84403507D01*
X148948750Y-84331291D01*
X148916881Y-84260355D01*
X148887619Y-84193825D01*
X148862395Y-84134826D01*
X148842636Y-84086481D01*
X148829772Y-84051915D01*
X148825231Y-84034253D01*
X148825277Y-84033613D01*
X148836326Y-84011388D01*
X148858410Y-83988753D01*
X148859710Y-83987768D01*
X148886853Y-83972425D01*
X148911958Y-83972574D01*
X148921368Y-83975466D01*
X148932834Y-83981718D01*
X148945010Y-83994014D01*
X148959357Y-84014908D01*
X148977336Y-84046949D01*
X149000407Y-84092688D01*
X149030030Y-84154677D01*
X149056745Y-84211898D01*
X149087480Y-84278226D01*
X149115021Y-84337874D01*
X149137938Y-84387725D01*
X149154798Y-84424664D01*
X149164173Y-84445573D01*
X149165540Y-84448845D01*
X149171689Y-84443497D01*
X149185822Y-84421109D01*
X149206057Y-84384946D01*
X149230515Y-84338277D01*
X149240248Y-84319022D01*
X149273217Y-84254004D01*
X149298643Y-84206654D01*
X149318612Y-84174219D01*
X149335210Y-84153946D01*
X149350524Y-84143082D01*
X149366640Y-84138875D01*
X149377143Y-84138400D01*
X149395670Y-84140042D01*
X149411904Y-84146831D01*
X149428035Y-84161566D01*
X149446251Y-84187044D01*
X149468739Y-84226061D01*
X149497689Y-84281414D01*
X149513662Y-84312903D01*
X149539570Y-84363087D01*
X149562167Y-84404704D01*
X149579458Y-84434242D01*
X149589450Y-84448189D01*
X149590809Y-84448770D01*
X149597261Y-84437793D01*
X149611708Y-84409290D01*
X149632703Y-84366244D01*
X149658797Y-84311638D01*
X149688546Y-84248454D01*
X149703180Y-84217071D01*
X149741250Y-84136078D01*
X149771905Y-84073756D01*
X149796737Y-84028071D01*
X149817337Y-83996989D01*
X149835298Y-83978478D01*
X149852210Y-83970504D01*
X149869665Y-83971034D01*
G37*
X149869665Y-83971034D02*
X149889255Y-83978035D01*
X149890010Y-83978377D01*
X149916613Y-83998678D01*
X149931270Y-84019561D01*
X149934138Y-84029352D01*
X149933996Y-84042361D01*
X149929961Y-84060895D01*
X149921146Y-84087257D01*
X149906669Y-84123752D01*
X149885645Y-84172687D01*
X149857188Y-84236365D01*
X149820415Y-84317093D01*
X149800175Y-84361216D01*
X149763625Y-84439985D01*
X149729315Y-84512423D01*
X149698552Y-84575880D01*
X149672648Y-84627708D01*
X149652910Y-84665259D01*
X149640650Y-84685884D01*
X149638224Y-84688733D01*
X149607183Y-84701302D01*
X149572121Y-84699619D01*
X149544000Y-84684332D01*
X149542854Y-84683089D01*
X149531668Y-84666154D01*
X149512904Y-84633170D01*
X149488875Y-84588380D01*
X149461897Y-84536032D01*
X149452201Y-84516742D01*
X149379014Y-84370150D01*
X149299240Y-84529393D01*
X149270767Y-84584415D01*
X149244350Y-84632132D01*
X149222148Y-84668893D01*
X149206319Y-84691044D01*
X149200954Y-84695741D01*
X149159257Y-84702102D01*
X149124849Y-84688733D01*
X149114728Y-84674446D01*
X149097214Y-84642692D01*
X149073735Y-84596597D01*
X149045720Y-84539285D01*
X149014599Y-84473880D01*
X148981799Y-84403507D01*
X148948750Y-84331291D01*
X148916881Y-84260355D01*
X148887619Y-84193825D01*
X148862395Y-84134826D01*
X148842636Y-84086481D01*
X148829772Y-84051915D01*
X148825231Y-84034253D01*
X148825277Y-84033613D01*
X148836326Y-84011388D01*
X148858410Y-83988753D01*
X148859710Y-83987768D01*
X148886853Y-83972425D01*
X148911958Y-83972574D01*
X148921368Y-83975466D01*
X148932834Y-83981718D01*
X148945010Y-83994014D01*
X148959357Y-84014908D01*
X148977336Y-84046949D01*
X149000407Y-84092688D01*
X149030030Y-84154677D01*
X149056745Y-84211898D01*
X149087480Y-84278226D01*
X149115021Y-84337874D01*
X149137938Y-84387725D01*
X149154798Y-84424664D01*
X149164173Y-84445573D01*
X149165540Y-84448845D01*
X149171689Y-84443497D01*
X149185822Y-84421109D01*
X149206057Y-84384946D01*
X149230515Y-84338277D01*
X149240248Y-84319022D01*
X149273217Y-84254004D01*
X149298643Y-84206654D01*
X149318612Y-84174219D01*
X149335210Y-84153946D01*
X149350524Y-84143082D01*
X149366640Y-84138875D01*
X149377143Y-84138400D01*
X149395670Y-84140042D01*
X149411904Y-84146831D01*
X149428035Y-84161566D01*
X149446251Y-84187044D01*
X149468739Y-84226061D01*
X149497689Y-84281414D01*
X149513662Y-84312903D01*
X149539570Y-84363087D01*
X149562167Y-84404704D01*
X149579458Y-84434242D01*
X149589450Y-84448189D01*
X149590809Y-84448770D01*
X149597261Y-84437793D01*
X149611708Y-84409290D01*
X149632703Y-84366244D01*
X149658797Y-84311638D01*
X149688546Y-84248454D01*
X149703180Y-84217071D01*
X149741250Y-84136078D01*
X149771905Y-84073756D01*
X149796737Y-84028071D01*
X149817337Y-83996989D01*
X149835298Y-83978478D01*
X149852210Y-83970504D01*
X149869665Y-83971034D01*
G36*
X150313614Y-83975877D02*
G01*
X150337327Y-83990647D01*
X150363978Y-84012227D01*
X150363978Y-84333773D01*
X150363893Y-84427830D01*
X150363529Y-84501932D01*
X150362724Y-84558704D01*
X150361313Y-84600768D01*
X150359133Y-84630748D01*
X150356021Y-84651267D01*
X150351814Y-84664949D01*
X150346348Y-84674416D01*
X150342472Y-84679082D01*
X150311034Y-84699575D01*
X150275233Y-84698739D01*
X150243873Y-84681264D01*
X150217222Y-84659684D01*
X150217222Y-84012227D01*
X150243873Y-83990647D01*
X150269594Y-83974949D01*
X150290600Y-83969067D01*
X150313614Y-83975877D01*
G37*
X150313614Y-83975877D02*
X150337327Y-83990647D01*
X150363978Y-84012227D01*
X150363978Y-84333773D01*
X150363893Y-84427830D01*
X150363529Y-84501932D01*
X150362724Y-84558704D01*
X150361313Y-84600768D01*
X150359133Y-84630748D01*
X150356021Y-84651267D01*
X150351814Y-84664949D01*
X150346348Y-84674416D01*
X150342472Y-84679082D01*
X150311034Y-84699575D01*
X150275233Y-84698739D01*
X150243873Y-84681264D01*
X150217222Y-84659684D01*
X150217222Y-84012227D01*
X150243873Y-83990647D01*
X150269594Y-83974949D01*
X150290600Y-83969067D01*
X150313614Y-83975877D01*
G36*
X151088065Y-83969163D02*
G01*
X151166772Y-83969542D01*
X151227863Y-83970333D01*
X151273817Y-83971670D01*
X151307114Y-83973683D01*
X151330236Y-83976506D01*
X151345662Y-83980269D01*
X151355871Y-83985105D01*
X151360813Y-83988822D01*
X151386457Y-84021358D01*
X151389559Y-84055138D01*
X151373711Y-84085826D01*
X151363348Y-84098089D01*
X151352196Y-84106450D01*
X151336035Y-84111657D01*
X151310642Y-84114457D01*
X151271798Y-84115596D01*
X151215280Y-84115821D01*
X151204180Y-84115822D01*
X151058244Y-84115822D01*
X151058244Y-84386756D01*
X151058148Y-84472154D01*
X151057711Y-84537864D01*
X151056712Y-84586774D01*
X151054928Y-84621773D01*
X151052137Y-84645749D01*
X151048117Y-84661593D01*
X151042645Y-84672191D01*
X151035666Y-84680267D01*
X151002734Y-84700112D01*
X150968354Y-84698548D01*
X150937176Y-84675906D01*
X150934886Y-84673100D01*
X150927429Y-84662492D01*
X150921747Y-84650081D01*
X150917601Y-84632850D01*
X150914750Y-84607784D01*
X150912954Y-84571867D01*
X150911972Y-84522083D01*
X150911564Y-84455417D01*
X150911489Y-84379589D01*
X150911489Y-84115822D01*
X150772127Y-84115822D01*
X150712322Y-84115418D01*
X150670918Y-84113840D01*
X150643748Y-84110547D01*
X150626646Y-84104992D01*
X150615443Y-84096631D01*
X150614083Y-84095178D01*
X150597725Y-84061939D01*
X150599172Y-84024362D01*
X150617978Y-83991645D01*
X150625250Y-83985298D01*
X150634627Y-83980266D01*
X150648609Y-83976396D01*
X150669696Y-83973537D01*
X150700389Y-83971535D01*
X150743189Y-83970239D01*
X150800595Y-83969498D01*
X150875110Y-83969158D01*
X150969233Y-83969068D01*
X150989260Y-83969067D01*
X151088065Y-83969163D01*
G37*
X151088065Y-83969163D02*
X151166772Y-83969542D01*
X151227863Y-83970333D01*
X151273817Y-83971670D01*
X151307114Y-83973683D01*
X151330236Y-83976506D01*
X151345662Y-83980269D01*
X151355871Y-83985105D01*
X151360813Y-83988822D01*
X151386457Y-84021358D01*
X151389559Y-84055138D01*
X151373711Y-84085826D01*
X151363348Y-84098089D01*
X151352196Y-84106450D01*
X151336035Y-84111657D01*
X151310642Y-84114457D01*
X151271798Y-84115596D01*
X151215280Y-84115821D01*
X151204180Y-84115822D01*
X151058244Y-84115822D01*
X151058244Y-84386756D01*
X151058148Y-84472154D01*
X151057711Y-84537864D01*
X151056712Y-84586774D01*
X151054928Y-84621773D01*
X151052137Y-84645749D01*
X151048117Y-84661593D01*
X151042645Y-84672191D01*
X151035666Y-84680267D01*
X151002734Y-84700112D01*
X150968354Y-84698548D01*
X150937176Y-84675906D01*
X150934886Y-84673100D01*
X150927429Y-84662492D01*
X150921747Y-84650081D01*
X150917601Y-84632850D01*
X150914750Y-84607784D01*
X150912954Y-84571867D01*
X150911972Y-84522083D01*
X150911564Y-84455417D01*
X150911489Y-84379589D01*
X150911489Y-84115822D01*
X150772127Y-84115822D01*
X150712322Y-84115418D01*
X150670918Y-84113840D01*
X150643748Y-84110547D01*
X150626646Y-84104992D01*
X150615443Y-84096631D01*
X150614083Y-84095178D01*
X150597725Y-84061939D01*
X150599172Y-84024362D01*
X150617978Y-83991645D01*
X150625250Y-83985298D01*
X150634627Y-83980266D01*
X150648609Y-83976396D01*
X150669696Y-83973537D01*
X150700389Y-83971535D01*
X150743189Y-83970239D01*
X150800595Y-83969498D01*
X150875110Y-83969158D01*
X150969233Y-83969068D01*
X150989260Y-83969067D01*
X151088065Y-83969163D01*
G36*
X152353823Y-83974533D02*
G01*
X152385202Y-83996776D01*
X152412911Y-84024485D01*
X152412911Y-84333920D01*
X152412838Y-84425799D01*
X152412495Y-84497840D01*
X152411692Y-84552780D01*
X152410241Y-84593360D01*
X152407952Y-84622317D01*
X152404636Y-84642391D01*
X152400105Y-84656321D01*
X152394169Y-84666845D01*
X152389514Y-84673100D01*
X152358783Y-84697673D01*
X152323496Y-84700341D01*
X152291245Y-84685271D01*
X152280588Y-84676374D01*
X152273464Y-84664557D01*
X152269167Y-84645526D01*
X152266991Y-84614992D01*
X152266228Y-84568662D01*
X152266155Y-84532871D01*
X152266155Y-84398045D01*
X151769444Y-84398045D01*
X151769444Y-84520700D01*
X151768931Y-84576787D01*
X151766876Y-84615333D01*
X151762508Y-84641361D01*
X151755056Y-84659897D01*
X151746047Y-84673100D01*
X151715144Y-84697604D01*
X151680196Y-84700506D01*
X151646738Y-84683089D01*
X151637604Y-84673959D01*
X151631152Y-84661855D01*
X151626897Y-84643001D01*
X151624352Y-84613620D01*
X151623029Y-84569937D01*
X151622443Y-84508175D01*
X151622375Y-84494000D01*
X151621891Y-84377631D01*
X151621641Y-84281727D01*
X151621723Y-84204177D01*
X151622231Y-84142869D01*
X151623262Y-84095690D01*
X151624913Y-84060530D01*
X151627279Y-84035276D01*
X151630457Y-84017817D01*
X151634544Y-84006041D01*
X151639634Y-83997835D01*
X151645266Y-83991645D01*
X151677128Y-83971844D01*
X151710357Y-83974533D01*
X151741735Y-83996776D01*
X151754433Y-84011126D01*
X151762526Y-84026978D01*
X151767042Y-84049554D01*
X151769006Y-84084078D01*
X151769444Y-84135776D01*
X151769444Y-84251289D01*
X152266155Y-84251289D01*
X152266155Y-84132756D01*
X152266662Y-84078148D01*
X152268698Y-84041275D01*
X152273035Y-84017307D01*
X152280447Y-84001415D01*
X152288733Y-83991645D01*
X152320594Y-83971844D01*
X152353823Y-83974533D01*
G37*
X152353823Y-83974533D02*
X152385202Y-83996776D01*
X152412911Y-84024485D01*
X152412911Y-84333920D01*
X152412838Y-84425799D01*
X152412495Y-84497840D01*
X152411692Y-84552780D01*
X152410241Y-84593360D01*
X152407952Y-84622317D01*
X152404636Y-84642391D01*
X152400105Y-84656321D01*
X152394169Y-84666845D01*
X152389514Y-84673100D01*
X152358783Y-84697673D01*
X152323496Y-84700341D01*
X152291245Y-84685271D01*
X152280588Y-84676374D01*
X152273464Y-84664557D01*
X152269167Y-84645526D01*
X152266991Y-84614992D01*
X152266228Y-84568662D01*
X152266155Y-84532871D01*
X152266155Y-84398045D01*
X151769444Y-84398045D01*
X151769444Y-84520700D01*
X151768931Y-84576787D01*
X151766876Y-84615333D01*
X151762508Y-84641361D01*
X151755056Y-84659897D01*
X151746047Y-84673100D01*
X151715144Y-84697604D01*
X151680196Y-84700506D01*
X151646738Y-84683089D01*
X151637604Y-84673959D01*
X151631152Y-84661855D01*
X151626897Y-84643001D01*
X151624352Y-84613620D01*
X151623029Y-84569937D01*
X151622443Y-84508175D01*
X151622375Y-84494000D01*
X151621891Y-84377631D01*
X151621641Y-84281727D01*
X151621723Y-84204177D01*
X151622231Y-84142869D01*
X151623262Y-84095690D01*
X151624913Y-84060530D01*
X151627279Y-84035276D01*
X151630457Y-84017817D01*
X151634544Y-84006041D01*
X151639634Y-83997835D01*
X151645266Y-83991645D01*
X151677128Y-83971844D01*
X151710357Y-83974533D01*
X151741735Y-83996776D01*
X151754433Y-84011126D01*
X151762526Y-84026978D01*
X151767042Y-84049554D01*
X151769006Y-84084078D01*
X151769444Y-84135776D01*
X151769444Y-84251289D01*
X152266155Y-84251289D01*
X152266155Y-84132756D01*
X152266662Y-84078148D01*
X152268698Y-84041275D01*
X152273035Y-84017307D01*
X152280447Y-84001415D01*
X152288733Y-83991645D01*
X152320594Y-83971844D01*
X152353823Y-83974533D01*
D13*
%TO.C,U1*%
X135375000Y-69565000D02*
X133175000Y-69565000D01*
X135375000Y-69565000D02*
X137575000Y-69565000D01*
X135375000Y-74785000D02*
X133175000Y-74785000D01*
X135375000Y-74785000D02*
X138975000Y-74785000D01*
%TO.C,J1*%
X107112500Y-61500000D02*
X106662500Y-61500000D01*
X107112500Y-61500000D02*
X107112500Y-61950000D01*
X106562500Y-67100000D02*
X106562500Y-66650000D01*
X104712500Y-67100000D02*
X106562500Y-67100000D01*
X102162500Y-59300000D02*
X102412500Y-59300000D01*
X102162500Y-67100000D02*
X102412500Y-67100000D01*
X104712500Y-59300000D02*
X106562500Y-59300000D01*
X106562500Y-59300000D02*
X106562500Y-59750000D01*
%TO.C,U4*%
X151260000Y-67820000D02*
X149610000Y-67820000D01*
X151260000Y-78100000D02*
X151260000Y-67820000D01*
X145960000Y-78100000D02*
X151260000Y-78100000D01*
X145960000Y-67820000D02*
X145960000Y-78100000D01*
X147610000Y-67820000D02*
X145960000Y-67820000D01*
X149610000Y-67820000D02*
G75*
G02*
X147610000Y-67820000I-1000000J0D01*
G01*
%TO.C,Y1*%
X119990000Y-83975000D02*
X126390000Y-83975000D01*
X119990000Y-78925000D02*
X126390000Y-78925000D01*
X126390000Y-83975000D02*
G75*
G03*
X126390000Y-78925000I0J2525000D01*
G01*
X119990000Y-83975000D02*
G75*
G02*
X119990000Y-78925000I0J2525000D01*
G01*
%TO.C,U5*%
X118940000Y-76810000D02*
X118940000Y-78150000D01*
X117990000Y-76810000D02*
X118940000Y-76810000D01*
X117990000Y-75860000D02*
X117990000Y-76810000D01*
X117990000Y-66590000D02*
X118940000Y-66590000D01*
X117990000Y-67540000D02*
X117990000Y-66590000D01*
X128210000Y-76810000D02*
X127260000Y-76810000D01*
X128210000Y-75860000D02*
X128210000Y-76810000D01*
X128210000Y-66590000D02*
X127260000Y-66590000D01*
X128210000Y-67540000D02*
X128210000Y-66590000D01*
%TO.C,R11*%
X152372500Y-62162742D02*
X152372500Y-62637258D01*
X151327500Y-62162742D02*
X151327500Y-62637258D01*
%TO.C,C1*%
X109790000Y-77340580D02*
X109790000Y-77059420D01*
X110810000Y-77340580D02*
X110810000Y-77059420D01*
%TO.C,C2*%
X116810000Y-81615580D02*
X116810000Y-81334420D01*
X115790000Y-81615580D02*
X115790000Y-81334420D01*
%TO.C,C3*%
X129590000Y-81590580D02*
X129590000Y-81309420D01*
X130610000Y-81590580D02*
X130610000Y-81309420D01*
%TO.C,C4*%
X128190000Y-59459420D02*
X128190000Y-59740580D01*
X129210000Y-59459420D02*
X129210000Y-59740580D01*
%TO.C,C5*%
X120410000Y-59459420D02*
X120410000Y-59740580D01*
X119390000Y-59459420D02*
X119390000Y-59740580D01*
%TO.C,C6*%
X111215580Y-74390000D02*
X110934420Y-74390000D01*
X111215580Y-75410000D02*
X110934420Y-75410000D01*
%TO.C,C7*%
X133140580Y-76260000D02*
X132859420Y-76260000D01*
X133140580Y-75240000D02*
X132859420Y-75240000D01*
%TO.C,C8*%
X130760000Y-59459420D02*
X130760000Y-59740580D01*
X129740000Y-59459420D02*
X129740000Y-59740580D01*
%TO.C,C9*%
X120940000Y-59459420D02*
X120940000Y-59740580D01*
X121960000Y-59459420D02*
X121960000Y-59740580D01*
%TO.C,C10*%
X137609420Y-75240000D02*
X137890580Y-75240000D01*
X137609420Y-76260000D02*
X137890580Y-76260000D01*
%TO.C,C11*%
X137609420Y-77810000D02*
X137890580Y-77810000D01*
X137609420Y-76790000D02*
X137890580Y-76790000D01*
%TO.C,C12*%
X133140580Y-76790000D02*
X132859420Y-76790000D01*
X133140580Y-77810000D02*
X132859420Y-77810000D01*
%TO.C,C13*%
X132884420Y-68090000D02*
X133165580Y-68090000D01*
X132884420Y-69110000D02*
X133165580Y-69110000D01*
%TO.C,C14*%
X111215580Y-66640000D02*
X110934420Y-66640000D01*
X111215580Y-67660000D02*
X110934420Y-67660000D01*
%TO.C,D1*%
X135185000Y-82885000D02*
X135185000Y-80600000D01*
X133715000Y-82885000D02*
X135185000Y-82885000D01*
X133715000Y-80600000D02*
X133715000Y-82885000D01*
%TO.C,D2*%
X135415000Y-80600000D02*
X135415000Y-82885000D01*
X135415000Y-82885000D02*
X136885000Y-82885000D01*
X136885000Y-82885000D02*
X136885000Y-80600000D01*
%TO.C,F1*%
X111247936Y-60460000D02*
X112452064Y-60460000D01*
X111247936Y-57740000D02*
X112452064Y-57740000D01*
%TO.C,R1*%
X110837742Y-73872500D02*
X111312258Y-73872500D01*
X110837742Y-72827500D02*
X111312258Y-72827500D01*
%TO.C,R2*%
X110837742Y-72322500D02*
X111312258Y-72322500D01*
X110837742Y-71277500D02*
X111312258Y-71277500D01*
%TO.C,R3*%
X111312258Y-69727500D02*
X110837742Y-69727500D01*
X111312258Y-70772500D02*
X110837742Y-70772500D01*
%TO.C,R4*%
X111327500Y-76962742D02*
X111327500Y-77437258D01*
X112372500Y-76962742D02*
X112372500Y-77437258D01*
%TO.C,R5*%
X111312258Y-63022500D02*
X110837742Y-63022500D01*
X111312258Y-61977500D02*
X110837742Y-61977500D01*
%TO.C,R6*%
X111312258Y-69222500D02*
X110837742Y-69222500D01*
X111312258Y-68177500D02*
X110837742Y-68177500D01*
%TO.C,R7*%
X110837742Y-63527500D02*
X111312258Y-63527500D01*
X110837742Y-64572500D02*
X111312258Y-64572500D01*
%TO.C,R8*%
X137987258Y-68077500D02*
X137512742Y-68077500D01*
X137987258Y-69122500D02*
X137512742Y-69122500D01*
%TO.C,R9*%
X110837742Y-65077500D02*
X111312258Y-65077500D01*
X110837742Y-66122500D02*
X111312258Y-66122500D01*
%TO.C,R10*%
X145377500Y-62162742D02*
X145377500Y-62637258D01*
X146422500Y-62162742D02*
X146422500Y-62637258D01*
%TO.C,R12*%
X146927500Y-62162742D02*
X146927500Y-62637258D01*
X147972500Y-62162742D02*
X147972500Y-62637258D01*
%TO.C,R13*%
X150822500Y-62162742D02*
X150822500Y-62637258D01*
X149777500Y-62162742D02*
X149777500Y-62637258D01*
%TO.C,R14*%
X133372500Y-81162742D02*
X133372500Y-81637258D01*
X132327500Y-81162742D02*
X132327500Y-81637258D01*
%TO.C,SW1*%
X142400000Y-64450000D02*
X133800000Y-64450000D01*
X142400000Y-59950000D02*
X142400000Y-64450000D01*
X133800000Y-59950000D02*
X142400000Y-59950000D01*
X133800000Y-64450000D02*
X133800000Y-59950000D01*
%TO.C,U2*%
X125140000Y-57770000D02*
X125140000Y-58700000D01*
X125140000Y-60930000D02*
X125140000Y-60000000D01*
X125140000Y-60930000D02*
X127300000Y-60930000D01*
X125140000Y-57770000D02*
X126600000Y-57770000D01*
%TO.C,U3*%
X116340000Y-57720000D02*
X117800000Y-57720000D01*
X116340000Y-60880000D02*
X118500000Y-60880000D01*
X116340000Y-60880000D02*
X116340000Y-59950000D01*
X116340000Y-57720000D02*
X116340000Y-58650000D01*
%TO.C,U1*%
D10*
X134613095Y-75077380D02*
X134613095Y-75886904D01*
X134660714Y-75982142D01*
X134708333Y-76029761D01*
X134803571Y-76077380D01*
X134994047Y-76077380D01*
X135089285Y-76029761D01*
X135136904Y-75982142D01*
X135184523Y-75886904D01*
X135184523Y-75077380D01*
X136184523Y-76077380D02*
X135613095Y-76077380D01*
X135898809Y-76077380D02*
X135898809Y-75077380D01*
X135803571Y-75220238D01*
X135708333Y-75315476D01*
X135613095Y-75363095D01*
%TO.C,J1*%
X107364880Y-63533333D02*
X108079166Y-63533333D01*
X108222023Y-63580952D01*
X108317261Y-63676190D01*
X108364880Y-63819047D01*
X108364880Y-63914285D01*
X108364880Y-62533333D02*
X108364880Y-63104761D01*
X108364880Y-62819047D02*
X107364880Y-62819047D01*
X107507738Y-62914285D01*
X107602976Y-63009523D01*
X107650595Y-63104761D01*
%TO.C,U4*%
X151688095Y-66352380D02*
X151688095Y-67161904D01*
X151735714Y-67257142D01*
X151783333Y-67304761D01*
X151878571Y-67352380D01*
X152069047Y-67352380D01*
X152164285Y-67304761D01*
X152211904Y-67257142D01*
X152259523Y-67161904D01*
X152259523Y-66352380D01*
X153164285Y-66685714D02*
X153164285Y-67352380D01*
X152926190Y-66304761D02*
X152688095Y-67019047D01*
X153307142Y-67019047D01*
%TO.C,Y1*%
X123623809Y-83176190D02*
X123623809Y-83652380D01*
X123290476Y-82652380D02*
X123623809Y-83176190D01*
X123957142Y-82652380D01*
X124814285Y-83652380D02*
X124242857Y-83652380D01*
X124528571Y-83652380D02*
X124528571Y-82652380D01*
X124433333Y-82795238D01*
X124338095Y-82890476D01*
X124242857Y-82938095D01*
%TO.C,U5*%
X122588095Y-63602380D02*
X122588095Y-64411904D01*
X122635714Y-64507142D01*
X122683333Y-64554761D01*
X122778571Y-64602380D01*
X122969047Y-64602380D01*
X123064285Y-64554761D01*
X123111904Y-64507142D01*
X123159523Y-64411904D01*
X123159523Y-63602380D01*
X124111904Y-63602380D02*
X123635714Y-63602380D01*
X123588095Y-64078571D01*
X123635714Y-64030952D01*
X123730952Y-63983333D01*
X123969047Y-63983333D01*
X124064285Y-64030952D01*
X124111904Y-64078571D01*
X124159523Y-64173809D01*
X124159523Y-64411904D01*
X124111904Y-64507142D01*
X124064285Y-64554761D01*
X123969047Y-64602380D01*
X123730952Y-64602380D01*
X123635714Y-64554761D01*
X123588095Y-64507142D01*
%TO.C,R11*%
X152202380Y-59942857D02*
X151726190Y-60276190D01*
X152202380Y-60514285D02*
X151202380Y-60514285D01*
X151202380Y-60133333D01*
X151250000Y-60038095D01*
X151297619Y-59990476D01*
X151392857Y-59942857D01*
X151535714Y-59942857D01*
X151630952Y-59990476D01*
X151678571Y-60038095D01*
X151726190Y-60133333D01*
X151726190Y-60514285D01*
X152202380Y-58990476D02*
X152202380Y-59561904D01*
X152202380Y-59276190D02*
X151202380Y-59276190D01*
X151345238Y-59371428D01*
X151440476Y-59466666D01*
X151488095Y-59561904D01*
X152202380Y-58038095D02*
X152202380Y-58609523D01*
X152202380Y-58323809D02*
X151202380Y-58323809D01*
X151345238Y-58419047D01*
X151440476Y-58514285D01*
X151488095Y-58609523D01*
%TO.C,C1*%
X110083333Y-79807142D02*
X110035714Y-79854761D01*
X109892857Y-79902380D01*
X109797619Y-79902380D01*
X109654761Y-79854761D01*
X109559523Y-79759523D01*
X109511904Y-79664285D01*
X109464285Y-79473809D01*
X109464285Y-79330952D01*
X109511904Y-79140476D01*
X109559523Y-79045238D01*
X109654761Y-78950000D01*
X109797619Y-78902380D01*
X109892857Y-78902380D01*
X110035714Y-78950000D01*
X110083333Y-78997619D01*
X111035714Y-79902380D02*
X110464285Y-79902380D01*
X110750000Y-79902380D02*
X110750000Y-78902380D01*
X110654761Y-79045238D01*
X110559523Y-79140476D01*
X110464285Y-79188095D01*
%TO.C,C2*%
X116083333Y-84232142D02*
X116035714Y-84279761D01*
X115892857Y-84327380D01*
X115797619Y-84327380D01*
X115654761Y-84279761D01*
X115559523Y-84184523D01*
X115511904Y-84089285D01*
X115464285Y-83898809D01*
X115464285Y-83755952D01*
X115511904Y-83565476D01*
X115559523Y-83470238D01*
X115654761Y-83375000D01*
X115797619Y-83327380D01*
X115892857Y-83327380D01*
X116035714Y-83375000D01*
X116083333Y-83422619D01*
X116464285Y-83422619D02*
X116511904Y-83375000D01*
X116607142Y-83327380D01*
X116845238Y-83327380D01*
X116940476Y-83375000D01*
X116988095Y-83422619D01*
X117035714Y-83517857D01*
X117035714Y-83613095D01*
X116988095Y-83755952D01*
X116416666Y-84327380D01*
X117035714Y-84327380D01*
%TO.C,C3*%
X129958333Y-84307142D02*
X129910714Y-84354761D01*
X129767857Y-84402380D01*
X129672619Y-84402380D01*
X129529761Y-84354761D01*
X129434523Y-84259523D01*
X129386904Y-84164285D01*
X129339285Y-83973809D01*
X129339285Y-83830952D01*
X129386904Y-83640476D01*
X129434523Y-83545238D01*
X129529761Y-83450000D01*
X129672619Y-83402380D01*
X129767857Y-83402380D01*
X129910714Y-83450000D01*
X129958333Y-83497619D01*
X130291666Y-83402380D02*
X130910714Y-83402380D01*
X130577380Y-83783333D01*
X130720238Y-83783333D01*
X130815476Y-83830952D01*
X130863095Y-83878571D01*
X130910714Y-83973809D01*
X130910714Y-84211904D01*
X130863095Y-84307142D01*
X130815476Y-84354761D01*
X130720238Y-84402380D01*
X130434523Y-84402380D01*
X130339285Y-84354761D01*
X130291666Y-84307142D01*
%TO.C,C4*%
X128533333Y-62257142D02*
X128485714Y-62304761D01*
X128342857Y-62352380D01*
X128247619Y-62352380D01*
X128104761Y-62304761D01*
X128009523Y-62209523D01*
X127961904Y-62114285D01*
X127914285Y-61923809D01*
X127914285Y-61780952D01*
X127961904Y-61590476D01*
X128009523Y-61495238D01*
X128104761Y-61400000D01*
X128247619Y-61352380D01*
X128342857Y-61352380D01*
X128485714Y-61400000D01*
X128533333Y-61447619D01*
X129390476Y-61685714D02*
X129390476Y-62352380D01*
X129152380Y-61304761D02*
X128914285Y-62019047D01*
X129533333Y-62019047D01*
%TO.C,C5*%
X119733333Y-62257142D02*
X119685714Y-62304761D01*
X119542857Y-62352380D01*
X119447619Y-62352380D01*
X119304761Y-62304761D01*
X119209523Y-62209523D01*
X119161904Y-62114285D01*
X119114285Y-61923809D01*
X119114285Y-61780952D01*
X119161904Y-61590476D01*
X119209523Y-61495238D01*
X119304761Y-61400000D01*
X119447619Y-61352380D01*
X119542857Y-61352380D01*
X119685714Y-61400000D01*
X119733333Y-61447619D01*
X120638095Y-61352380D02*
X120161904Y-61352380D01*
X120114285Y-61828571D01*
X120161904Y-61780952D01*
X120257142Y-61733333D01*
X120495238Y-61733333D01*
X120590476Y-61780952D01*
X120638095Y-61828571D01*
X120685714Y-61923809D01*
X120685714Y-62161904D01*
X120638095Y-62257142D01*
X120590476Y-62304761D01*
X120495238Y-62352380D01*
X120257142Y-62352380D01*
X120161904Y-62304761D01*
X120114285Y-62257142D01*
%TO.C,C6*%
X113308333Y-75157142D02*
X113260714Y-75204761D01*
X113117857Y-75252380D01*
X113022619Y-75252380D01*
X112879761Y-75204761D01*
X112784523Y-75109523D01*
X112736904Y-75014285D01*
X112689285Y-74823809D01*
X112689285Y-74680952D01*
X112736904Y-74490476D01*
X112784523Y-74395238D01*
X112879761Y-74300000D01*
X113022619Y-74252380D01*
X113117857Y-74252380D01*
X113260714Y-74300000D01*
X113308333Y-74347619D01*
X114165476Y-74252380D02*
X113975000Y-74252380D01*
X113879761Y-74300000D01*
X113832142Y-74347619D01*
X113736904Y-74490476D01*
X113689285Y-74680952D01*
X113689285Y-75061904D01*
X113736904Y-75157142D01*
X113784523Y-75204761D01*
X113879761Y-75252380D01*
X114070238Y-75252380D01*
X114165476Y-75204761D01*
X114213095Y-75157142D01*
X114260714Y-75061904D01*
X114260714Y-74823809D01*
X114213095Y-74728571D01*
X114165476Y-74680952D01*
X114070238Y-74633333D01*
X113879761Y-74633333D01*
X113784523Y-74680952D01*
X113736904Y-74728571D01*
X113689285Y-74823809D01*
%TO.C,C7*%
X130233333Y-76857142D02*
X130185714Y-76904761D01*
X130042857Y-76952380D01*
X129947619Y-76952380D01*
X129804761Y-76904761D01*
X129709523Y-76809523D01*
X129661904Y-76714285D01*
X129614285Y-76523809D01*
X129614285Y-76380952D01*
X129661904Y-76190476D01*
X129709523Y-76095238D01*
X129804761Y-76000000D01*
X129947619Y-75952380D01*
X130042857Y-75952380D01*
X130185714Y-76000000D01*
X130233333Y-76047619D01*
X130566666Y-75952380D02*
X131233333Y-75952380D01*
X130804761Y-76952380D01*
%TO.C,C8*%
X130183333Y-62232142D02*
X130135714Y-62279761D01*
X129992857Y-62327380D01*
X129897619Y-62327380D01*
X129754761Y-62279761D01*
X129659523Y-62184523D01*
X129611904Y-62089285D01*
X129564285Y-61898809D01*
X129564285Y-61755952D01*
X129611904Y-61565476D01*
X129659523Y-61470238D01*
X129754761Y-61375000D01*
X129897619Y-61327380D01*
X129992857Y-61327380D01*
X130135714Y-61375000D01*
X130183333Y-61422619D01*
X130754761Y-61755952D02*
X130659523Y-61708333D01*
X130611904Y-61660714D01*
X130564285Y-61565476D01*
X130564285Y-61517857D01*
X130611904Y-61422619D01*
X130659523Y-61375000D01*
X130754761Y-61327380D01*
X130945238Y-61327380D01*
X131040476Y-61375000D01*
X131088095Y-61422619D01*
X131135714Y-61517857D01*
X131135714Y-61565476D01*
X131088095Y-61660714D01*
X131040476Y-61708333D01*
X130945238Y-61755952D01*
X130754761Y-61755952D01*
X130659523Y-61803571D01*
X130611904Y-61851190D01*
X130564285Y-61946428D01*
X130564285Y-62136904D01*
X130611904Y-62232142D01*
X130659523Y-62279761D01*
X130754761Y-62327380D01*
X130945238Y-62327380D01*
X131040476Y-62279761D01*
X131088095Y-62232142D01*
X131135714Y-62136904D01*
X131135714Y-61946428D01*
X131088095Y-61851190D01*
X131040476Y-61803571D01*
X130945238Y-61755952D01*
%TO.C,C9*%
X121383333Y-62232142D02*
X121335714Y-62279761D01*
X121192857Y-62327380D01*
X121097619Y-62327380D01*
X120954761Y-62279761D01*
X120859523Y-62184523D01*
X120811904Y-62089285D01*
X120764285Y-61898809D01*
X120764285Y-61755952D01*
X120811904Y-61565476D01*
X120859523Y-61470238D01*
X120954761Y-61375000D01*
X121097619Y-61327380D01*
X121192857Y-61327380D01*
X121335714Y-61375000D01*
X121383333Y-61422619D01*
X121859523Y-62327380D02*
X122050000Y-62327380D01*
X122145238Y-62279761D01*
X122192857Y-62232142D01*
X122288095Y-62089285D01*
X122335714Y-61898809D01*
X122335714Y-61517857D01*
X122288095Y-61422619D01*
X122240476Y-61375000D01*
X122145238Y-61327380D01*
X121954761Y-61327380D01*
X121859523Y-61375000D01*
X121811904Y-61422619D01*
X121764285Y-61517857D01*
X121764285Y-61755952D01*
X121811904Y-61851190D01*
X121859523Y-61898809D01*
X121954761Y-61946428D01*
X122145238Y-61946428D01*
X122240476Y-61898809D01*
X122288095Y-61851190D01*
X122335714Y-61755952D01*
%TO.C,C10*%
X140107142Y-76207142D02*
X140059523Y-76254761D01*
X139916666Y-76302380D01*
X139821428Y-76302380D01*
X139678571Y-76254761D01*
X139583333Y-76159523D01*
X139535714Y-76064285D01*
X139488095Y-75873809D01*
X139488095Y-75730952D01*
X139535714Y-75540476D01*
X139583333Y-75445238D01*
X139678571Y-75350000D01*
X139821428Y-75302380D01*
X139916666Y-75302380D01*
X140059523Y-75350000D01*
X140107142Y-75397619D01*
X141059523Y-76302380D02*
X140488095Y-76302380D01*
X140773809Y-76302380D02*
X140773809Y-75302380D01*
X140678571Y-75445238D01*
X140583333Y-75540476D01*
X140488095Y-75588095D01*
X141678571Y-75302380D02*
X141773809Y-75302380D01*
X141869047Y-75350000D01*
X141916666Y-75397619D01*
X141964285Y-75492857D01*
X142011904Y-75683333D01*
X142011904Y-75921428D01*
X141964285Y-76111904D01*
X141916666Y-76207142D01*
X141869047Y-76254761D01*
X141773809Y-76302380D01*
X141678571Y-76302380D01*
X141583333Y-76254761D01*
X141535714Y-76207142D01*
X141488095Y-76111904D01*
X141440476Y-75921428D01*
X141440476Y-75683333D01*
X141488095Y-75492857D01*
X141535714Y-75397619D01*
X141583333Y-75350000D01*
X141678571Y-75302380D01*
%TO.C,C11*%
X140207142Y-77807142D02*
X140159523Y-77854761D01*
X140016666Y-77902380D01*
X139921428Y-77902380D01*
X139778571Y-77854761D01*
X139683333Y-77759523D01*
X139635714Y-77664285D01*
X139588095Y-77473809D01*
X139588095Y-77330952D01*
X139635714Y-77140476D01*
X139683333Y-77045238D01*
X139778571Y-76950000D01*
X139921428Y-76902380D01*
X140016666Y-76902380D01*
X140159523Y-76950000D01*
X140207142Y-76997619D01*
X141159523Y-77902380D02*
X140588095Y-77902380D01*
X140873809Y-77902380D02*
X140873809Y-76902380D01*
X140778571Y-77045238D01*
X140683333Y-77140476D01*
X140588095Y-77188095D01*
X142111904Y-77902380D02*
X141540476Y-77902380D01*
X141826190Y-77902380D02*
X141826190Y-76902380D01*
X141730952Y-77045238D01*
X141635714Y-77140476D01*
X141540476Y-77188095D01*
%TO.C,C12*%
X129482142Y-78107142D02*
X129434523Y-78154761D01*
X129291666Y-78202380D01*
X129196428Y-78202380D01*
X129053571Y-78154761D01*
X128958333Y-78059523D01*
X128910714Y-77964285D01*
X128863095Y-77773809D01*
X128863095Y-77630952D01*
X128910714Y-77440476D01*
X128958333Y-77345238D01*
X129053571Y-77250000D01*
X129196428Y-77202380D01*
X129291666Y-77202380D01*
X129434523Y-77250000D01*
X129482142Y-77297619D01*
X130434523Y-78202380D02*
X129863095Y-78202380D01*
X130148809Y-78202380D02*
X130148809Y-77202380D01*
X130053571Y-77345238D01*
X129958333Y-77440476D01*
X129863095Y-77488095D01*
X130815476Y-77297619D02*
X130863095Y-77250000D01*
X130958333Y-77202380D01*
X131196428Y-77202380D01*
X131291666Y-77250000D01*
X131339285Y-77297619D01*
X131386904Y-77392857D01*
X131386904Y-77488095D01*
X131339285Y-77630952D01*
X130767857Y-78202380D01*
X131386904Y-78202380D01*
%TO.C,C13*%
X132207142Y-67507142D02*
X132159523Y-67554761D01*
X132016666Y-67602380D01*
X131921428Y-67602380D01*
X131778571Y-67554761D01*
X131683333Y-67459523D01*
X131635714Y-67364285D01*
X131588095Y-67173809D01*
X131588095Y-67030952D01*
X131635714Y-66840476D01*
X131683333Y-66745238D01*
X131778571Y-66650000D01*
X131921428Y-66602380D01*
X132016666Y-66602380D01*
X132159523Y-66650000D01*
X132207142Y-66697619D01*
X133159523Y-67602380D02*
X132588095Y-67602380D01*
X132873809Y-67602380D02*
X132873809Y-66602380D01*
X132778571Y-66745238D01*
X132683333Y-66840476D01*
X132588095Y-66888095D01*
X133492857Y-66602380D02*
X134111904Y-66602380D01*
X133778571Y-66983333D01*
X133921428Y-66983333D01*
X134016666Y-67030952D01*
X134064285Y-67078571D01*
X134111904Y-67173809D01*
X134111904Y-67411904D01*
X134064285Y-67507142D01*
X134016666Y-67554761D01*
X133921428Y-67602380D01*
X133635714Y-67602380D01*
X133540476Y-67554761D01*
X133492857Y-67507142D01*
%TO.C,C14*%
X113457142Y-67607142D02*
X113409523Y-67654761D01*
X113266666Y-67702380D01*
X113171428Y-67702380D01*
X113028571Y-67654761D01*
X112933333Y-67559523D01*
X112885714Y-67464285D01*
X112838095Y-67273809D01*
X112838095Y-67130952D01*
X112885714Y-66940476D01*
X112933333Y-66845238D01*
X113028571Y-66750000D01*
X113171428Y-66702380D01*
X113266666Y-66702380D01*
X113409523Y-66750000D01*
X113457142Y-66797619D01*
X114409523Y-67702380D02*
X113838095Y-67702380D01*
X114123809Y-67702380D02*
X114123809Y-66702380D01*
X114028571Y-66845238D01*
X113933333Y-66940476D01*
X113838095Y-66988095D01*
X115266666Y-67035714D02*
X115266666Y-67702380D01*
X115028571Y-66654761D02*
X114790476Y-67369047D01*
X115409523Y-67369047D01*
%TO.C,D1*%
X133761904Y-84252380D02*
X133761904Y-83252380D01*
X134000000Y-83252380D01*
X134142857Y-83300000D01*
X134238095Y-83395238D01*
X134285714Y-83490476D01*
X134333333Y-83680952D01*
X134333333Y-83823809D01*
X134285714Y-84014285D01*
X134238095Y-84109523D01*
X134142857Y-84204761D01*
X134000000Y-84252380D01*
X133761904Y-84252380D01*
X135285714Y-84252380D02*
X134714285Y-84252380D01*
X135000000Y-84252380D02*
X135000000Y-83252380D01*
X134904761Y-83395238D01*
X134809523Y-83490476D01*
X134714285Y-83538095D01*
%TO.C,D2*%
X135561904Y-84302380D02*
X135561904Y-83302380D01*
X135800000Y-83302380D01*
X135942857Y-83350000D01*
X136038095Y-83445238D01*
X136085714Y-83540476D01*
X136133333Y-83730952D01*
X136133333Y-83873809D01*
X136085714Y-84064285D01*
X136038095Y-84159523D01*
X135942857Y-84254761D01*
X135800000Y-84302380D01*
X135561904Y-84302380D01*
X136514285Y-83397619D02*
X136561904Y-83350000D01*
X136657142Y-83302380D01*
X136895238Y-83302380D01*
X136990476Y-83350000D01*
X137038095Y-83397619D01*
X137085714Y-83492857D01*
X137085714Y-83588095D01*
X137038095Y-83730952D01*
X136466666Y-84302380D01*
X137085714Y-84302380D01*
%TO.C,F1*%
X108466666Y-58928571D02*
X108133333Y-58928571D01*
X108133333Y-59452380D02*
X108133333Y-58452380D01*
X108609523Y-58452380D01*
X109514285Y-59452380D02*
X108942857Y-59452380D01*
X109228571Y-59452380D02*
X109228571Y-58452380D01*
X109133333Y-58595238D01*
X109038095Y-58690476D01*
X108942857Y-58738095D01*
%TO.C,R1*%
X113408333Y-73902380D02*
X113075000Y-73426190D01*
X112836904Y-73902380D02*
X112836904Y-72902380D01*
X113217857Y-72902380D01*
X113313095Y-72950000D01*
X113360714Y-72997619D01*
X113408333Y-73092857D01*
X113408333Y-73235714D01*
X113360714Y-73330952D01*
X113313095Y-73378571D01*
X113217857Y-73426190D01*
X112836904Y-73426190D01*
X114360714Y-73902380D02*
X113789285Y-73902380D01*
X114075000Y-73902380D02*
X114075000Y-72902380D01*
X113979761Y-73045238D01*
X113884523Y-73140476D01*
X113789285Y-73188095D01*
%TO.C,R2*%
X113558333Y-72252380D02*
X113225000Y-71776190D01*
X112986904Y-72252380D02*
X112986904Y-71252380D01*
X113367857Y-71252380D01*
X113463095Y-71300000D01*
X113510714Y-71347619D01*
X113558333Y-71442857D01*
X113558333Y-71585714D01*
X113510714Y-71680952D01*
X113463095Y-71728571D01*
X113367857Y-71776190D01*
X112986904Y-71776190D01*
X113939285Y-71347619D02*
X113986904Y-71300000D01*
X114082142Y-71252380D01*
X114320238Y-71252380D01*
X114415476Y-71300000D01*
X114463095Y-71347619D01*
X114510714Y-71442857D01*
X114510714Y-71538095D01*
X114463095Y-71680952D01*
X113891666Y-72252380D01*
X114510714Y-72252380D01*
%TO.C,R3*%
X113558333Y-70702380D02*
X113225000Y-70226190D01*
X112986904Y-70702380D02*
X112986904Y-69702380D01*
X113367857Y-69702380D01*
X113463095Y-69750000D01*
X113510714Y-69797619D01*
X113558333Y-69892857D01*
X113558333Y-70035714D01*
X113510714Y-70130952D01*
X113463095Y-70178571D01*
X113367857Y-70226190D01*
X112986904Y-70226190D01*
X113891666Y-69702380D02*
X114510714Y-69702380D01*
X114177380Y-70083333D01*
X114320238Y-70083333D01*
X114415476Y-70130952D01*
X114463095Y-70178571D01*
X114510714Y-70273809D01*
X114510714Y-70511904D01*
X114463095Y-70607142D01*
X114415476Y-70654761D01*
X114320238Y-70702380D01*
X114034523Y-70702380D01*
X113939285Y-70654761D01*
X113891666Y-70607142D01*
%TO.C,R4*%
X111783333Y-79902380D02*
X111450000Y-79426190D01*
X111211904Y-79902380D02*
X111211904Y-78902380D01*
X111592857Y-78902380D01*
X111688095Y-78950000D01*
X111735714Y-78997619D01*
X111783333Y-79092857D01*
X111783333Y-79235714D01*
X111735714Y-79330952D01*
X111688095Y-79378571D01*
X111592857Y-79426190D01*
X111211904Y-79426190D01*
X112640476Y-79235714D02*
X112640476Y-79902380D01*
X112402380Y-78854761D02*
X112164285Y-79569047D01*
X112783333Y-79569047D01*
%TO.C,R5*%
X113533333Y-62952380D02*
X113200000Y-62476190D01*
X112961904Y-62952380D02*
X112961904Y-61952380D01*
X113342857Y-61952380D01*
X113438095Y-62000000D01*
X113485714Y-62047619D01*
X113533333Y-62142857D01*
X113533333Y-62285714D01*
X113485714Y-62380952D01*
X113438095Y-62428571D01*
X113342857Y-62476190D01*
X112961904Y-62476190D01*
X114438095Y-61952380D02*
X113961904Y-61952380D01*
X113914285Y-62428571D01*
X113961904Y-62380952D01*
X114057142Y-62333333D01*
X114295238Y-62333333D01*
X114390476Y-62380952D01*
X114438095Y-62428571D01*
X114485714Y-62523809D01*
X114485714Y-62761904D01*
X114438095Y-62857142D01*
X114390476Y-62904761D01*
X114295238Y-62952380D01*
X114057142Y-62952380D01*
X113961904Y-62904761D01*
X113914285Y-62857142D01*
%TO.C,R6*%
X113533333Y-69152380D02*
X113200000Y-68676190D01*
X112961904Y-69152380D02*
X112961904Y-68152380D01*
X113342857Y-68152380D01*
X113438095Y-68200000D01*
X113485714Y-68247619D01*
X113533333Y-68342857D01*
X113533333Y-68485714D01*
X113485714Y-68580952D01*
X113438095Y-68628571D01*
X113342857Y-68676190D01*
X112961904Y-68676190D01*
X114390476Y-68152380D02*
X114200000Y-68152380D01*
X114104761Y-68200000D01*
X114057142Y-68247619D01*
X113961904Y-68390476D01*
X113914285Y-68580952D01*
X113914285Y-68961904D01*
X113961904Y-69057142D01*
X114009523Y-69104761D01*
X114104761Y-69152380D01*
X114295238Y-69152380D01*
X114390476Y-69104761D01*
X114438095Y-69057142D01*
X114485714Y-68961904D01*
X114485714Y-68723809D01*
X114438095Y-68628571D01*
X114390476Y-68580952D01*
X114295238Y-68533333D01*
X114104761Y-68533333D01*
X114009523Y-68580952D01*
X113961904Y-68628571D01*
X113914285Y-68723809D01*
%TO.C,R7*%
X113533333Y-64502380D02*
X113200000Y-64026190D01*
X112961904Y-64502380D02*
X112961904Y-63502380D01*
X113342857Y-63502380D01*
X113438095Y-63550000D01*
X113485714Y-63597619D01*
X113533333Y-63692857D01*
X113533333Y-63835714D01*
X113485714Y-63930952D01*
X113438095Y-63978571D01*
X113342857Y-64026190D01*
X112961904Y-64026190D01*
X113866666Y-63502380D02*
X114533333Y-63502380D01*
X114104761Y-64502380D01*
%TO.C,R8*%
X138183333Y-67677380D02*
X137850000Y-67201190D01*
X137611904Y-67677380D02*
X137611904Y-66677380D01*
X137992857Y-66677380D01*
X138088095Y-66725000D01*
X138135714Y-66772619D01*
X138183333Y-66867857D01*
X138183333Y-67010714D01*
X138135714Y-67105952D01*
X138088095Y-67153571D01*
X137992857Y-67201190D01*
X137611904Y-67201190D01*
X138754761Y-67105952D02*
X138659523Y-67058333D01*
X138611904Y-67010714D01*
X138564285Y-66915476D01*
X138564285Y-66867857D01*
X138611904Y-66772619D01*
X138659523Y-66725000D01*
X138754761Y-66677380D01*
X138945238Y-66677380D01*
X139040476Y-66725000D01*
X139088095Y-66772619D01*
X139135714Y-66867857D01*
X139135714Y-66915476D01*
X139088095Y-67010714D01*
X139040476Y-67058333D01*
X138945238Y-67105952D01*
X138754761Y-67105952D01*
X138659523Y-67153571D01*
X138611904Y-67201190D01*
X138564285Y-67296428D01*
X138564285Y-67486904D01*
X138611904Y-67582142D01*
X138659523Y-67629761D01*
X138754761Y-67677380D01*
X138945238Y-67677380D01*
X139040476Y-67629761D01*
X139088095Y-67582142D01*
X139135714Y-67486904D01*
X139135714Y-67296428D01*
X139088095Y-67201190D01*
X139040476Y-67153571D01*
X138945238Y-67105952D01*
%TO.C,R9*%
X113533333Y-66152380D02*
X113200000Y-65676190D01*
X112961904Y-66152380D02*
X112961904Y-65152380D01*
X113342857Y-65152380D01*
X113438095Y-65200000D01*
X113485714Y-65247619D01*
X113533333Y-65342857D01*
X113533333Y-65485714D01*
X113485714Y-65580952D01*
X113438095Y-65628571D01*
X113342857Y-65676190D01*
X112961904Y-65676190D01*
X114009523Y-66152380D02*
X114200000Y-66152380D01*
X114295238Y-66104761D01*
X114342857Y-66057142D01*
X114438095Y-65914285D01*
X114485714Y-65723809D01*
X114485714Y-65342857D01*
X114438095Y-65247619D01*
X114390476Y-65200000D01*
X114295238Y-65152380D01*
X114104761Y-65152380D01*
X114009523Y-65200000D01*
X113961904Y-65247619D01*
X113914285Y-65342857D01*
X113914285Y-65580952D01*
X113961904Y-65676190D01*
X114009523Y-65723809D01*
X114104761Y-65771428D01*
X114295238Y-65771428D01*
X114390476Y-65723809D01*
X114438095Y-65676190D01*
X114485714Y-65580952D01*
%TO.C,R10*%
X146202380Y-59892857D02*
X145726190Y-60226190D01*
X146202380Y-60464285D02*
X145202380Y-60464285D01*
X145202380Y-60083333D01*
X145250000Y-59988095D01*
X145297619Y-59940476D01*
X145392857Y-59892857D01*
X145535714Y-59892857D01*
X145630952Y-59940476D01*
X145678571Y-59988095D01*
X145726190Y-60083333D01*
X145726190Y-60464285D01*
X146202380Y-58940476D02*
X146202380Y-59511904D01*
X146202380Y-59226190D02*
X145202380Y-59226190D01*
X145345238Y-59321428D01*
X145440476Y-59416666D01*
X145488095Y-59511904D01*
X145202380Y-58321428D02*
X145202380Y-58226190D01*
X145250000Y-58130952D01*
X145297619Y-58083333D01*
X145392857Y-58035714D01*
X145583333Y-57988095D01*
X145821428Y-57988095D01*
X146011904Y-58035714D01*
X146107142Y-58083333D01*
X146154761Y-58130952D01*
X146202380Y-58226190D01*
X146202380Y-58321428D01*
X146154761Y-58416666D01*
X146107142Y-58464285D01*
X146011904Y-58511904D01*
X145821428Y-58559523D01*
X145583333Y-58559523D01*
X145392857Y-58511904D01*
X145297619Y-58464285D01*
X145250000Y-58416666D01*
X145202380Y-58321428D01*
%TO.C,R12*%
X147902380Y-59942857D02*
X147426190Y-60276190D01*
X147902380Y-60514285D02*
X146902380Y-60514285D01*
X146902380Y-60133333D01*
X146950000Y-60038095D01*
X146997619Y-59990476D01*
X147092857Y-59942857D01*
X147235714Y-59942857D01*
X147330952Y-59990476D01*
X147378571Y-60038095D01*
X147426190Y-60133333D01*
X147426190Y-60514285D01*
X147902380Y-58990476D02*
X147902380Y-59561904D01*
X147902380Y-59276190D02*
X146902380Y-59276190D01*
X147045238Y-59371428D01*
X147140476Y-59466666D01*
X147188095Y-59561904D01*
X146997619Y-58609523D02*
X146950000Y-58561904D01*
X146902380Y-58466666D01*
X146902380Y-58228571D01*
X146950000Y-58133333D01*
X146997619Y-58085714D01*
X147092857Y-58038095D01*
X147188095Y-58038095D01*
X147330952Y-58085714D01*
X147902380Y-58657142D01*
X147902380Y-58038095D01*
%TO.C,R13*%
X150802380Y-59942857D02*
X150326190Y-60276190D01*
X150802380Y-60514285D02*
X149802380Y-60514285D01*
X149802380Y-60133333D01*
X149850000Y-60038095D01*
X149897619Y-59990476D01*
X149992857Y-59942857D01*
X150135714Y-59942857D01*
X150230952Y-59990476D01*
X150278571Y-60038095D01*
X150326190Y-60133333D01*
X150326190Y-60514285D01*
X150802380Y-58990476D02*
X150802380Y-59561904D01*
X150802380Y-59276190D02*
X149802380Y-59276190D01*
X149945238Y-59371428D01*
X150040476Y-59466666D01*
X150088095Y-59561904D01*
X149802380Y-58657142D02*
X149802380Y-58038095D01*
X150183333Y-58371428D01*
X150183333Y-58228571D01*
X150230952Y-58133333D01*
X150278571Y-58085714D01*
X150373809Y-58038095D01*
X150611904Y-58038095D01*
X150707142Y-58085714D01*
X150754761Y-58133333D01*
X150802380Y-58228571D01*
X150802380Y-58514285D01*
X150754761Y-58609523D01*
X150707142Y-58657142D01*
%TO.C,R14*%
X132357142Y-79702380D02*
X132023809Y-79226190D01*
X131785714Y-79702380D02*
X131785714Y-78702380D01*
X132166666Y-78702380D01*
X132261904Y-78750000D01*
X132309523Y-78797619D01*
X132357142Y-78892857D01*
X132357142Y-79035714D01*
X132309523Y-79130952D01*
X132261904Y-79178571D01*
X132166666Y-79226190D01*
X131785714Y-79226190D01*
X133309523Y-79702380D02*
X132738095Y-79702380D01*
X133023809Y-79702380D02*
X133023809Y-78702380D01*
X132928571Y-78845238D01*
X132833333Y-78940476D01*
X132738095Y-78988095D01*
X134166666Y-79035714D02*
X134166666Y-79702380D01*
X133928571Y-78654761D02*
X133690476Y-79369047D01*
X134309523Y-79369047D01*
%TO.C,SW1*%
X130216666Y-64304761D02*
X130359523Y-64352380D01*
X130597619Y-64352380D01*
X130692857Y-64304761D01*
X130740476Y-64257142D01*
X130788095Y-64161904D01*
X130788095Y-64066666D01*
X130740476Y-63971428D01*
X130692857Y-63923809D01*
X130597619Y-63876190D01*
X130407142Y-63828571D01*
X130311904Y-63780952D01*
X130264285Y-63733333D01*
X130216666Y-63638095D01*
X130216666Y-63542857D01*
X130264285Y-63447619D01*
X130311904Y-63400000D01*
X130407142Y-63352380D01*
X130645238Y-63352380D01*
X130788095Y-63400000D01*
X131121428Y-63352380D02*
X131359523Y-64352380D01*
X131550000Y-63638095D01*
X131740476Y-64352380D01*
X131978571Y-63352380D01*
X132883333Y-64352380D02*
X132311904Y-64352380D01*
X132597619Y-64352380D02*
X132597619Y-63352380D01*
X132502380Y-63495238D01*
X132407142Y-63590476D01*
X132311904Y-63638095D01*
%TO.C,U2*%
X125238095Y-61302380D02*
X125238095Y-62111904D01*
X125285714Y-62207142D01*
X125333333Y-62254761D01*
X125428571Y-62302380D01*
X125619047Y-62302380D01*
X125714285Y-62254761D01*
X125761904Y-62207142D01*
X125809523Y-62111904D01*
X125809523Y-61302380D01*
X126238095Y-61397619D02*
X126285714Y-61350000D01*
X126380952Y-61302380D01*
X126619047Y-61302380D01*
X126714285Y-61350000D01*
X126761904Y-61397619D01*
X126809523Y-61492857D01*
X126809523Y-61588095D01*
X126761904Y-61730952D01*
X126190476Y-62302380D01*
X126809523Y-62302380D01*
%TO.C,U3*%
X116538095Y-61252380D02*
X116538095Y-62061904D01*
X116585714Y-62157142D01*
X116633333Y-62204761D01*
X116728571Y-62252380D01*
X116919047Y-62252380D01*
X117014285Y-62204761D01*
X117061904Y-62157142D01*
X117109523Y-62061904D01*
X117109523Y-61252380D01*
X117490476Y-61252380D02*
X118109523Y-61252380D01*
X117776190Y-61633333D01*
X117919047Y-61633333D01*
X118014285Y-61680952D01*
X118061904Y-61728571D01*
X118109523Y-61823809D01*
X118109523Y-62061904D01*
X118061904Y-62157142D01*
X118014285Y-62204761D01*
X117919047Y-62252380D01*
X117633333Y-62252380D01*
X117538095Y-62204761D01*
X117490476Y-62157142D01*
%TD*%
M02*
