%TF.GenerationSoftware,KiCad,Pcbnew,5.1.9+dfsg1-1~bpo10+1*%
%TF.CreationDate,2021-05-09T13:01:11+08:00*%
%TF.ProjectId,serprog,73657270-726f-4672-9e6b-696361645f70,rev?*%
%TF.SameCoordinates,Original*%
%TF.FileFunction,Copper,L1,Top*%
%TF.FilePolarity,Positive*%
%FSLAX46Y46*%
G04 Gerber Fmt 4.6, Leading zero omitted, Abs format (unit mm)*
G04 Created by KiCad (PCBNEW 5.1.9+dfsg1-1~bpo10+1) date 2021-05-09 13:01:11*
%MOMM*%
%LPD*%
G01*
G04 APERTURE LIST*
%TA.AperFunction,SMDPad,CuDef*%
%ADD10R,1.900000X1.500000*%
%TD*%
%TA.AperFunction,ComponentPad*%
%ADD11C,1.450000*%
%TD*%
%TA.AperFunction,SMDPad,CuDef*%
%ADD12R,1.350000X0.400000*%
%TD*%
%TA.AperFunction,ComponentPad*%
%ADD13O,1.900000X1.200000*%
%TD*%
%TA.AperFunction,SMDPad,CuDef*%
%ADD14R,1.900000X1.200000*%
%TD*%
%TA.AperFunction,ComponentPad*%
%ADD15O,1.600000X1.600000*%
%TD*%
%TA.AperFunction,ComponentPad*%
%ADD16R,1.600000X1.600000*%
%TD*%
%TA.AperFunction,ComponentPad*%
%ADD17C,1.500000*%
%TD*%
%TA.AperFunction,ComponentPad*%
%ADD18O,1.400000X2.200000*%
%TD*%
%TA.AperFunction,ComponentPad*%
%ADD19C,1.524000*%
%TD*%
%TA.AperFunction,SMDPad,CuDef*%
%ADD20R,0.900000X0.800000*%
%TD*%
%TA.AperFunction,ViaPad*%
%ADD21C,0.800000*%
%TD*%
%TA.AperFunction,Conductor*%
%ADD22C,0.250000*%
%TD*%
%TA.AperFunction,Conductor*%
%ADD23C,0.500000*%
%TD*%
%TA.AperFunction,Conductor*%
%ADD24C,0.254000*%
%TD*%
%TA.AperFunction,Conductor*%
%ADD25C,0.100000*%
%TD*%
G04 APERTURE END LIST*
D10*
%TO.P,J1,6*%
%TO.N,GND*%
X103562500Y-64200000D03*
D11*
X106262500Y-60700000D03*
D12*
%TO.P,J1,2*%
%TO.N,Net-(J1-Pad2)*%
X106262500Y-62550000D03*
%TO.P,J1,1*%
%TO.N,Net-(F1-Pad1)*%
X106262500Y-61900000D03*
%TO.P,J1,5*%
%TO.N,GND*%
X106262500Y-64500000D03*
%TO.P,J1,4*%
%TO.N,Net-(J1-Pad4)*%
X106262500Y-63850000D03*
%TO.P,J1,3*%
%TO.N,Net-(J1-Pad3)*%
X106262500Y-63200000D03*
D11*
%TO.P,J1,6*%
%TO.N,GND*%
X106262500Y-65700000D03*
D10*
X103562500Y-62200000D03*
D13*
X103562500Y-59700000D03*
X103562500Y-66700000D03*
D14*
X103562500Y-66100000D03*
X103562500Y-60300000D03*
%TD*%
D15*
%TO.P,U4,8*%
%TO.N,FLASH_VCC*%
X152420000Y-69150000D03*
%TO.P,U4,4*%
%TO.N,GND*%
X144800000Y-76770000D03*
%TO.P,U4,7*%
%TO.N,FLASH_VCC*%
X152420000Y-71690000D03*
%TO.P,U4,3*%
X144800000Y-74230000D03*
%TO.P,U4,6*%
%TO.N,FLASH_SCK*%
X152420000Y-74230000D03*
%TO.P,U4,2*%
%TO.N,FLASH_MISO*%
X144800000Y-71690000D03*
%TO.P,U4,5*%
%TO.N,FLASH_MOSI*%
X152420000Y-76770000D03*
D16*
%TO.P,U4,1*%
%TO.N,FLASH_NSS*%
X144800000Y-69150000D03*
%TD*%
D17*
%TO.P,Y1,2*%
%TO.N,OSC_O*%
X125630000Y-81450000D03*
%TO.P,Y1,1*%
%TO.N,OSC_I*%
X120750000Y-81450000D03*
%TD*%
%TO.P,U5,64*%
%TO.N,+3V3*%
%TA.AperFunction,SMDPad,CuDef*%
G36*
G01*
X118125000Y-75600000D02*
X116725000Y-75600000D01*
G75*
G02*
X116650000Y-75525000I0J75000D01*
G01*
X116650000Y-75375000D01*
G75*
G02*
X116725000Y-75300000I75000J0D01*
G01*
X118125000Y-75300000D01*
G75*
G02*
X118200000Y-75375000I0J-75000D01*
G01*
X118200000Y-75525000D01*
G75*
G02*
X118125000Y-75600000I-75000J0D01*
G01*
G37*
%TD.AperFunction*%
%TO.P,U5,63*%
%TO.N,GND*%
%TA.AperFunction,SMDPad,CuDef*%
G36*
G01*
X118125000Y-75100000D02*
X116725000Y-75100000D01*
G75*
G02*
X116650000Y-75025000I0J75000D01*
G01*
X116650000Y-74875000D01*
G75*
G02*
X116725000Y-74800000I75000J0D01*
G01*
X118125000Y-74800000D01*
G75*
G02*
X118200000Y-74875000I0J-75000D01*
G01*
X118200000Y-75025000D01*
G75*
G02*
X118125000Y-75100000I-75000J0D01*
G01*
G37*
%TD.AperFunction*%
%TO.P,U5,62*%
%TO.N,Net-(U5-Pad62)*%
%TA.AperFunction,SMDPad,CuDef*%
G36*
G01*
X118125000Y-74600000D02*
X116725000Y-74600000D01*
G75*
G02*
X116650000Y-74525000I0J75000D01*
G01*
X116650000Y-74375000D01*
G75*
G02*
X116725000Y-74300000I75000J0D01*
G01*
X118125000Y-74300000D01*
G75*
G02*
X118200000Y-74375000I0J-75000D01*
G01*
X118200000Y-74525000D01*
G75*
G02*
X118125000Y-74600000I-75000J0D01*
G01*
G37*
%TD.AperFunction*%
%TO.P,U5,61*%
%TO.N,Net-(U5-Pad61)*%
%TA.AperFunction,SMDPad,CuDef*%
G36*
G01*
X118125000Y-74100000D02*
X116725000Y-74100000D01*
G75*
G02*
X116650000Y-74025000I0J75000D01*
G01*
X116650000Y-73875000D01*
G75*
G02*
X116725000Y-73800000I75000J0D01*
G01*
X118125000Y-73800000D01*
G75*
G02*
X118200000Y-73875000I0J-75000D01*
G01*
X118200000Y-74025000D01*
G75*
G02*
X118125000Y-74100000I-75000J0D01*
G01*
G37*
%TD.AperFunction*%
%TO.P,U5,60*%
%TO.N,BOOT0*%
%TA.AperFunction,SMDPad,CuDef*%
G36*
G01*
X118125000Y-73600000D02*
X116725000Y-73600000D01*
G75*
G02*
X116650000Y-73525000I0J75000D01*
G01*
X116650000Y-73375000D01*
G75*
G02*
X116725000Y-73300000I75000J0D01*
G01*
X118125000Y-73300000D01*
G75*
G02*
X118200000Y-73375000I0J-75000D01*
G01*
X118200000Y-73525000D01*
G75*
G02*
X118125000Y-73600000I-75000J0D01*
G01*
G37*
%TD.AperFunction*%
%TO.P,U5,59*%
%TO.N,Net-(U5-Pad59)*%
%TA.AperFunction,SMDPad,CuDef*%
G36*
G01*
X118125000Y-73100000D02*
X116725000Y-73100000D01*
G75*
G02*
X116650000Y-73025000I0J75000D01*
G01*
X116650000Y-72875000D01*
G75*
G02*
X116725000Y-72800000I75000J0D01*
G01*
X118125000Y-72800000D01*
G75*
G02*
X118200000Y-72875000I0J-75000D01*
G01*
X118200000Y-73025000D01*
G75*
G02*
X118125000Y-73100000I-75000J0D01*
G01*
G37*
%TD.AperFunction*%
%TO.P,U5,58*%
%TO.N,Net-(U5-Pad58)*%
%TA.AperFunction,SMDPad,CuDef*%
G36*
G01*
X118125000Y-72600000D02*
X116725000Y-72600000D01*
G75*
G02*
X116650000Y-72525000I0J75000D01*
G01*
X116650000Y-72375000D01*
G75*
G02*
X116725000Y-72300000I75000J0D01*
G01*
X118125000Y-72300000D01*
G75*
G02*
X118200000Y-72375000I0J-75000D01*
G01*
X118200000Y-72525000D01*
G75*
G02*
X118125000Y-72600000I-75000J0D01*
G01*
G37*
%TD.AperFunction*%
%TO.P,U5,57*%
%TO.N,Net-(U5-Pad57)*%
%TA.AperFunction,SMDPad,CuDef*%
G36*
G01*
X118125000Y-72100000D02*
X116725000Y-72100000D01*
G75*
G02*
X116650000Y-72025000I0J75000D01*
G01*
X116650000Y-71875000D01*
G75*
G02*
X116725000Y-71800000I75000J0D01*
G01*
X118125000Y-71800000D01*
G75*
G02*
X118200000Y-71875000I0J-75000D01*
G01*
X118200000Y-72025000D01*
G75*
G02*
X118125000Y-72100000I-75000J0D01*
G01*
G37*
%TD.AperFunction*%
%TO.P,U5,56*%
%TO.N,Net-(U5-Pad56)*%
%TA.AperFunction,SMDPad,CuDef*%
G36*
G01*
X118125000Y-71600000D02*
X116725000Y-71600000D01*
G75*
G02*
X116650000Y-71525000I0J75000D01*
G01*
X116650000Y-71375000D01*
G75*
G02*
X116725000Y-71300000I75000J0D01*
G01*
X118125000Y-71300000D01*
G75*
G02*
X118200000Y-71375000I0J-75000D01*
G01*
X118200000Y-71525000D01*
G75*
G02*
X118125000Y-71600000I-75000J0D01*
G01*
G37*
%TD.AperFunction*%
%TO.P,U5,55*%
%TO.N,BOOT1*%
%TA.AperFunction,SMDPad,CuDef*%
G36*
G01*
X118125000Y-71100000D02*
X116725000Y-71100000D01*
G75*
G02*
X116650000Y-71025000I0J75000D01*
G01*
X116650000Y-70875000D01*
G75*
G02*
X116725000Y-70800000I75000J0D01*
G01*
X118125000Y-70800000D01*
G75*
G02*
X118200000Y-70875000I0J-75000D01*
G01*
X118200000Y-71025000D01*
G75*
G02*
X118125000Y-71100000I-75000J0D01*
G01*
G37*
%TD.AperFunction*%
%TO.P,U5,54*%
%TO.N,Net-(U5-Pad54)*%
%TA.AperFunction,SMDPad,CuDef*%
G36*
G01*
X118125000Y-70600000D02*
X116725000Y-70600000D01*
G75*
G02*
X116650000Y-70525000I0J75000D01*
G01*
X116650000Y-70375000D01*
G75*
G02*
X116725000Y-70300000I75000J0D01*
G01*
X118125000Y-70300000D01*
G75*
G02*
X118200000Y-70375000I0J-75000D01*
G01*
X118200000Y-70525000D01*
G75*
G02*
X118125000Y-70600000I-75000J0D01*
G01*
G37*
%TD.AperFunction*%
%TO.P,U5,53*%
%TO.N,Net-(U5-Pad53)*%
%TA.AperFunction,SMDPad,CuDef*%
G36*
G01*
X118125000Y-70100000D02*
X116725000Y-70100000D01*
G75*
G02*
X116650000Y-70025000I0J75000D01*
G01*
X116650000Y-69875000D01*
G75*
G02*
X116725000Y-69800000I75000J0D01*
G01*
X118125000Y-69800000D01*
G75*
G02*
X118200000Y-69875000I0J-75000D01*
G01*
X118200000Y-70025000D01*
G75*
G02*
X118125000Y-70100000I-75000J0D01*
G01*
G37*
%TD.AperFunction*%
%TO.P,U5,52*%
%TO.N,Net-(U5-Pad52)*%
%TA.AperFunction,SMDPad,CuDef*%
G36*
G01*
X118125000Y-69600000D02*
X116725000Y-69600000D01*
G75*
G02*
X116650000Y-69525000I0J75000D01*
G01*
X116650000Y-69375000D01*
G75*
G02*
X116725000Y-69300000I75000J0D01*
G01*
X118125000Y-69300000D01*
G75*
G02*
X118200000Y-69375000I0J-75000D01*
G01*
X118200000Y-69525000D01*
G75*
G02*
X118125000Y-69600000I-75000J0D01*
G01*
G37*
%TD.AperFunction*%
%TO.P,U5,51*%
%TO.N,Net-(U5-Pad51)*%
%TA.AperFunction,SMDPad,CuDef*%
G36*
G01*
X118125000Y-69100000D02*
X116725000Y-69100000D01*
G75*
G02*
X116650000Y-69025000I0J75000D01*
G01*
X116650000Y-68875000D01*
G75*
G02*
X116725000Y-68800000I75000J0D01*
G01*
X118125000Y-68800000D01*
G75*
G02*
X118200000Y-68875000I0J-75000D01*
G01*
X118200000Y-69025000D01*
G75*
G02*
X118125000Y-69100000I-75000J0D01*
G01*
G37*
%TD.AperFunction*%
%TO.P,U5,50*%
%TO.N,Net-(U5-Pad50)*%
%TA.AperFunction,SMDPad,CuDef*%
G36*
G01*
X118125000Y-68600000D02*
X116725000Y-68600000D01*
G75*
G02*
X116650000Y-68525000I0J75000D01*
G01*
X116650000Y-68375000D01*
G75*
G02*
X116725000Y-68300000I75000J0D01*
G01*
X118125000Y-68300000D01*
G75*
G02*
X118200000Y-68375000I0J-75000D01*
G01*
X118200000Y-68525000D01*
G75*
G02*
X118125000Y-68600000I-75000J0D01*
G01*
G37*
%TD.AperFunction*%
%TO.P,U5,49*%
%TO.N,Net-(U5-Pad49)*%
%TA.AperFunction,SMDPad,CuDef*%
G36*
G01*
X118125000Y-68100000D02*
X116725000Y-68100000D01*
G75*
G02*
X116650000Y-68025000I0J75000D01*
G01*
X116650000Y-67875000D01*
G75*
G02*
X116725000Y-67800000I75000J0D01*
G01*
X118125000Y-67800000D01*
G75*
G02*
X118200000Y-67875000I0J-75000D01*
G01*
X118200000Y-68025000D01*
G75*
G02*
X118125000Y-68100000I-75000J0D01*
G01*
G37*
%TD.AperFunction*%
%TO.P,U5,48*%
%TO.N,+3V3*%
%TA.AperFunction,SMDPad,CuDef*%
G36*
G01*
X119425000Y-66800000D02*
X119275000Y-66800000D01*
G75*
G02*
X119200000Y-66725000I0J75000D01*
G01*
X119200000Y-65325000D01*
G75*
G02*
X119275000Y-65250000I75000J0D01*
G01*
X119425000Y-65250000D01*
G75*
G02*
X119500000Y-65325000I0J-75000D01*
G01*
X119500000Y-66725000D01*
G75*
G02*
X119425000Y-66800000I-75000J0D01*
G01*
G37*
%TD.AperFunction*%
%TO.P,U5,47*%
%TO.N,GND*%
%TA.AperFunction,SMDPad,CuDef*%
G36*
G01*
X119925000Y-66800000D02*
X119775000Y-66800000D01*
G75*
G02*
X119700000Y-66725000I0J75000D01*
G01*
X119700000Y-65325000D01*
G75*
G02*
X119775000Y-65250000I75000J0D01*
G01*
X119925000Y-65250000D01*
G75*
G02*
X120000000Y-65325000I0J-75000D01*
G01*
X120000000Y-66725000D01*
G75*
G02*
X119925000Y-66800000I-75000J0D01*
G01*
G37*
%TD.AperFunction*%
%TO.P,U5,46*%
%TO.N,PA13*%
%TA.AperFunction,SMDPad,CuDef*%
G36*
G01*
X120425000Y-66800000D02*
X120275000Y-66800000D01*
G75*
G02*
X120200000Y-66725000I0J75000D01*
G01*
X120200000Y-65325000D01*
G75*
G02*
X120275000Y-65250000I75000J0D01*
G01*
X120425000Y-65250000D01*
G75*
G02*
X120500000Y-65325000I0J-75000D01*
G01*
X120500000Y-66725000D01*
G75*
G02*
X120425000Y-66800000I-75000J0D01*
G01*
G37*
%TD.AperFunction*%
%TO.P,U5,45*%
%TO.N,USBDP*%
%TA.AperFunction,SMDPad,CuDef*%
G36*
G01*
X120925000Y-66800000D02*
X120775000Y-66800000D01*
G75*
G02*
X120700000Y-66725000I0J75000D01*
G01*
X120700000Y-65325000D01*
G75*
G02*
X120775000Y-65250000I75000J0D01*
G01*
X120925000Y-65250000D01*
G75*
G02*
X121000000Y-65325000I0J-75000D01*
G01*
X121000000Y-66725000D01*
G75*
G02*
X120925000Y-66800000I-75000J0D01*
G01*
G37*
%TD.AperFunction*%
%TO.P,U5,44*%
%TO.N,USBDM*%
%TA.AperFunction,SMDPad,CuDef*%
G36*
G01*
X121425000Y-66800000D02*
X121275000Y-66800000D01*
G75*
G02*
X121200000Y-66725000I0J75000D01*
G01*
X121200000Y-65325000D01*
G75*
G02*
X121275000Y-65250000I75000J0D01*
G01*
X121425000Y-65250000D01*
G75*
G02*
X121500000Y-65325000I0J-75000D01*
G01*
X121500000Y-66725000D01*
G75*
G02*
X121425000Y-66800000I-75000J0D01*
G01*
G37*
%TD.AperFunction*%
%TO.P,U5,43*%
%TO.N,USART1_RX*%
%TA.AperFunction,SMDPad,CuDef*%
G36*
G01*
X121925000Y-66800000D02*
X121775000Y-66800000D01*
G75*
G02*
X121700000Y-66725000I0J75000D01*
G01*
X121700000Y-65325000D01*
G75*
G02*
X121775000Y-65250000I75000J0D01*
G01*
X121925000Y-65250000D01*
G75*
G02*
X122000000Y-65325000I0J-75000D01*
G01*
X122000000Y-66725000D01*
G75*
G02*
X121925000Y-66800000I-75000J0D01*
G01*
G37*
%TD.AperFunction*%
%TO.P,U5,42*%
%TO.N,USART1_TX*%
%TA.AperFunction,SMDPad,CuDef*%
G36*
G01*
X122425000Y-66800000D02*
X122275000Y-66800000D01*
G75*
G02*
X122200000Y-66725000I0J75000D01*
G01*
X122200000Y-65325000D01*
G75*
G02*
X122275000Y-65250000I75000J0D01*
G01*
X122425000Y-65250000D01*
G75*
G02*
X122500000Y-65325000I0J-75000D01*
G01*
X122500000Y-66725000D01*
G75*
G02*
X122425000Y-66800000I-75000J0D01*
G01*
G37*
%TD.AperFunction*%
%TO.P,U5,41*%
%TO.N,Net-(U5-Pad41)*%
%TA.AperFunction,SMDPad,CuDef*%
G36*
G01*
X122925000Y-66800000D02*
X122775000Y-66800000D01*
G75*
G02*
X122700000Y-66725000I0J75000D01*
G01*
X122700000Y-65325000D01*
G75*
G02*
X122775000Y-65250000I75000J0D01*
G01*
X122925000Y-65250000D01*
G75*
G02*
X123000000Y-65325000I0J-75000D01*
G01*
X123000000Y-66725000D01*
G75*
G02*
X122925000Y-66800000I-75000J0D01*
G01*
G37*
%TD.AperFunction*%
%TO.P,U5,40*%
%TO.N,Net-(U5-Pad40)*%
%TA.AperFunction,SMDPad,CuDef*%
G36*
G01*
X123425000Y-66800000D02*
X123275000Y-66800000D01*
G75*
G02*
X123200000Y-66725000I0J75000D01*
G01*
X123200000Y-65325000D01*
G75*
G02*
X123275000Y-65250000I75000J0D01*
G01*
X123425000Y-65250000D01*
G75*
G02*
X123500000Y-65325000I0J-75000D01*
G01*
X123500000Y-66725000D01*
G75*
G02*
X123425000Y-66800000I-75000J0D01*
G01*
G37*
%TD.AperFunction*%
%TO.P,U5,39*%
%TO.N,Net-(U5-Pad39)*%
%TA.AperFunction,SMDPad,CuDef*%
G36*
G01*
X123925000Y-66800000D02*
X123775000Y-66800000D01*
G75*
G02*
X123700000Y-66725000I0J75000D01*
G01*
X123700000Y-65325000D01*
G75*
G02*
X123775000Y-65250000I75000J0D01*
G01*
X123925000Y-65250000D01*
G75*
G02*
X124000000Y-65325000I0J-75000D01*
G01*
X124000000Y-66725000D01*
G75*
G02*
X123925000Y-66800000I-75000J0D01*
G01*
G37*
%TD.AperFunction*%
%TO.P,U5,38*%
%TO.N,Net-(U5-Pad38)*%
%TA.AperFunction,SMDPad,CuDef*%
G36*
G01*
X124425000Y-66800000D02*
X124275000Y-66800000D01*
G75*
G02*
X124200000Y-66725000I0J75000D01*
G01*
X124200000Y-65325000D01*
G75*
G02*
X124275000Y-65250000I75000J0D01*
G01*
X124425000Y-65250000D01*
G75*
G02*
X124500000Y-65325000I0J-75000D01*
G01*
X124500000Y-66725000D01*
G75*
G02*
X124425000Y-66800000I-75000J0D01*
G01*
G37*
%TD.AperFunction*%
%TO.P,U5,37*%
%TO.N,Net-(U5-Pad37)*%
%TA.AperFunction,SMDPad,CuDef*%
G36*
G01*
X124925000Y-66800000D02*
X124775000Y-66800000D01*
G75*
G02*
X124700000Y-66725000I0J75000D01*
G01*
X124700000Y-65325000D01*
G75*
G02*
X124775000Y-65250000I75000J0D01*
G01*
X124925000Y-65250000D01*
G75*
G02*
X125000000Y-65325000I0J-75000D01*
G01*
X125000000Y-66725000D01*
G75*
G02*
X124925000Y-66800000I-75000J0D01*
G01*
G37*
%TD.AperFunction*%
%TO.P,U5,36*%
%TO.N,Net-(U5-Pad36)*%
%TA.AperFunction,SMDPad,CuDef*%
G36*
G01*
X125425000Y-66800000D02*
X125275000Y-66800000D01*
G75*
G02*
X125200000Y-66725000I0J75000D01*
G01*
X125200000Y-65325000D01*
G75*
G02*
X125275000Y-65250000I75000J0D01*
G01*
X125425000Y-65250000D01*
G75*
G02*
X125500000Y-65325000I0J-75000D01*
G01*
X125500000Y-66725000D01*
G75*
G02*
X125425000Y-66800000I-75000J0D01*
G01*
G37*
%TD.AperFunction*%
%TO.P,U5,35*%
%TO.N,Net-(U5-Pad35)*%
%TA.AperFunction,SMDPad,CuDef*%
G36*
G01*
X125925000Y-66800000D02*
X125775000Y-66800000D01*
G75*
G02*
X125700000Y-66725000I0J75000D01*
G01*
X125700000Y-65325000D01*
G75*
G02*
X125775000Y-65250000I75000J0D01*
G01*
X125925000Y-65250000D01*
G75*
G02*
X126000000Y-65325000I0J-75000D01*
G01*
X126000000Y-66725000D01*
G75*
G02*
X125925000Y-66800000I-75000J0D01*
G01*
G37*
%TD.AperFunction*%
%TO.P,U5,34*%
%TO.N,Net-(U5-Pad34)*%
%TA.AperFunction,SMDPad,CuDef*%
G36*
G01*
X126425000Y-66800000D02*
X126275000Y-66800000D01*
G75*
G02*
X126200000Y-66725000I0J75000D01*
G01*
X126200000Y-65325000D01*
G75*
G02*
X126275000Y-65250000I75000J0D01*
G01*
X126425000Y-65250000D01*
G75*
G02*
X126500000Y-65325000I0J-75000D01*
G01*
X126500000Y-66725000D01*
G75*
G02*
X126425000Y-66800000I-75000J0D01*
G01*
G37*
%TD.AperFunction*%
%TO.P,U5,33*%
%TO.N,Net-(U5-Pad33)*%
%TA.AperFunction,SMDPad,CuDef*%
G36*
G01*
X126925000Y-66800000D02*
X126775000Y-66800000D01*
G75*
G02*
X126700000Y-66725000I0J75000D01*
G01*
X126700000Y-65325000D01*
G75*
G02*
X126775000Y-65250000I75000J0D01*
G01*
X126925000Y-65250000D01*
G75*
G02*
X127000000Y-65325000I0J-75000D01*
G01*
X127000000Y-66725000D01*
G75*
G02*
X126925000Y-66800000I-75000J0D01*
G01*
G37*
%TD.AperFunction*%
%TO.P,U5,32*%
%TO.N,+3V3*%
%TA.AperFunction,SMDPad,CuDef*%
G36*
G01*
X129475000Y-68100000D02*
X128075000Y-68100000D01*
G75*
G02*
X128000000Y-68025000I0J75000D01*
G01*
X128000000Y-67875000D01*
G75*
G02*
X128075000Y-67800000I75000J0D01*
G01*
X129475000Y-67800000D01*
G75*
G02*
X129550000Y-67875000I0J-75000D01*
G01*
X129550000Y-68025000D01*
G75*
G02*
X129475000Y-68100000I-75000J0D01*
G01*
G37*
%TD.AperFunction*%
%TO.P,U5,31*%
%TO.N,GND*%
%TA.AperFunction,SMDPad,CuDef*%
G36*
G01*
X129475000Y-68600000D02*
X128075000Y-68600000D01*
G75*
G02*
X128000000Y-68525000I0J75000D01*
G01*
X128000000Y-68375000D01*
G75*
G02*
X128075000Y-68300000I75000J0D01*
G01*
X129475000Y-68300000D01*
G75*
G02*
X129550000Y-68375000I0J-75000D01*
G01*
X129550000Y-68525000D01*
G75*
G02*
X129475000Y-68600000I-75000J0D01*
G01*
G37*
%TD.AperFunction*%
%TO.P,U5,30*%
%TO.N,Net-(U5-Pad30)*%
%TA.AperFunction,SMDPad,CuDef*%
G36*
G01*
X129475000Y-69100000D02*
X128075000Y-69100000D01*
G75*
G02*
X128000000Y-69025000I0J75000D01*
G01*
X128000000Y-68875000D01*
G75*
G02*
X128075000Y-68800000I75000J0D01*
G01*
X129475000Y-68800000D01*
G75*
G02*
X129550000Y-68875000I0J-75000D01*
G01*
X129550000Y-69025000D01*
G75*
G02*
X129475000Y-69100000I-75000J0D01*
G01*
G37*
%TD.AperFunction*%
%TO.P,U5,29*%
%TO.N,Net-(U5-Pad29)*%
%TA.AperFunction,SMDPad,CuDef*%
G36*
G01*
X129475000Y-69600000D02*
X128075000Y-69600000D01*
G75*
G02*
X128000000Y-69525000I0J75000D01*
G01*
X128000000Y-69375000D01*
G75*
G02*
X128075000Y-69300000I75000J0D01*
G01*
X129475000Y-69300000D01*
G75*
G02*
X129550000Y-69375000I0J-75000D01*
G01*
X129550000Y-69525000D01*
G75*
G02*
X129475000Y-69600000I-75000J0D01*
G01*
G37*
%TD.AperFunction*%
%TO.P,U5,28*%
%TO.N,Net-(U5-Pad28)*%
%TA.AperFunction,SMDPad,CuDef*%
G36*
G01*
X129475000Y-70100000D02*
X128075000Y-70100000D01*
G75*
G02*
X128000000Y-70025000I0J75000D01*
G01*
X128000000Y-69875000D01*
G75*
G02*
X128075000Y-69800000I75000J0D01*
G01*
X129475000Y-69800000D01*
G75*
G02*
X129550000Y-69875000I0J-75000D01*
G01*
X129550000Y-70025000D01*
G75*
G02*
X129475000Y-70100000I-75000J0D01*
G01*
G37*
%TD.AperFunction*%
%TO.P,U5,27*%
%TO.N,Net-(U5-Pad27)*%
%TA.AperFunction,SMDPad,CuDef*%
G36*
G01*
X129475000Y-70600000D02*
X128075000Y-70600000D01*
G75*
G02*
X128000000Y-70525000I0J75000D01*
G01*
X128000000Y-70375000D01*
G75*
G02*
X128075000Y-70300000I75000J0D01*
G01*
X129475000Y-70300000D01*
G75*
G02*
X129550000Y-70375000I0J-75000D01*
G01*
X129550000Y-70525000D01*
G75*
G02*
X129475000Y-70600000I-75000J0D01*
G01*
G37*
%TD.AperFunction*%
%TO.P,U5,26*%
%TO.N,Net-(U5-Pad26)*%
%TA.AperFunction,SMDPad,CuDef*%
G36*
G01*
X129475000Y-71100000D02*
X128075000Y-71100000D01*
G75*
G02*
X128000000Y-71025000I0J75000D01*
G01*
X128000000Y-70875000D01*
G75*
G02*
X128075000Y-70800000I75000J0D01*
G01*
X129475000Y-70800000D01*
G75*
G02*
X129550000Y-70875000I0J-75000D01*
G01*
X129550000Y-71025000D01*
G75*
G02*
X129475000Y-71100000I-75000J0D01*
G01*
G37*
%TD.AperFunction*%
%TO.P,U5,25*%
%TO.N,Net-(U5-Pad25)*%
%TA.AperFunction,SMDPad,CuDef*%
G36*
G01*
X129475000Y-71600000D02*
X128075000Y-71600000D01*
G75*
G02*
X128000000Y-71525000I0J75000D01*
G01*
X128000000Y-71375000D01*
G75*
G02*
X128075000Y-71300000I75000J0D01*
G01*
X129475000Y-71300000D01*
G75*
G02*
X129550000Y-71375000I0J-75000D01*
G01*
X129550000Y-71525000D01*
G75*
G02*
X129475000Y-71600000I-75000J0D01*
G01*
G37*
%TD.AperFunction*%
%TO.P,U5,24*%
%TO.N,Net-(U5-Pad24)*%
%TA.AperFunction,SMDPad,CuDef*%
G36*
G01*
X129475000Y-72100000D02*
X128075000Y-72100000D01*
G75*
G02*
X128000000Y-72025000I0J75000D01*
G01*
X128000000Y-71875000D01*
G75*
G02*
X128075000Y-71800000I75000J0D01*
G01*
X129475000Y-71800000D01*
G75*
G02*
X129550000Y-71875000I0J-75000D01*
G01*
X129550000Y-72025000D01*
G75*
G02*
X129475000Y-72100000I-75000J0D01*
G01*
G37*
%TD.AperFunction*%
%TO.P,U5,23*%
%TO.N,SPI1_MOSI*%
%TA.AperFunction,SMDPad,CuDef*%
G36*
G01*
X129475000Y-72600000D02*
X128075000Y-72600000D01*
G75*
G02*
X128000000Y-72525000I0J75000D01*
G01*
X128000000Y-72375000D01*
G75*
G02*
X128075000Y-72300000I75000J0D01*
G01*
X129475000Y-72300000D01*
G75*
G02*
X129550000Y-72375000I0J-75000D01*
G01*
X129550000Y-72525000D01*
G75*
G02*
X129475000Y-72600000I-75000J0D01*
G01*
G37*
%TD.AperFunction*%
%TO.P,U5,22*%
%TO.N,SPI1_MISO*%
%TA.AperFunction,SMDPad,CuDef*%
G36*
G01*
X129475000Y-73100000D02*
X128075000Y-73100000D01*
G75*
G02*
X128000000Y-73025000I0J75000D01*
G01*
X128000000Y-72875000D01*
G75*
G02*
X128075000Y-72800000I75000J0D01*
G01*
X129475000Y-72800000D01*
G75*
G02*
X129550000Y-72875000I0J-75000D01*
G01*
X129550000Y-73025000D01*
G75*
G02*
X129475000Y-73100000I-75000J0D01*
G01*
G37*
%TD.AperFunction*%
%TO.P,U5,21*%
%TO.N,SPI1_SCK*%
%TA.AperFunction,SMDPad,CuDef*%
G36*
G01*
X129475000Y-73600000D02*
X128075000Y-73600000D01*
G75*
G02*
X128000000Y-73525000I0J75000D01*
G01*
X128000000Y-73375000D01*
G75*
G02*
X128075000Y-73300000I75000J0D01*
G01*
X129475000Y-73300000D01*
G75*
G02*
X129550000Y-73375000I0J-75000D01*
G01*
X129550000Y-73525000D01*
G75*
G02*
X129475000Y-73600000I-75000J0D01*
G01*
G37*
%TD.AperFunction*%
%TO.P,U5,20*%
%TO.N,SPI1_NSS*%
%TA.AperFunction,SMDPad,CuDef*%
G36*
G01*
X129475000Y-74100000D02*
X128075000Y-74100000D01*
G75*
G02*
X128000000Y-74025000I0J75000D01*
G01*
X128000000Y-73875000D01*
G75*
G02*
X128075000Y-73800000I75000J0D01*
G01*
X129475000Y-73800000D01*
G75*
G02*
X129550000Y-73875000I0J-75000D01*
G01*
X129550000Y-74025000D01*
G75*
G02*
X129475000Y-74100000I-75000J0D01*
G01*
G37*
%TD.AperFunction*%
%TO.P,U5,19*%
%TO.N,+3V3*%
%TA.AperFunction,SMDPad,CuDef*%
G36*
G01*
X129475000Y-74600000D02*
X128075000Y-74600000D01*
G75*
G02*
X128000000Y-74525000I0J75000D01*
G01*
X128000000Y-74375000D01*
G75*
G02*
X128075000Y-74300000I75000J0D01*
G01*
X129475000Y-74300000D01*
G75*
G02*
X129550000Y-74375000I0J-75000D01*
G01*
X129550000Y-74525000D01*
G75*
G02*
X129475000Y-74600000I-75000J0D01*
G01*
G37*
%TD.AperFunction*%
%TO.P,U5,18*%
%TO.N,GND*%
%TA.AperFunction,SMDPad,CuDef*%
G36*
G01*
X129475000Y-75100000D02*
X128075000Y-75100000D01*
G75*
G02*
X128000000Y-75025000I0J75000D01*
G01*
X128000000Y-74875000D01*
G75*
G02*
X128075000Y-74800000I75000J0D01*
G01*
X129475000Y-74800000D01*
G75*
G02*
X129550000Y-74875000I0J-75000D01*
G01*
X129550000Y-75025000D01*
G75*
G02*
X129475000Y-75100000I-75000J0D01*
G01*
G37*
%TD.AperFunction*%
%TO.P,U5,17*%
%TO.N,Net-(U5-Pad17)*%
%TA.AperFunction,SMDPad,CuDef*%
G36*
G01*
X129475000Y-75600000D02*
X128075000Y-75600000D01*
G75*
G02*
X128000000Y-75525000I0J75000D01*
G01*
X128000000Y-75375000D01*
G75*
G02*
X128075000Y-75300000I75000J0D01*
G01*
X129475000Y-75300000D01*
G75*
G02*
X129550000Y-75375000I0J-75000D01*
G01*
X129550000Y-75525000D01*
G75*
G02*
X129475000Y-75600000I-75000J0D01*
G01*
G37*
%TD.AperFunction*%
%TO.P,U5,16*%
%TO.N,Net-(U5-Pad16)*%
%TA.AperFunction,SMDPad,CuDef*%
G36*
G01*
X126925000Y-78150000D02*
X126775000Y-78150000D01*
G75*
G02*
X126700000Y-78075000I0J75000D01*
G01*
X126700000Y-76675000D01*
G75*
G02*
X126775000Y-76600000I75000J0D01*
G01*
X126925000Y-76600000D01*
G75*
G02*
X127000000Y-76675000I0J-75000D01*
G01*
X127000000Y-78075000D01*
G75*
G02*
X126925000Y-78150000I-75000J0D01*
G01*
G37*
%TD.AperFunction*%
%TO.P,U5,15*%
%TO.N,Net-(U5-Pad15)*%
%TA.AperFunction,SMDPad,CuDef*%
G36*
G01*
X126425000Y-78150000D02*
X126275000Y-78150000D01*
G75*
G02*
X126200000Y-78075000I0J75000D01*
G01*
X126200000Y-76675000D01*
G75*
G02*
X126275000Y-76600000I75000J0D01*
G01*
X126425000Y-76600000D01*
G75*
G02*
X126500000Y-76675000I0J-75000D01*
G01*
X126500000Y-78075000D01*
G75*
G02*
X126425000Y-78150000I-75000J0D01*
G01*
G37*
%TD.AperFunction*%
%TO.P,U5,14*%
%TO.N,PA0*%
%TA.AperFunction,SMDPad,CuDef*%
G36*
G01*
X125925000Y-78150000D02*
X125775000Y-78150000D01*
G75*
G02*
X125700000Y-78075000I0J75000D01*
G01*
X125700000Y-76675000D01*
G75*
G02*
X125775000Y-76600000I75000J0D01*
G01*
X125925000Y-76600000D01*
G75*
G02*
X126000000Y-76675000I0J-75000D01*
G01*
X126000000Y-78075000D01*
G75*
G02*
X125925000Y-78150000I-75000J0D01*
G01*
G37*
%TD.AperFunction*%
%TO.P,U5,13*%
%TO.N,+3V3*%
%TA.AperFunction,SMDPad,CuDef*%
G36*
G01*
X125425000Y-78150000D02*
X125275000Y-78150000D01*
G75*
G02*
X125200000Y-78075000I0J75000D01*
G01*
X125200000Y-76675000D01*
G75*
G02*
X125275000Y-76600000I75000J0D01*
G01*
X125425000Y-76600000D01*
G75*
G02*
X125500000Y-76675000I0J-75000D01*
G01*
X125500000Y-78075000D01*
G75*
G02*
X125425000Y-78150000I-75000J0D01*
G01*
G37*
%TD.AperFunction*%
%TO.P,U5,12*%
%TO.N,GND*%
%TA.AperFunction,SMDPad,CuDef*%
G36*
G01*
X124925000Y-78150000D02*
X124775000Y-78150000D01*
G75*
G02*
X124700000Y-78075000I0J75000D01*
G01*
X124700000Y-76675000D01*
G75*
G02*
X124775000Y-76600000I75000J0D01*
G01*
X124925000Y-76600000D01*
G75*
G02*
X125000000Y-76675000I0J-75000D01*
G01*
X125000000Y-78075000D01*
G75*
G02*
X124925000Y-78150000I-75000J0D01*
G01*
G37*
%TD.AperFunction*%
%TO.P,U5,11*%
%TO.N,Net-(U5-Pad11)*%
%TA.AperFunction,SMDPad,CuDef*%
G36*
G01*
X124425000Y-78150000D02*
X124275000Y-78150000D01*
G75*
G02*
X124200000Y-78075000I0J75000D01*
G01*
X124200000Y-76675000D01*
G75*
G02*
X124275000Y-76600000I75000J0D01*
G01*
X124425000Y-76600000D01*
G75*
G02*
X124500000Y-76675000I0J-75000D01*
G01*
X124500000Y-78075000D01*
G75*
G02*
X124425000Y-78150000I-75000J0D01*
G01*
G37*
%TD.AperFunction*%
%TO.P,U5,10*%
%TO.N,Net-(U5-Pad10)*%
%TA.AperFunction,SMDPad,CuDef*%
G36*
G01*
X123925000Y-78150000D02*
X123775000Y-78150000D01*
G75*
G02*
X123700000Y-78075000I0J75000D01*
G01*
X123700000Y-76675000D01*
G75*
G02*
X123775000Y-76600000I75000J0D01*
G01*
X123925000Y-76600000D01*
G75*
G02*
X124000000Y-76675000I0J-75000D01*
G01*
X124000000Y-78075000D01*
G75*
G02*
X123925000Y-78150000I-75000J0D01*
G01*
G37*
%TD.AperFunction*%
%TO.P,U5,9*%
%TO.N,Net-(U5-Pad9)*%
%TA.AperFunction,SMDPad,CuDef*%
G36*
G01*
X123425000Y-78150000D02*
X123275000Y-78150000D01*
G75*
G02*
X123200000Y-78075000I0J75000D01*
G01*
X123200000Y-76675000D01*
G75*
G02*
X123275000Y-76600000I75000J0D01*
G01*
X123425000Y-76600000D01*
G75*
G02*
X123500000Y-76675000I0J-75000D01*
G01*
X123500000Y-78075000D01*
G75*
G02*
X123425000Y-78150000I-75000J0D01*
G01*
G37*
%TD.AperFunction*%
%TO.P,U5,8*%
%TO.N,Net-(U5-Pad8)*%
%TA.AperFunction,SMDPad,CuDef*%
G36*
G01*
X122925000Y-78150000D02*
X122775000Y-78150000D01*
G75*
G02*
X122700000Y-78075000I0J75000D01*
G01*
X122700000Y-76675000D01*
G75*
G02*
X122775000Y-76600000I75000J0D01*
G01*
X122925000Y-76600000D01*
G75*
G02*
X123000000Y-76675000I0J-75000D01*
G01*
X123000000Y-78075000D01*
G75*
G02*
X122925000Y-78150000I-75000J0D01*
G01*
G37*
%TD.AperFunction*%
%TO.P,U5,7*%
%TO.N,nRST*%
%TA.AperFunction,SMDPad,CuDef*%
G36*
G01*
X122425000Y-78150000D02*
X122275000Y-78150000D01*
G75*
G02*
X122200000Y-78075000I0J75000D01*
G01*
X122200000Y-76675000D01*
G75*
G02*
X122275000Y-76600000I75000J0D01*
G01*
X122425000Y-76600000D01*
G75*
G02*
X122500000Y-76675000I0J-75000D01*
G01*
X122500000Y-78075000D01*
G75*
G02*
X122425000Y-78150000I-75000J0D01*
G01*
G37*
%TD.AperFunction*%
%TO.P,U5,6*%
%TO.N,OSC_O*%
%TA.AperFunction,SMDPad,CuDef*%
G36*
G01*
X121925000Y-78150000D02*
X121775000Y-78150000D01*
G75*
G02*
X121700000Y-78075000I0J75000D01*
G01*
X121700000Y-76675000D01*
G75*
G02*
X121775000Y-76600000I75000J0D01*
G01*
X121925000Y-76600000D01*
G75*
G02*
X122000000Y-76675000I0J-75000D01*
G01*
X122000000Y-78075000D01*
G75*
G02*
X121925000Y-78150000I-75000J0D01*
G01*
G37*
%TD.AperFunction*%
%TO.P,U5,5*%
%TO.N,OSC_I*%
%TA.AperFunction,SMDPad,CuDef*%
G36*
G01*
X121425000Y-78150000D02*
X121275000Y-78150000D01*
G75*
G02*
X121200000Y-78075000I0J75000D01*
G01*
X121200000Y-76675000D01*
G75*
G02*
X121275000Y-76600000I75000J0D01*
G01*
X121425000Y-76600000D01*
G75*
G02*
X121500000Y-76675000I0J-75000D01*
G01*
X121500000Y-78075000D01*
G75*
G02*
X121425000Y-78150000I-75000J0D01*
G01*
G37*
%TD.AperFunction*%
%TO.P,U5,4*%
%TO.N,Net-(U5-Pad4)*%
%TA.AperFunction,SMDPad,CuDef*%
G36*
G01*
X120925000Y-78150000D02*
X120775000Y-78150000D01*
G75*
G02*
X120700000Y-78075000I0J75000D01*
G01*
X120700000Y-76675000D01*
G75*
G02*
X120775000Y-76600000I75000J0D01*
G01*
X120925000Y-76600000D01*
G75*
G02*
X121000000Y-76675000I0J-75000D01*
G01*
X121000000Y-78075000D01*
G75*
G02*
X120925000Y-78150000I-75000J0D01*
G01*
G37*
%TD.AperFunction*%
%TO.P,U5,3*%
%TO.N,Net-(U5-Pad3)*%
%TA.AperFunction,SMDPad,CuDef*%
G36*
G01*
X120425000Y-78150000D02*
X120275000Y-78150000D01*
G75*
G02*
X120200000Y-78075000I0J75000D01*
G01*
X120200000Y-76675000D01*
G75*
G02*
X120275000Y-76600000I75000J0D01*
G01*
X120425000Y-76600000D01*
G75*
G02*
X120500000Y-76675000I0J-75000D01*
G01*
X120500000Y-78075000D01*
G75*
G02*
X120425000Y-78150000I-75000J0D01*
G01*
G37*
%TD.AperFunction*%
%TO.P,U5,2*%
%TO.N,Net-(U5-Pad2)*%
%TA.AperFunction,SMDPad,CuDef*%
G36*
G01*
X119925000Y-78150000D02*
X119775000Y-78150000D01*
G75*
G02*
X119700000Y-78075000I0J75000D01*
G01*
X119700000Y-76675000D01*
G75*
G02*
X119775000Y-76600000I75000J0D01*
G01*
X119925000Y-76600000D01*
G75*
G02*
X120000000Y-76675000I0J-75000D01*
G01*
X120000000Y-78075000D01*
G75*
G02*
X119925000Y-78150000I-75000J0D01*
G01*
G37*
%TD.AperFunction*%
%TO.P,U5,1*%
%TO.N,+3V3*%
%TA.AperFunction,SMDPad,CuDef*%
G36*
G01*
X119425000Y-78150000D02*
X119275000Y-78150000D01*
G75*
G02*
X119200000Y-78075000I0J75000D01*
G01*
X119200000Y-76675000D01*
G75*
G02*
X119275000Y-76600000I75000J0D01*
G01*
X119425000Y-76600000D01*
G75*
G02*
X119500000Y-76675000I0J-75000D01*
G01*
X119500000Y-78075000D01*
G75*
G02*
X119425000Y-78150000I-75000J0D01*
G01*
G37*
%TD.AperFunction*%
%TD*%
%TO.P,R11,1*%
%TO.N,FLASH_VCC*%
%TA.AperFunction,SMDPad,CuDef*%
G36*
G01*
X151575000Y-61175000D02*
X152125000Y-61175000D01*
G75*
G02*
X152325000Y-61375000I0J-200000D01*
G01*
X152325000Y-61775000D01*
G75*
G02*
X152125000Y-61975000I-200000J0D01*
G01*
X151575000Y-61975000D01*
G75*
G02*
X151375000Y-61775000I0J200000D01*
G01*
X151375000Y-61375000D01*
G75*
G02*
X151575000Y-61175000I200000J0D01*
G01*
G37*
%TD.AperFunction*%
%TO.P,R11,2*%
%TO.N,FLASH_SCK*%
%TA.AperFunction,SMDPad,CuDef*%
G36*
G01*
X151575000Y-62825000D02*
X152125000Y-62825000D01*
G75*
G02*
X152325000Y-63025000I0J-200000D01*
G01*
X152325000Y-63425000D01*
G75*
G02*
X152125000Y-63625000I-200000J0D01*
G01*
X151575000Y-63625000D01*
G75*
G02*
X151375000Y-63425000I0J200000D01*
G01*
X151375000Y-63025000D01*
G75*
G02*
X151575000Y-62825000I200000J0D01*
G01*
G37*
%TD.AperFunction*%
%TD*%
%TO.P,C1,1*%
%TO.N,nRST*%
%TA.AperFunction,SMDPad,CuDef*%
G36*
G01*
X110500000Y-79775000D02*
X110000000Y-79775000D01*
G75*
G02*
X109775000Y-79550000I0J225000D01*
G01*
X109775000Y-79100000D01*
G75*
G02*
X110000000Y-78875000I225000J0D01*
G01*
X110500000Y-78875000D01*
G75*
G02*
X110725000Y-79100000I0J-225000D01*
G01*
X110725000Y-79550000D01*
G75*
G02*
X110500000Y-79775000I-225000J0D01*
G01*
G37*
%TD.AperFunction*%
%TO.P,C1,2*%
%TO.N,GND*%
%TA.AperFunction,SMDPad,CuDef*%
G36*
G01*
X110500000Y-78225000D02*
X110000000Y-78225000D01*
G75*
G02*
X109775000Y-78000000I0J225000D01*
G01*
X109775000Y-77550000D01*
G75*
G02*
X110000000Y-77325000I225000J0D01*
G01*
X110500000Y-77325000D01*
G75*
G02*
X110725000Y-77550000I0J-225000D01*
G01*
X110725000Y-78000000D01*
G75*
G02*
X110500000Y-78225000I-225000J0D01*
G01*
G37*
%TD.AperFunction*%
%TD*%
%TO.P,C2,2*%
%TO.N,GND*%
%TA.AperFunction,SMDPad,CuDef*%
G36*
G01*
X116550000Y-81150000D02*
X116050000Y-81150000D01*
G75*
G02*
X115825000Y-80925000I0J225000D01*
G01*
X115825000Y-80475000D01*
G75*
G02*
X116050000Y-80250000I225000J0D01*
G01*
X116550000Y-80250000D01*
G75*
G02*
X116775000Y-80475000I0J-225000D01*
G01*
X116775000Y-80925000D01*
G75*
G02*
X116550000Y-81150000I-225000J0D01*
G01*
G37*
%TD.AperFunction*%
%TO.P,C2,1*%
%TO.N,OSC_I*%
%TA.AperFunction,SMDPad,CuDef*%
G36*
G01*
X116550000Y-82700000D02*
X116050000Y-82700000D01*
G75*
G02*
X115825000Y-82475000I0J225000D01*
G01*
X115825000Y-82025000D01*
G75*
G02*
X116050000Y-81800000I225000J0D01*
G01*
X116550000Y-81800000D01*
G75*
G02*
X116775000Y-82025000I0J-225000D01*
G01*
X116775000Y-82475000D01*
G75*
G02*
X116550000Y-82700000I-225000J0D01*
G01*
G37*
%TD.AperFunction*%
%TD*%
%TO.P,C3,1*%
%TO.N,OSC_O*%
%TA.AperFunction,SMDPad,CuDef*%
G36*
G01*
X130350000Y-82675000D02*
X129850000Y-82675000D01*
G75*
G02*
X129625000Y-82450000I0J225000D01*
G01*
X129625000Y-82000000D01*
G75*
G02*
X129850000Y-81775000I225000J0D01*
G01*
X130350000Y-81775000D01*
G75*
G02*
X130575000Y-82000000I0J-225000D01*
G01*
X130575000Y-82450000D01*
G75*
G02*
X130350000Y-82675000I-225000J0D01*
G01*
G37*
%TD.AperFunction*%
%TO.P,C3,2*%
%TO.N,GND*%
%TA.AperFunction,SMDPad,CuDef*%
G36*
G01*
X130350000Y-81125000D02*
X129850000Y-81125000D01*
G75*
G02*
X129625000Y-80900000I0J225000D01*
G01*
X129625000Y-80450000D01*
G75*
G02*
X129850000Y-80225000I225000J0D01*
G01*
X130350000Y-80225000D01*
G75*
G02*
X130575000Y-80450000I0J-225000D01*
G01*
X130575000Y-80900000D01*
G75*
G02*
X130350000Y-81125000I-225000J0D01*
G01*
G37*
%TD.AperFunction*%
%TD*%
%TO.P,C4,2*%
%TO.N,GND*%
%TA.AperFunction,SMDPad,CuDef*%
G36*
G01*
X128450000Y-59925000D02*
X128950000Y-59925000D01*
G75*
G02*
X129175000Y-60150000I0J-225000D01*
G01*
X129175000Y-60600000D01*
G75*
G02*
X128950000Y-60825000I-225000J0D01*
G01*
X128450000Y-60825000D01*
G75*
G02*
X128225000Y-60600000I0J225000D01*
G01*
X128225000Y-60150000D01*
G75*
G02*
X128450000Y-59925000I225000J0D01*
G01*
G37*
%TD.AperFunction*%
%TO.P,C4,1*%
%TO.N,+1V8*%
%TA.AperFunction,SMDPad,CuDef*%
G36*
G01*
X128450000Y-58375000D02*
X128950000Y-58375000D01*
G75*
G02*
X129175000Y-58600000I0J-225000D01*
G01*
X129175000Y-59050000D01*
G75*
G02*
X128950000Y-59275000I-225000J0D01*
G01*
X128450000Y-59275000D01*
G75*
G02*
X128225000Y-59050000I0J225000D01*
G01*
X128225000Y-58600000D01*
G75*
G02*
X128450000Y-58375000I225000J0D01*
G01*
G37*
%TD.AperFunction*%
%TD*%
%TO.P,C5,1*%
%TO.N,+3V3*%
%TA.AperFunction,SMDPad,CuDef*%
G36*
G01*
X119650000Y-58375000D02*
X120150000Y-58375000D01*
G75*
G02*
X120375000Y-58600000I0J-225000D01*
G01*
X120375000Y-59050000D01*
G75*
G02*
X120150000Y-59275000I-225000J0D01*
G01*
X119650000Y-59275000D01*
G75*
G02*
X119425000Y-59050000I0J225000D01*
G01*
X119425000Y-58600000D01*
G75*
G02*
X119650000Y-58375000I225000J0D01*
G01*
G37*
%TD.AperFunction*%
%TO.P,C5,2*%
%TO.N,GND*%
%TA.AperFunction,SMDPad,CuDef*%
G36*
G01*
X119650000Y-59925000D02*
X120150000Y-59925000D01*
G75*
G02*
X120375000Y-60150000I0J-225000D01*
G01*
X120375000Y-60600000D01*
G75*
G02*
X120150000Y-60825000I-225000J0D01*
G01*
X119650000Y-60825000D01*
G75*
G02*
X119425000Y-60600000I0J225000D01*
G01*
X119425000Y-60150000D01*
G75*
G02*
X119650000Y-59925000I225000J0D01*
G01*
G37*
%TD.AperFunction*%
%TD*%
%TO.P,C6,2*%
%TO.N,GND*%
%TA.AperFunction,SMDPad,CuDef*%
G36*
G01*
X110775000Y-75750000D02*
X110775000Y-76250000D01*
G75*
G02*
X110550000Y-76475000I-225000J0D01*
G01*
X110100000Y-76475000D01*
G75*
G02*
X109875000Y-76250000I0J225000D01*
G01*
X109875000Y-75750000D01*
G75*
G02*
X110100000Y-75525000I225000J0D01*
G01*
X110550000Y-75525000D01*
G75*
G02*
X110775000Y-75750000I0J-225000D01*
G01*
G37*
%TD.AperFunction*%
%TO.P,C6,1*%
%TO.N,+3V3*%
%TA.AperFunction,SMDPad,CuDef*%
G36*
G01*
X112325000Y-75750000D02*
X112325000Y-76250000D01*
G75*
G02*
X112100000Y-76475000I-225000J0D01*
G01*
X111650000Y-76475000D01*
G75*
G02*
X111425000Y-76250000I0J225000D01*
G01*
X111425000Y-75750000D01*
G75*
G02*
X111650000Y-75525000I225000J0D01*
G01*
X112100000Y-75525000D01*
G75*
G02*
X112325000Y-75750000I0J-225000D01*
G01*
G37*
%TD.AperFunction*%
%TD*%
%TO.P,C7,1*%
%TO.N,+3V3*%
%TA.AperFunction,SMDPad,CuDef*%
G36*
G01*
X134225000Y-75500000D02*
X134225000Y-76000000D01*
G75*
G02*
X134000000Y-76225000I-225000J0D01*
G01*
X133550000Y-76225000D01*
G75*
G02*
X133325000Y-76000000I0J225000D01*
G01*
X133325000Y-75500000D01*
G75*
G02*
X133550000Y-75275000I225000J0D01*
G01*
X134000000Y-75275000D01*
G75*
G02*
X134225000Y-75500000I0J-225000D01*
G01*
G37*
%TD.AperFunction*%
%TO.P,C7,2*%
%TO.N,GND*%
%TA.AperFunction,SMDPad,CuDef*%
G36*
G01*
X132675000Y-75500000D02*
X132675000Y-76000000D01*
G75*
G02*
X132450000Y-76225000I-225000J0D01*
G01*
X132000000Y-76225000D01*
G75*
G02*
X131775000Y-76000000I0J225000D01*
G01*
X131775000Y-75500000D01*
G75*
G02*
X132000000Y-75275000I225000J0D01*
G01*
X132450000Y-75275000D01*
G75*
G02*
X132675000Y-75500000I0J-225000D01*
G01*
G37*
%TD.AperFunction*%
%TD*%
%TO.P,C8,1*%
%TO.N,+1V8*%
%TA.AperFunction,SMDPad,CuDef*%
G36*
G01*
X130250000Y-58350000D02*
X130750000Y-58350000D01*
G75*
G02*
X130975000Y-58575000I0J-225000D01*
G01*
X130975000Y-59025000D01*
G75*
G02*
X130750000Y-59250000I-225000J0D01*
G01*
X130250000Y-59250000D01*
G75*
G02*
X130025000Y-59025000I0J225000D01*
G01*
X130025000Y-58575000D01*
G75*
G02*
X130250000Y-58350000I225000J0D01*
G01*
G37*
%TD.AperFunction*%
%TO.P,C8,2*%
%TO.N,GND*%
%TA.AperFunction,SMDPad,CuDef*%
G36*
G01*
X130250000Y-59900000D02*
X130750000Y-59900000D01*
G75*
G02*
X130975000Y-60125000I0J-225000D01*
G01*
X130975000Y-60575000D01*
G75*
G02*
X130750000Y-60800000I-225000J0D01*
G01*
X130250000Y-60800000D01*
G75*
G02*
X130025000Y-60575000I0J225000D01*
G01*
X130025000Y-60125000D01*
G75*
G02*
X130250000Y-59900000I225000J0D01*
G01*
G37*
%TD.AperFunction*%
%TD*%
%TO.P,C9,2*%
%TO.N,GND*%
%TA.AperFunction,SMDPad,CuDef*%
G36*
G01*
X121450000Y-59900000D02*
X121950000Y-59900000D01*
G75*
G02*
X122175000Y-60125000I0J-225000D01*
G01*
X122175000Y-60575000D01*
G75*
G02*
X121950000Y-60800000I-225000J0D01*
G01*
X121450000Y-60800000D01*
G75*
G02*
X121225000Y-60575000I0J225000D01*
G01*
X121225000Y-60125000D01*
G75*
G02*
X121450000Y-59900000I225000J0D01*
G01*
G37*
%TD.AperFunction*%
%TO.P,C9,1*%
%TO.N,+3V3*%
%TA.AperFunction,SMDPad,CuDef*%
G36*
G01*
X121450000Y-58350000D02*
X121950000Y-58350000D01*
G75*
G02*
X122175000Y-58575000I0J-225000D01*
G01*
X122175000Y-59025000D01*
G75*
G02*
X121950000Y-59250000I-225000J0D01*
G01*
X121450000Y-59250000D01*
G75*
G02*
X121225000Y-59025000I0J225000D01*
G01*
X121225000Y-58575000D01*
G75*
G02*
X121450000Y-58350000I225000J0D01*
G01*
G37*
%TD.AperFunction*%
%TD*%
%TO.P,C10,1*%
%TO.N,FLASH_VCC*%
%TA.AperFunction,SMDPad,CuDef*%
G36*
G01*
X136525000Y-76000000D02*
X136525000Y-75500000D01*
G75*
G02*
X136750000Y-75275000I225000J0D01*
G01*
X137200000Y-75275000D01*
G75*
G02*
X137425000Y-75500000I0J-225000D01*
G01*
X137425000Y-76000000D01*
G75*
G02*
X137200000Y-76225000I-225000J0D01*
G01*
X136750000Y-76225000D01*
G75*
G02*
X136525000Y-76000000I0J225000D01*
G01*
G37*
%TD.AperFunction*%
%TO.P,C10,2*%
%TO.N,GND*%
%TA.AperFunction,SMDPad,CuDef*%
G36*
G01*
X138075000Y-76000000D02*
X138075000Y-75500000D01*
G75*
G02*
X138300000Y-75275000I225000J0D01*
G01*
X138750000Y-75275000D01*
G75*
G02*
X138975000Y-75500000I0J-225000D01*
G01*
X138975000Y-76000000D01*
G75*
G02*
X138750000Y-76225000I-225000J0D01*
G01*
X138300000Y-76225000D01*
G75*
G02*
X138075000Y-76000000I0J225000D01*
G01*
G37*
%TD.AperFunction*%
%TD*%
%TO.P,C11,2*%
%TO.N,GND*%
%TA.AperFunction,SMDPad,CuDef*%
G36*
G01*
X138075000Y-77850000D02*
X138075000Y-77350000D01*
G75*
G02*
X138300000Y-77125000I225000J0D01*
G01*
X138750000Y-77125000D01*
G75*
G02*
X138975000Y-77350000I0J-225000D01*
G01*
X138975000Y-77850000D01*
G75*
G02*
X138750000Y-78075000I-225000J0D01*
G01*
X138300000Y-78075000D01*
G75*
G02*
X138075000Y-77850000I0J225000D01*
G01*
G37*
%TD.AperFunction*%
%TO.P,C11,1*%
%TO.N,+3V3*%
%TA.AperFunction,SMDPad,CuDef*%
G36*
G01*
X136525000Y-77850000D02*
X136525000Y-77350000D01*
G75*
G02*
X136750000Y-77125000I225000J0D01*
G01*
X137200000Y-77125000D01*
G75*
G02*
X137425000Y-77350000I0J-225000D01*
G01*
X137425000Y-77850000D01*
G75*
G02*
X137200000Y-78075000I-225000J0D01*
G01*
X136750000Y-78075000D01*
G75*
G02*
X136525000Y-77850000I0J225000D01*
G01*
G37*
%TD.AperFunction*%
%TD*%
%TO.P,C12,2*%
%TO.N,GND*%
%TA.AperFunction,SMDPad,CuDef*%
G36*
G01*
X132675000Y-77350000D02*
X132675000Y-77850000D01*
G75*
G02*
X132450000Y-78075000I-225000J0D01*
G01*
X132000000Y-78075000D01*
G75*
G02*
X131775000Y-77850000I0J225000D01*
G01*
X131775000Y-77350000D01*
G75*
G02*
X132000000Y-77125000I225000J0D01*
G01*
X132450000Y-77125000D01*
G75*
G02*
X132675000Y-77350000I0J-225000D01*
G01*
G37*
%TD.AperFunction*%
%TO.P,C12,1*%
%TO.N,+3V3*%
%TA.AperFunction,SMDPad,CuDef*%
G36*
G01*
X134225000Y-77350000D02*
X134225000Y-77850000D01*
G75*
G02*
X134000000Y-78075000I-225000J0D01*
G01*
X133550000Y-78075000D01*
G75*
G02*
X133325000Y-77850000I0J225000D01*
G01*
X133325000Y-77350000D01*
G75*
G02*
X133550000Y-77125000I225000J0D01*
G01*
X134000000Y-77125000D01*
G75*
G02*
X134225000Y-77350000I0J-225000D01*
G01*
G37*
%TD.AperFunction*%
%TD*%
%TO.P,C13,1*%
%TO.N,+3V3*%
%TA.AperFunction,SMDPad,CuDef*%
G36*
G01*
X131825000Y-66800000D02*
X131825000Y-66300000D01*
G75*
G02*
X132050000Y-66075000I225000J0D01*
G01*
X132500000Y-66075000D01*
G75*
G02*
X132725000Y-66300000I0J-225000D01*
G01*
X132725000Y-66800000D01*
G75*
G02*
X132500000Y-67025000I-225000J0D01*
G01*
X132050000Y-67025000D01*
G75*
G02*
X131825000Y-66800000I0J225000D01*
G01*
G37*
%TD.AperFunction*%
%TO.P,C13,2*%
%TO.N,GND*%
%TA.AperFunction,SMDPad,CuDef*%
G36*
G01*
X133375000Y-66800000D02*
X133375000Y-66300000D01*
G75*
G02*
X133600000Y-66075000I225000J0D01*
G01*
X134050000Y-66075000D01*
G75*
G02*
X134275000Y-66300000I0J-225000D01*
G01*
X134275000Y-66800000D01*
G75*
G02*
X134050000Y-67025000I-225000J0D01*
G01*
X133600000Y-67025000D01*
G75*
G02*
X133375000Y-66800000I0J225000D01*
G01*
G37*
%TD.AperFunction*%
%TD*%
%TO.P,C14,2*%
%TO.N,GND*%
%TA.AperFunction,SMDPad,CuDef*%
G36*
G01*
X115850000Y-65150000D02*
X115350000Y-65150000D01*
G75*
G02*
X115125000Y-64925000I0J225000D01*
G01*
X115125000Y-64475000D01*
G75*
G02*
X115350000Y-64250000I225000J0D01*
G01*
X115850000Y-64250000D01*
G75*
G02*
X116075000Y-64475000I0J-225000D01*
G01*
X116075000Y-64925000D01*
G75*
G02*
X115850000Y-65150000I-225000J0D01*
G01*
G37*
%TD.AperFunction*%
%TO.P,C14,1*%
%TO.N,+3V3*%
%TA.AperFunction,SMDPad,CuDef*%
G36*
G01*
X115850000Y-66700000D02*
X115350000Y-66700000D01*
G75*
G02*
X115125000Y-66475000I0J225000D01*
G01*
X115125000Y-66025000D01*
G75*
G02*
X115350000Y-65800000I225000J0D01*
G01*
X115850000Y-65800000D01*
G75*
G02*
X116075000Y-66025000I0J-225000D01*
G01*
X116075000Y-66475000D01*
G75*
G02*
X115850000Y-66700000I-225000J0D01*
G01*
G37*
%TD.AperFunction*%
%TD*%
%TO.P,D1,2*%
%TO.N,+3V3*%
%TA.AperFunction,SMDPad,CuDef*%
G36*
G01*
X134706250Y-81050000D02*
X134193750Y-81050000D01*
G75*
G02*
X133975000Y-80831250I0J218750D01*
G01*
X133975000Y-80393750D01*
G75*
G02*
X134193750Y-80175000I218750J0D01*
G01*
X134706250Y-80175000D01*
G75*
G02*
X134925000Y-80393750I0J-218750D01*
G01*
X134925000Y-80831250D01*
G75*
G02*
X134706250Y-81050000I-218750J0D01*
G01*
G37*
%TD.AperFunction*%
%TO.P,D1,1*%
%TO.N,Net-(D1-Pad1)*%
%TA.AperFunction,SMDPad,CuDef*%
G36*
G01*
X134706250Y-82625000D02*
X134193750Y-82625000D01*
G75*
G02*
X133975000Y-82406250I0J218750D01*
G01*
X133975000Y-81968750D01*
G75*
G02*
X134193750Y-81750000I218750J0D01*
G01*
X134706250Y-81750000D01*
G75*
G02*
X134925000Y-81968750I0J-218750D01*
G01*
X134925000Y-82406250D01*
G75*
G02*
X134706250Y-82625000I-218750J0D01*
G01*
G37*
%TD.AperFunction*%
%TD*%
%TO.P,D2,1*%
%TO.N,GND*%
%TA.AperFunction,SMDPad,CuDef*%
G36*
G01*
X136756250Y-82625000D02*
X136243750Y-82625000D01*
G75*
G02*
X136025000Y-82406250I0J218750D01*
G01*
X136025000Y-81968750D01*
G75*
G02*
X136243750Y-81750000I218750J0D01*
G01*
X136756250Y-81750000D01*
G75*
G02*
X136975000Y-81968750I0J-218750D01*
G01*
X136975000Y-82406250D01*
G75*
G02*
X136756250Y-82625000I-218750J0D01*
G01*
G37*
%TD.AperFunction*%
%TO.P,D2,2*%
%TO.N,Net-(D1-Pad1)*%
%TA.AperFunction,SMDPad,CuDef*%
G36*
G01*
X136756250Y-81050000D02*
X136243750Y-81050000D01*
G75*
G02*
X136025000Y-80831250I0J218750D01*
G01*
X136025000Y-80393750D01*
G75*
G02*
X136243750Y-80175000I218750J0D01*
G01*
X136756250Y-80175000D01*
G75*
G02*
X136975000Y-80393750I0J-218750D01*
G01*
X136975000Y-80831250D01*
G75*
G02*
X136756250Y-81050000I-218750J0D01*
G01*
G37*
%TD.AperFunction*%
%TD*%
%TO.P,F1,2*%
%TO.N,Net-(F1-Pad2)*%
%TA.AperFunction,SMDPad,CuDef*%
G36*
G01*
X112625000Y-60175000D02*
X112625000Y-58025000D01*
G75*
G02*
X112875000Y-57775000I250000J0D01*
G01*
X113625000Y-57775000D01*
G75*
G02*
X113875000Y-58025000I0J-250000D01*
G01*
X113875000Y-60175000D01*
G75*
G02*
X113625000Y-60425000I-250000J0D01*
G01*
X112875000Y-60425000D01*
G75*
G02*
X112625000Y-60175000I0J250000D01*
G01*
G37*
%TD.AperFunction*%
%TO.P,F1,1*%
%TO.N,Net-(F1-Pad1)*%
%TA.AperFunction,SMDPad,CuDef*%
G36*
G01*
X109825000Y-60175000D02*
X109825000Y-58025000D01*
G75*
G02*
X110075000Y-57775000I250000J0D01*
G01*
X110825000Y-57775000D01*
G75*
G02*
X111075000Y-58025000I0J-250000D01*
G01*
X111075000Y-60175000D01*
G75*
G02*
X110825000Y-60425000I-250000J0D01*
G01*
X110075000Y-60425000D01*
G75*
G02*
X109825000Y-60175000I0J250000D01*
G01*
G37*
%TD.AperFunction*%
%TD*%
%TO.P,R1,2*%
%TO.N,BOOT0*%
%TA.AperFunction,SMDPad,CuDef*%
G36*
G01*
X111525000Y-74325000D02*
X111525000Y-73775000D01*
G75*
G02*
X111725000Y-73575000I200000J0D01*
G01*
X112125000Y-73575000D01*
G75*
G02*
X112325000Y-73775000I0J-200000D01*
G01*
X112325000Y-74325000D01*
G75*
G02*
X112125000Y-74525000I-200000J0D01*
G01*
X111725000Y-74525000D01*
G75*
G02*
X111525000Y-74325000I0J200000D01*
G01*
G37*
%TD.AperFunction*%
%TO.P,R1,1*%
%TO.N,Net-(R1-Pad1)*%
%TA.AperFunction,SMDPad,CuDef*%
G36*
G01*
X109875000Y-74325000D02*
X109875000Y-73775000D01*
G75*
G02*
X110075000Y-73575000I200000J0D01*
G01*
X110475000Y-73575000D01*
G75*
G02*
X110675000Y-73775000I0J-200000D01*
G01*
X110675000Y-74325000D01*
G75*
G02*
X110475000Y-74525000I-200000J0D01*
G01*
X110075000Y-74525000D01*
G75*
G02*
X109875000Y-74325000I0J200000D01*
G01*
G37*
%TD.AperFunction*%
%TD*%
%TO.P,R2,2*%
%TO.N,+3V3*%
%TA.AperFunction,SMDPad,CuDef*%
G36*
G01*
X111525000Y-72375000D02*
X111525000Y-71825000D01*
G75*
G02*
X111725000Y-71625000I200000J0D01*
G01*
X112125000Y-71625000D01*
G75*
G02*
X112325000Y-71825000I0J-200000D01*
G01*
X112325000Y-72375000D01*
G75*
G02*
X112125000Y-72575000I-200000J0D01*
G01*
X111725000Y-72575000D01*
G75*
G02*
X111525000Y-72375000I0J200000D01*
G01*
G37*
%TD.AperFunction*%
%TO.P,R2,1*%
%TO.N,Net-(R1-Pad1)*%
%TA.AperFunction,SMDPad,CuDef*%
G36*
G01*
X109875000Y-72375000D02*
X109875000Y-71825000D01*
G75*
G02*
X110075000Y-71625000I200000J0D01*
G01*
X110475000Y-71625000D01*
G75*
G02*
X110675000Y-71825000I0J-200000D01*
G01*
X110675000Y-72375000D01*
G75*
G02*
X110475000Y-72575000I-200000J0D01*
G01*
X110075000Y-72575000D01*
G75*
G02*
X109875000Y-72375000I0J200000D01*
G01*
G37*
%TD.AperFunction*%
%TD*%
%TO.P,R3,2*%
%TO.N,GND*%
%TA.AperFunction,SMDPad,CuDef*%
G36*
G01*
X110675000Y-69875000D02*
X110675000Y-70425000D01*
G75*
G02*
X110475000Y-70625000I-200000J0D01*
G01*
X110075000Y-70625000D01*
G75*
G02*
X109875000Y-70425000I0J200000D01*
G01*
X109875000Y-69875000D01*
G75*
G02*
X110075000Y-69675000I200000J0D01*
G01*
X110475000Y-69675000D01*
G75*
G02*
X110675000Y-69875000I0J-200000D01*
G01*
G37*
%TD.AperFunction*%
%TO.P,R3,1*%
%TO.N,Net-(R1-Pad1)*%
%TA.AperFunction,SMDPad,CuDef*%
G36*
G01*
X112325000Y-69875000D02*
X112325000Y-70425000D01*
G75*
G02*
X112125000Y-70625000I-200000J0D01*
G01*
X111725000Y-70625000D01*
G75*
G02*
X111525000Y-70425000I0J200000D01*
G01*
X111525000Y-69875000D01*
G75*
G02*
X111725000Y-69675000I200000J0D01*
G01*
X112125000Y-69675000D01*
G75*
G02*
X112325000Y-69875000I0J-200000D01*
G01*
G37*
%TD.AperFunction*%
%TD*%
%TO.P,R4,2*%
%TO.N,nRST*%
%TA.AperFunction,SMDPad,CuDef*%
G36*
G01*
X111625000Y-78975000D02*
X112175000Y-78975000D01*
G75*
G02*
X112375000Y-79175000I0J-200000D01*
G01*
X112375000Y-79575000D01*
G75*
G02*
X112175000Y-79775000I-200000J0D01*
G01*
X111625000Y-79775000D01*
G75*
G02*
X111425000Y-79575000I0J200000D01*
G01*
X111425000Y-79175000D01*
G75*
G02*
X111625000Y-78975000I200000J0D01*
G01*
G37*
%TD.AperFunction*%
%TO.P,R4,1*%
%TO.N,+3V3*%
%TA.AperFunction,SMDPad,CuDef*%
G36*
G01*
X111625000Y-77325000D02*
X112175000Y-77325000D01*
G75*
G02*
X112375000Y-77525000I0J-200000D01*
G01*
X112375000Y-77925000D01*
G75*
G02*
X112175000Y-78125000I-200000J0D01*
G01*
X111625000Y-78125000D01*
G75*
G02*
X111425000Y-77925000I0J200000D01*
G01*
X111425000Y-77525000D01*
G75*
G02*
X111625000Y-77325000I200000J0D01*
G01*
G37*
%TD.AperFunction*%
%TD*%
%TO.P,R5,1*%
%TO.N,USBDM*%
%TA.AperFunction,SMDPad,CuDef*%
G36*
G01*
X112300000Y-62225000D02*
X112300000Y-62775000D01*
G75*
G02*
X112100000Y-62975000I-200000J0D01*
G01*
X111700000Y-62975000D01*
G75*
G02*
X111500000Y-62775000I0J200000D01*
G01*
X111500000Y-62225000D01*
G75*
G02*
X111700000Y-62025000I200000J0D01*
G01*
X112100000Y-62025000D01*
G75*
G02*
X112300000Y-62225000I0J-200000D01*
G01*
G37*
%TD.AperFunction*%
%TO.P,R5,2*%
%TO.N,Net-(J1-Pad2)*%
%TA.AperFunction,SMDPad,CuDef*%
G36*
G01*
X110650000Y-62225000D02*
X110650000Y-62775000D01*
G75*
G02*
X110450000Y-62975000I-200000J0D01*
G01*
X110050000Y-62975000D01*
G75*
G02*
X109850000Y-62775000I0J200000D01*
G01*
X109850000Y-62225000D01*
G75*
G02*
X110050000Y-62025000I200000J0D01*
G01*
X110450000Y-62025000D01*
G75*
G02*
X110650000Y-62225000I0J-200000D01*
G01*
G37*
%TD.AperFunction*%
%TD*%
%TO.P,R6,1*%
%TO.N,BOOT1*%
%TA.AperFunction,SMDPad,CuDef*%
G36*
G01*
X112300000Y-67925000D02*
X112300000Y-68475000D01*
G75*
G02*
X112100000Y-68675000I-200000J0D01*
G01*
X111700000Y-68675000D01*
G75*
G02*
X111500000Y-68475000I0J200000D01*
G01*
X111500000Y-67925000D01*
G75*
G02*
X111700000Y-67725000I200000J0D01*
G01*
X112100000Y-67725000D01*
G75*
G02*
X112300000Y-67925000I0J-200000D01*
G01*
G37*
%TD.AperFunction*%
%TO.P,R6,2*%
%TO.N,GND*%
%TA.AperFunction,SMDPad,CuDef*%
G36*
G01*
X110650000Y-67925000D02*
X110650000Y-68475000D01*
G75*
G02*
X110450000Y-68675000I-200000J0D01*
G01*
X110050000Y-68675000D01*
G75*
G02*
X109850000Y-68475000I0J200000D01*
G01*
X109850000Y-67925000D01*
G75*
G02*
X110050000Y-67725000I200000J0D01*
G01*
X110450000Y-67725000D01*
G75*
G02*
X110650000Y-67925000I0J-200000D01*
G01*
G37*
%TD.AperFunction*%
%TD*%
%TO.P,R7,1*%
%TO.N,Net-(J1-Pad3)*%
%TA.AperFunction,SMDPad,CuDef*%
G36*
G01*
X109850000Y-64675000D02*
X109850000Y-64125000D01*
G75*
G02*
X110050000Y-63925000I200000J0D01*
G01*
X110450000Y-63925000D01*
G75*
G02*
X110650000Y-64125000I0J-200000D01*
G01*
X110650000Y-64675000D01*
G75*
G02*
X110450000Y-64875000I-200000J0D01*
G01*
X110050000Y-64875000D01*
G75*
G02*
X109850000Y-64675000I0J200000D01*
G01*
G37*
%TD.AperFunction*%
%TO.P,R7,2*%
%TO.N,USBDP*%
%TA.AperFunction,SMDPad,CuDef*%
G36*
G01*
X111500000Y-64675000D02*
X111500000Y-64125000D01*
G75*
G02*
X111700000Y-63925000I200000J0D01*
G01*
X112100000Y-63925000D01*
G75*
G02*
X112300000Y-64125000I0J-200000D01*
G01*
X112300000Y-64675000D01*
G75*
G02*
X112100000Y-64875000I-200000J0D01*
G01*
X111700000Y-64875000D01*
G75*
G02*
X111500000Y-64675000I0J200000D01*
G01*
G37*
%TD.AperFunction*%
%TD*%
%TO.P,R8,2*%
%TO.N,Net-(R8-Pad2)*%
%TA.AperFunction,SMDPad,CuDef*%
G36*
G01*
X138175000Y-66825000D02*
X138175000Y-66275000D01*
G75*
G02*
X138375000Y-66075000I200000J0D01*
G01*
X138775000Y-66075000D01*
G75*
G02*
X138975000Y-66275000I0J-200000D01*
G01*
X138975000Y-66825000D01*
G75*
G02*
X138775000Y-67025000I-200000J0D01*
G01*
X138375000Y-67025000D01*
G75*
G02*
X138175000Y-66825000I0J200000D01*
G01*
G37*
%TD.AperFunction*%
%TO.P,R8,1*%
%TO.N,FLASH_VCC*%
%TA.AperFunction,SMDPad,CuDef*%
G36*
G01*
X136525000Y-66825000D02*
X136525000Y-66275000D01*
G75*
G02*
X136725000Y-66075000I200000J0D01*
G01*
X137125000Y-66075000D01*
G75*
G02*
X137325000Y-66275000I0J-200000D01*
G01*
X137325000Y-66825000D01*
G75*
G02*
X137125000Y-67025000I-200000J0D01*
G01*
X136725000Y-67025000D01*
G75*
G02*
X136525000Y-66825000I0J200000D01*
G01*
G37*
%TD.AperFunction*%
%TD*%
%TO.P,R9,1*%
%TO.N,Net-(J1-Pad3)*%
%TA.AperFunction,SMDPad,CuDef*%
G36*
G01*
X109850000Y-66575000D02*
X109850000Y-66025000D01*
G75*
G02*
X110050000Y-65825000I200000J0D01*
G01*
X110450000Y-65825000D01*
G75*
G02*
X110650000Y-66025000I0J-200000D01*
G01*
X110650000Y-66575000D01*
G75*
G02*
X110450000Y-66775000I-200000J0D01*
G01*
X110050000Y-66775000D01*
G75*
G02*
X109850000Y-66575000I0J200000D01*
G01*
G37*
%TD.AperFunction*%
%TO.P,R9,2*%
%TO.N,PA13*%
%TA.AperFunction,SMDPad,CuDef*%
G36*
G01*
X111500000Y-66575000D02*
X111500000Y-66025000D01*
G75*
G02*
X111700000Y-65825000I200000J0D01*
G01*
X112100000Y-65825000D01*
G75*
G02*
X112300000Y-66025000I0J-200000D01*
G01*
X112300000Y-66575000D01*
G75*
G02*
X112100000Y-66775000I-200000J0D01*
G01*
X111700000Y-66775000D01*
G75*
G02*
X111500000Y-66575000I0J200000D01*
G01*
G37*
%TD.AperFunction*%
%TD*%
%TO.P,R10,2*%
%TO.N,FLASH_NSS*%
%TA.AperFunction,SMDPad,CuDef*%
G36*
G01*
X145625000Y-62825000D02*
X146175000Y-62825000D01*
G75*
G02*
X146375000Y-63025000I0J-200000D01*
G01*
X146375000Y-63425000D01*
G75*
G02*
X146175000Y-63625000I-200000J0D01*
G01*
X145625000Y-63625000D01*
G75*
G02*
X145425000Y-63425000I0J200000D01*
G01*
X145425000Y-63025000D01*
G75*
G02*
X145625000Y-62825000I200000J0D01*
G01*
G37*
%TD.AperFunction*%
%TO.P,R10,1*%
%TO.N,FLASH_VCC*%
%TA.AperFunction,SMDPad,CuDef*%
G36*
G01*
X145625000Y-61175000D02*
X146175000Y-61175000D01*
G75*
G02*
X146375000Y-61375000I0J-200000D01*
G01*
X146375000Y-61775000D01*
G75*
G02*
X146175000Y-61975000I-200000J0D01*
G01*
X145625000Y-61975000D01*
G75*
G02*
X145425000Y-61775000I0J200000D01*
G01*
X145425000Y-61375000D01*
G75*
G02*
X145625000Y-61175000I200000J0D01*
G01*
G37*
%TD.AperFunction*%
%TD*%
%TO.P,R12,2*%
%TO.N,FLASH_MISO*%
%TA.AperFunction,SMDPad,CuDef*%
G36*
G01*
X147575000Y-62825000D02*
X148125000Y-62825000D01*
G75*
G02*
X148325000Y-63025000I0J-200000D01*
G01*
X148325000Y-63425000D01*
G75*
G02*
X148125000Y-63625000I-200000J0D01*
G01*
X147575000Y-63625000D01*
G75*
G02*
X147375000Y-63425000I0J200000D01*
G01*
X147375000Y-63025000D01*
G75*
G02*
X147575000Y-62825000I200000J0D01*
G01*
G37*
%TD.AperFunction*%
%TO.P,R12,1*%
%TO.N,FLASH_VCC*%
%TA.AperFunction,SMDPad,CuDef*%
G36*
G01*
X147575000Y-61175000D02*
X148125000Y-61175000D01*
G75*
G02*
X148325000Y-61375000I0J-200000D01*
G01*
X148325000Y-61775000D01*
G75*
G02*
X148125000Y-61975000I-200000J0D01*
G01*
X147575000Y-61975000D01*
G75*
G02*
X147375000Y-61775000I0J200000D01*
G01*
X147375000Y-61375000D01*
G75*
G02*
X147575000Y-61175000I200000J0D01*
G01*
G37*
%TD.AperFunction*%
%TD*%
%TO.P,R13,1*%
%TO.N,FLASH_VCC*%
%TA.AperFunction,SMDPad,CuDef*%
G36*
G01*
X149575000Y-61175000D02*
X150125000Y-61175000D01*
G75*
G02*
X150325000Y-61375000I0J-200000D01*
G01*
X150325000Y-61775000D01*
G75*
G02*
X150125000Y-61975000I-200000J0D01*
G01*
X149575000Y-61975000D01*
G75*
G02*
X149375000Y-61775000I0J200000D01*
G01*
X149375000Y-61375000D01*
G75*
G02*
X149575000Y-61175000I200000J0D01*
G01*
G37*
%TD.AperFunction*%
%TO.P,R13,2*%
%TO.N,FLASH_MOSI*%
%TA.AperFunction,SMDPad,CuDef*%
G36*
G01*
X149575000Y-62825000D02*
X150125000Y-62825000D01*
G75*
G02*
X150325000Y-63025000I0J-200000D01*
G01*
X150325000Y-63425000D01*
G75*
G02*
X150125000Y-63625000I-200000J0D01*
G01*
X149575000Y-63625000D01*
G75*
G02*
X149375000Y-63425000I0J200000D01*
G01*
X149375000Y-63025000D01*
G75*
G02*
X149575000Y-62825000I200000J0D01*
G01*
G37*
%TD.AperFunction*%
%TD*%
%TO.P,R14,1*%
%TO.N,PA0*%
%TA.AperFunction,SMDPad,CuDef*%
G36*
G01*
X131975000Y-80225000D02*
X132525000Y-80225000D01*
G75*
G02*
X132725000Y-80425000I0J-200000D01*
G01*
X132725000Y-80825000D01*
G75*
G02*
X132525000Y-81025000I-200000J0D01*
G01*
X131975000Y-81025000D01*
G75*
G02*
X131775000Y-80825000I0J200000D01*
G01*
X131775000Y-80425000D01*
G75*
G02*
X131975000Y-80225000I200000J0D01*
G01*
G37*
%TD.AperFunction*%
%TO.P,R14,2*%
%TO.N,Net-(D1-Pad1)*%
%TA.AperFunction,SMDPad,CuDef*%
G36*
G01*
X131975000Y-81875000D02*
X132525000Y-81875000D01*
G75*
G02*
X132725000Y-82075000I0J-200000D01*
G01*
X132725000Y-82475000D01*
G75*
G02*
X132525000Y-82675000I-200000J0D01*
G01*
X131975000Y-82675000D01*
G75*
G02*
X131775000Y-82475000I0J200000D01*
G01*
X131775000Y-82075000D01*
G75*
G02*
X131975000Y-81875000I200000J0D01*
G01*
G37*
%TD.AperFunction*%
%TD*%
D18*
%TO.P,SW1,*%
%TO.N,*%
X142400000Y-62190000D03*
X133800000Y-62200000D03*
D19*
%TO.P,SW1,3*%
%TO.N,+1V8*%
X140100000Y-62200000D03*
%TO.P,SW1,2*%
%TO.N,FLASH_VCC*%
X138100000Y-62200000D03*
%TO.P,SW1,1*%
%TO.N,+3V3*%
X136100000Y-62200000D03*
%TD*%
%TO.P,U1,20*%
%TO.N,SPI1_NSS*%
%TA.AperFunction,SMDPad,CuDef*%
G36*
G01*
X133275000Y-73925000D02*
X133275000Y-74125000D01*
G75*
G02*
X133175000Y-74225000I-100000J0D01*
G01*
X131900000Y-74225000D01*
G75*
G02*
X131800000Y-74125000I0J100000D01*
G01*
X131800000Y-73925000D01*
G75*
G02*
X131900000Y-73825000I100000J0D01*
G01*
X133175000Y-73825000D01*
G75*
G02*
X133275000Y-73925000I0J-100000D01*
G01*
G37*
%TD.AperFunction*%
%TO.P,U1,19*%
%TO.N,+3V3*%
%TA.AperFunction,SMDPad,CuDef*%
G36*
G01*
X133275000Y-73275000D02*
X133275000Y-73475000D01*
G75*
G02*
X133175000Y-73575000I-100000J0D01*
G01*
X131900000Y-73575000D01*
G75*
G02*
X131800000Y-73475000I0J100000D01*
G01*
X131800000Y-73275000D01*
G75*
G02*
X131900000Y-73175000I100000J0D01*
G01*
X133175000Y-73175000D01*
G75*
G02*
X133275000Y-73275000I0J-100000D01*
G01*
G37*
%TD.AperFunction*%
%TO.P,U1,18*%
%TO.N,SPI1_SCK*%
%TA.AperFunction,SMDPad,CuDef*%
G36*
G01*
X133275000Y-72625000D02*
X133275000Y-72825000D01*
G75*
G02*
X133175000Y-72925000I-100000J0D01*
G01*
X131900000Y-72925000D01*
G75*
G02*
X131800000Y-72825000I0J100000D01*
G01*
X131800000Y-72625000D01*
G75*
G02*
X131900000Y-72525000I100000J0D01*
G01*
X133175000Y-72525000D01*
G75*
G02*
X133275000Y-72625000I0J-100000D01*
G01*
G37*
%TD.AperFunction*%
%TO.P,U1,17*%
%TO.N,SPI1_MISO*%
%TA.AperFunction,SMDPad,CuDef*%
G36*
G01*
X133275000Y-71975000D02*
X133275000Y-72175000D01*
G75*
G02*
X133175000Y-72275000I-100000J0D01*
G01*
X131900000Y-72275000D01*
G75*
G02*
X131800000Y-72175000I0J100000D01*
G01*
X131800000Y-71975000D01*
G75*
G02*
X131900000Y-71875000I100000J0D01*
G01*
X133175000Y-71875000D01*
G75*
G02*
X133275000Y-71975000I0J-100000D01*
G01*
G37*
%TD.AperFunction*%
%TO.P,U1,16*%
%TO.N,SPI1_MOSI*%
%TA.AperFunction,SMDPad,CuDef*%
G36*
G01*
X133275000Y-71325000D02*
X133275000Y-71525000D01*
G75*
G02*
X133175000Y-71625000I-100000J0D01*
G01*
X131900000Y-71625000D01*
G75*
G02*
X131800000Y-71525000I0J100000D01*
G01*
X131800000Y-71325000D01*
G75*
G02*
X131900000Y-71225000I100000J0D01*
G01*
X133175000Y-71225000D01*
G75*
G02*
X133275000Y-71325000I0J-100000D01*
G01*
G37*
%TD.AperFunction*%
%TO.P,U1,15*%
%TO.N,Net-(U1-Pad15)*%
%TA.AperFunction,SMDPad,CuDef*%
G36*
G01*
X133275000Y-70675000D02*
X133275000Y-70875000D01*
G75*
G02*
X133175000Y-70975000I-100000J0D01*
G01*
X131900000Y-70975000D01*
G75*
G02*
X131800000Y-70875000I0J100000D01*
G01*
X131800000Y-70675000D01*
G75*
G02*
X131900000Y-70575000I100000J0D01*
G01*
X133175000Y-70575000D01*
G75*
G02*
X133275000Y-70675000I0J-100000D01*
G01*
G37*
%TD.AperFunction*%
%TO.P,U1,14*%
%TO.N,Net-(U1-Pad14)*%
%TA.AperFunction,SMDPad,CuDef*%
G36*
G01*
X133275000Y-70025000D02*
X133275000Y-70225000D01*
G75*
G02*
X133175000Y-70325000I-100000J0D01*
G01*
X131900000Y-70325000D01*
G75*
G02*
X131800000Y-70225000I0J100000D01*
G01*
X131800000Y-70025000D01*
G75*
G02*
X131900000Y-69925000I100000J0D01*
G01*
X133175000Y-69925000D01*
G75*
G02*
X133275000Y-70025000I0J-100000D01*
G01*
G37*
%TD.AperFunction*%
%TO.P,U1,13*%
%TO.N,Net-(U1-Pad13)*%
%TA.AperFunction,SMDPad,CuDef*%
G36*
G01*
X133275000Y-69375000D02*
X133275000Y-69575000D01*
G75*
G02*
X133175000Y-69675000I-100000J0D01*
G01*
X131900000Y-69675000D01*
G75*
G02*
X131800000Y-69575000I0J100000D01*
G01*
X131800000Y-69375000D01*
G75*
G02*
X131900000Y-69275000I100000J0D01*
G01*
X133175000Y-69275000D01*
G75*
G02*
X133275000Y-69375000I0J-100000D01*
G01*
G37*
%TD.AperFunction*%
%TO.P,U1,12*%
%TO.N,Net-(U1-Pad12)*%
%TA.AperFunction,SMDPad,CuDef*%
G36*
G01*
X133275000Y-68725000D02*
X133275000Y-68925000D01*
G75*
G02*
X133175000Y-69025000I-100000J0D01*
G01*
X131900000Y-69025000D01*
G75*
G02*
X131800000Y-68925000I0J100000D01*
G01*
X131800000Y-68725000D01*
G75*
G02*
X131900000Y-68625000I100000J0D01*
G01*
X133175000Y-68625000D01*
G75*
G02*
X133275000Y-68725000I0J-100000D01*
G01*
G37*
%TD.AperFunction*%
%TO.P,U1,11*%
%TO.N,GND*%
%TA.AperFunction,SMDPad,CuDef*%
G36*
G01*
X133275000Y-68075000D02*
X133275000Y-68275000D01*
G75*
G02*
X133175000Y-68375000I-100000J0D01*
G01*
X131900000Y-68375000D01*
G75*
G02*
X131800000Y-68275000I0J100000D01*
G01*
X131800000Y-68075000D01*
G75*
G02*
X131900000Y-67975000I100000J0D01*
G01*
X133175000Y-67975000D01*
G75*
G02*
X133275000Y-68075000I0J-100000D01*
G01*
G37*
%TD.AperFunction*%
%TO.P,U1,10*%
%TO.N,Net-(R8-Pad2)*%
%TA.AperFunction,SMDPad,CuDef*%
G36*
G01*
X139000000Y-68075000D02*
X139000000Y-68275000D01*
G75*
G02*
X138900000Y-68375000I-100000J0D01*
G01*
X137625000Y-68375000D01*
G75*
G02*
X137525000Y-68275000I0J100000D01*
G01*
X137525000Y-68075000D01*
G75*
G02*
X137625000Y-67975000I100000J0D01*
G01*
X138900000Y-67975000D01*
G75*
G02*
X139000000Y-68075000I0J-100000D01*
G01*
G37*
%TD.AperFunction*%
%TO.P,U1,9*%
%TO.N,Net-(U1-Pad9)*%
%TA.AperFunction,SMDPad,CuDef*%
G36*
G01*
X139000000Y-68725000D02*
X139000000Y-68925000D01*
G75*
G02*
X138900000Y-69025000I-100000J0D01*
G01*
X137625000Y-69025000D01*
G75*
G02*
X137525000Y-68925000I0J100000D01*
G01*
X137525000Y-68725000D01*
G75*
G02*
X137625000Y-68625000I100000J0D01*
G01*
X138900000Y-68625000D01*
G75*
G02*
X139000000Y-68725000I0J-100000D01*
G01*
G37*
%TD.AperFunction*%
%TO.P,U1,8*%
%TO.N,Net-(U1-Pad8)*%
%TA.AperFunction,SMDPad,CuDef*%
G36*
G01*
X139000000Y-69375000D02*
X139000000Y-69575000D01*
G75*
G02*
X138900000Y-69675000I-100000J0D01*
G01*
X137625000Y-69675000D01*
G75*
G02*
X137525000Y-69575000I0J100000D01*
G01*
X137525000Y-69375000D01*
G75*
G02*
X137625000Y-69275000I100000J0D01*
G01*
X138900000Y-69275000D01*
G75*
G02*
X139000000Y-69375000I0J-100000D01*
G01*
G37*
%TD.AperFunction*%
%TO.P,U1,7*%
%TO.N,Net-(U1-Pad7)*%
%TA.AperFunction,SMDPad,CuDef*%
G36*
G01*
X139000000Y-70025000D02*
X139000000Y-70225000D01*
G75*
G02*
X138900000Y-70325000I-100000J0D01*
G01*
X137625000Y-70325000D01*
G75*
G02*
X137525000Y-70225000I0J100000D01*
G01*
X137525000Y-70025000D01*
G75*
G02*
X137625000Y-69925000I100000J0D01*
G01*
X138900000Y-69925000D01*
G75*
G02*
X139000000Y-70025000I0J-100000D01*
G01*
G37*
%TD.AperFunction*%
%TO.P,U1,6*%
%TO.N,Net-(U1-Pad6)*%
%TA.AperFunction,SMDPad,CuDef*%
G36*
G01*
X139000000Y-70675000D02*
X139000000Y-70875000D01*
G75*
G02*
X138900000Y-70975000I-100000J0D01*
G01*
X137625000Y-70975000D01*
G75*
G02*
X137525000Y-70875000I0J100000D01*
G01*
X137525000Y-70675000D01*
G75*
G02*
X137625000Y-70575000I100000J0D01*
G01*
X138900000Y-70575000D01*
G75*
G02*
X139000000Y-70675000I0J-100000D01*
G01*
G37*
%TD.AperFunction*%
%TO.P,U1,5*%
%TO.N,FLASH_MOSI*%
%TA.AperFunction,SMDPad,CuDef*%
G36*
G01*
X139000000Y-71325000D02*
X139000000Y-71525000D01*
G75*
G02*
X138900000Y-71625000I-100000J0D01*
G01*
X137625000Y-71625000D01*
G75*
G02*
X137525000Y-71525000I0J100000D01*
G01*
X137525000Y-71325000D01*
G75*
G02*
X137625000Y-71225000I100000J0D01*
G01*
X138900000Y-71225000D01*
G75*
G02*
X139000000Y-71325000I0J-100000D01*
G01*
G37*
%TD.AperFunction*%
%TO.P,U1,4*%
%TO.N,FLASH_MISO*%
%TA.AperFunction,SMDPad,CuDef*%
G36*
G01*
X139000000Y-71975000D02*
X139000000Y-72175000D01*
G75*
G02*
X138900000Y-72275000I-100000J0D01*
G01*
X137625000Y-72275000D01*
G75*
G02*
X137525000Y-72175000I0J100000D01*
G01*
X137525000Y-71975000D01*
G75*
G02*
X137625000Y-71875000I100000J0D01*
G01*
X138900000Y-71875000D01*
G75*
G02*
X139000000Y-71975000I0J-100000D01*
G01*
G37*
%TD.AperFunction*%
%TO.P,U1,3*%
%TO.N,FLASH_SCK*%
%TA.AperFunction,SMDPad,CuDef*%
G36*
G01*
X139000000Y-72625000D02*
X139000000Y-72825000D01*
G75*
G02*
X138900000Y-72925000I-100000J0D01*
G01*
X137625000Y-72925000D01*
G75*
G02*
X137525000Y-72825000I0J100000D01*
G01*
X137525000Y-72625000D01*
G75*
G02*
X137625000Y-72525000I100000J0D01*
G01*
X138900000Y-72525000D01*
G75*
G02*
X139000000Y-72625000I0J-100000D01*
G01*
G37*
%TD.AperFunction*%
%TO.P,U1,2*%
%TO.N,FLASH_VCC*%
%TA.AperFunction,SMDPad,CuDef*%
G36*
G01*
X139000000Y-73275000D02*
X139000000Y-73475000D01*
G75*
G02*
X138900000Y-73575000I-100000J0D01*
G01*
X137625000Y-73575000D01*
G75*
G02*
X137525000Y-73475000I0J100000D01*
G01*
X137525000Y-73275000D01*
G75*
G02*
X137625000Y-73175000I100000J0D01*
G01*
X138900000Y-73175000D01*
G75*
G02*
X139000000Y-73275000I0J-100000D01*
G01*
G37*
%TD.AperFunction*%
%TO.P,U1,1*%
%TO.N,FLASH_NSS*%
%TA.AperFunction,SMDPad,CuDef*%
G36*
G01*
X139000000Y-73925000D02*
X139000000Y-74125000D01*
G75*
G02*
X138900000Y-74225000I-100000J0D01*
G01*
X137625000Y-74225000D01*
G75*
G02*
X137525000Y-74125000I0J100000D01*
G01*
X137525000Y-73925000D01*
G75*
G02*
X137625000Y-73825000I100000J0D01*
G01*
X138900000Y-73825000D01*
G75*
G02*
X139000000Y-73925000I0J-100000D01*
G01*
G37*
%TD.AperFunction*%
%TD*%
D20*
%TO.P,U2,1*%
%TO.N,GND*%
X126900000Y-60300000D03*
%TO.P,U2,2*%
%TO.N,+1V8*%
X126900000Y-58400000D03*
%TO.P,U2,3*%
%TO.N,Net-(F1-Pad2)*%
X124900000Y-59350000D03*
%TD*%
%TO.P,U3,3*%
%TO.N,Net-(F1-Pad2)*%
X116100000Y-59300000D03*
%TO.P,U3,2*%
%TO.N,+3V3*%
X118100000Y-58350000D03*
%TO.P,U3,1*%
%TO.N,GND*%
X118100000Y-60250000D03*
%TD*%
D21*
%TO.N,GND*%
X124850000Y-74950002D03*
X115150000Y-80650000D03*
X128400000Y-80700000D03*
X127300000Y-61850000D03*
X117700000Y-65350000D03*
X119850000Y-68050000D03*
X122350000Y-61750000D03*
X104550000Y-69000000D03*
X104550000Y-71600000D03*
X108030000Y-70390000D03*
X104050000Y-80700000D03*
X103900000Y-83900000D03*
X142150000Y-66200000D03*
X143950000Y-65100000D03*
X143850000Y-57800000D03*
X153450000Y-57900000D03*
X146490000Y-81360000D03*
X138610000Y-83230000D03*
X138550000Y-80030000D03*
X153330000Y-81710000D03*
X149660000Y-79330000D03*
X115350000Y-72000000D03*
X115300000Y-74650000D03*
X125700000Y-64100000D03*
X128850000Y-64600000D03*
X130650000Y-70050000D03*
X142950000Y-70700000D03*
X143000000Y-72950000D03*
X146950000Y-66900000D03*
X115220000Y-77860000D03*
X109240000Y-83130000D03*
X113230000Y-83190000D03*
X129510000Y-57160000D03*
X114790000Y-57210000D03*
X107280000Y-57290000D03*
X132120000Y-84190000D03*
%TO.N,nRST*%
X120150000Y-75750000D03*
X120150000Y-79400000D03*
%TO.N,+3V3*%
X134550000Y-72350000D03*
X113950000Y-66250000D03*
X113950000Y-72100000D03*
X113950000Y-61650000D03*
X113950000Y-76000000D03*
%TO.N,FLASH_VCC*%
X135900000Y-66550000D03*
X135900000Y-75750002D03*
X138900000Y-59250000D03*
%TO.N,USART1_RX*%
X123640000Y-68740000D03*
%TO.N,USART1_TX*%
X126140000Y-68730000D03*
%TO.N,FLASH_NSS*%
X145900000Y-64450000D03*
X140450000Y-74000000D03*
X140450000Y-69300000D03*
%TO.N,FLASH_SCK*%
X151850000Y-64500000D03*
%TO.N,FLASH_MOSI*%
X149850000Y-64500000D03*
X141400000Y-76650000D03*
X141400000Y-70700000D03*
%TO.N,FLASH_MISO*%
X147850000Y-64450000D03*
%TO.N,PA0*%
X125850000Y-75750000D03*
X125850000Y-79650000D03*
%TD*%
D22*
%TO.N,GND*%
X110250000Y-70125000D02*
X110275000Y-70150000D01*
X110250000Y-68200000D02*
X110250000Y-70125000D01*
D23*
X121600000Y-60250000D02*
X121700000Y-60350000D01*
X118100000Y-60250000D02*
X121600000Y-60250000D01*
X130450000Y-60300000D02*
X130500000Y-60350000D01*
X126900000Y-60300000D02*
X130450000Y-60300000D01*
D22*
X119850000Y-65184298D02*
X119850000Y-66025000D01*
X119365702Y-64700000D02*
X119850000Y-65184298D01*
X115600000Y-64700000D02*
X119365702Y-64700000D01*
D23*
X138525000Y-75750000D02*
X138525000Y-77600000D01*
X132225000Y-77600000D02*
X132225000Y-75750000D01*
X110325000Y-77700000D02*
X110250000Y-77775000D01*
X110325000Y-76000000D02*
X110325000Y-77700000D01*
D22*
X129665682Y-68450000D02*
X128775000Y-68450000D01*
X129940682Y-68175000D02*
X129665682Y-68450000D01*
X132537500Y-68175000D02*
X129940682Y-68175000D01*
D23*
X133825000Y-66887500D02*
X132537500Y-68175000D01*
X133825000Y-66550000D02*
X133825000Y-66887500D01*
D22*
X124850000Y-77375000D02*
X124850000Y-74950002D01*
X124850002Y-74950000D02*
X124850000Y-74950002D01*
X128775000Y-74950000D02*
X124850002Y-74950000D01*
D23*
X115200000Y-80700000D02*
X115150000Y-80650000D01*
X116300000Y-80700000D02*
X115200000Y-80700000D01*
D22*
X117650000Y-74950000D02*
X117650002Y-74950002D01*
X117650002Y-74950002D02*
X124850000Y-74950002D01*
X117425000Y-74950000D02*
X117650000Y-74950000D01*
X119850000Y-68050000D02*
X119850000Y-66025000D01*
D23*
X122350000Y-61000000D02*
X121700000Y-60350000D01*
X122350000Y-61750000D02*
X122350000Y-61000000D01*
D22*
X106175000Y-64585000D02*
X106260000Y-64500000D01*
X106175000Y-65687500D02*
X106175000Y-64585000D01*
%TO.N,nRST*%
X111850000Y-79325000D02*
X111900000Y-79375000D01*
X110250000Y-79325000D02*
X111850000Y-79325000D01*
X121565702Y-75750000D02*
X122350000Y-76534298D01*
X122350000Y-76534298D02*
X122350000Y-77375000D01*
X120150000Y-75750000D02*
X121565702Y-75750000D01*
X120150000Y-79400000D02*
X120150000Y-79400000D01*
X120150000Y-79400000D02*
X120150000Y-79400000D01*
X111900000Y-79375000D02*
X111925000Y-79350000D01*
X111925000Y-79350000D02*
X120100000Y-79350000D01*
X120100000Y-79350000D02*
X120150000Y-79400000D01*
%TO.N,OSC_I*%
X121350000Y-80850000D02*
X120750000Y-81450000D01*
X121350000Y-77375000D02*
X121350000Y-80850000D01*
X119950000Y-82250000D02*
X120750000Y-81450000D01*
X116300000Y-82250000D02*
X119950000Y-82250000D01*
%TO.N,OSC_O*%
X125084298Y-81450000D02*
X125630000Y-81450000D01*
X121850000Y-78215702D02*
X125084298Y-81450000D01*
X121850000Y-77375000D02*
X121850000Y-78215702D01*
X126405000Y-82225000D02*
X125630000Y-81450000D01*
X130100000Y-82225000D02*
X126405000Y-82225000D01*
D23*
%TO.N,+1V8*%
X128275000Y-58400000D02*
X128700000Y-58825000D01*
X126900000Y-58400000D02*
X128275000Y-58400000D01*
X130475000Y-58825000D02*
X130500000Y-58800000D01*
X128700000Y-58825000D02*
X130475000Y-58825000D01*
X140100000Y-61350000D02*
X140100000Y-62200000D01*
X139250000Y-60500000D02*
X140100000Y-61350000D01*
X130500000Y-58800000D02*
X132200000Y-60500000D01*
X132200000Y-60500000D02*
X139250000Y-60500000D01*
%TO.N,+3V3*%
X116975010Y-76000000D02*
X117425000Y-75550010D01*
X111875000Y-76000000D02*
X113950000Y-76000000D01*
D22*
X117425000Y-75450000D02*
X118550000Y-75450000D01*
X119350000Y-76250000D02*
X119350000Y-77375000D01*
X118550000Y-75450000D02*
X119350000Y-76250000D01*
D23*
X119425000Y-58350000D02*
X119900000Y-58825000D01*
X118100000Y-58350000D02*
X119425000Y-58350000D01*
X119925000Y-58800000D02*
X119900000Y-58825000D01*
X121700000Y-58800000D02*
X119925000Y-58800000D01*
D22*
X136975000Y-77600000D02*
X137000000Y-77600000D01*
D23*
X136975000Y-77600000D02*
X133775000Y-77600000D01*
X133775000Y-77600000D02*
X133775000Y-75750000D01*
X133475000Y-73375000D02*
X132537500Y-73375000D01*
X133775000Y-73675000D02*
X133475000Y-73375000D01*
X119024990Y-66250000D02*
X119249990Y-66025000D01*
X115600000Y-66250000D02*
X115600000Y-66250000D01*
X130074990Y-66550000D02*
X128775000Y-67849990D01*
X132275000Y-66550000D02*
X130074990Y-66550000D01*
X133775000Y-74825000D02*
X133775000Y-73675000D01*
X133775000Y-75750000D02*
X133775000Y-74825000D01*
D22*
X130850000Y-74450000D02*
X128775000Y-74450000D01*
X133775000Y-74825000D02*
X131225000Y-74825000D01*
X131225000Y-74825000D02*
X130850000Y-74450000D01*
D23*
X136100000Y-62450000D02*
X136100000Y-62200000D01*
X134650000Y-63900000D02*
X136100000Y-62450000D01*
X132275000Y-63975000D02*
X132350000Y-63900000D01*
X132275000Y-66550000D02*
X132275000Y-63975000D01*
X132350000Y-63900000D02*
X134650000Y-63900000D01*
X133775000Y-73125000D02*
X133775000Y-73675000D01*
X134550000Y-72350000D02*
X133775000Y-73125000D01*
X115600000Y-66250000D02*
X119024990Y-66250000D01*
X113950000Y-66250000D02*
X115600000Y-66250000D01*
X113950000Y-76000000D02*
X116975010Y-76000000D01*
X111925000Y-72100000D02*
X113950000Y-72100000D01*
X111875000Y-77700000D02*
X111900000Y-77725000D01*
X111875000Y-76000000D02*
X111875000Y-77700000D01*
X132325000Y-63875000D02*
X132350000Y-63900000D01*
X123550000Y-62950000D02*
X131400000Y-62950000D01*
X131400000Y-62950000D02*
X132325000Y-63875000D01*
X121950000Y-62950000D02*
X123550000Y-62950000D01*
X113950000Y-61650000D02*
X120650000Y-61650000D01*
X120650000Y-61650000D02*
X121950000Y-62950000D01*
X123550000Y-59750000D02*
X123550000Y-62950000D01*
X121700000Y-58800000D02*
X122600000Y-58800000D01*
X122600000Y-58800000D02*
X123550000Y-59750000D01*
D22*
X134450000Y-80612500D02*
X134450000Y-80200000D01*
X133100000Y-78850000D02*
X133775000Y-78175000D01*
X133775000Y-78175000D02*
X133775000Y-77600000D01*
X134450000Y-80200000D02*
X133100000Y-78850000D01*
X125350000Y-78215702D02*
X125984298Y-78850000D01*
X125350000Y-77375000D02*
X125350000Y-78215702D01*
X125984298Y-78850000D02*
X133100000Y-78850000D01*
%TO.N,FLASH_VCC*%
X137525000Y-73375000D02*
X138262500Y-73375000D01*
X136975000Y-73925000D02*
X137525000Y-73375000D01*
X136975000Y-75750000D02*
X136975000Y-73925000D01*
D23*
X136974998Y-75750002D02*
X136975000Y-75750000D01*
X135900000Y-75750002D02*
X136974998Y-75750002D01*
X135900000Y-66550000D02*
X136925000Y-66550000D01*
X149880000Y-74230000D02*
X152420000Y-71690000D01*
X144800000Y-74230000D02*
X149880000Y-74230000D01*
X152420000Y-71690000D02*
X152420000Y-69150000D01*
X145900000Y-61575000D02*
X151850000Y-61575000D01*
X138900000Y-59250000D02*
X151600000Y-59250000D01*
X153219999Y-68350001D02*
X152420000Y-69150000D01*
X151600000Y-59250000D02*
X153219999Y-60869999D01*
X153125000Y-61575000D02*
X153219999Y-61669999D01*
X151850000Y-61575000D02*
X153125000Y-61575000D01*
X153219999Y-60869999D02*
X153219999Y-61669999D01*
X153219999Y-61669999D02*
X153219999Y-68350001D01*
D22*
%TO.N,Net-(D1-Pad1)*%
X134362500Y-82275000D02*
X134450000Y-82187500D01*
X132250000Y-82275000D02*
X134362500Y-82275000D01*
X134925000Y-82187500D02*
X136500000Y-80612500D01*
X134450000Y-82187500D02*
X134925000Y-82187500D01*
D23*
%TO.N,Net-(F1-Pad1)*%
X110450000Y-59100000D02*
X107650000Y-61900000D01*
X107650000Y-61900000D02*
X107200000Y-61900000D01*
D22*
X106260000Y-61900000D02*
X107200000Y-61900000D01*
D23*
%TO.N,Net-(F1-Pad2)*%
X115900000Y-59100000D02*
X116100000Y-59300000D01*
X113250000Y-59100000D02*
X115900000Y-59100000D01*
X123049999Y-57499999D02*
X124900000Y-59350000D01*
X117000001Y-57499999D02*
X123049999Y-57499999D01*
X116100000Y-58400000D02*
X117000001Y-57499999D01*
X116100000Y-59300000D02*
X116100000Y-58400000D01*
D22*
%TO.N,Net-(J1-Pad2)*%
X110200000Y-62550000D02*
X110250000Y-62500000D01*
X106260000Y-62550000D02*
X110200000Y-62550000D01*
%TO.N,Net-(J1-Pad3)*%
X109050000Y-63200000D02*
X110250000Y-64400000D01*
X106260000Y-63200000D02*
X109050000Y-63200000D01*
X110250000Y-64400000D02*
X110250000Y-66300000D01*
%TO.N,USART1_RX*%
X123440000Y-68740000D02*
X123640000Y-68740000D01*
X121850000Y-66025000D02*
X121850000Y-67150000D01*
X121850000Y-67150000D02*
X123440000Y-68740000D01*
%TO.N,USART1_TX*%
X123499297Y-68014999D02*
X125424999Y-68014999D01*
X125424999Y-68014999D02*
X126140000Y-68730000D01*
X122350000Y-66865702D02*
X123499297Y-68014999D01*
X122350000Y-66025000D02*
X122350000Y-66865702D01*
%TO.N,Net-(R1-Pad1)*%
X111925000Y-70450000D02*
X110275000Y-72100000D01*
X111925000Y-70150000D02*
X111925000Y-70450000D01*
X110275000Y-74050000D02*
X110275000Y-72100000D01*
%TO.N,BOOT0*%
X112525000Y-73450000D02*
X117425000Y-73450000D01*
X111925000Y-74050000D02*
X112525000Y-73450000D01*
%TO.N,USBDM*%
X121350000Y-64150000D02*
X121350000Y-66025000D01*
X111900000Y-62500000D02*
X119700000Y-62500000D01*
X119700000Y-62500000D02*
X121350000Y-64150000D01*
%TO.N,BOOT1*%
X114650000Y-70950000D02*
X111900000Y-68200000D01*
X117425000Y-70950000D02*
X114650000Y-70950000D01*
%TO.N,USBDP*%
X120850000Y-64500000D02*
X120850000Y-66025000D01*
X119450000Y-63100000D02*
X120850000Y-64500000D01*
X111900000Y-64400000D02*
X113200000Y-63100000D01*
X113200000Y-63100000D02*
X119450000Y-63100000D01*
%TO.N,Net-(R8-Pad2)*%
X138575000Y-67862500D02*
X138262500Y-68175000D01*
X138575000Y-66550000D02*
X138575000Y-67862500D01*
%TO.N,PA13*%
X119200000Y-63700000D02*
X120350000Y-64850000D01*
X120350000Y-64850000D02*
X120350000Y-66025000D01*
X111900000Y-66300000D02*
X114500000Y-63700000D01*
X114500000Y-63700000D02*
X119200000Y-63700000D01*
%TO.N,FLASH_NSS*%
X140425000Y-74025000D02*
X140450000Y-74000000D01*
X138262500Y-74025000D02*
X140425000Y-74025000D01*
X144650000Y-69300000D02*
X144800000Y-69150000D01*
X140450000Y-69300000D02*
X144650000Y-69300000D01*
X145900000Y-63225000D02*
X145900000Y-64450000D01*
%TO.N,FLASH_SCK*%
X151150000Y-75500000D02*
X152420000Y-74230000D01*
X144050000Y-75500000D02*
X151150000Y-75500000D01*
X138262500Y-72725000D02*
X141275000Y-72725000D01*
X141275000Y-72725000D02*
X144050000Y-75500000D01*
X151850000Y-63225000D02*
X151850000Y-64500000D01*
%TO.N,FLASH_MOSI*%
X138262500Y-71425000D02*
X140675000Y-71425000D01*
X140675000Y-71425000D02*
X141400000Y-70700000D01*
X141400000Y-70700000D02*
X141400000Y-70700000D01*
X141400000Y-70700000D02*
X141400000Y-70700000D01*
X151040000Y-78150000D02*
X152420000Y-76770000D01*
X141400000Y-76650000D02*
X142900000Y-78150000D01*
X142900000Y-78150000D02*
X151040000Y-78150000D01*
X149850000Y-63225000D02*
X149850000Y-64500000D01*
%TO.N,FLASH_MISO*%
X144415000Y-72075000D02*
X144800000Y-71690000D01*
X138262500Y-72075000D02*
X144415000Y-72075000D01*
X147850000Y-63225000D02*
X147850000Y-64450000D01*
%TO.N,PA0*%
X125850000Y-75750000D02*
X125850000Y-77375000D01*
X125850000Y-79650000D02*
X131275000Y-79650000D01*
X131275000Y-79650000D02*
X132250000Y-80625000D01*
%TO.N,SPI1_MISO*%
X131588590Y-72075000D02*
X132537500Y-72075000D01*
X130713590Y-72950000D02*
X131588590Y-72075000D01*
X128775000Y-72950000D02*
X130713590Y-72950000D01*
%TO.N,SPI1_MOSI*%
X128800000Y-72450000D02*
X128825000Y-72425000D01*
X128775000Y-72450000D02*
X128800000Y-72450000D01*
X131602180Y-71425000D02*
X132537500Y-71425000D01*
X130577180Y-72450000D02*
X131602180Y-71425000D01*
X128775000Y-72450000D02*
X130577180Y-72450000D01*
%TO.N,SPI1_SCK*%
X128775000Y-73450000D02*
X130850000Y-73450000D01*
X131575000Y-72725000D02*
X132537500Y-72725000D01*
X130850000Y-73450000D02*
X131575000Y-72725000D01*
%TO.N,SPI1_NSS*%
X132462500Y-73950000D02*
X132537500Y-74025000D01*
X128775000Y-73950000D02*
X132462500Y-73950000D01*
%TD*%
D24*
%TO.N,GND*%
X154440000Y-84640000D02*
X102760000Y-84640000D01*
X102760000Y-77325000D01*
X109136928Y-77325000D01*
X109140000Y-77489250D01*
X109298750Y-77648000D01*
X110123000Y-77648000D01*
X110123000Y-77026250D01*
X110198000Y-76951250D01*
X110198000Y-76127000D01*
X109398750Y-76127000D01*
X109240000Y-76285750D01*
X109236928Y-76475000D01*
X109249188Y-76599482D01*
X109285498Y-76719180D01*
X109344463Y-76829494D01*
X109357888Y-76845852D01*
X109323815Y-76873815D01*
X109244463Y-76970506D01*
X109185498Y-77080820D01*
X109149188Y-77200518D01*
X109136928Y-77325000D01*
X102760000Y-77325000D01*
X102760000Y-68675000D01*
X109211928Y-68675000D01*
X109224188Y-68799482D01*
X109260498Y-68919180D01*
X109319463Y-69029494D01*
X109398815Y-69126185D01*
X109470796Y-69185258D01*
X109423815Y-69223815D01*
X109344463Y-69320506D01*
X109285498Y-69430820D01*
X109249188Y-69550518D01*
X109236928Y-69675000D01*
X109240000Y-69864250D01*
X109398750Y-70023000D01*
X110148000Y-70023000D01*
X110148000Y-69198750D01*
X110111750Y-69162500D01*
X110123000Y-69151250D01*
X110123000Y-68327000D01*
X109373750Y-68327000D01*
X109215000Y-68485750D01*
X109211928Y-68675000D01*
X102760000Y-68675000D01*
X102760000Y-67850016D01*
X102847004Y-67886493D01*
X103085500Y-67935000D01*
X103435500Y-67935000D01*
X103435500Y-64327000D01*
X103415500Y-64327000D01*
X103415500Y-64073000D01*
X103435500Y-64073000D01*
X103435500Y-62327000D01*
X103415500Y-62327000D01*
X103415500Y-62073000D01*
X103435500Y-62073000D01*
X103435500Y-58465000D01*
X103689500Y-58465000D01*
X103689500Y-62073000D01*
X103709500Y-62073000D01*
X103709500Y-62327000D01*
X103689500Y-62327000D01*
X103689500Y-64073000D01*
X103709500Y-64073000D01*
X103709500Y-64327000D01*
X103689500Y-64327000D01*
X103689500Y-67935000D01*
X104039500Y-67935000D01*
X104277996Y-67886493D01*
X104502446Y-67792390D01*
X104704225Y-67656307D01*
X104875578Y-67483474D01*
X105009921Y-67280533D01*
X105102091Y-67055282D01*
X105105962Y-67017609D01*
X105082179Y-66981265D01*
X105102002Y-66944180D01*
X105137548Y-66827002D01*
X105147500Y-66827002D01*
X105147500Y-66731192D01*
X105150572Y-66700000D01*
X105149977Y-66639133D01*
X105502972Y-66639133D01*
X105565465Y-66875450D01*
X105808178Y-66988850D01*
X106068349Y-67052719D01*
X106335982Y-67064604D01*
X106600791Y-67024048D01*
X106852600Y-66932609D01*
X106959535Y-66875450D01*
X107022028Y-66639133D01*
X106262500Y-65879605D01*
X105502972Y-66639133D01*
X105149977Y-66639133D01*
X105147767Y-66413091D01*
X105323367Y-66459528D01*
X106082895Y-65700000D01*
X106068753Y-65685858D01*
X106248358Y-65506253D01*
X106262500Y-65520395D01*
X106276643Y-65506253D01*
X106456248Y-65685858D01*
X106442105Y-65700000D01*
X107201633Y-66459528D01*
X107437950Y-66397035D01*
X107551350Y-66154322D01*
X107615219Y-65894151D01*
X107627104Y-65626518D01*
X107586548Y-65361709D01*
X107495109Y-65109900D01*
X107466225Y-65055864D01*
X107523021Y-64953576D01*
X107561241Y-64834474D01*
X107572500Y-64731750D01*
X107413750Y-64573000D01*
X107301178Y-64573000D01*
X107388685Y-64501185D01*
X107468037Y-64404494D01*
X107504532Y-64336218D01*
X107572500Y-64268250D01*
X107562512Y-64177120D01*
X107563312Y-64174482D01*
X107575572Y-64050000D01*
X107575572Y-63960000D01*
X108735199Y-63960000D01*
X109211928Y-64436730D01*
X109211928Y-64675000D01*
X109228031Y-64838500D01*
X109275722Y-64995716D01*
X109353169Y-65140608D01*
X109457394Y-65267606D01*
X109490000Y-65294366D01*
X109490001Y-65405634D01*
X109457394Y-65432394D01*
X109353169Y-65559392D01*
X109275722Y-65704284D01*
X109228031Y-65861500D01*
X109211928Y-66025000D01*
X109211928Y-66575000D01*
X109228031Y-66738500D01*
X109275722Y-66895716D01*
X109353169Y-67040608D01*
X109457394Y-67167606D01*
X109492813Y-67196673D01*
X109398815Y-67273815D01*
X109319463Y-67370506D01*
X109260498Y-67480820D01*
X109224188Y-67600518D01*
X109211928Y-67725000D01*
X109215000Y-67914250D01*
X109373750Y-68073000D01*
X110123000Y-68073000D01*
X110123000Y-68053000D01*
X110377000Y-68053000D01*
X110377000Y-68073000D01*
X110397000Y-68073000D01*
X110397000Y-68327000D01*
X110377000Y-68327000D01*
X110377000Y-69151250D01*
X110413250Y-69187500D01*
X110402000Y-69198750D01*
X110402000Y-70023000D01*
X110422000Y-70023000D01*
X110422000Y-70277000D01*
X110402000Y-70277000D01*
X110402000Y-70297000D01*
X110148000Y-70297000D01*
X110148000Y-70277000D01*
X109398750Y-70277000D01*
X109240000Y-70435750D01*
X109236928Y-70625000D01*
X109249188Y-70749482D01*
X109285498Y-70869180D01*
X109344463Y-70979494D01*
X109423815Y-71076185D01*
X109520506Y-71155537D01*
X109554139Y-71173514D01*
X109482394Y-71232394D01*
X109378169Y-71359392D01*
X109300722Y-71504284D01*
X109253031Y-71661500D01*
X109236928Y-71825000D01*
X109236928Y-72375000D01*
X109253031Y-72538500D01*
X109300722Y-72695716D01*
X109378169Y-72840608D01*
X109482394Y-72967606D01*
X109515001Y-72994366D01*
X109515000Y-73155634D01*
X109482394Y-73182394D01*
X109378169Y-73309392D01*
X109300722Y-73454284D01*
X109253031Y-73611500D01*
X109236928Y-73775000D01*
X109236928Y-74325000D01*
X109253031Y-74488500D01*
X109300722Y-74645716D01*
X109378169Y-74790608D01*
X109482394Y-74917606D01*
X109554139Y-74976486D01*
X109520506Y-74994463D01*
X109423815Y-75073815D01*
X109344463Y-75170506D01*
X109285498Y-75280820D01*
X109249188Y-75400518D01*
X109236928Y-75525000D01*
X109240000Y-75714250D01*
X109398750Y-75873000D01*
X110198000Y-75873000D01*
X110198000Y-75853000D01*
X110452000Y-75853000D01*
X110452000Y-75873000D01*
X110472000Y-75873000D01*
X110472000Y-76127000D01*
X110452000Y-76127000D01*
X110452000Y-76773750D01*
X110377000Y-76848750D01*
X110377000Y-77648000D01*
X110397000Y-77648000D01*
X110397000Y-77902000D01*
X110377000Y-77902000D01*
X110377000Y-77922000D01*
X110123000Y-77922000D01*
X110123000Y-77902000D01*
X109298750Y-77902000D01*
X109140000Y-78060750D01*
X109136928Y-78225000D01*
X109149188Y-78349482D01*
X109185498Y-78469180D01*
X109244463Y-78579494D01*
X109280700Y-78623649D01*
X109202625Y-78769717D01*
X109153512Y-78931623D01*
X109136928Y-79100000D01*
X109136928Y-79550000D01*
X109153512Y-79718377D01*
X109202625Y-79880283D01*
X109282382Y-80029497D01*
X109389716Y-80160284D01*
X109520503Y-80267618D01*
X109669717Y-80347375D01*
X109831623Y-80396488D01*
X110000000Y-80413072D01*
X110500000Y-80413072D01*
X110668377Y-80396488D01*
X110830283Y-80347375D01*
X110979497Y-80267618D01*
X111066878Y-80195906D01*
X111159392Y-80271831D01*
X111304284Y-80349278D01*
X111461500Y-80396969D01*
X111625000Y-80413072D01*
X112175000Y-80413072D01*
X112338500Y-80396969D01*
X112495716Y-80349278D01*
X112640608Y-80271831D01*
X112767606Y-80167606D01*
X112814882Y-80110000D01*
X115203895Y-80110000D01*
X115199188Y-80125518D01*
X115186928Y-80250000D01*
X115190000Y-80414250D01*
X115348750Y-80573000D01*
X116173000Y-80573000D01*
X116173000Y-80553000D01*
X116427000Y-80553000D01*
X116427000Y-80573000D01*
X117251250Y-80573000D01*
X117410000Y-80414250D01*
X117413072Y-80250000D01*
X117400812Y-80125518D01*
X117396105Y-80110000D01*
X119396289Y-80110000D01*
X119490226Y-80203937D01*
X119659744Y-80317205D01*
X119846679Y-80394636D01*
X119674201Y-80567114D01*
X119522629Y-80793957D01*
X119418225Y-81046011D01*
X119365000Y-81313589D01*
X119365000Y-81490000D01*
X117313284Y-81490000D01*
X117364502Y-81394180D01*
X117400812Y-81274482D01*
X117413072Y-81150000D01*
X117410000Y-80985750D01*
X117251250Y-80827000D01*
X116427000Y-80827000D01*
X116427000Y-80847000D01*
X116173000Y-80847000D01*
X116173000Y-80827000D01*
X115348750Y-80827000D01*
X115190000Y-80985750D01*
X115186928Y-81150000D01*
X115199188Y-81274482D01*
X115235498Y-81394180D01*
X115294463Y-81504494D01*
X115330700Y-81548649D01*
X115252625Y-81694717D01*
X115203512Y-81856623D01*
X115186928Y-82025000D01*
X115186928Y-82475000D01*
X115203512Y-82643377D01*
X115252625Y-82805283D01*
X115332382Y-82954497D01*
X115439716Y-83085284D01*
X115570503Y-83192618D01*
X115719717Y-83272375D01*
X115881623Y-83321488D01*
X116050000Y-83338072D01*
X116550000Y-83338072D01*
X116718377Y-83321488D01*
X116880283Y-83272375D01*
X117029497Y-83192618D01*
X117160284Y-83085284D01*
X117222068Y-83010000D01*
X119912678Y-83010000D01*
X119950000Y-83013676D01*
X119987322Y-83010000D01*
X119987333Y-83010000D01*
X120098986Y-82999003D01*
X120242247Y-82955546D01*
X120374276Y-82884974D01*
X120469978Y-82806434D01*
X120613589Y-82835000D01*
X120886411Y-82835000D01*
X121153989Y-82781775D01*
X121406043Y-82677371D01*
X121632886Y-82525799D01*
X121825799Y-82332886D01*
X121977371Y-82106043D01*
X122081775Y-81853989D01*
X122135000Y-81586411D01*
X122135000Y-81313589D01*
X122082948Y-81051910D01*
X122087539Y-81036777D01*
X122099003Y-80998986D01*
X122110000Y-80887333D01*
X122110000Y-80887324D01*
X122113676Y-80850001D01*
X122110000Y-80812678D01*
X122110000Y-79550503D01*
X124269605Y-81710109D01*
X124298225Y-81853989D01*
X124402629Y-82106043D01*
X124554201Y-82332886D01*
X124747114Y-82525799D01*
X124973957Y-82677371D01*
X125226011Y-82781775D01*
X125493589Y-82835000D01*
X125766411Y-82835000D01*
X125914419Y-82805559D01*
X125980724Y-82859974D01*
X126112753Y-82930546D01*
X126256014Y-82974003D01*
X126405000Y-82988677D01*
X126442333Y-82985000D01*
X129177932Y-82985000D01*
X129239716Y-83060284D01*
X129370503Y-83167618D01*
X129519717Y-83247375D01*
X129681623Y-83296488D01*
X129850000Y-83313072D01*
X130350000Y-83313072D01*
X130518377Y-83296488D01*
X130680283Y-83247375D01*
X130829497Y-83167618D01*
X130960284Y-83060284D01*
X131067618Y-82929497D01*
X131147375Y-82780283D01*
X131171708Y-82700068D01*
X131200722Y-82795716D01*
X131278169Y-82940608D01*
X131382394Y-83067606D01*
X131509392Y-83171831D01*
X131654284Y-83249278D01*
X131811500Y-83296969D01*
X131975000Y-83313072D01*
X132525000Y-83313072D01*
X132688500Y-83296969D01*
X132845716Y-83249278D01*
X132990608Y-83171831D01*
X133117606Y-83067606D01*
X133144365Y-83035000D01*
X133615771Y-83035000D01*
X133717725Y-83118671D01*
X133865858Y-83197850D01*
X134026592Y-83246608D01*
X134193750Y-83263072D01*
X134706250Y-83263072D01*
X134873408Y-83246608D01*
X135034142Y-83197850D01*
X135182275Y-83118671D01*
X135312115Y-83012115D01*
X135418671Y-82882275D01*
X135431940Y-82857451D01*
X135435498Y-82869180D01*
X135494463Y-82979494D01*
X135573815Y-83076185D01*
X135670506Y-83155537D01*
X135780820Y-83214502D01*
X135900518Y-83250812D01*
X136025000Y-83263072D01*
X136214250Y-83260000D01*
X136373000Y-83101250D01*
X136373000Y-82314500D01*
X136627000Y-82314500D01*
X136627000Y-83101250D01*
X136785750Y-83260000D01*
X136975000Y-83263072D01*
X137099482Y-83250812D01*
X137219180Y-83214502D01*
X137329494Y-83155537D01*
X137426185Y-83076185D01*
X137505537Y-82979494D01*
X137564502Y-82869180D01*
X137600812Y-82749482D01*
X137613072Y-82625000D01*
X137610000Y-82473250D01*
X137451250Y-82314500D01*
X136627000Y-82314500D01*
X136373000Y-82314500D01*
X136353000Y-82314500D01*
X136353000Y-82060500D01*
X136373000Y-82060500D01*
X136373000Y-82040500D01*
X136627000Y-82040500D01*
X136627000Y-82060500D01*
X137451250Y-82060500D01*
X137610000Y-81901750D01*
X137613072Y-81750000D01*
X137600812Y-81625518D01*
X137564502Y-81505820D01*
X137505537Y-81395506D01*
X137450900Y-81328930D01*
X137468671Y-81307275D01*
X137547850Y-81159142D01*
X137596608Y-80998408D01*
X137613072Y-80831250D01*
X137613072Y-80393750D01*
X137596608Y-80226592D01*
X137547850Y-80065858D01*
X137468671Y-79917725D01*
X137362115Y-79787885D01*
X137232275Y-79681329D01*
X137084142Y-79602150D01*
X136923408Y-79553392D01*
X136756250Y-79536928D01*
X136243750Y-79536928D01*
X136076592Y-79553392D01*
X135915858Y-79602150D01*
X135767725Y-79681329D01*
X135637885Y-79787885D01*
X135531329Y-79917725D01*
X135475000Y-80023109D01*
X135418671Y-79917725D01*
X135312115Y-79787885D01*
X135182275Y-79681329D01*
X135034142Y-79602150D01*
X134880278Y-79555476D01*
X134174802Y-78850000D01*
X134286004Y-78738798D01*
X134315001Y-78715001D01*
X134341332Y-78682917D01*
X134401930Y-78609079D01*
X134479497Y-78567618D01*
X134580167Y-78485000D01*
X136169833Y-78485000D01*
X136270503Y-78567618D01*
X136419717Y-78647375D01*
X136581623Y-78696488D01*
X136750000Y-78713072D01*
X137200000Y-78713072D01*
X137368377Y-78696488D01*
X137530283Y-78647375D01*
X137676351Y-78569300D01*
X137720506Y-78605537D01*
X137830820Y-78664502D01*
X137950518Y-78700812D01*
X138075000Y-78713072D01*
X138239250Y-78710000D01*
X138398000Y-78551250D01*
X138398000Y-77727000D01*
X138652000Y-77727000D01*
X138652000Y-78551250D01*
X138810750Y-78710000D01*
X138975000Y-78713072D01*
X139099482Y-78700812D01*
X139219180Y-78664502D01*
X139329494Y-78605537D01*
X139426185Y-78526185D01*
X139505537Y-78429494D01*
X139564502Y-78319180D01*
X139600812Y-78199482D01*
X139613072Y-78075000D01*
X139610000Y-77885750D01*
X139451250Y-77727000D01*
X138652000Y-77727000D01*
X138398000Y-77727000D01*
X138378000Y-77727000D01*
X138378000Y-77473000D01*
X138398000Y-77473000D01*
X138398000Y-75877000D01*
X138652000Y-75877000D01*
X138652000Y-77473000D01*
X139451250Y-77473000D01*
X139610000Y-77314250D01*
X139613072Y-77125000D01*
X139600812Y-77000518D01*
X139564502Y-76880820D01*
X139505537Y-76770506D01*
X139427158Y-76675000D01*
X139505537Y-76579494D01*
X139564502Y-76469180D01*
X139600812Y-76349482D01*
X139613072Y-76225000D01*
X139610000Y-76035750D01*
X139451250Y-75877000D01*
X138652000Y-75877000D01*
X138398000Y-75877000D01*
X138378000Y-75877000D01*
X138378000Y-75623000D01*
X138398000Y-75623000D01*
X138398000Y-75603000D01*
X138652000Y-75603000D01*
X138652000Y-75623000D01*
X139451250Y-75623000D01*
X139610000Y-75464250D01*
X139613072Y-75275000D01*
X139600812Y-75150518D01*
X139564502Y-75030820D01*
X139505537Y-74920506D01*
X139426185Y-74823815D01*
X139378889Y-74785000D01*
X139771289Y-74785000D01*
X139790226Y-74803937D01*
X139959744Y-74917205D01*
X140148102Y-74995226D01*
X140348061Y-75035000D01*
X140551939Y-75035000D01*
X140751898Y-74995226D01*
X140940256Y-74917205D01*
X141109774Y-74803937D01*
X141253937Y-74659774D01*
X141367205Y-74490256D01*
X141445226Y-74301898D01*
X141485000Y-74101939D01*
X141485000Y-74009801D01*
X143486201Y-76011003D01*
X143509999Y-76040001D01*
X143549956Y-76072793D01*
X143448754Y-76286913D01*
X143408096Y-76420961D01*
X143530085Y-76643000D01*
X144673000Y-76643000D01*
X144673000Y-76623000D01*
X144927000Y-76623000D01*
X144927000Y-76643000D01*
X146069915Y-76643000D01*
X146191904Y-76420961D01*
X146151246Y-76286913D01*
X146138526Y-76260000D01*
X151078017Y-76260000D01*
X151040147Y-76351426D01*
X150985000Y-76628665D01*
X150985000Y-76911335D01*
X151021312Y-77093886D01*
X150725199Y-77390000D01*
X146086535Y-77390000D01*
X146151246Y-77253087D01*
X146191904Y-77119039D01*
X146069915Y-76897000D01*
X144927000Y-76897000D01*
X144927000Y-76917000D01*
X144673000Y-76917000D01*
X144673000Y-76897000D01*
X143530085Y-76897000D01*
X143408096Y-77119039D01*
X143448754Y-77253087D01*
X143513465Y-77390000D01*
X143214802Y-77390000D01*
X142435000Y-76610199D01*
X142435000Y-76548061D01*
X142395226Y-76348102D01*
X142317205Y-76159744D01*
X142203937Y-75990226D01*
X142059774Y-75846063D01*
X141890256Y-75732795D01*
X141701898Y-75654774D01*
X141501939Y-75615000D01*
X141298061Y-75615000D01*
X141098102Y-75654774D01*
X140909744Y-75732795D01*
X140740226Y-75846063D01*
X140596063Y-75990226D01*
X140482795Y-76159744D01*
X140404774Y-76348102D01*
X140365000Y-76548061D01*
X140365000Y-76751939D01*
X140404774Y-76951898D01*
X140482795Y-77140256D01*
X140596063Y-77309774D01*
X140740226Y-77453937D01*
X140909744Y-77567205D01*
X141098102Y-77645226D01*
X141298061Y-77685000D01*
X141360199Y-77685000D01*
X142336201Y-78661003D01*
X142359999Y-78690001D01*
X142475724Y-78784974D01*
X142607753Y-78855546D01*
X142751014Y-78899003D01*
X142862667Y-78910000D01*
X142862676Y-78910000D01*
X142899999Y-78913676D01*
X142937322Y-78910000D01*
X151002678Y-78910000D01*
X151040000Y-78913676D01*
X151077322Y-78910000D01*
X151077333Y-78910000D01*
X151188986Y-78899003D01*
X151332247Y-78855546D01*
X151464276Y-78784974D01*
X151580001Y-78690001D01*
X151603804Y-78660997D01*
X152096114Y-78168688D01*
X152278665Y-78205000D01*
X152561335Y-78205000D01*
X152838574Y-78149853D01*
X153099727Y-78041680D01*
X153334759Y-77884637D01*
X153534637Y-77684759D01*
X153691680Y-77449727D01*
X153799853Y-77188574D01*
X153855000Y-76911335D01*
X153855000Y-76628665D01*
X153799853Y-76351426D01*
X153691680Y-76090273D01*
X153534637Y-75855241D01*
X153334759Y-75655363D01*
X153102241Y-75500000D01*
X153334759Y-75344637D01*
X153534637Y-75144759D01*
X153691680Y-74909727D01*
X153799853Y-74648574D01*
X153855000Y-74371335D01*
X153855000Y-74088665D01*
X153799853Y-73811426D01*
X153691680Y-73550273D01*
X153534637Y-73315241D01*
X153334759Y-73115363D01*
X153102241Y-72960000D01*
X153334759Y-72804637D01*
X153534637Y-72604759D01*
X153691680Y-72369727D01*
X153799853Y-72108574D01*
X153855000Y-71831335D01*
X153855000Y-71548665D01*
X153799853Y-71271426D01*
X153691680Y-71010273D01*
X153534637Y-70775241D01*
X153334759Y-70575363D01*
X153305000Y-70555479D01*
X153305000Y-70284521D01*
X153334759Y-70264637D01*
X153534637Y-70064759D01*
X153691680Y-69829727D01*
X153799853Y-69568574D01*
X153855000Y-69291335D01*
X153855000Y-69008665D01*
X153849015Y-68978576D01*
X153880175Y-68940608D01*
X153937480Y-68870782D01*
X153959410Y-68844060D01*
X154041588Y-68690314D01*
X154092194Y-68523491D01*
X154104999Y-68393478D01*
X154104999Y-68393468D01*
X154109280Y-68350002D01*
X154104999Y-68306536D01*
X154104999Y-61713468D01*
X154109280Y-61669999D01*
X154104999Y-61626530D01*
X154104999Y-60913468D01*
X154109280Y-60869999D01*
X154104999Y-60826530D01*
X154104999Y-60826522D01*
X154092194Y-60696509D01*
X154083663Y-60668386D01*
X154041588Y-60529685D01*
X153959410Y-60375940D01*
X153876531Y-60274952D01*
X153876529Y-60274950D01*
X153848816Y-60241182D01*
X153815049Y-60213470D01*
X152256534Y-58654956D01*
X152228817Y-58621183D01*
X152094059Y-58510589D01*
X151940313Y-58428411D01*
X151773490Y-58377805D01*
X151643477Y-58365000D01*
X151643469Y-58365000D01*
X151600000Y-58360719D01*
X151556531Y-58365000D01*
X139438454Y-58365000D01*
X139390256Y-58332795D01*
X139201898Y-58254774D01*
X139001939Y-58215000D01*
X138798061Y-58215000D01*
X138598102Y-58254774D01*
X138409744Y-58332795D01*
X138240226Y-58446063D01*
X138096063Y-58590226D01*
X137982795Y-58759744D01*
X137904774Y-58948102D01*
X137865000Y-59148061D01*
X137865000Y-59351939D01*
X137904774Y-59551898D01*
X137930912Y-59615000D01*
X132566579Y-59615000D01*
X131613072Y-58661494D01*
X131613072Y-58575000D01*
X131596488Y-58406623D01*
X131547375Y-58244717D01*
X131467618Y-58095503D01*
X131360284Y-57964716D01*
X131229497Y-57857382D01*
X131080283Y-57777625D01*
X130918377Y-57728512D01*
X130750000Y-57711928D01*
X130250000Y-57711928D01*
X130081623Y-57728512D01*
X129919717Y-57777625D01*
X129770503Y-57857382D01*
X129669833Y-57940000D01*
X129499705Y-57940000D01*
X129429497Y-57882382D01*
X129280283Y-57802625D01*
X129118377Y-57753512D01*
X128950000Y-57736928D01*
X128862078Y-57736928D01*
X128769059Y-57660589D01*
X128615313Y-57578411D01*
X128448490Y-57527805D01*
X128318477Y-57515000D01*
X128318469Y-57515000D01*
X128275000Y-57510719D01*
X128231531Y-57515000D01*
X127759981Y-57515000D01*
X127704494Y-57469463D01*
X127594180Y-57410498D01*
X127474482Y-57374188D01*
X127350000Y-57361928D01*
X126450000Y-57361928D01*
X126325518Y-57374188D01*
X126205820Y-57410498D01*
X126095506Y-57469463D01*
X125998815Y-57548815D01*
X125919463Y-57645506D01*
X125860498Y-57755820D01*
X125824188Y-57875518D01*
X125811928Y-58000000D01*
X125811928Y-58511905D01*
X125801185Y-58498815D01*
X125704494Y-58419463D01*
X125594180Y-58360498D01*
X125474482Y-58324188D01*
X125350000Y-58311928D01*
X125113507Y-58311928D01*
X123706533Y-56904955D01*
X123678816Y-56871182D01*
X123544058Y-56760588D01*
X123390312Y-56678410D01*
X123223489Y-56627804D01*
X123093476Y-56614999D01*
X123093468Y-56614999D01*
X123049999Y-56610718D01*
X123006530Y-56614999D01*
X117043470Y-56614999D01*
X117000001Y-56610718D01*
X116956532Y-56614999D01*
X116956524Y-56614999D01*
X116826511Y-56627804D01*
X116659687Y-56678410D01*
X116505942Y-56760588D01*
X116404954Y-56843467D01*
X116404952Y-56843469D01*
X116371184Y-56871182D01*
X116343471Y-56904950D01*
X115504951Y-57743471D01*
X115471184Y-57771183D01*
X115443471Y-57804951D01*
X115443468Y-57804954D01*
X115360590Y-57905941D01*
X115278412Y-58059687D01*
X115231297Y-58215000D01*
X114513072Y-58215000D01*
X114513072Y-58025000D01*
X114496008Y-57851746D01*
X114445472Y-57685150D01*
X114363405Y-57531614D01*
X114252962Y-57397038D01*
X114118386Y-57286595D01*
X113964850Y-57204528D01*
X113798254Y-57153992D01*
X113625000Y-57136928D01*
X112875000Y-57136928D01*
X112701746Y-57153992D01*
X112535150Y-57204528D01*
X112381614Y-57286595D01*
X112247038Y-57397038D01*
X112136595Y-57531614D01*
X112054528Y-57685150D01*
X112003992Y-57851746D01*
X111986928Y-58025000D01*
X111986928Y-60175000D01*
X112003992Y-60348254D01*
X112054528Y-60514850D01*
X112136595Y-60668386D01*
X112247038Y-60802962D01*
X112381614Y-60913405D01*
X112535150Y-60995472D01*
X112701746Y-61046008D01*
X112875000Y-61063072D01*
X113097389Y-61063072D01*
X113032795Y-61159744D01*
X112954774Y-61348102D01*
X112915000Y-61548061D01*
X112915000Y-61740000D01*
X112780916Y-61740000D01*
X112692606Y-61632394D01*
X112565608Y-61528169D01*
X112420716Y-61450722D01*
X112263500Y-61403031D01*
X112100000Y-61386928D01*
X111700000Y-61386928D01*
X111536500Y-61403031D01*
X111379284Y-61450722D01*
X111234392Y-61528169D01*
X111107394Y-61632394D01*
X111075000Y-61671866D01*
X111042606Y-61632394D01*
X110915608Y-61528169D01*
X110770716Y-61450722D01*
X110613500Y-61403031D01*
X110450000Y-61386928D01*
X110050000Y-61386928D01*
X109886500Y-61403031D01*
X109729284Y-61450722D01*
X109584392Y-61528169D01*
X109457394Y-61632394D01*
X109353169Y-61759392D01*
X109336809Y-61790000D01*
X109011578Y-61790000D01*
X109789592Y-61011987D01*
X109901746Y-61046008D01*
X110075000Y-61063072D01*
X110825000Y-61063072D01*
X110998254Y-61046008D01*
X111164850Y-60995472D01*
X111318386Y-60913405D01*
X111452962Y-60802962D01*
X111563405Y-60668386D01*
X111645472Y-60514850D01*
X111696008Y-60348254D01*
X111713072Y-60175000D01*
X111713072Y-58025000D01*
X111696008Y-57851746D01*
X111645472Y-57685150D01*
X111563405Y-57531614D01*
X111452962Y-57397038D01*
X111318386Y-57286595D01*
X111164850Y-57204528D01*
X110998254Y-57153992D01*
X110825000Y-57136928D01*
X110075000Y-57136928D01*
X109901746Y-57153992D01*
X109735150Y-57204528D01*
X109581614Y-57286595D01*
X109447038Y-57397038D01*
X109336595Y-57531614D01*
X109254528Y-57685150D01*
X109203992Y-57851746D01*
X109186928Y-58025000D01*
X109186928Y-59111493D01*
X107625022Y-60673400D01*
X107627104Y-60626518D01*
X107586548Y-60361709D01*
X107495109Y-60109900D01*
X107437950Y-60002965D01*
X107201633Y-59940472D01*
X106442105Y-60700000D01*
X106456248Y-60714143D01*
X106276643Y-60893748D01*
X106262500Y-60879605D01*
X106248358Y-60893748D01*
X106068753Y-60714143D01*
X106082895Y-60700000D01*
X105323367Y-59940472D01*
X105147767Y-59986909D01*
X105149976Y-59760867D01*
X105502972Y-59760867D01*
X106262500Y-60520395D01*
X107022028Y-59760867D01*
X106959535Y-59524550D01*
X106716822Y-59411150D01*
X106456651Y-59347281D01*
X106189018Y-59335396D01*
X105924209Y-59375952D01*
X105672400Y-59467391D01*
X105565465Y-59524550D01*
X105502972Y-59760867D01*
X105149976Y-59760867D01*
X105150572Y-59700000D01*
X105147500Y-59668808D01*
X105147500Y-59572998D01*
X105137548Y-59572998D01*
X105102002Y-59455820D01*
X105082179Y-59418735D01*
X105105962Y-59382391D01*
X105102091Y-59344718D01*
X105009921Y-59119467D01*
X104875578Y-58916526D01*
X104704225Y-58743693D01*
X104502446Y-58607610D01*
X104277996Y-58513507D01*
X104039500Y-58465000D01*
X103689500Y-58465000D01*
X103435500Y-58465000D01*
X103085500Y-58465000D01*
X102847004Y-58513507D01*
X102760000Y-58549984D01*
X102760000Y-56460000D01*
X154440001Y-56460000D01*
X154440000Y-84640000D01*
%TA.AperFunction,Conductor*%
D25*
G36*
X154440000Y-84640000D02*
G01*
X102760000Y-84640000D01*
X102760000Y-77325000D01*
X109136928Y-77325000D01*
X109140000Y-77489250D01*
X109298750Y-77648000D01*
X110123000Y-77648000D01*
X110123000Y-77026250D01*
X110198000Y-76951250D01*
X110198000Y-76127000D01*
X109398750Y-76127000D01*
X109240000Y-76285750D01*
X109236928Y-76475000D01*
X109249188Y-76599482D01*
X109285498Y-76719180D01*
X109344463Y-76829494D01*
X109357888Y-76845852D01*
X109323815Y-76873815D01*
X109244463Y-76970506D01*
X109185498Y-77080820D01*
X109149188Y-77200518D01*
X109136928Y-77325000D01*
X102760000Y-77325000D01*
X102760000Y-68675000D01*
X109211928Y-68675000D01*
X109224188Y-68799482D01*
X109260498Y-68919180D01*
X109319463Y-69029494D01*
X109398815Y-69126185D01*
X109470796Y-69185258D01*
X109423815Y-69223815D01*
X109344463Y-69320506D01*
X109285498Y-69430820D01*
X109249188Y-69550518D01*
X109236928Y-69675000D01*
X109240000Y-69864250D01*
X109398750Y-70023000D01*
X110148000Y-70023000D01*
X110148000Y-69198750D01*
X110111750Y-69162500D01*
X110123000Y-69151250D01*
X110123000Y-68327000D01*
X109373750Y-68327000D01*
X109215000Y-68485750D01*
X109211928Y-68675000D01*
X102760000Y-68675000D01*
X102760000Y-67850016D01*
X102847004Y-67886493D01*
X103085500Y-67935000D01*
X103435500Y-67935000D01*
X103435500Y-64327000D01*
X103415500Y-64327000D01*
X103415500Y-64073000D01*
X103435500Y-64073000D01*
X103435500Y-62327000D01*
X103415500Y-62327000D01*
X103415500Y-62073000D01*
X103435500Y-62073000D01*
X103435500Y-58465000D01*
X103689500Y-58465000D01*
X103689500Y-62073000D01*
X103709500Y-62073000D01*
X103709500Y-62327000D01*
X103689500Y-62327000D01*
X103689500Y-64073000D01*
X103709500Y-64073000D01*
X103709500Y-64327000D01*
X103689500Y-64327000D01*
X103689500Y-67935000D01*
X104039500Y-67935000D01*
X104277996Y-67886493D01*
X104502446Y-67792390D01*
X104704225Y-67656307D01*
X104875578Y-67483474D01*
X105009921Y-67280533D01*
X105102091Y-67055282D01*
X105105962Y-67017609D01*
X105082179Y-66981265D01*
X105102002Y-66944180D01*
X105137548Y-66827002D01*
X105147500Y-66827002D01*
X105147500Y-66731192D01*
X105150572Y-66700000D01*
X105149977Y-66639133D01*
X105502972Y-66639133D01*
X105565465Y-66875450D01*
X105808178Y-66988850D01*
X106068349Y-67052719D01*
X106335982Y-67064604D01*
X106600791Y-67024048D01*
X106852600Y-66932609D01*
X106959535Y-66875450D01*
X107022028Y-66639133D01*
X106262500Y-65879605D01*
X105502972Y-66639133D01*
X105149977Y-66639133D01*
X105147767Y-66413091D01*
X105323367Y-66459528D01*
X106082895Y-65700000D01*
X106068753Y-65685858D01*
X106248358Y-65506253D01*
X106262500Y-65520395D01*
X106276643Y-65506253D01*
X106456248Y-65685858D01*
X106442105Y-65700000D01*
X107201633Y-66459528D01*
X107437950Y-66397035D01*
X107551350Y-66154322D01*
X107615219Y-65894151D01*
X107627104Y-65626518D01*
X107586548Y-65361709D01*
X107495109Y-65109900D01*
X107466225Y-65055864D01*
X107523021Y-64953576D01*
X107561241Y-64834474D01*
X107572500Y-64731750D01*
X107413750Y-64573000D01*
X107301178Y-64573000D01*
X107388685Y-64501185D01*
X107468037Y-64404494D01*
X107504532Y-64336218D01*
X107572500Y-64268250D01*
X107562512Y-64177120D01*
X107563312Y-64174482D01*
X107575572Y-64050000D01*
X107575572Y-63960000D01*
X108735199Y-63960000D01*
X109211928Y-64436730D01*
X109211928Y-64675000D01*
X109228031Y-64838500D01*
X109275722Y-64995716D01*
X109353169Y-65140608D01*
X109457394Y-65267606D01*
X109490000Y-65294366D01*
X109490001Y-65405634D01*
X109457394Y-65432394D01*
X109353169Y-65559392D01*
X109275722Y-65704284D01*
X109228031Y-65861500D01*
X109211928Y-66025000D01*
X109211928Y-66575000D01*
X109228031Y-66738500D01*
X109275722Y-66895716D01*
X109353169Y-67040608D01*
X109457394Y-67167606D01*
X109492813Y-67196673D01*
X109398815Y-67273815D01*
X109319463Y-67370506D01*
X109260498Y-67480820D01*
X109224188Y-67600518D01*
X109211928Y-67725000D01*
X109215000Y-67914250D01*
X109373750Y-68073000D01*
X110123000Y-68073000D01*
X110123000Y-68053000D01*
X110377000Y-68053000D01*
X110377000Y-68073000D01*
X110397000Y-68073000D01*
X110397000Y-68327000D01*
X110377000Y-68327000D01*
X110377000Y-69151250D01*
X110413250Y-69187500D01*
X110402000Y-69198750D01*
X110402000Y-70023000D01*
X110422000Y-70023000D01*
X110422000Y-70277000D01*
X110402000Y-70277000D01*
X110402000Y-70297000D01*
X110148000Y-70297000D01*
X110148000Y-70277000D01*
X109398750Y-70277000D01*
X109240000Y-70435750D01*
X109236928Y-70625000D01*
X109249188Y-70749482D01*
X109285498Y-70869180D01*
X109344463Y-70979494D01*
X109423815Y-71076185D01*
X109520506Y-71155537D01*
X109554139Y-71173514D01*
X109482394Y-71232394D01*
X109378169Y-71359392D01*
X109300722Y-71504284D01*
X109253031Y-71661500D01*
X109236928Y-71825000D01*
X109236928Y-72375000D01*
X109253031Y-72538500D01*
X109300722Y-72695716D01*
X109378169Y-72840608D01*
X109482394Y-72967606D01*
X109515001Y-72994366D01*
X109515000Y-73155634D01*
X109482394Y-73182394D01*
X109378169Y-73309392D01*
X109300722Y-73454284D01*
X109253031Y-73611500D01*
X109236928Y-73775000D01*
X109236928Y-74325000D01*
X109253031Y-74488500D01*
X109300722Y-74645716D01*
X109378169Y-74790608D01*
X109482394Y-74917606D01*
X109554139Y-74976486D01*
X109520506Y-74994463D01*
X109423815Y-75073815D01*
X109344463Y-75170506D01*
X109285498Y-75280820D01*
X109249188Y-75400518D01*
X109236928Y-75525000D01*
X109240000Y-75714250D01*
X109398750Y-75873000D01*
X110198000Y-75873000D01*
X110198000Y-75853000D01*
X110452000Y-75853000D01*
X110452000Y-75873000D01*
X110472000Y-75873000D01*
X110472000Y-76127000D01*
X110452000Y-76127000D01*
X110452000Y-76773750D01*
X110377000Y-76848750D01*
X110377000Y-77648000D01*
X110397000Y-77648000D01*
X110397000Y-77902000D01*
X110377000Y-77902000D01*
X110377000Y-77922000D01*
X110123000Y-77922000D01*
X110123000Y-77902000D01*
X109298750Y-77902000D01*
X109140000Y-78060750D01*
X109136928Y-78225000D01*
X109149188Y-78349482D01*
X109185498Y-78469180D01*
X109244463Y-78579494D01*
X109280700Y-78623649D01*
X109202625Y-78769717D01*
X109153512Y-78931623D01*
X109136928Y-79100000D01*
X109136928Y-79550000D01*
X109153512Y-79718377D01*
X109202625Y-79880283D01*
X109282382Y-80029497D01*
X109389716Y-80160284D01*
X109520503Y-80267618D01*
X109669717Y-80347375D01*
X109831623Y-80396488D01*
X110000000Y-80413072D01*
X110500000Y-80413072D01*
X110668377Y-80396488D01*
X110830283Y-80347375D01*
X110979497Y-80267618D01*
X111066878Y-80195906D01*
X111159392Y-80271831D01*
X111304284Y-80349278D01*
X111461500Y-80396969D01*
X111625000Y-80413072D01*
X112175000Y-80413072D01*
X112338500Y-80396969D01*
X112495716Y-80349278D01*
X112640608Y-80271831D01*
X112767606Y-80167606D01*
X112814882Y-80110000D01*
X115203895Y-80110000D01*
X115199188Y-80125518D01*
X115186928Y-80250000D01*
X115190000Y-80414250D01*
X115348750Y-80573000D01*
X116173000Y-80573000D01*
X116173000Y-80553000D01*
X116427000Y-80553000D01*
X116427000Y-80573000D01*
X117251250Y-80573000D01*
X117410000Y-80414250D01*
X117413072Y-80250000D01*
X117400812Y-80125518D01*
X117396105Y-80110000D01*
X119396289Y-80110000D01*
X119490226Y-80203937D01*
X119659744Y-80317205D01*
X119846679Y-80394636D01*
X119674201Y-80567114D01*
X119522629Y-80793957D01*
X119418225Y-81046011D01*
X119365000Y-81313589D01*
X119365000Y-81490000D01*
X117313284Y-81490000D01*
X117364502Y-81394180D01*
X117400812Y-81274482D01*
X117413072Y-81150000D01*
X117410000Y-80985750D01*
X117251250Y-80827000D01*
X116427000Y-80827000D01*
X116427000Y-80847000D01*
X116173000Y-80847000D01*
X116173000Y-80827000D01*
X115348750Y-80827000D01*
X115190000Y-80985750D01*
X115186928Y-81150000D01*
X115199188Y-81274482D01*
X115235498Y-81394180D01*
X115294463Y-81504494D01*
X115330700Y-81548649D01*
X115252625Y-81694717D01*
X115203512Y-81856623D01*
X115186928Y-82025000D01*
X115186928Y-82475000D01*
X115203512Y-82643377D01*
X115252625Y-82805283D01*
X115332382Y-82954497D01*
X115439716Y-83085284D01*
X115570503Y-83192618D01*
X115719717Y-83272375D01*
X115881623Y-83321488D01*
X116050000Y-83338072D01*
X116550000Y-83338072D01*
X116718377Y-83321488D01*
X116880283Y-83272375D01*
X117029497Y-83192618D01*
X117160284Y-83085284D01*
X117222068Y-83010000D01*
X119912678Y-83010000D01*
X119950000Y-83013676D01*
X119987322Y-83010000D01*
X119987333Y-83010000D01*
X120098986Y-82999003D01*
X120242247Y-82955546D01*
X120374276Y-82884974D01*
X120469978Y-82806434D01*
X120613589Y-82835000D01*
X120886411Y-82835000D01*
X121153989Y-82781775D01*
X121406043Y-82677371D01*
X121632886Y-82525799D01*
X121825799Y-82332886D01*
X121977371Y-82106043D01*
X122081775Y-81853989D01*
X122135000Y-81586411D01*
X122135000Y-81313589D01*
X122082948Y-81051910D01*
X122087539Y-81036777D01*
X122099003Y-80998986D01*
X122110000Y-80887333D01*
X122110000Y-80887324D01*
X122113676Y-80850001D01*
X122110000Y-80812678D01*
X122110000Y-79550503D01*
X124269605Y-81710109D01*
X124298225Y-81853989D01*
X124402629Y-82106043D01*
X124554201Y-82332886D01*
X124747114Y-82525799D01*
X124973957Y-82677371D01*
X125226011Y-82781775D01*
X125493589Y-82835000D01*
X125766411Y-82835000D01*
X125914419Y-82805559D01*
X125980724Y-82859974D01*
X126112753Y-82930546D01*
X126256014Y-82974003D01*
X126405000Y-82988677D01*
X126442333Y-82985000D01*
X129177932Y-82985000D01*
X129239716Y-83060284D01*
X129370503Y-83167618D01*
X129519717Y-83247375D01*
X129681623Y-83296488D01*
X129850000Y-83313072D01*
X130350000Y-83313072D01*
X130518377Y-83296488D01*
X130680283Y-83247375D01*
X130829497Y-83167618D01*
X130960284Y-83060284D01*
X131067618Y-82929497D01*
X131147375Y-82780283D01*
X131171708Y-82700068D01*
X131200722Y-82795716D01*
X131278169Y-82940608D01*
X131382394Y-83067606D01*
X131509392Y-83171831D01*
X131654284Y-83249278D01*
X131811500Y-83296969D01*
X131975000Y-83313072D01*
X132525000Y-83313072D01*
X132688500Y-83296969D01*
X132845716Y-83249278D01*
X132990608Y-83171831D01*
X133117606Y-83067606D01*
X133144365Y-83035000D01*
X133615771Y-83035000D01*
X133717725Y-83118671D01*
X133865858Y-83197850D01*
X134026592Y-83246608D01*
X134193750Y-83263072D01*
X134706250Y-83263072D01*
X134873408Y-83246608D01*
X135034142Y-83197850D01*
X135182275Y-83118671D01*
X135312115Y-83012115D01*
X135418671Y-82882275D01*
X135431940Y-82857451D01*
X135435498Y-82869180D01*
X135494463Y-82979494D01*
X135573815Y-83076185D01*
X135670506Y-83155537D01*
X135780820Y-83214502D01*
X135900518Y-83250812D01*
X136025000Y-83263072D01*
X136214250Y-83260000D01*
X136373000Y-83101250D01*
X136373000Y-82314500D01*
X136627000Y-82314500D01*
X136627000Y-83101250D01*
X136785750Y-83260000D01*
X136975000Y-83263072D01*
X137099482Y-83250812D01*
X137219180Y-83214502D01*
X137329494Y-83155537D01*
X137426185Y-83076185D01*
X137505537Y-82979494D01*
X137564502Y-82869180D01*
X137600812Y-82749482D01*
X137613072Y-82625000D01*
X137610000Y-82473250D01*
X137451250Y-82314500D01*
X136627000Y-82314500D01*
X136373000Y-82314500D01*
X136353000Y-82314500D01*
X136353000Y-82060500D01*
X136373000Y-82060500D01*
X136373000Y-82040500D01*
X136627000Y-82040500D01*
X136627000Y-82060500D01*
X137451250Y-82060500D01*
X137610000Y-81901750D01*
X137613072Y-81750000D01*
X137600812Y-81625518D01*
X137564502Y-81505820D01*
X137505537Y-81395506D01*
X137450900Y-81328930D01*
X137468671Y-81307275D01*
X137547850Y-81159142D01*
X137596608Y-80998408D01*
X137613072Y-80831250D01*
X137613072Y-80393750D01*
X137596608Y-80226592D01*
X137547850Y-80065858D01*
X137468671Y-79917725D01*
X137362115Y-79787885D01*
X137232275Y-79681329D01*
X137084142Y-79602150D01*
X136923408Y-79553392D01*
X136756250Y-79536928D01*
X136243750Y-79536928D01*
X136076592Y-79553392D01*
X135915858Y-79602150D01*
X135767725Y-79681329D01*
X135637885Y-79787885D01*
X135531329Y-79917725D01*
X135475000Y-80023109D01*
X135418671Y-79917725D01*
X135312115Y-79787885D01*
X135182275Y-79681329D01*
X135034142Y-79602150D01*
X134880278Y-79555476D01*
X134174802Y-78850000D01*
X134286004Y-78738798D01*
X134315001Y-78715001D01*
X134341332Y-78682917D01*
X134401930Y-78609079D01*
X134479497Y-78567618D01*
X134580167Y-78485000D01*
X136169833Y-78485000D01*
X136270503Y-78567618D01*
X136419717Y-78647375D01*
X136581623Y-78696488D01*
X136750000Y-78713072D01*
X137200000Y-78713072D01*
X137368377Y-78696488D01*
X137530283Y-78647375D01*
X137676351Y-78569300D01*
X137720506Y-78605537D01*
X137830820Y-78664502D01*
X137950518Y-78700812D01*
X138075000Y-78713072D01*
X138239250Y-78710000D01*
X138398000Y-78551250D01*
X138398000Y-77727000D01*
X138652000Y-77727000D01*
X138652000Y-78551250D01*
X138810750Y-78710000D01*
X138975000Y-78713072D01*
X139099482Y-78700812D01*
X139219180Y-78664502D01*
X139329494Y-78605537D01*
X139426185Y-78526185D01*
X139505537Y-78429494D01*
X139564502Y-78319180D01*
X139600812Y-78199482D01*
X139613072Y-78075000D01*
X139610000Y-77885750D01*
X139451250Y-77727000D01*
X138652000Y-77727000D01*
X138398000Y-77727000D01*
X138378000Y-77727000D01*
X138378000Y-77473000D01*
X138398000Y-77473000D01*
X138398000Y-75877000D01*
X138652000Y-75877000D01*
X138652000Y-77473000D01*
X139451250Y-77473000D01*
X139610000Y-77314250D01*
X139613072Y-77125000D01*
X139600812Y-77000518D01*
X139564502Y-76880820D01*
X139505537Y-76770506D01*
X139427158Y-76675000D01*
X139505537Y-76579494D01*
X139564502Y-76469180D01*
X139600812Y-76349482D01*
X139613072Y-76225000D01*
X139610000Y-76035750D01*
X139451250Y-75877000D01*
X138652000Y-75877000D01*
X138398000Y-75877000D01*
X138378000Y-75877000D01*
X138378000Y-75623000D01*
X138398000Y-75623000D01*
X138398000Y-75603000D01*
X138652000Y-75603000D01*
X138652000Y-75623000D01*
X139451250Y-75623000D01*
X139610000Y-75464250D01*
X139613072Y-75275000D01*
X139600812Y-75150518D01*
X139564502Y-75030820D01*
X139505537Y-74920506D01*
X139426185Y-74823815D01*
X139378889Y-74785000D01*
X139771289Y-74785000D01*
X139790226Y-74803937D01*
X139959744Y-74917205D01*
X140148102Y-74995226D01*
X140348061Y-75035000D01*
X140551939Y-75035000D01*
X140751898Y-74995226D01*
X140940256Y-74917205D01*
X141109774Y-74803937D01*
X141253937Y-74659774D01*
X141367205Y-74490256D01*
X141445226Y-74301898D01*
X141485000Y-74101939D01*
X141485000Y-74009801D01*
X143486201Y-76011003D01*
X143509999Y-76040001D01*
X143549956Y-76072793D01*
X143448754Y-76286913D01*
X143408096Y-76420961D01*
X143530085Y-76643000D01*
X144673000Y-76643000D01*
X144673000Y-76623000D01*
X144927000Y-76623000D01*
X144927000Y-76643000D01*
X146069915Y-76643000D01*
X146191904Y-76420961D01*
X146151246Y-76286913D01*
X146138526Y-76260000D01*
X151078017Y-76260000D01*
X151040147Y-76351426D01*
X150985000Y-76628665D01*
X150985000Y-76911335D01*
X151021312Y-77093886D01*
X150725199Y-77390000D01*
X146086535Y-77390000D01*
X146151246Y-77253087D01*
X146191904Y-77119039D01*
X146069915Y-76897000D01*
X144927000Y-76897000D01*
X144927000Y-76917000D01*
X144673000Y-76917000D01*
X144673000Y-76897000D01*
X143530085Y-76897000D01*
X143408096Y-77119039D01*
X143448754Y-77253087D01*
X143513465Y-77390000D01*
X143214802Y-77390000D01*
X142435000Y-76610199D01*
X142435000Y-76548061D01*
X142395226Y-76348102D01*
X142317205Y-76159744D01*
X142203937Y-75990226D01*
X142059774Y-75846063D01*
X141890256Y-75732795D01*
X141701898Y-75654774D01*
X141501939Y-75615000D01*
X141298061Y-75615000D01*
X141098102Y-75654774D01*
X140909744Y-75732795D01*
X140740226Y-75846063D01*
X140596063Y-75990226D01*
X140482795Y-76159744D01*
X140404774Y-76348102D01*
X140365000Y-76548061D01*
X140365000Y-76751939D01*
X140404774Y-76951898D01*
X140482795Y-77140256D01*
X140596063Y-77309774D01*
X140740226Y-77453937D01*
X140909744Y-77567205D01*
X141098102Y-77645226D01*
X141298061Y-77685000D01*
X141360199Y-77685000D01*
X142336201Y-78661003D01*
X142359999Y-78690001D01*
X142475724Y-78784974D01*
X142607753Y-78855546D01*
X142751014Y-78899003D01*
X142862667Y-78910000D01*
X142862676Y-78910000D01*
X142899999Y-78913676D01*
X142937322Y-78910000D01*
X151002678Y-78910000D01*
X151040000Y-78913676D01*
X151077322Y-78910000D01*
X151077333Y-78910000D01*
X151188986Y-78899003D01*
X151332247Y-78855546D01*
X151464276Y-78784974D01*
X151580001Y-78690001D01*
X151603804Y-78660997D01*
X152096114Y-78168688D01*
X152278665Y-78205000D01*
X152561335Y-78205000D01*
X152838574Y-78149853D01*
X153099727Y-78041680D01*
X153334759Y-77884637D01*
X153534637Y-77684759D01*
X153691680Y-77449727D01*
X153799853Y-77188574D01*
X153855000Y-76911335D01*
X153855000Y-76628665D01*
X153799853Y-76351426D01*
X153691680Y-76090273D01*
X153534637Y-75855241D01*
X153334759Y-75655363D01*
X153102241Y-75500000D01*
X153334759Y-75344637D01*
X153534637Y-75144759D01*
X153691680Y-74909727D01*
X153799853Y-74648574D01*
X153855000Y-74371335D01*
X153855000Y-74088665D01*
X153799853Y-73811426D01*
X153691680Y-73550273D01*
X153534637Y-73315241D01*
X153334759Y-73115363D01*
X153102241Y-72960000D01*
X153334759Y-72804637D01*
X153534637Y-72604759D01*
X153691680Y-72369727D01*
X153799853Y-72108574D01*
X153855000Y-71831335D01*
X153855000Y-71548665D01*
X153799853Y-71271426D01*
X153691680Y-71010273D01*
X153534637Y-70775241D01*
X153334759Y-70575363D01*
X153305000Y-70555479D01*
X153305000Y-70284521D01*
X153334759Y-70264637D01*
X153534637Y-70064759D01*
X153691680Y-69829727D01*
X153799853Y-69568574D01*
X153855000Y-69291335D01*
X153855000Y-69008665D01*
X153849015Y-68978576D01*
X153880175Y-68940608D01*
X153937480Y-68870782D01*
X153959410Y-68844060D01*
X154041588Y-68690314D01*
X154092194Y-68523491D01*
X154104999Y-68393478D01*
X154104999Y-68393468D01*
X154109280Y-68350002D01*
X154104999Y-68306536D01*
X154104999Y-61713468D01*
X154109280Y-61669999D01*
X154104999Y-61626530D01*
X154104999Y-60913468D01*
X154109280Y-60869999D01*
X154104999Y-60826530D01*
X154104999Y-60826522D01*
X154092194Y-60696509D01*
X154083663Y-60668386D01*
X154041588Y-60529685D01*
X153959410Y-60375940D01*
X153876531Y-60274952D01*
X153876529Y-60274950D01*
X153848816Y-60241182D01*
X153815049Y-60213470D01*
X152256534Y-58654956D01*
X152228817Y-58621183D01*
X152094059Y-58510589D01*
X151940313Y-58428411D01*
X151773490Y-58377805D01*
X151643477Y-58365000D01*
X151643469Y-58365000D01*
X151600000Y-58360719D01*
X151556531Y-58365000D01*
X139438454Y-58365000D01*
X139390256Y-58332795D01*
X139201898Y-58254774D01*
X139001939Y-58215000D01*
X138798061Y-58215000D01*
X138598102Y-58254774D01*
X138409744Y-58332795D01*
X138240226Y-58446063D01*
X138096063Y-58590226D01*
X137982795Y-58759744D01*
X137904774Y-58948102D01*
X137865000Y-59148061D01*
X137865000Y-59351939D01*
X137904774Y-59551898D01*
X137930912Y-59615000D01*
X132566579Y-59615000D01*
X131613072Y-58661494D01*
X131613072Y-58575000D01*
X131596488Y-58406623D01*
X131547375Y-58244717D01*
X131467618Y-58095503D01*
X131360284Y-57964716D01*
X131229497Y-57857382D01*
X131080283Y-57777625D01*
X130918377Y-57728512D01*
X130750000Y-57711928D01*
X130250000Y-57711928D01*
X130081623Y-57728512D01*
X129919717Y-57777625D01*
X129770503Y-57857382D01*
X129669833Y-57940000D01*
X129499705Y-57940000D01*
X129429497Y-57882382D01*
X129280283Y-57802625D01*
X129118377Y-57753512D01*
X128950000Y-57736928D01*
X128862078Y-57736928D01*
X128769059Y-57660589D01*
X128615313Y-57578411D01*
X128448490Y-57527805D01*
X128318477Y-57515000D01*
X128318469Y-57515000D01*
X128275000Y-57510719D01*
X128231531Y-57515000D01*
X127759981Y-57515000D01*
X127704494Y-57469463D01*
X127594180Y-57410498D01*
X127474482Y-57374188D01*
X127350000Y-57361928D01*
X126450000Y-57361928D01*
X126325518Y-57374188D01*
X126205820Y-57410498D01*
X126095506Y-57469463D01*
X125998815Y-57548815D01*
X125919463Y-57645506D01*
X125860498Y-57755820D01*
X125824188Y-57875518D01*
X125811928Y-58000000D01*
X125811928Y-58511905D01*
X125801185Y-58498815D01*
X125704494Y-58419463D01*
X125594180Y-58360498D01*
X125474482Y-58324188D01*
X125350000Y-58311928D01*
X125113507Y-58311928D01*
X123706533Y-56904955D01*
X123678816Y-56871182D01*
X123544058Y-56760588D01*
X123390312Y-56678410D01*
X123223489Y-56627804D01*
X123093476Y-56614999D01*
X123093468Y-56614999D01*
X123049999Y-56610718D01*
X123006530Y-56614999D01*
X117043470Y-56614999D01*
X117000001Y-56610718D01*
X116956532Y-56614999D01*
X116956524Y-56614999D01*
X116826511Y-56627804D01*
X116659687Y-56678410D01*
X116505942Y-56760588D01*
X116404954Y-56843467D01*
X116404952Y-56843469D01*
X116371184Y-56871182D01*
X116343471Y-56904950D01*
X115504951Y-57743471D01*
X115471184Y-57771183D01*
X115443471Y-57804951D01*
X115443468Y-57804954D01*
X115360590Y-57905941D01*
X115278412Y-58059687D01*
X115231297Y-58215000D01*
X114513072Y-58215000D01*
X114513072Y-58025000D01*
X114496008Y-57851746D01*
X114445472Y-57685150D01*
X114363405Y-57531614D01*
X114252962Y-57397038D01*
X114118386Y-57286595D01*
X113964850Y-57204528D01*
X113798254Y-57153992D01*
X113625000Y-57136928D01*
X112875000Y-57136928D01*
X112701746Y-57153992D01*
X112535150Y-57204528D01*
X112381614Y-57286595D01*
X112247038Y-57397038D01*
X112136595Y-57531614D01*
X112054528Y-57685150D01*
X112003992Y-57851746D01*
X111986928Y-58025000D01*
X111986928Y-60175000D01*
X112003992Y-60348254D01*
X112054528Y-60514850D01*
X112136595Y-60668386D01*
X112247038Y-60802962D01*
X112381614Y-60913405D01*
X112535150Y-60995472D01*
X112701746Y-61046008D01*
X112875000Y-61063072D01*
X113097389Y-61063072D01*
X113032795Y-61159744D01*
X112954774Y-61348102D01*
X112915000Y-61548061D01*
X112915000Y-61740000D01*
X112780916Y-61740000D01*
X112692606Y-61632394D01*
X112565608Y-61528169D01*
X112420716Y-61450722D01*
X112263500Y-61403031D01*
X112100000Y-61386928D01*
X111700000Y-61386928D01*
X111536500Y-61403031D01*
X111379284Y-61450722D01*
X111234392Y-61528169D01*
X111107394Y-61632394D01*
X111075000Y-61671866D01*
X111042606Y-61632394D01*
X110915608Y-61528169D01*
X110770716Y-61450722D01*
X110613500Y-61403031D01*
X110450000Y-61386928D01*
X110050000Y-61386928D01*
X109886500Y-61403031D01*
X109729284Y-61450722D01*
X109584392Y-61528169D01*
X109457394Y-61632394D01*
X109353169Y-61759392D01*
X109336809Y-61790000D01*
X109011578Y-61790000D01*
X109789592Y-61011987D01*
X109901746Y-61046008D01*
X110075000Y-61063072D01*
X110825000Y-61063072D01*
X110998254Y-61046008D01*
X111164850Y-60995472D01*
X111318386Y-60913405D01*
X111452962Y-60802962D01*
X111563405Y-60668386D01*
X111645472Y-60514850D01*
X111696008Y-60348254D01*
X111713072Y-60175000D01*
X111713072Y-58025000D01*
X111696008Y-57851746D01*
X111645472Y-57685150D01*
X111563405Y-57531614D01*
X111452962Y-57397038D01*
X111318386Y-57286595D01*
X111164850Y-57204528D01*
X110998254Y-57153992D01*
X110825000Y-57136928D01*
X110075000Y-57136928D01*
X109901746Y-57153992D01*
X109735150Y-57204528D01*
X109581614Y-57286595D01*
X109447038Y-57397038D01*
X109336595Y-57531614D01*
X109254528Y-57685150D01*
X109203992Y-57851746D01*
X109186928Y-58025000D01*
X109186928Y-59111493D01*
X107625022Y-60673400D01*
X107627104Y-60626518D01*
X107586548Y-60361709D01*
X107495109Y-60109900D01*
X107437950Y-60002965D01*
X107201633Y-59940472D01*
X106442105Y-60700000D01*
X106456248Y-60714143D01*
X106276643Y-60893748D01*
X106262500Y-60879605D01*
X106248358Y-60893748D01*
X106068753Y-60714143D01*
X106082895Y-60700000D01*
X105323367Y-59940472D01*
X105147767Y-59986909D01*
X105149976Y-59760867D01*
X105502972Y-59760867D01*
X106262500Y-60520395D01*
X107022028Y-59760867D01*
X106959535Y-59524550D01*
X106716822Y-59411150D01*
X106456651Y-59347281D01*
X106189018Y-59335396D01*
X105924209Y-59375952D01*
X105672400Y-59467391D01*
X105565465Y-59524550D01*
X105502972Y-59760867D01*
X105149976Y-59760867D01*
X105150572Y-59700000D01*
X105147500Y-59668808D01*
X105147500Y-59572998D01*
X105137548Y-59572998D01*
X105102002Y-59455820D01*
X105082179Y-59418735D01*
X105105962Y-59382391D01*
X105102091Y-59344718D01*
X105009921Y-59119467D01*
X104875578Y-58916526D01*
X104704225Y-58743693D01*
X104502446Y-58607610D01*
X104277996Y-58513507D01*
X104039500Y-58465000D01*
X103689500Y-58465000D01*
X103435500Y-58465000D01*
X103085500Y-58465000D01*
X102847004Y-58513507D01*
X102760000Y-58549984D01*
X102760000Y-56460000D01*
X154440001Y-56460000D01*
X154440000Y-84640000D01*
G37*
%TD.AperFunction*%
D24*
X129148750Y-80548000D02*
X129973000Y-80548000D01*
X129973000Y-80528000D01*
X130227000Y-80528000D01*
X130227000Y-80548000D01*
X130247000Y-80548000D01*
X130247000Y-80802000D01*
X130227000Y-80802000D01*
X130227000Y-80822000D01*
X129973000Y-80822000D01*
X129973000Y-80802000D01*
X129148750Y-80802000D01*
X128990000Y-80960750D01*
X128986928Y-81125000D01*
X128999188Y-81249482D01*
X129035498Y-81369180D01*
X129086716Y-81465000D01*
X127015000Y-81465000D01*
X127015000Y-81313589D01*
X126961775Y-81046011D01*
X126857371Y-80793957D01*
X126705799Y-80567114D01*
X126551198Y-80412513D01*
X126553711Y-80410000D01*
X129010750Y-80410000D01*
X129148750Y-80548000D01*
%TA.AperFunction,Conductor*%
D25*
G36*
X129148750Y-80548000D02*
G01*
X129973000Y-80548000D01*
X129973000Y-80528000D01*
X130227000Y-80528000D01*
X130227000Y-80548000D01*
X130247000Y-80548000D01*
X130247000Y-80802000D01*
X130227000Y-80802000D01*
X130227000Y-80822000D01*
X129973000Y-80822000D01*
X129973000Y-80802000D01*
X129148750Y-80802000D01*
X128990000Y-80960750D01*
X128986928Y-81125000D01*
X128999188Y-81249482D01*
X129035498Y-81369180D01*
X129086716Y-81465000D01*
X127015000Y-81465000D01*
X127015000Y-81313589D01*
X126961775Y-81046011D01*
X126857371Y-80793957D01*
X126705799Y-80567114D01*
X126551198Y-80412513D01*
X126553711Y-80410000D01*
X129010750Y-80410000D01*
X129148750Y-80548000D01*
G37*
%TD.AperFunction*%
D24*
X118574325Y-76549127D02*
X118561928Y-76675000D01*
X118561928Y-78075000D01*
X118575629Y-78214113D01*
X118616207Y-78347881D01*
X118682102Y-78471162D01*
X118770782Y-78579218D01*
X118783920Y-78590000D01*
X112773848Y-78590000D01*
X112767606Y-78582394D01*
X112728134Y-78550000D01*
X112767606Y-78517606D01*
X112871831Y-78390608D01*
X112949278Y-78245716D01*
X112996969Y-78088500D01*
X113013072Y-77925000D01*
X113013072Y-77525000D01*
X112996969Y-77361500D01*
X112949278Y-77204284D01*
X112871831Y-77059392D01*
X112767606Y-76932394D01*
X112760000Y-76926152D01*
X112760000Y-76885000D01*
X113411546Y-76885000D01*
X113459744Y-76917205D01*
X113648102Y-76995226D01*
X113848061Y-77035000D01*
X114051939Y-77035000D01*
X114251898Y-76995226D01*
X114440256Y-76917205D01*
X114488454Y-76885000D01*
X116931541Y-76885000D01*
X116975010Y-76889281D01*
X117018479Y-76885000D01*
X117018487Y-76885000D01*
X117148500Y-76872195D01*
X117315323Y-76821589D01*
X117469069Y-76739411D01*
X117603827Y-76628817D01*
X117631544Y-76595044D01*
X117988516Y-76238072D01*
X118125000Y-76238072D01*
X118250874Y-76225675D01*
X118574325Y-76549127D01*
%TA.AperFunction,Conductor*%
D25*
G36*
X118574325Y-76549127D02*
G01*
X118561928Y-76675000D01*
X118561928Y-78075000D01*
X118575629Y-78214113D01*
X118616207Y-78347881D01*
X118682102Y-78471162D01*
X118770782Y-78579218D01*
X118783920Y-78590000D01*
X112773848Y-78590000D01*
X112767606Y-78582394D01*
X112728134Y-78550000D01*
X112767606Y-78517606D01*
X112871831Y-78390608D01*
X112949278Y-78245716D01*
X112996969Y-78088500D01*
X113013072Y-77925000D01*
X113013072Y-77525000D01*
X112996969Y-77361500D01*
X112949278Y-77204284D01*
X112871831Y-77059392D01*
X112767606Y-76932394D01*
X112760000Y-76926152D01*
X112760000Y-76885000D01*
X113411546Y-76885000D01*
X113459744Y-76917205D01*
X113648102Y-76995226D01*
X113848061Y-77035000D01*
X114051939Y-77035000D01*
X114251898Y-76995226D01*
X114440256Y-76917205D01*
X114488454Y-76885000D01*
X116931541Y-76885000D01*
X116975010Y-76889281D01*
X117018479Y-76885000D01*
X117018487Y-76885000D01*
X117148500Y-76872195D01*
X117315323Y-76821589D01*
X117469069Y-76739411D01*
X117603827Y-76628817D01*
X117631544Y-76595044D01*
X117988516Y-76238072D01*
X118125000Y-76238072D01*
X118250874Y-76225675D01*
X118574325Y-76549127D01*
G37*
%TD.AperFunction*%
D24*
X123550000Y-63839282D02*
X123593477Y-63835000D01*
X131033422Y-63835000D01*
X131390001Y-64191580D01*
X131390000Y-65665000D01*
X130118455Y-65665000D01*
X130074989Y-65660719D01*
X130031523Y-65665000D01*
X130031513Y-65665000D01*
X129901500Y-65677805D01*
X129734677Y-65728411D01*
X129580931Y-65810589D01*
X129580929Y-65810590D01*
X129580930Y-65810590D01*
X129479943Y-65893468D01*
X129479941Y-65893470D01*
X129446173Y-65921183D01*
X129418460Y-65954951D01*
X128211484Y-67161928D01*
X128075000Y-67161928D01*
X127935887Y-67175629D01*
X127802119Y-67216207D01*
X127678838Y-67282102D01*
X127570782Y-67370782D01*
X127482102Y-67478838D01*
X127416207Y-67602119D01*
X127375629Y-67735887D01*
X127361928Y-67875000D01*
X127361928Y-68025000D01*
X127375629Y-68164113D01*
X127376202Y-68166003D01*
X127376063Y-68166439D01*
X127365000Y-68268250D01*
X127440982Y-68344232D01*
X127482102Y-68421162D01*
X127505769Y-68450000D01*
X127482102Y-68478838D01*
X127440982Y-68555768D01*
X127365000Y-68631750D01*
X127376063Y-68733561D01*
X127376202Y-68733997D01*
X127375629Y-68735887D01*
X127361928Y-68875000D01*
X127361928Y-69025000D01*
X127375629Y-69164113D01*
X127386515Y-69200000D01*
X127375629Y-69235887D01*
X127361928Y-69375000D01*
X127361928Y-69525000D01*
X127375629Y-69664113D01*
X127386515Y-69700000D01*
X127375629Y-69735887D01*
X127361928Y-69875000D01*
X127361928Y-70025000D01*
X127375629Y-70164113D01*
X127386515Y-70200000D01*
X127375629Y-70235887D01*
X127361928Y-70375000D01*
X127361928Y-70525000D01*
X127375629Y-70664113D01*
X127386515Y-70700000D01*
X127375629Y-70735887D01*
X127361928Y-70875000D01*
X127361928Y-71025000D01*
X127375629Y-71164113D01*
X127386515Y-71200000D01*
X127375629Y-71235887D01*
X127361928Y-71375000D01*
X127361928Y-71525000D01*
X127375629Y-71664113D01*
X127386515Y-71700000D01*
X127375629Y-71735887D01*
X127361928Y-71875000D01*
X127361928Y-72025000D01*
X127375629Y-72164113D01*
X127386515Y-72200000D01*
X127375629Y-72235887D01*
X127361928Y-72375000D01*
X127361928Y-72525000D01*
X127375629Y-72664113D01*
X127386515Y-72700000D01*
X127375629Y-72735887D01*
X127361928Y-72875000D01*
X127361928Y-73025000D01*
X127375629Y-73164113D01*
X127386515Y-73200000D01*
X127375629Y-73235887D01*
X127361928Y-73375000D01*
X127361928Y-73525000D01*
X127375629Y-73664113D01*
X127386515Y-73700000D01*
X127375629Y-73735887D01*
X127361928Y-73875000D01*
X127361928Y-74025000D01*
X127375629Y-74164113D01*
X127386515Y-74200000D01*
X127375629Y-74235887D01*
X127361928Y-74375000D01*
X127361928Y-74525000D01*
X127375629Y-74664113D01*
X127376202Y-74666003D01*
X127376063Y-74666439D01*
X127365000Y-74768250D01*
X127440982Y-74844232D01*
X127482102Y-74921162D01*
X127505769Y-74950000D01*
X127482102Y-74978838D01*
X127440982Y-75055768D01*
X127365000Y-75131750D01*
X127376063Y-75233561D01*
X127376202Y-75233997D01*
X127375629Y-75235887D01*
X127361928Y-75375000D01*
X127361928Y-75525000D01*
X127375629Y-75664113D01*
X127416207Y-75797881D01*
X127482102Y-75921162D01*
X127570782Y-76029218D01*
X127678838Y-76117898D01*
X127802119Y-76183793D01*
X127935887Y-76224371D01*
X128075000Y-76238072D01*
X129475000Y-76238072D01*
X129607726Y-76225000D01*
X131136928Y-76225000D01*
X131149188Y-76349482D01*
X131185498Y-76469180D01*
X131244463Y-76579494D01*
X131322842Y-76675000D01*
X131244463Y-76770506D01*
X131185498Y-76880820D01*
X131149188Y-77000518D01*
X131136928Y-77125000D01*
X131140000Y-77314250D01*
X131298750Y-77473000D01*
X132098000Y-77473000D01*
X132098000Y-75877000D01*
X131298750Y-75877000D01*
X131140000Y-76035750D01*
X131136928Y-76225000D01*
X129607726Y-76225000D01*
X129614113Y-76224371D01*
X129747881Y-76183793D01*
X129871162Y-76117898D01*
X129979218Y-76029218D01*
X130067898Y-75921162D01*
X130133793Y-75797881D01*
X130174371Y-75664113D01*
X130188072Y-75525000D01*
X130188072Y-75375000D01*
X130174371Y-75235887D01*
X130173798Y-75233997D01*
X130173937Y-75233561D01*
X130176497Y-75210000D01*
X130535199Y-75210000D01*
X130661196Y-75335997D01*
X130684999Y-75365001D01*
X130800724Y-75459974D01*
X130932753Y-75530546D01*
X131076014Y-75574003D01*
X131187667Y-75585000D01*
X131187676Y-75585000D01*
X131224999Y-75588676D01*
X131260891Y-75585141D01*
X131298750Y-75623000D01*
X132098000Y-75623000D01*
X132098000Y-75603000D01*
X132352000Y-75603000D01*
X132352000Y-75623000D01*
X132372000Y-75623000D01*
X132372000Y-75877000D01*
X132352000Y-75877000D01*
X132352000Y-77473000D01*
X132372000Y-77473000D01*
X132372000Y-77727000D01*
X132352000Y-77727000D01*
X132352000Y-77747000D01*
X132098000Y-77747000D01*
X132098000Y-77727000D01*
X131298750Y-77727000D01*
X131140000Y-77885750D01*
X131136928Y-78075000D01*
X131138405Y-78090000D01*
X127636595Y-78090000D01*
X127638072Y-78075000D01*
X127638072Y-76675000D01*
X127624371Y-76535887D01*
X127583793Y-76402119D01*
X127517898Y-76278838D01*
X127429218Y-76170782D01*
X127321162Y-76082102D01*
X127197881Y-76016207D01*
X127064113Y-75975629D01*
X126925000Y-75961928D01*
X126863122Y-75961928D01*
X126885000Y-75851939D01*
X126885000Y-75648061D01*
X126845226Y-75448102D01*
X126767205Y-75259744D01*
X126653937Y-75090226D01*
X126509774Y-74946063D01*
X126340256Y-74832795D01*
X126151898Y-74754774D01*
X125951939Y-74715000D01*
X125748061Y-74715000D01*
X125548102Y-74754774D01*
X125359744Y-74832795D01*
X125190226Y-74946063D01*
X125046063Y-75090226D01*
X124932795Y-75259744D01*
X124854774Y-75448102D01*
X124815000Y-75648061D01*
X124815000Y-75851939D01*
X124837489Y-75965000D01*
X124722998Y-75965000D01*
X124722998Y-76019748D01*
X124668250Y-75965000D01*
X124566439Y-75976063D01*
X124566003Y-75976202D01*
X124564113Y-75975629D01*
X124425000Y-75961928D01*
X124275000Y-75961928D01*
X124135887Y-75975629D01*
X124100000Y-75986515D01*
X124064113Y-75975629D01*
X123925000Y-75961928D01*
X123775000Y-75961928D01*
X123635887Y-75975629D01*
X123600000Y-75986515D01*
X123564113Y-75975629D01*
X123425000Y-75961928D01*
X123275000Y-75961928D01*
X123135887Y-75975629D01*
X123100000Y-75986515D01*
X123064113Y-75975629D01*
X122925000Y-75961928D01*
X122852432Y-75961928D01*
X122129505Y-75239002D01*
X122105703Y-75209999D01*
X121989978Y-75115026D01*
X121857949Y-75044454D01*
X121714688Y-75000997D01*
X121603035Y-74990000D01*
X121603024Y-74990000D01*
X121565702Y-74986324D01*
X121528380Y-74990000D01*
X120853711Y-74990000D01*
X120809774Y-74946063D01*
X120640256Y-74832795D01*
X120451898Y-74754774D01*
X120251939Y-74715000D01*
X120048061Y-74715000D01*
X119848102Y-74754774D01*
X119659744Y-74832795D01*
X119490226Y-74946063D01*
X119346063Y-75090226D01*
X119313605Y-75138803D01*
X119113803Y-74939002D01*
X119090001Y-74909999D01*
X118974276Y-74815026D01*
X118842247Y-74744454D01*
X118832079Y-74741370D01*
X118823937Y-74666439D01*
X118823798Y-74666003D01*
X118824371Y-74664113D01*
X118838072Y-74525000D01*
X118838072Y-74375000D01*
X118824371Y-74235887D01*
X118813485Y-74200000D01*
X118824371Y-74164113D01*
X118838072Y-74025000D01*
X118838072Y-73875000D01*
X118824371Y-73735887D01*
X118813485Y-73700000D01*
X118824371Y-73664113D01*
X118838072Y-73525000D01*
X118838072Y-73375000D01*
X118824371Y-73235887D01*
X118813485Y-73200000D01*
X118824371Y-73164113D01*
X118838072Y-73025000D01*
X118838072Y-72875000D01*
X118824371Y-72735887D01*
X118813485Y-72700000D01*
X118824371Y-72664113D01*
X118838072Y-72525000D01*
X118838072Y-72375000D01*
X118824371Y-72235887D01*
X118813485Y-72200000D01*
X118824371Y-72164113D01*
X118838072Y-72025000D01*
X118838072Y-71875000D01*
X118824371Y-71735887D01*
X118813485Y-71700000D01*
X118824371Y-71664113D01*
X118838072Y-71525000D01*
X118838072Y-71375000D01*
X118824371Y-71235887D01*
X118813485Y-71200000D01*
X118824371Y-71164113D01*
X118838072Y-71025000D01*
X118838072Y-70875000D01*
X118824371Y-70735887D01*
X118813485Y-70700000D01*
X118824371Y-70664113D01*
X118838072Y-70525000D01*
X118838072Y-70375000D01*
X118824371Y-70235887D01*
X118813485Y-70200000D01*
X118824371Y-70164113D01*
X118838072Y-70025000D01*
X118838072Y-69875000D01*
X118824371Y-69735887D01*
X118813485Y-69700000D01*
X118824371Y-69664113D01*
X118838072Y-69525000D01*
X118838072Y-69375000D01*
X118824371Y-69235887D01*
X118813485Y-69200000D01*
X118824371Y-69164113D01*
X118838072Y-69025000D01*
X118838072Y-68875000D01*
X118824371Y-68735887D01*
X118813485Y-68700000D01*
X118824371Y-68664113D01*
X118838072Y-68525000D01*
X118838072Y-68375000D01*
X118824371Y-68235887D01*
X118813485Y-68199999D01*
X118824371Y-68164113D01*
X118838072Y-68025000D01*
X118838072Y-67875000D01*
X118824371Y-67735887D01*
X118783793Y-67602119D01*
X118717898Y-67478838D01*
X118629218Y-67370782D01*
X118521162Y-67282102D01*
X118397881Y-67216207D01*
X118264113Y-67175629D01*
X118125000Y-67161928D01*
X116725000Y-67161928D01*
X116585887Y-67175629D01*
X116452119Y-67216207D01*
X116328838Y-67282102D01*
X116220782Y-67370782D01*
X116132102Y-67478838D01*
X116066207Y-67602119D01*
X116025629Y-67735887D01*
X116011928Y-67875000D01*
X116011928Y-68025000D01*
X116025629Y-68164113D01*
X116036515Y-68199999D01*
X116025629Y-68235887D01*
X116011928Y-68375000D01*
X116011928Y-68525000D01*
X116025629Y-68664113D01*
X116036515Y-68700000D01*
X116025629Y-68735887D01*
X116011928Y-68875000D01*
X116011928Y-69025000D01*
X116025629Y-69164113D01*
X116036515Y-69200000D01*
X116025629Y-69235887D01*
X116011928Y-69375000D01*
X116011928Y-69525000D01*
X116025629Y-69664113D01*
X116036515Y-69700000D01*
X116025629Y-69735887D01*
X116011928Y-69875000D01*
X116011928Y-70025000D01*
X116025629Y-70164113D01*
X116033482Y-70190000D01*
X114964802Y-70190000D01*
X112938072Y-68163271D01*
X112938072Y-67925000D01*
X112921969Y-67761500D01*
X112874278Y-67604284D01*
X112796831Y-67459392D01*
X112692606Y-67332394D01*
X112592209Y-67250000D01*
X112692606Y-67167606D01*
X112796831Y-67040608D01*
X112874278Y-66895716D01*
X112921969Y-66738500D01*
X112938072Y-66575000D01*
X112938072Y-66467931D01*
X112954774Y-66551898D01*
X113032795Y-66740256D01*
X113146063Y-66909774D01*
X113290226Y-67053937D01*
X113459744Y-67167205D01*
X113648102Y-67245226D01*
X113848061Y-67285000D01*
X114051939Y-67285000D01*
X114251898Y-67245226D01*
X114440256Y-67167205D01*
X114488454Y-67135000D01*
X114800295Y-67135000D01*
X114870503Y-67192618D01*
X115019717Y-67272375D01*
X115181623Y-67321488D01*
X115350000Y-67338072D01*
X115850000Y-67338072D01*
X116018377Y-67321488D01*
X116180283Y-67272375D01*
X116329497Y-67192618D01*
X116399705Y-67135000D01*
X118693459Y-67135000D01*
X118770782Y-67229218D01*
X118878838Y-67317898D01*
X119002119Y-67383793D01*
X119135887Y-67424371D01*
X119275000Y-67438072D01*
X119425000Y-67438072D01*
X119564113Y-67424371D01*
X119566003Y-67423798D01*
X119566439Y-67423937D01*
X119668250Y-67435000D01*
X119744232Y-67359018D01*
X119821162Y-67317898D01*
X119850000Y-67294231D01*
X119878838Y-67317898D01*
X119955768Y-67359018D01*
X120031750Y-67435000D01*
X120133561Y-67423937D01*
X120133997Y-67423798D01*
X120135887Y-67424371D01*
X120275000Y-67438072D01*
X120425000Y-67438072D01*
X120564113Y-67424371D01*
X120600000Y-67413485D01*
X120635887Y-67424371D01*
X120775000Y-67438072D01*
X120925000Y-67438072D01*
X121064113Y-67424371D01*
X121100000Y-67413485D01*
X121135887Y-67424371D01*
X121139129Y-67424690D01*
X121144454Y-67442246D01*
X121215026Y-67574276D01*
X121277838Y-67650812D01*
X121310000Y-67690001D01*
X121338998Y-67713799D01*
X122639231Y-69014033D01*
X122644774Y-69041898D01*
X122722795Y-69230256D01*
X122836063Y-69399774D01*
X122980226Y-69543937D01*
X123149744Y-69657205D01*
X123338102Y-69735226D01*
X123538061Y-69775000D01*
X123741939Y-69775000D01*
X123941898Y-69735226D01*
X124130256Y-69657205D01*
X124299774Y-69543937D01*
X124443937Y-69399774D01*
X124557205Y-69230256D01*
X124635226Y-69041898D01*
X124675000Y-68841939D01*
X124675000Y-68774999D01*
X125105000Y-68774999D01*
X125105000Y-68831939D01*
X125144774Y-69031898D01*
X125222795Y-69220256D01*
X125336063Y-69389774D01*
X125480226Y-69533937D01*
X125649744Y-69647205D01*
X125838102Y-69725226D01*
X126038061Y-69765000D01*
X126241939Y-69765000D01*
X126441898Y-69725226D01*
X126630256Y-69647205D01*
X126799774Y-69533937D01*
X126943937Y-69389774D01*
X127057205Y-69220256D01*
X127135226Y-69031898D01*
X127175000Y-68831939D01*
X127175000Y-68628061D01*
X127135226Y-68428102D01*
X127057205Y-68239744D01*
X126943937Y-68070226D01*
X126799774Y-67926063D01*
X126630256Y-67812795D01*
X126441898Y-67734774D01*
X126241939Y-67695000D01*
X126179801Y-67695000D01*
X125988802Y-67504001D01*
X125965000Y-67474998D01*
X125920006Y-67438072D01*
X125925000Y-67438072D01*
X126064113Y-67424371D01*
X126100000Y-67413485D01*
X126135887Y-67424371D01*
X126275000Y-67438072D01*
X126425000Y-67438072D01*
X126564113Y-67424371D01*
X126600000Y-67413485D01*
X126635887Y-67424371D01*
X126775000Y-67438072D01*
X126925000Y-67438072D01*
X127064113Y-67424371D01*
X127197881Y-67383793D01*
X127321162Y-67317898D01*
X127429218Y-67229218D01*
X127517898Y-67121162D01*
X127583793Y-66997881D01*
X127624371Y-66864113D01*
X127638072Y-66725000D01*
X127638072Y-65325000D01*
X127624371Y-65185887D01*
X127583793Y-65052119D01*
X127517898Y-64928838D01*
X127429218Y-64820782D01*
X127321162Y-64732102D01*
X127197881Y-64666207D01*
X127064113Y-64625629D01*
X126925000Y-64611928D01*
X126775000Y-64611928D01*
X126635887Y-64625629D01*
X126600000Y-64636515D01*
X126564113Y-64625629D01*
X126425000Y-64611928D01*
X126275000Y-64611928D01*
X126135887Y-64625629D01*
X126100000Y-64636515D01*
X126064113Y-64625629D01*
X125925000Y-64611928D01*
X125775000Y-64611928D01*
X125635887Y-64625629D01*
X125600000Y-64636515D01*
X125564113Y-64625629D01*
X125425000Y-64611928D01*
X125275000Y-64611928D01*
X125135887Y-64625629D01*
X125100000Y-64636515D01*
X125064113Y-64625629D01*
X124925000Y-64611928D01*
X124775000Y-64611928D01*
X124635887Y-64625629D01*
X124600000Y-64636515D01*
X124564113Y-64625629D01*
X124425000Y-64611928D01*
X124275000Y-64611928D01*
X124135887Y-64625629D01*
X124100000Y-64636515D01*
X124064113Y-64625629D01*
X123925000Y-64611928D01*
X123775000Y-64611928D01*
X123635887Y-64625629D01*
X123600000Y-64636515D01*
X123564113Y-64625629D01*
X123425000Y-64611928D01*
X123275000Y-64611928D01*
X123135887Y-64625629D01*
X123100000Y-64636515D01*
X123064113Y-64625629D01*
X122925000Y-64611928D01*
X122775000Y-64611928D01*
X122635887Y-64625629D01*
X122600000Y-64636515D01*
X122564113Y-64625629D01*
X122425000Y-64611928D01*
X122275000Y-64611928D01*
X122135887Y-64625629D01*
X122110000Y-64633482D01*
X122110000Y-64187322D01*
X122113676Y-64149999D01*
X122110000Y-64112676D01*
X122110000Y-64112667D01*
X122099003Y-64001014D01*
X122055546Y-63857753D01*
X122043384Y-63835000D01*
X123506524Y-63835000D01*
X123550000Y-63839282D01*
%TA.AperFunction,Conductor*%
D25*
G36*
X123550000Y-63839282D02*
G01*
X123593477Y-63835000D01*
X131033422Y-63835000D01*
X131390001Y-64191580D01*
X131390000Y-65665000D01*
X130118455Y-65665000D01*
X130074989Y-65660719D01*
X130031523Y-65665000D01*
X130031513Y-65665000D01*
X129901500Y-65677805D01*
X129734677Y-65728411D01*
X129580931Y-65810589D01*
X129580929Y-65810590D01*
X129580930Y-65810590D01*
X129479943Y-65893468D01*
X129479941Y-65893470D01*
X129446173Y-65921183D01*
X129418460Y-65954951D01*
X128211484Y-67161928D01*
X128075000Y-67161928D01*
X127935887Y-67175629D01*
X127802119Y-67216207D01*
X127678838Y-67282102D01*
X127570782Y-67370782D01*
X127482102Y-67478838D01*
X127416207Y-67602119D01*
X127375629Y-67735887D01*
X127361928Y-67875000D01*
X127361928Y-68025000D01*
X127375629Y-68164113D01*
X127376202Y-68166003D01*
X127376063Y-68166439D01*
X127365000Y-68268250D01*
X127440982Y-68344232D01*
X127482102Y-68421162D01*
X127505769Y-68450000D01*
X127482102Y-68478838D01*
X127440982Y-68555768D01*
X127365000Y-68631750D01*
X127376063Y-68733561D01*
X127376202Y-68733997D01*
X127375629Y-68735887D01*
X127361928Y-68875000D01*
X127361928Y-69025000D01*
X127375629Y-69164113D01*
X127386515Y-69200000D01*
X127375629Y-69235887D01*
X127361928Y-69375000D01*
X127361928Y-69525000D01*
X127375629Y-69664113D01*
X127386515Y-69700000D01*
X127375629Y-69735887D01*
X127361928Y-69875000D01*
X127361928Y-70025000D01*
X127375629Y-70164113D01*
X127386515Y-70200000D01*
X127375629Y-70235887D01*
X127361928Y-70375000D01*
X127361928Y-70525000D01*
X127375629Y-70664113D01*
X127386515Y-70700000D01*
X127375629Y-70735887D01*
X127361928Y-70875000D01*
X127361928Y-71025000D01*
X127375629Y-71164113D01*
X127386515Y-71200000D01*
X127375629Y-71235887D01*
X127361928Y-71375000D01*
X127361928Y-71525000D01*
X127375629Y-71664113D01*
X127386515Y-71700000D01*
X127375629Y-71735887D01*
X127361928Y-71875000D01*
X127361928Y-72025000D01*
X127375629Y-72164113D01*
X127386515Y-72200000D01*
X127375629Y-72235887D01*
X127361928Y-72375000D01*
X127361928Y-72525000D01*
X127375629Y-72664113D01*
X127386515Y-72700000D01*
X127375629Y-72735887D01*
X127361928Y-72875000D01*
X127361928Y-73025000D01*
X127375629Y-73164113D01*
X127386515Y-73200000D01*
X127375629Y-73235887D01*
X127361928Y-73375000D01*
X127361928Y-73525000D01*
X127375629Y-73664113D01*
X127386515Y-73700000D01*
X127375629Y-73735887D01*
X127361928Y-73875000D01*
X127361928Y-74025000D01*
X127375629Y-74164113D01*
X127386515Y-74200000D01*
X127375629Y-74235887D01*
X127361928Y-74375000D01*
X127361928Y-74525000D01*
X127375629Y-74664113D01*
X127376202Y-74666003D01*
X127376063Y-74666439D01*
X127365000Y-74768250D01*
X127440982Y-74844232D01*
X127482102Y-74921162D01*
X127505769Y-74950000D01*
X127482102Y-74978838D01*
X127440982Y-75055768D01*
X127365000Y-75131750D01*
X127376063Y-75233561D01*
X127376202Y-75233997D01*
X127375629Y-75235887D01*
X127361928Y-75375000D01*
X127361928Y-75525000D01*
X127375629Y-75664113D01*
X127416207Y-75797881D01*
X127482102Y-75921162D01*
X127570782Y-76029218D01*
X127678838Y-76117898D01*
X127802119Y-76183793D01*
X127935887Y-76224371D01*
X128075000Y-76238072D01*
X129475000Y-76238072D01*
X129607726Y-76225000D01*
X131136928Y-76225000D01*
X131149188Y-76349482D01*
X131185498Y-76469180D01*
X131244463Y-76579494D01*
X131322842Y-76675000D01*
X131244463Y-76770506D01*
X131185498Y-76880820D01*
X131149188Y-77000518D01*
X131136928Y-77125000D01*
X131140000Y-77314250D01*
X131298750Y-77473000D01*
X132098000Y-77473000D01*
X132098000Y-75877000D01*
X131298750Y-75877000D01*
X131140000Y-76035750D01*
X131136928Y-76225000D01*
X129607726Y-76225000D01*
X129614113Y-76224371D01*
X129747881Y-76183793D01*
X129871162Y-76117898D01*
X129979218Y-76029218D01*
X130067898Y-75921162D01*
X130133793Y-75797881D01*
X130174371Y-75664113D01*
X130188072Y-75525000D01*
X130188072Y-75375000D01*
X130174371Y-75235887D01*
X130173798Y-75233997D01*
X130173937Y-75233561D01*
X130176497Y-75210000D01*
X130535199Y-75210000D01*
X130661196Y-75335997D01*
X130684999Y-75365001D01*
X130800724Y-75459974D01*
X130932753Y-75530546D01*
X131076014Y-75574003D01*
X131187667Y-75585000D01*
X131187676Y-75585000D01*
X131224999Y-75588676D01*
X131260891Y-75585141D01*
X131298750Y-75623000D01*
X132098000Y-75623000D01*
X132098000Y-75603000D01*
X132352000Y-75603000D01*
X132352000Y-75623000D01*
X132372000Y-75623000D01*
X132372000Y-75877000D01*
X132352000Y-75877000D01*
X132352000Y-77473000D01*
X132372000Y-77473000D01*
X132372000Y-77727000D01*
X132352000Y-77727000D01*
X132352000Y-77747000D01*
X132098000Y-77747000D01*
X132098000Y-77727000D01*
X131298750Y-77727000D01*
X131140000Y-77885750D01*
X131136928Y-78075000D01*
X131138405Y-78090000D01*
X127636595Y-78090000D01*
X127638072Y-78075000D01*
X127638072Y-76675000D01*
X127624371Y-76535887D01*
X127583793Y-76402119D01*
X127517898Y-76278838D01*
X127429218Y-76170782D01*
X127321162Y-76082102D01*
X127197881Y-76016207D01*
X127064113Y-75975629D01*
X126925000Y-75961928D01*
X126863122Y-75961928D01*
X126885000Y-75851939D01*
X126885000Y-75648061D01*
X126845226Y-75448102D01*
X126767205Y-75259744D01*
X126653937Y-75090226D01*
X126509774Y-74946063D01*
X126340256Y-74832795D01*
X126151898Y-74754774D01*
X125951939Y-74715000D01*
X125748061Y-74715000D01*
X125548102Y-74754774D01*
X125359744Y-74832795D01*
X125190226Y-74946063D01*
X125046063Y-75090226D01*
X124932795Y-75259744D01*
X124854774Y-75448102D01*
X124815000Y-75648061D01*
X124815000Y-75851939D01*
X124837489Y-75965000D01*
X124722998Y-75965000D01*
X124722998Y-76019748D01*
X124668250Y-75965000D01*
X124566439Y-75976063D01*
X124566003Y-75976202D01*
X124564113Y-75975629D01*
X124425000Y-75961928D01*
X124275000Y-75961928D01*
X124135887Y-75975629D01*
X124100000Y-75986515D01*
X124064113Y-75975629D01*
X123925000Y-75961928D01*
X123775000Y-75961928D01*
X123635887Y-75975629D01*
X123600000Y-75986515D01*
X123564113Y-75975629D01*
X123425000Y-75961928D01*
X123275000Y-75961928D01*
X123135887Y-75975629D01*
X123100000Y-75986515D01*
X123064113Y-75975629D01*
X122925000Y-75961928D01*
X122852432Y-75961928D01*
X122129505Y-75239002D01*
X122105703Y-75209999D01*
X121989978Y-75115026D01*
X121857949Y-75044454D01*
X121714688Y-75000997D01*
X121603035Y-74990000D01*
X121603024Y-74990000D01*
X121565702Y-74986324D01*
X121528380Y-74990000D01*
X120853711Y-74990000D01*
X120809774Y-74946063D01*
X120640256Y-74832795D01*
X120451898Y-74754774D01*
X120251939Y-74715000D01*
X120048061Y-74715000D01*
X119848102Y-74754774D01*
X119659744Y-74832795D01*
X119490226Y-74946063D01*
X119346063Y-75090226D01*
X119313605Y-75138803D01*
X119113803Y-74939002D01*
X119090001Y-74909999D01*
X118974276Y-74815026D01*
X118842247Y-74744454D01*
X118832079Y-74741370D01*
X118823937Y-74666439D01*
X118823798Y-74666003D01*
X118824371Y-74664113D01*
X118838072Y-74525000D01*
X118838072Y-74375000D01*
X118824371Y-74235887D01*
X118813485Y-74200000D01*
X118824371Y-74164113D01*
X118838072Y-74025000D01*
X118838072Y-73875000D01*
X118824371Y-73735887D01*
X118813485Y-73700000D01*
X118824371Y-73664113D01*
X118838072Y-73525000D01*
X118838072Y-73375000D01*
X118824371Y-73235887D01*
X118813485Y-73200000D01*
X118824371Y-73164113D01*
X118838072Y-73025000D01*
X118838072Y-72875000D01*
X118824371Y-72735887D01*
X118813485Y-72700000D01*
X118824371Y-72664113D01*
X118838072Y-72525000D01*
X118838072Y-72375000D01*
X118824371Y-72235887D01*
X118813485Y-72200000D01*
X118824371Y-72164113D01*
X118838072Y-72025000D01*
X118838072Y-71875000D01*
X118824371Y-71735887D01*
X118813485Y-71700000D01*
X118824371Y-71664113D01*
X118838072Y-71525000D01*
X118838072Y-71375000D01*
X118824371Y-71235887D01*
X118813485Y-71200000D01*
X118824371Y-71164113D01*
X118838072Y-71025000D01*
X118838072Y-70875000D01*
X118824371Y-70735887D01*
X118813485Y-70700000D01*
X118824371Y-70664113D01*
X118838072Y-70525000D01*
X118838072Y-70375000D01*
X118824371Y-70235887D01*
X118813485Y-70200000D01*
X118824371Y-70164113D01*
X118838072Y-70025000D01*
X118838072Y-69875000D01*
X118824371Y-69735887D01*
X118813485Y-69700000D01*
X118824371Y-69664113D01*
X118838072Y-69525000D01*
X118838072Y-69375000D01*
X118824371Y-69235887D01*
X118813485Y-69200000D01*
X118824371Y-69164113D01*
X118838072Y-69025000D01*
X118838072Y-68875000D01*
X118824371Y-68735887D01*
X118813485Y-68700000D01*
X118824371Y-68664113D01*
X118838072Y-68525000D01*
X118838072Y-68375000D01*
X118824371Y-68235887D01*
X118813485Y-68199999D01*
X118824371Y-68164113D01*
X118838072Y-68025000D01*
X118838072Y-67875000D01*
X118824371Y-67735887D01*
X118783793Y-67602119D01*
X118717898Y-67478838D01*
X118629218Y-67370782D01*
X118521162Y-67282102D01*
X118397881Y-67216207D01*
X118264113Y-67175629D01*
X118125000Y-67161928D01*
X116725000Y-67161928D01*
X116585887Y-67175629D01*
X116452119Y-67216207D01*
X116328838Y-67282102D01*
X116220782Y-67370782D01*
X116132102Y-67478838D01*
X116066207Y-67602119D01*
X116025629Y-67735887D01*
X116011928Y-67875000D01*
X116011928Y-68025000D01*
X116025629Y-68164113D01*
X116036515Y-68199999D01*
X116025629Y-68235887D01*
X116011928Y-68375000D01*
X116011928Y-68525000D01*
X116025629Y-68664113D01*
X116036515Y-68700000D01*
X116025629Y-68735887D01*
X116011928Y-68875000D01*
X116011928Y-69025000D01*
X116025629Y-69164113D01*
X116036515Y-69200000D01*
X116025629Y-69235887D01*
X116011928Y-69375000D01*
X116011928Y-69525000D01*
X116025629Y-69664113D01*
X116036515Y-69700000D01*
X116025629Y-69735887D01*
X116011928Y-69875000D01*
X116011928Y-70025000D01*
X116025629Y-70164113D01*
X116033482Y-70190000D01*
X114964802Y-70190000D01*
X112938072Y-68163271D01*
X112938072Y-67925000D01*
X112921969Y-67761500D01*
X112874278Y-67604284D01*
X112796831Y-67459392D01*
X112692606Y-67332394D01*
X112592209Y-67250000D01*
X112692606Y-67167606D01*
X112796831Y-67040608D01*
X112874278Y-66895716D01*
X112921969Y-66738500D01*
X112938072Y-66575000D01*
X112938072Y-66467931D01*
X112954774Y-66551898D01*
X113032795Y-66740256D01*
X113146063Y-66909774D01*
X113290226Y-67053937D01*
X113459744Y-67167205D01*
X113648102Y-67245226D01*
X113848061Y-67285000D01*
X114051939Y-67285000D01*
X114251898Y-67245226D01*
X114440256Y-67167205D01*
X114488454Y-67135000D01*
X114800295Y-67135000D01*
X114870503Y-67192618D01*
X115019717Y-67272375D01*
X115181623Y-67321488D01*
X115350000Y-67338072D01*
X115850000Y-67338072D01*
X116018377Y-67321488D01*
X116180283Y-67272375D01*
X116329497Y-67192618D01*
X116399705Y-67135000D01*
X118693459Y-67135000D01*
X118770782Y-67229218D01*
X118878838Y-67317898D01*
X119002119Y-67383793D01*
X119135887Y-67424371D01*
X119275000Y-67438072D01*
X119425000Y-67438072D01*
X119564113Y-67424371D01*
X119566003Y-67423798D01*
X119566439Y-67423937D01*
X119668250Y-67435000D01*
X119744232Y-67359018D01*
X119821162Y-67317898D01*
X119850000Y-67294231D01*
X119878838Y-67317898D01*
X119955768Y-67359018D01*
X120031750Y-67435000D01*
X120133561Y-67423937D01*
X120133997Y-67423798D01*
X120135887Y-67424371D01*
X120275000Y-67438072D01*
X120425000Y-67438072D01*
X120564113Y-67424371D01*
X120600000Y-67413485D01*
X120635887Y-67424371D01*
X120775000Y-67438072D01*
X120925000Y-67438072D01*
X121064113Y-67424371D01*
X121100000Y-67413485D01*
X121135887Y-67424371D01*
X121139129Y-67424690D01*
X121144454Y-67442246D01*
X121215026Y-67574276D01*
X121277838Y-67650812D01*
X121310000Y-67690001D01*
X121338998Y-67713799D01*
X122639231Y-69014033D01*
X122644774Y-69041898D01*
X122722795Y-69230256D01*
X122836063Y-69399774D01*
X122980226Y-69543937D01*
X123149744Y-69657205D01*
X123338102Y-69735226D01*
X123538061Y-69775000D01*
X123741939Y-69775000D01*
X123941898Y-69735226D01*
X124130256Y-69657205D01*
X124299774Y-69543937D01*
X124443937Y-69399774D01*
X124557205Y-69230256D01*
X124635226Y-69041898D01*
X124675000Y-68841939D01*
X124675000Y-68774999D01*
X125105000Y-68774999D01*
X125105000Y-68831939D01*
X125144774Y-69031898D01*
X125222795Y-69220256D01*
X125336063Y-69389774D01*
X125480226Y-69533937D01*
X125649744Y-69647205D01*
X125838102Y-69725226D01*
X126038061Y-69765000D01*
X126241939Y-69765000D01*
X126441898Y-69725226D01*
X126630256Y-69647205D01*
X126799774Y-69533937D01*
X126943937Y-69389774D01*
X127057205Y-69220256D01*
X127135226Y-69031898D01*
X127175000Y-68831939D01*
X127175000Y-68628061D01*
X127135226Y-68428102D01*
X127057205Y-68239744D01*
X126943937Y-68070226D01*
X126799774Y-67926063D01*
X126630256Y-67812795D01*
X126441898Y-67734774D01*
X126241939Y-67695000D01*
X126179801Y-67695000D01*
X125988802Y-67504001D01*
X125965000Y-67474998D01*
X125920006Y-67438072D01*
X125925000Y-67438072D01*
X126064113Y-67424371D01*
X126100000Y-67413485D01*
X126135887Y-67424371D01*
X126275000Y-67438072D01*
X126425000Y-67438072D01*
X126564113Y-67424371D01*
X126600000Y-67413485D01*
X126635887Y-67424371D01*
X126775000Y-67438072D01*
X126925000Y-67438072D01*
X127064113Y-67424371D01*
X127197881Y-67383793D01*
X127321162Y-67317898D01*
X127429218Y-67229218D01*
X127517898Y-67121162D01*
X127583793Y-66997881D01*
X127624371Y-66864113D01*
X127638072Y-66725000D01*
X127638072Y-65325000D01*
X127624371Y-65185887D01*
X127583793Y-65052119D01*
X127517898Y-64928838D01*
X127429218Y-64820782D01*
X127321162Y-64732102D01*
X127197881Y-64666207D01*
X127064113Y-64625629D01*
X126925000Y-64611928D01*
X126775000Y-64611928D01*
X126635887Y-64625629D01*
X126600000Y-64636515D01*
X126564113Y-64625629D01*
X126425000Y-64611928D01*
X126275000Y-64611928D01*
X126135887Y-64625629D01*
X126100000Y-64636515D01*
X126064113Y-64625629D01*
X125925000Y-64611928D01*
X125775000Y-64611928D01*
X125635887Y-64625629D01*
X125600000Y-64636515D01*
X125564113Y-64625629D01*
X125425000Y-64611928D01*
X125275000Y-64611928D01*
X125135887Y-64625629D01*
X125100000Y-64636515D01*
X125064113Y-64625629D01*
X124925000Y-64611928D01*
X124775000Y-64611928D01*
X124635887Y-64625629D01*
X124600000Y-64636515D01*
X124564113Y-64625629D01*
X124425000Y-64611928D01*
X124275000Y-64611928D01*
X124135887Y-64625629D01*
X124100000Y-64636515D01*
X124064113Y-64625629D01*
X123925000Y-64611928D01*
X123775000Y-64611928D01*
X123635887Y-64625629D01*
X123600000Y-64636515D01*
X123564113Y-64625629D01*
X123425000Y-64611928D01*
X123275000Y-64611928D01*
X123135887Y-64625629D01*
X123100000Y-64636515D01*
X123064113Y-64625629D01*
X122925000Y-64611928D01*
X122775000Y-64611928D01*
X122635887Y-64625629D01*
X122600000Y-64636515D01*
X122564113Y-64625629D01*
X122425000Y-64611928D01*
X122275000Y-64611928D01*
X122135887Y-64625629D01*
X122110000Y-64633482D01*
X122110000Y-64187322D01*
X122113676Y-64149999D01*
X122110000Y-64112676D01*
X122110000Y-64112667D01*
X122099003Y-64001014D01*
X122055546Y-63857753D01*
X122043384Y-63835000D01*
X123506524Y-63835000D01*
X123550000Y-63839282D01*
G37*
%TD.AperFunction*%
D24*
X116025629Y-74235887D02*
X116011928Y-74375000D01*
X116011928Y-74525000D01*
X116025629Y-74664113D01*
X116026202Y-74666003D01*
X116026063Y-74666439D01*
X116015000Y-74768250D01*
X116090982Y-74844232D01*
X116132102Y-74921162D01*
X116155769Y-74950000D01*
X116132102Y-74978838D01*
X116090982Y-75055768D01*
X116031750Y-75115000D01*
X114488454Y-75115000D01*
X114440256Y-75082795D01*
X114251898Y-75004774D01*
X114051939Y-74965000D01*
X113848061Y-74965000D01*
X113648102Y-75004774D01*
X113459744Y-75082795D01*
X113411546Y-75115000D01*
X112680167Y-75115000D01*
X112579497Y-75032382D01*
X112575183Y-75030076D01*
X112590608Y-75021831D01*
X112717606Y-74917606D01*
X112821831Y-74790608D01*
X112899278Y-74645716D01*
X112946969Y-74488500D01*
X112963072Y-74325000D01*
X112963072Y-74210000D01*
X116033482Y-74210000D01*
X116025629Y-74235887D01*
%TA.AperFunction,Conductor*%
D25*
G36*
X116025629Y-74235887D02*
G01*
X116011928Y-74375000D01*
X116011928Y-74525000D01*
X116025629Y-74664113D01*
X116026202Y-74666003D01*
X116026063Y-74666439D01*
X116015000Y-74768250D01*
X116090982Y-74844232D01*
X116132102Y-74921162D01*
X116155769Y-74950000D01*
X116132102Y-74978838D01*
X116090982Y-75055768D01*
X116031750Y-75115000D01*
X114488454Y-75115000D01*
X114440256Y-75082795D01*
X114251898Y-75004774D01*
X114051939Y-74965000D01*
X113848061Y-74965000D01*
X113648102Y-75004774D01*
X113459744Y-75082795D01*
X113411546Y-75115000D01*
X112680167Y-75115000D01*
X112579497Y-75032382D01*
X112575183Y-75030076D01*
X112590608Y-75021831D01*
X112717606Y-74917606D01*
X112821831Y-74790608D01*
X112899278Y-74645716D01*
X112946969Y-74488500D01*
X112963072Y-74325000D01*
X112963072Y-74210000D01*
X116033482Y-74210000D01*
X116025629Y-74235887D01*
G37*
%TD.AperFunction*%
D24*
X144117759Y-72960000D02*
X143885241Y-73115363D01*
X143685363Y-73315241D01*
X143528320Y-73550273D01*
X143424857Y-73800055D01*
X142459801Y-72835000D01*
X143930683Y-72835000D01*
X144117759Y-72960000D01*
%TA.AperFunction,Conductor*%
D25*
G36*
X144117759Y-72960000D02*
G01*
X143885241Y-73115363D01*
X143685363Y-73315241D01*
X143528320Y-73550273D01*
X143424857Y-73800055D01*
X142459801Y-72835000D01*
X143930683Y-72835000D01*
X144117759Y-72960000D01*
G37*
%TD.AperFunction*%
D24*
X151635350Y-60536928D02*
X151575000Y-60536928D01*
X151411500Y-60553031D01*
X151254284Y-60600722D01*
X151109392Y-60678169D01*
X151094976Y-60690000D01*
X150605024Y-60690000D01*
X150590608Y-60678169D01*
X150445716Y-60600722D01*
X150288500Y-60553031D01*
X150125000Y-60536928D01*
X149575000Y-60536928D01*
X149411500Y-60553031D01*
X149254284Y-60600722D01*
X149109392Y-60678169D01*
X149094976Y-60690000D01*
X148605024Y-60690000D01*
X148590608Y-60678169D01*
X148445716Y-60600722D01*
X148288500Y-60553031D01*
X148125000Y-60536928D01*
X147575000Y-60536928D01*
X147411500Y-60553031D01*
X147254284Y-60600722D01*
X147109392Y-60678169D01*
X147094976Y-60690000D01*
X146655024Y-60690000D01*
X146640608Y-60678169D01*
X146495716Y-60600722D01*
X146338500Y-60553031D01*
X146175000Y-60536928D01*
X145625000Y-60536928D01*
X145461500Y-60553031D01*
X145304284Y-60600722D01*
X145159392Y-60678169D01*
X145032394Y-60782394D01*
X144928169Y-60909392D01*
X144850722Y-61054284D01*
X144803031Y-61211500D01*
X144786928Y-61375000D01*
X144786928Y-61775000D01*
X144803031Y-61938500D01*
X144850722Y-62095716D01*
X144928169Y-62240608D01*
X145032394Y-62367606D01*
X145071866Y-62400000D01*
X145032394Y-62432394D01*
X144928169Y-62559392D01*
X144850722Y-62704284D01*
X144803031Y-62861500D01*
X144786928Y-63025000D01*
X144786928Y-63425000D01*
X144803031Y-63588500D01*
X144850722Y-63745716D01*
X144928169Y-63890608D01*
X144983743Y-63958325D01*
X144982795Y-63959744D01*
X144904774Y-64148102D01*
X144865000Y-64348061D01*
X144865000Y-64551939D01*
X144904774Y-64751898D01*
X144982795Y-64940256D01*
X145096063Y-65109774D01*
X145240226Y-65253937D01*
X145409744Y-65367205D01*
X145598102Y-65445226D01*
X145798061Y-65485000D01*
X146001939Y-65485000D01*
X146201898Y-65445226D01*
X146390256Y-65367205D01*
X146559774Y-65253937D01*
X146703937Y-65109774D01*
X146817205Y-64940256D01*
X146875000Y-64800728D01*
X146932795Y-64940256D01*
X147046063Y-65109774D01*
X147190226Y-65253937D01*
X147359744Y-65367205D01*
X147548102Y-65445226D01*
X147748061Y-65485000D01*
X147951939Y-65485000D01*
X148151898Y-65445226D01*
X148340256Y-65367205D01*
X148509774Y-65253937D01*
X148653937Y-65109774D01*
X148767205Y-64940256D01*
X148844957Y-64752546D01*
X148854774Y-64801898D01*
X148932795Y-64990256D01*
X149046063Y-65159774D01*
X149190226Y-65303937D01*
X149359744Y-65417205D01*
X149548102Y-65495226D01*
X149748061Y-65535000D01*
X149951939Y-65535000D01*
X150151898Y-65495226D01*
X150340256Y-65417205D01*
X150509774Y-65303937D01*
X150653937Y-65159774D01*
X150767205Y-64990256D01*
X150845226Y-64801898D01*
X150850000Y-64777897D01*
X150854774Y-64801898D01*
X150932795Y-64990256D01*
X151046063Y-65159774D01*
X151190226Y-65303937D01*
X151359744Y-65417205D01*
X151548102Y-65495226D01*
X151748061Y-65535000D01*
X151951939Y-65535000D01*
X152151898Y-65495226D01*
X152335000Y-65419382D01*
X152335000Y-67715000D01*
X152278665Y-67715000D01*
X152001426Y-67770147D01*
X151740273Y-67878320D01*
X151505241Y-68035363D01*
X151305363Y-68235241D01*
X151148320Y-68470273D01*
X151040147Y-68731426D01*
X150985000Y-69008665D01*
X150985000Y-69291335D01*
X151040147Y-69568574D01*
X151148320Y-69829727D01*
X151305363Y-70064759D01*
X151505241Y-70264637D01*
X151535001Y-70284522D01*
X151535000Y-70555478D01*
X151505241Y-70575363D01*
X151305363Y-70775241D01*
X151148320Y-71010273D01*
X151040147Y-71271426D01*
X150985000Y-71548665D01*
X150985000Y-71831335D01*
X150991983Y-71866439D01*
X149513422Y-73345000D01*
X145934521Y-73345000D01*
X145914637Y-73315241D01*
X145714759Y-73115363D01*
X145482241Y-72960000D01*
X145714759Y-72804637D01*
X145914637Y-72604759D01*
X146071680Y-72369727D01*
X146179853Y-72108574D01*
X146235000Y-71831335D01*
X146235000Y-71548665D01*
X146179853Y-71271426D01*
X146071680Y-71010273D01*
X145914637Y-70775241D01*
X145716039Y-70576643D01*
X145724482Y-70575812D01*
X145844180Y-70539502D01*
X145954494Y-70480537D01*
X146051185Y-70401185D01*
X146130537Y-70304494D01*
X146189502Y-70194180D01*
X146225812Y-70074482D01*
X146238072Y-69950000D01*
X146238072Y-68350000D01*
X146225812Y-68225518D01*
X146189502Y-68105820D01*
X146130537Y-67995506D01*
X146051185Y-67898815D01*
X145954494Y-67819463D01*
X145844180Y-67760498D01*
X145724482Y-67724188D01*
X145600000Y-67711928D01*
X144000000Y-67711928D01*
X143875518Y-67724188D01*
X143755820Y-67760498D01*
X143645506Y-67819463D01*
X143548815Y-67898815D01*
X143469463Y-67995506D01*
X143410498Y-68105820D01*
X143374188Y-68225518D01*
X143361928Y-68350000D01*
X143361928Y-68540000D01*
X141153711Y-68540000D01*
X141109774Y-68496063D01*
X140940256Y-68382795D01*
X140751898Y-68304774D01*
X140551939Y-68265000D01*
X140348061Y-68265000D01*
X140148102Y-68304774D01*
X139959744Y-68382795D01*
X139790226Y-68496063D01*
X139646063Y-68640226D01*
X139631822Y-68661540D01*
X139623890Y-68581009D01*
X139599316Y-68500000D01*
X139623890Y-68418991D01*
X139638072Y-68275000D01*
X139638072Y-68075000D01*
X139623890Y-67931009D01*
X139581890Y-67792552D01*
X139513684Y-67664949D01*
X139421896Y-67553104D01*
X139335000Y-67481791D01*
X139335000Y-67444365D01*
X139367606Y-67417606D01*
X139471831Y-67290608D01*
X139549278Y-67145716D01*
X139596969Y-66988500D01*
X139613072Y-66825000D01*
X139613072Y-66275000D01*
X139596969Y-66111500D01*
X139549278Y-65954284D01*
X139471831Y-65809392D01*
X139367606Y-65682394D01*
X139240608Y-65578169D01*
X139095716Y-65500722D01*
X138938500Y-65453031D01*
X138775000Y-65436928D01*
X138375000Y-65436928D01*
X138211500Y-65453031D01*
X138054284Y-65500722D01*
X137909392Y-65578169D01*
X137782394Y-65682394D01*
X137750000Y-65721866D01*
X137717606Y-65682394D01*
X137590608Y-65578169D01*
X137445716Y-65500722D01*
X137288500Y-65453031D01*
X137125000Y-65436928D01*
X136725000Y-65436928D01*
X136561500Y-65453031D01*
X136404284Y-65500722D01*
X136259392Y-65578169D01*
X136259052Y-65578448D01*
X136201898Y-65554774D01*
X136001939Y-65515000D01*
X135798061Y-65515000D01*
X135598102Y-65554774D01*
X135409744Y-65632795D01*
X135240226Y-65746063D01*
X135096063Y-65890226D01*
X134982795Y-66059744D01*
X134910486Y-66234312D01*
X134913072Y-66075000D01*
X134900812Y-65950518D01*
X134864502Y-65830820D01*
X134805537Y-65720506D01*
X134726185Y-65623815D01*
X134629494Y-65544463D01*
X134519180Y-65485498D01*
X134399482Y-65449188D01*
X134275000Y-65436928D01*
X134110750Y-65440000D01*
X133952000Y-65598750D01*
X133952000Y-66423000D01*
X133972000Y-66423000D01*
X133972000Y-66677000D01*
X133952000Y-66677000D01*
X133952000Y-66697000D01*
X133698000Y-66697000D01*
X133698000Y-66677000D01*
X133678000Y-66677000D01*
X133678000Y-66423000D01*
X133698000Y-66423000D01*
X133698000Y-65598750D01*
X133539250Y-65440000D01*
X133375000Y-65436928D01*
X133250518Y-65449188D01*
X133160000Y-65476646D01*
X133160000Y-64785000D01*
X134606531Y-64785000D01*
X134650000Y-64789281D01*
X134693469Y-64785000D01*
X134693477Y-64785000D01*
X134823490Y-64772195D01*
X134990313Y-64721589D01*
X135144059Y-64639411D01*
X135278817Y-64528817D01*
X135306534Y-64495044D01*
X136204579Y-63597000D01*
X136237592Y-63597000D01*
X136507490Y-63543314D01*
X136761727Y-63438005D01*
X136990535Y-63285120D01*
X137100000Y-63175655D01*
X137209465Y-63285120D01*
X137438273Y-63438005D01*
X137692510Y-63543314D01*
X137962408Y-63597000D01*
X138237592Y-63597000D01*
X138507490Y-63543314D01*
X138761727Y-63438005D01*
X138990535Y-63285120D01*
X139100000Y-63175655D01*
X139209465Y-63285120D01*
X139438273Y-63438005D01*
X139692510Y-63543314D01*
X139962408Y-63597000D01*
X140237592Y-63597000D01*
X140507490Y-63543314D01*
X140761727Y-63438005D01*
X140990535Y-63285120D01*
X141164710Y-63110945D01*
X141284618Y-63335275D01*
X141451446Y-63538555D01*
X141654726Y-63705382D01*
X141886647Y-63829347D01*
X142138295Y-63905683D01*
X142400000Y-63931459D01*
X142661706Y-63905683D01*
X142913354Y-63829347D01*
X143145275Y-63705382D01*
X143348555Y-63538555D01*
X143515382Y-63335275D01*
X143639347Y-63103354D01*
X143715683Y-62851706D01*
X143735000Y-62655578D01*
X143735000Y-61724421D01*
X143715683Y-61528294D01*
X143639347Y-61276646D01*
X143515382Y-61044725D01*
X143348555Y-60841445D01*
X143145274Y-60674618D01*
X142913353Y-60550653D01*
X142661705Y-60474317D01*
X142400000Y-60448541D01*
X142138294Y-60474317D01*
X141886646Y-60550653D01*
X141654725Y-60674618D01*
X141451445Y-60841445D01*
X141284618Y-61044726D01*
X141160653Y-61276647D01*
X141158709Y-61283054D01*
X140990535Y-61114880D01*
X140944084Y-61083843D01*
X140921589Y-61009686D01*
X140839411Y-60855941D01*
X140756532Y-60754953D01*
X140756530Y-60754951D01*
X140728817Y-60721183D01*
X140695050Y-60693471D01*
X140136578Y-60135000D01*
X151233422Y-60135000D01*
X151635350Y-60536928D01*
%TA.AperFunction,Conductor*%
D25*
G36*
X151635350Y-60536928D02*
G01*
X151575000Y-60536928D01*
X151411500Y-60553031D01*
X151254284Y-60600722D01*
X151109392Y-60678169D01*
X151094976Y-60690000D01*
X150605024Y-60690000D01*
X150590608Y-60678169D01*
X150445716Y-60600722D01*
X150288500Y-60553031D01*
X150125000Y-60536928D01*
X149575000Y-60536928D01*
X149411500Y-60553031D01*
X149254284Y-60600722D01*
X149109392Y-60678169D01*
X149094976Y-60690000D01*
X148605024Y-60690000D01*
X148590608Y-60678169D01*
X148445716Y-60600722D01*
X148288500Y-60553031D01*
X148125000Y-60536928D01*
X147575000Y-60536928D01*
X147411500Y-60553031D01*
X147254284Y-60600722D01*
X147109392Y-60678169D01*
X147094976Y-60690000D01*
X146655024Y-60690000D01*
X146640608Y-60678169D01*
X146495716Y-60600722D01*
X146338500Y-60553031D01*
X146175000Y-60536928D01*
X145625000Y-60536928D01*
X145461500Y-60553031D01*
X145304284Y-60600722D01*
X145159392Y-60678169D01*
X145032394Y-60782394D01*
X144928169Y-60909392D01*
X144850722Y-61054284D01*
X144803031Y-61211500D01*
X144786928Y-61375000D01*
X144786928Y-61775000D01*
X144803031Y-61938500D01*
X144850722Y-62095716D01*
X144928169Y-62240608D01*
X145032394Y-62367606D01*
X145071866Y-62400000D01*
X145032394Y-62432394D01*
X144928169Y-62559392D01*
X144850722Y-62704284D01*
X144803031Y-62861500D01*
X144786928Y-63025000D01*
X144786928Y-63425000D01*
X144803031Y-63588500D01*
X144850722Y-63745716D01*
X144928169Y-63890608D01*
X144983743Y-63958325D01*
X144982795Y-63959744D01*
X144904774Y-64148102D01*
X144865000Y-64348061D01*
X144865000Y-64551939D01*
X144904774Y-64751898D01*
X144982795Y-64940256D01*
X145096063Y-65109774D01*
X145240226Y-65253937D01*
X145409744Y-65367205D01*
X145598102Y-65445226D01*
X145798061Y-65485000D01*
X146001939Y-65485000D01*
X146201898Y-65445226D01*
X146390256Y-65367205D01*
X146559774Y-65253937D01*
X146703937Y-65109774D01*
X146817205Y-64940256D01*
X146875000Y-64800728D01*
X146932795Y-64940256D01*
X147046063Y-65109774D01*
X147190226Y-65253937D01*
X147359744Y-65367205D01*
X147548102Y-65445226D01*
X147748061Y-65485000D01*
X147951939Y-65485000D01*
X148151898Y-65445226D01*
X148340256Y-65367205D01*
X148509774Y-65253937D01*
X148653937Y-65109774D01*
X148767205Y-64940256D01*
X148844957Y-64752546D01*
X148854774Y-64801898D01*
X148932795Y-64990256D01*
X149046063Y-65159774D01*
X149190226Y-65303937D01*
X149359744Y-65417205D01*
X149548102Y-65495226D01*
X149748061Y-65535000D01*
X149951939Y-65535000D01*
X150151898Y-65495226D01*
X150340256Y-65417205D01*
X150509774Y-65303937D01*
X150653937Y-65159774D01*
X150767205Y-64990256D01*
X150845226Y-64801898D01*
X150850000Y-64777897D01*
X150854774Y-64801898D01*
X150932795Y-64990256D01*
X151046063Y-65159774D01*
X151190226Y-65303937D01*
X151359744Y-65417205D01*
X151548102Y-65495226D01*
X151748061Y-65535000D01*
X151951939Y-65535000D01*
X152151898Y-65495226D01*
X152335000Y-65419382D01*
X152335000Y-67715000D01*
X152278665Y-67715000D01*
X152001426Y-67770147D01*
X151740273Y-67878320D01*
X151505241Y-68035363D01*
X151305363Y-68235241D01*
X151148320Y-68470273D01*
X151040147Y-68731426D01*
X150985000Y-69008665D01*
X150985000Y-69291335D01*
X151040147Y-69568574D01*
X151148320Y-69829727D01*
X151305363Y-70064759D01*
X151505241Y-70264637D01*
X151535001Y-70284522D01*
X151535000Y-70555478D01*
X151505241Y-70575363D01*
X151305363Y-70775241D01*
X151148320Y-71010273D01*
X151040147Y-71271426D01*
X150985000Y-71548665D01*
X150985000Y-71831335D01*
X150991983Y-71866439D01*
X149513422Y-73345000D01*
X145934521Y-73345000D01*
X145914637Y-73315241D01*
X145714759Y-73115363D01*
X145482241Y-72960000D01*
X145714759Y-72804637D01*
X145914637Y-72604759D01*
X146071680Y-72369727D01*
X146179853Y-72108574D01*
X146235000Y-71831335D01*
X146235000Y-71548665D01*
X146179853Y-71271426D01*
X146071680Y-71010273D01*
X145914637Y-70775241D01*
X145716039Y-70576643D01*
X145724482Y-70575812D01*
X145844180Y-70539502D01*
X145954494Y-70480537D01*
X146051185Y-70401185D01*
X146130537Y-70304494D01*
X146189502Y-70194180D01*
X146225812Y-70074482D01*
X146238072Y-69950000D01*
X146238072Y-68350000D01*
X146225812Y-68225518D01*
X146189502Y-68105820D01*
X146130537Y-67995506D01*
X146051185Y-67898815D01*
X145954494Y-67819463D01*
X145844180Y-67760498D01*
X145724482Y-67724188D01*
X145600000Y-67711928D01*
X144000000Y-67711928D01*
X143875518Y-67724188D01*
X143755820Y-67760498D01*
X143645506Y-67819463D01*
X143548815Y-67898815D01*
X143469463Y-67995506D01*
X143410498Y-68105820D01*
X143374188Y-68225518D01*
X143361928Y-68350000D01*
X143361928Y-68540000D01*
X141153711Y-68540000D01*
X141109774Y-68496063D01*
X140940256Y-68382795D01*
X140751898Y-68304774D01*
X140551939Y-68265000D01*
X140348061Y-68265000D01*
X140148102Y-68304774D01*
X139959744Y-68382795D01*
X139790226Y-68496063D01*
X139646063Y-68640226D01*
X139631822Y-68661540D01*
X139623890Y-68581009D01*
X139599316Y-68500000D01*
X139623890Y-68418991D01*
X139638072Y-68275000D01*
X139638072Y-68075000D01*
X139623890Y-67931009D01*
X139581890Y-67792552D01*
X139513684Y-67664949D01*
X139421896Y-67553104D01*
X139335000Y-67481791D01*
X139335000Y-67444365D01*
X139367606Y-67417606D01*
X139471831Y-67290608D01*
X139549278Y-67145716D01*
X139596969Y-66988500D01*
X139613072Y-66825000D01*
X139613072Y-66275000D01*
X139596969Y-66111500D01*
X139549278Y-65954284D01*
X139471831Y-65809392D01*
X139367606Y-65682394D01*
X139240608Y-65578169D01*
X139095716Y-65500722D01*
X138938500Y-65453031D01*
X138775000Y-65436928D01*
X138375000Y-65436928D01*
X138211500Y-65453031D01*
X138054284Y-65500722D01*
X137909392Y-65578169D01*
X137782394Y-65682394D01*
X137750000Y-65721866D01*
X137717606Y-65682394D01*
X137590608Y-65578169D01*
X137445716Y-65500722D01*
X137288500Y-65453031D01*
X137125000Y-65436928D01*
X136725000Y-65436928D01*
X136561500Y-65453031D01*
X136404284Y-65500722D01*
X136259392Y-65578169D01*
X136259052Y-65578448D01*
X136201898Y-65554774D01*
X136001939Y-65515000D01*
X135798061Y-65515000D01*
X135598102Y-65554774D01*
X135409744Y-65632795D01*
X135240226Y-65746063D01*
X135096063Y-65890226D01*
X134982795Y-66059744D01*
X134910486Y-66234312D01*
X134913072Y-66075000D01*
X134900812Y-65950518D01*
X134864502Y-65830820D01*
X134805537Y-65720506D01*
X134726185Y-65623815D01*
X134629494Y-65544463D01*
X134519180Y-65485498D01*
X134399482Y-65449188D01*
X134275000Y-65436928D01*
X134110750Y-65440000D01*
X133952000Y-65598750D01*
X133952000Y-66423000D01*
X133972000Y-66423000D01*
X133972000Y-66677000D01*
X133952000Y-66677000D01*
X133952000Y-66697000D01*
X133698000Y-66697000D01*
X133698000Y-66677000D01*
X133678000Y-66677000D01*
X133678000Y-66423000D01*
X133698000Y-66423000D01*
X133698000Y-65598750D01*
X133539250Y-65440000D01*
X133375000Y-65436928D01*
X133250518Y-65449188D01*
X133160000Y-65476646D01*
X133160000Y-64785000D01*
X134606531Y-64785000D01*
X134650000Y-64789281D01*
X134693469Y-64785000D01*
X134693477Y-64785000D01*
X134823490Y-64772195D01*
X134990313Y-64721589D01*
X135144059Y-64639411D01*
X135278817Y-64528817D01*
X135306534Y-64495044D01*
X136204579Y-63597000D01*
X136237592Y-63597000D01*
X136507490Y-63543314D01*
X136761727Y-63438005D01*
X136990535Y-63285120D01*
X137100000Y-63175655D01*
X137209465Y-63285120D01*
X137438273Y-63438005D01*
X137692510Y-63543314D01*
X137962408Y-63597000D01*
X138237592Y-63597000D01*
X138507490Y-63543314D01*
X138761727Y-63438005D01*
X138990535Y-63285120D01*
X139100000Y-63175655D01*
X139209465Y-63285120D01*
X139438273Y-63438005D01*
X139692510Y-63543314D01*
X139962408Y-63597000D01*
X140237592Y-63597000D01*
X140507490Y-63543314D01*
X140761727Y-63438005D01*
X140990535Y-63285120D01*
X141164710Y-63110945D01*
X141284618Y-63335275D01*
X141451446Y-63538555D01*
X141654726Y-63705382D01*
X141886647Y-63829347D01*
X142138295Y-63905683D01*
X142400000Y-63931459D01*
X142661706Y-63905683D01*
X142913354Y-63829347D01*
X143145275Y-63705382D01*
X143348555Y-63538555D01*
X143515382Y-63335275D01*
X143639347Y-63103354D01*
X143715683Y-62851706D01*
X143735000Y-62655578D01*
X143735000Y-61724421D01*
X143715683Y-61528294D01*
X143639347Y-61276646D01*
X143515382Y-61044725D01*
X143348555Y-60841445D01*
X143145274Y-60674618D01*
X142913353Y-60550653D01*
X142661705Y-60474317D01*
X142400000Y-60448541D01*
X142138294Y-60474317D01*
X141886646Y-60550653D01*
X141654725Y-60674618D01*
X141451445Y-60841445D01*
X141284618Y-61044726D01*
X141160653Y-61276647D01*
X141158709Y-61283054D01*
X140990535Y-61114880D01*
X140944084Y-61083843D01*
X140921589Y-61009686D01*
X140839411Y-60855941D01*
X140756532Y-60754953D01*
X140756530Y-60754951D01*
X140728817Y-60721183D01*
X140695050Y-60693471D01*
X140136578Y-60135000D01*
X151233422Y-60135000D01*
X151635350Y-60536928D01*
G37*
%TD.AperFunction*%
D24*
X116025629Y-71735887D02*
X116011928Y-71875000D01*
X116011928Y-72025000D01*
X116025629Y-72164113D01*
X116036515Y-72200000D01*
X116025629Y-72235887D01*
X116011928Y-72375000D01*
X116011928Y-72525000D01*
X116025629Y-72664113D01*
X116033482Y-72690000D01*
X114800558Y-72690000D01*
X114867205Y-72590256D01*
X114945226Y-72401898D01*
X114985000Y-72201939D01*
X114985000Y-71998061D01*
X114945226Y-71798102D01*
X114908733Y-71710000D01*
X116033482Y-71710000D01*
X116025629Y-71735887D01*
%TA.AperFunction,Conductor*%
D25*
G36*
X116025629Y-71735887D02*
G01*
X116011928Y-71875000D01*
X116011928Y-72025000D01*
X116025629Y-72164113D01*
X116036515Y-72200000D01*
X116025629Y-72235887D01*
X116011928Y-72375000D01*
X116011928Y-72525000D01*
X116025629Y-72664113D01*
X116033482Y-72690000D01*
X114800558Y-72690000D01*
X114867205Y-72590256D01*
X114945226Y-72401898D01*
X114985000Y-72201939D01*
X114985000Y-71998061D01*
X114945226Y-71798102D01*
X114908733Y-71710000D01*
X116033482Y-71710000D01*
X116025629Y-71735887D01*
G37*
%TD.AperFunction*%
D24*
X131453529Y-67439189D02*
X131355654Y-67517078D01*
X131274856Y-67612564D01*
X131214239Y-67721979D01*
X131176132Y-67841117D01*
X131165000Y-67943250D01*
X131323750Y-68102000D01*
X131507378Y-68102000D01*
X131489949Y-68111316D01*
X131378104Y-68203104D01*
X131341259Y-68248000D01*
X131323750Y-68248000D01*
X131165000Y-68406750D01*
X131176132Y-68508883D01*
X131187350Y-68543955D01*
X131176110Y-68581009D01*
X131161928Y-68725000D01*
X131161928Y-68925000D01*
X131176110Y-69068991D01*
X131200684Y-69150000D01*
X131176110Y-69231009D01*
X131161928Y-69375000D01*
X131161928Y-69575000D01*
X131176110Y-69718991D01*
X131200684Y-69800000D01*
X131176110Y-69881009D01*
X131161928Y-70025000D01*
X131161928Y-70225000D01*
X131176110Y-70368991D01*
X131200684Y-70450000D01*
X131176110Y-70531009D01*
X131161928Y-70675000D01*
X131161928Y-70803136D01*
X131118614Y-70838684D01*
X131062179Y-70884999D01*
X131038381Y-70913997D01*
X130262379Y-71690000D01*
X130166518Y-71690000D01*
X130174371Y-71664113D01*
X130188072Y-71525000D01*
X130188072Y-71375000D01*
X130174371Y-71235887D01*
X130163485Y-71200000D01*
X130174371Y-71164113D01*
X130188072Y-71025000D01*
X130188072Y-70875000D01*
X130174371Y-70735887D01*
X130163485Y-70700000D01*
X130174371Y-70664113D01*
X130188072Y-70525000D01*
X130188072Y-70375000D01*
X130174371Y-70235887D01*
X130163485Y-70200000D01*
X130174371Y-70164113D01*
X130188072Y-70025000D01*
X130188072Y-69875000D01*
X130174371Y-69735887D01*
X130163485Y-69700000D01*
X130174371Y-69664113D01*
X130188072Y-69525000D01*
X130188072Y-69375000D01*
X130174371Y-69235887D01*
X130163485Y-69200000D01*
X130174371Y-69164113D01*
X130188072Y-69025000D01*
X130188072Y-68875000D01*
X130174371Y-68735887D01*
X130173798Y-68733997D01*
X130173937Y-68733561D01*
X130185000Y-68631750D01*
X130109018Y-68555768D01*
X130067898Y-68478838D01*
X130044231Y-68450000D01*
X130067898Y-68421162D01*
X130109018Y-68344232D01*
X130185000Y-68268250D01*
X130173937Y-68166439D01*
X130173798Y-68166003D01*
X130174371Y-68164113D01*
X130188072Y-68025000D01*
X130188072Y-67875000D01*
X130174371Y-67735887D01*
X130166530Y-67710039D01*
X130441569Y-67435000D01*
X131461658Y-67435000D01*
X131453529Y-67439189D01*
%TA.AperFunction,Conductor*%
D25*
G36*
X131453529Y-67439189D02*
G01*
X131355654Y-67517078D01*
X131274856Y-67612564D01*
X131214239Y-67721979D01*
X131176132Y-67841117D01*
X131165000Y-67943250D01*
X131323750Y-68102000D01*
X131507378Y-68102000D01*
X131489949Y-68111316D01*
X131378104Y-68203104D01*
X131341259Y-68248000D01*
X131323750Y-68248000D01*
X131165000Y-68406750D01*
X131176132Y-68508883D01*
X131187350Y-68543955D01*
X131176110Y-68581009D01*
X131161928Y-68725000D01*
X131161928Y-68925000D01*
X131176110Y-69068991D01*
X131200684Y-69150000D01*
X131176110Y-69231009D01*
X131161928Y-69375000D01*
X131161928Y-69575000D01*
X131176110Y-69718991D01*
X131200684Y-69800000D01*
X131176110Y-69881009D01*
X131161928Y-70025000D01*
X131161928Y-70225000D01*
X131176110Y-70368991D01*
X131200684Y-70450000D01*
X131176110Y-70531009D01*
X131161928Y-70675000D01*
X131161928Y-70803136D01*
X131118614Y-70838684D01*
X131062179Y-70884999D01*
X131038381Y-70913997D01*
X130262379Y-71690000D01*
X130166518Y-71690000D01*
X130174371Y-71664113D01*
X130188072Y-71525000D01*
X130188072Y-71375000D01*
X130174371Y-71235887D01*
X130163485Y-71200000D01*
X130174371Y-71164113D01*
X130188072Y-71025000D01*
X130188072Y-70875000D01*
X130174371Y-70735887D01*
X130163485Y-70700000D01*
X130174371Y-70664113D01*
X130188072Y-70525000D01*
X130188072Y-70375000D01*
X130174371Y-70235887D01*
X130163485Y-70200000D01*
X130174371Y-70164113D01*
X130188072Y-70025000D01*
X130188072Y-69875000D01*
X130174371Y-69735887D01*
X130163485Y-69700000D01*
X130174371Y-69664113D01*
X130188072Y-69525000D01*
X130188072Y-69375000D01*
X130174371Y-69235887D01*
X130163485Y-69200000D01*
X130174371Y-69164113D01*
X130188072Y-69025000D01*
X130188072Y-68875000D01*
X130174371Y-68735887D01*
X130173798Y-68733997D01*
X130173937Y-68733561D01*
X130185000Y-68631750D01*
X130109018Y-68555768D01*
X130067898Y-68478838D01*
X130044231Y-68450000D01*
X130067898Y-68421162D01*
X130109018Y-68344232D01*
X130185000Y-68268250D01*
X130173937Y-68166439D01*
X130173798Y-68166003D01*
X130174371Y-68164113D01*
X130188072Y-68025000D01*
X130188072Y-67875000D01*
X130174371Y-67735887D01*
X130166530Y-67710039D01*
X130441569Y-67435000D01*
X131461658Y-67435000D01*
X131453529Y-67439189D01*
G37*
%TD.AperFunction*%
D24*
X143374188Y-70074482D02*
X143410498Y-70194180D01*
X143469463Y-70304494D01*
X143548815Y-70401185D01*
X143645506Y-70480537D01*
X143755820Y-70539502D01*
X143875518Y-70575812D01*
X143883961Y-70576643D01*
X143685363Y-70775241D01*
X143528320Y-71010273D01*
X143420147Y-71271426D01*
X143411479Y-71315000D01*
X142233854Y-71315000D01*
X142317205Y-71190256D01*
X142395226Y-71001898D01*
X142435000Y-70801939D01*
X142435000Y-70598061D01*
X142395226Y-70398102D01*
X142317205Y-70209744D01*
X142217150Y-70060000D01*
X143372762Y-70060000D01*
X143374188Y-70074482D01*
%TA.AperFunction,Conductor*%
D25*
G36*
X143374188Y-70074482D02*
G01*
X143410498Y-70194180D01*
X143469463Y-70304494D01*
X143548815Y-70401185D01*
X143645506Y-70480537D01*
X143755820Y-70539502D01*
X143875518Y-70575812D01*
X143883961Y-70576643D01*
X143685363Y-70775241D01*
X143528320Y-71010273D01*
X143420147Y-71271426D01*
X143411479Y-71315000D01*
X142233854Y-71315000D01*
X142317205Y-71190256D01*
X142395226Y-71001898D01*
X142435000Y-70801939D01*
X142435000Y-70598061D01*
X142395226Y-70398102D01*
X142317205Y-70209744D01*
X142217150Y-70060000D01*
X143372762Y-70060000D01*
X143374188Y-70074482D01*
G37*
%TD.AperFunction*%
D24*
X119070625Y-64645426D02*
X119002119Y-64666207D01*
X118878838Y-64732102D01*
X118770782Y-64820782D01*
X118682102Y-64928838D01*
X118616207Y-65052119D01*
X118575629Y-65185887D01*
X118561928Y-65325000D01*
X118561928Y-65365000D01*
X116673354Y-65365000D01*
X116700812Y-65274482D01*
X116713072Y-65150000D01*
X116710000Y-64985750D01*
X116551250Y-64827000D01*
X115727000Y-64827000D01*
X115727000Y-64847000D01*
X115473000Y-64847000D01*
X115473000Y-64827000D01*
X115453000Y-64827000D01*
X115453000Y-64573000D01*
X115473000Y-64573000D01*
X115473000Y-64553000D01*
X115727000Y-64553000D01*
X115727000Y-64573000D01*
X116551250Y-64573000D01*
X116664250Y-64460000D01*
X118885199Y-64460000D01*
X119070625Y-64645426D01*
%TA.AperFunction,Conductor*%
D25*
G36*
X119070625Y-64645426D02*
G01*
X119002119Y-64666207D01*
X118878838Y-64732102D01*
X118770782Y-64820782D01*
X118682102Y-64928838D01*
X118616207Y-65052119D01*
X118575629Y-65185887D01*
X118561928Y-65325000D01*
X118561928Y-65365000D01*
X116673354Y-65365000D01*
X116700812Y-65274482D01*
X116713072Y-65150000D01*
X116710000Y-64985750D01*
X116551250Y-64827000D01*
X115727000Y-64827000D01*
X115727000Y-64847000D01*
X115473000Y-64847000D01*
X115473000Y-64827000D01*
X115453000Y-64827000D01*
X115453000Y-64573000D01*
X115473000Y-64573000D01*
X115473000Y-64553000D01*
X115727000Y-64553000D01*
X115727000Y-64573000D01*
X116551250Y-64573000D01*
X116664250Y-64460000D01*
X118885199Y-64460000D01*
X119070625Y-64645426D01*
G37*
%TD.AperFunction*%
D24*
X125973750Y-60173000D02*
X126773000Y-60173000D01*
X126773000Y-60153000D01*
X127027000Y-60153000D01*
X127027000Y-60173000D01*
X127673750Y-60173000D01*
X127748750Y-60248000D01*
X128573000Y-60248000D01*
X128573000Y-60228000D01*
X128827000Y-60228000D01*
X128827000Y-60248000D01*
X129651250Y-60248000D01*
X129676250Y-60223000D01*
X130373000Y-60223000D01*
X130373000Y-60203000D01*
X130627000Y-60203000D01*
X130627000Y-60223000D01*
X130647000Y-60223000D01*
X130647000Y-60477000D01*
X130627000Y-60477000D01*
X130627000Y-61276250D01*
X130785750Y-61435000D01*
X130975000Y-61438072D01*
X131099482Y-61425812D01*
X131219180Y-61389502D01*
X131329494Y-61330537D01*
X131426185Y-61251185D01*
X131505537Y-61154494D01*
X131539457Y-61091036D01*
X131543470Y-61095049D01*
X131571183Y-61128817D01*
X131604951Y-61156530D01*
X131604953Y-61156532D01*
X131634203Y-61180537D01*
X131705941Y-61239411D01*
X131859687Y-61321589D01*
X132026510Y-61372195D01*
X132156523Y-61385000D01*
X132156533Y-61385000D01*
X132199999Y-61389281D01*
X132243466Y-61385000D01*
X132530818Y-61385000D01*
X132484317Y-61538295D01*
X132465000Y-61734422D01*
X132465000Y-62665579D01*
X132475690Y-62774111D01*
X132056534Y-62354956D01*
X132028817Y-62321183D01*
X131894059Y-62210589D01*
X131740313Y-62128411D01*
X131573490Y-62077805D01*
X131443477Y-62065000D01*
X131443469Y-62065000D01*
X131400000Y-62060719D01*
X131356531Y-62065000D01*
X124435000Y-62065000D01*
X124435000Y-60700000D01*
X125811928Y-60700000D01*
X125824188Y-60824482D01*
X125860498Y-60944180D01*
X125919463Y-61054494D01*
X125998815Y-61151185D01*
X126095506Y-61230537D01*
X126205820Y-61289502D01*
X126325518Y-61325812D01*
X126450000Y-61338072D01*
X126614250Y-61335000D01*
X126773000Y-61176250D01*
X126773000Y-60427000D01*
X127027000Y-60427000D01*
X127027000Y-61176250D01*
X127185750Y-61335000D01*
X127350000Y-61338072D01*
X127474482Y-61325812D01*
X127594180Y-61289502D01*
X127704494Y-61230537D01*
X127723531Y-61214914D01*
X127773815Y-61276185D01*
X127870506Y-61355537D01*
X127980820Y-61414502D01*
X128100518Y-61450812D01*
X128225000Y-61463072D01*
X128414250Y-61460000D01*
X128573000Y-61301250D01*
X128573000Y-60502000D01*
X128827000Y-60502000D01*
X128827000Y-61301250D01*
X128985750Y-61460000D01*
X129175000Y-61463072D01*
X129299482Y-61450812D01*
X129419180Y-61414502D01*
X129529494Y-61355537D01*
X129615231Y-61285174D01*
X129670506Y-61330537D01*
X129780820Y-61389502D01*
X129900518Y-61425812D01*
X130025000Y-61438072D01*
X130214250Y-61435000D01*
X130373000Y-61276250D01*
X130373000Y-60477000D01*
X129548750Y-60477000D01*
X129523750Y-60502000D01*
X128827000Y-60502000D01*
X128573000Y-60502000D01*
X127901250Y-60502000D01*
X127826250Y-60427000D01*
X127027000Y-60427000D01*
X126773000Y-60427000D01*
X125973750Y-60427000D01*
X125815000Y-60585750D01*
X125811928Y-60700000D01*
X124435000Y-60700000D01*
X124435000Y-60386595D01*
X124450000Y-60388072D01*
X125350000Y-60388072D01*
X125474482Y-60375812D01*
X125594180Y-60339502D01*
X125704494Y-60280537D01*
X125801185Y-60201185D01*
X125880537Y-60104494D01*
X125889143Y-60088393D01*
X125973750Y-60173000D01*
%TA.AperFunction,Conductor*%
D25*
G36*
X125973750Y-60173000D02*
G01*
X126773000Y-60173000D01*
X126773000Y-60153000D01*
X127027000Y-60153000D01*
X127027000Y-60173000D01*
X127673750Y-60173000D01*
X127748750Y-60248000D01*
X128573000Y-60248000D01*
X128573000Y-60228000D01*
X128827000Y-60228000D01*
X128827000Y-60248000D01*
X129651250Y-60248000D01*
X129676250Y-60223000D01*
X130373000Y-60223000D01*
X130373000Y-60203000D01*
X130627000Y-60203000D01*
X130627000Y-60223000D01*
X130647000Y-60223000D01*
X130647000Y-60477000D01*
X130627000Y-60477000D01*
X130627000Y-61276250D01*
X130785750Y-61435000D01*
X130975000Y-61438072D01*
X131099482Y-61425812D01*
X131219180Y-61389502D01*
X131329494Y-61330537D01*
X131426185Y-61251185D01*
X131505537Y-61154494D01*
X131539457Y-61091036D01*
X131543470Y-61095049D01*
X131571183Y-61128817D01*
X131604951Y-61156530D01*
X131604953Y-61156532D01*
X131634203Y-61180537D01*
X131705941Y-61239411D01*
X131859687Y-61321589D01*
X132026510Y-61372195D01*
X132156523Y-61385000D01*
X132156533Y-61385000D01*
X132199999Y-61389281D01*
X132243466Y-61385000D01*
X132530818Y-61385000D01*
X132484317Y-61538295D01*
X132465000Y-61734422D01*
X132465000Y-62665579D01*
X132475690Y-62774111D01*
X132056534Y-62354956D01*
X132028817Y-62321183D01*
X131894059Y-62210589D01*
X131740313Y-62128411D01*
X131573490Y-62077805D01*
X131443477Y-62065000D01*
X131443469Y-62065000D01*
X131400000Y-62060719D01*
X131356531Y-62065000D01*
X124435000Y-62065000D01*
X124435000Y-60700000D01*
X125811928Y-60700000D01*
X125824188Y-60824482D01*
X125860498Y-60944180D01*
X125919463Y-61054494D01*
X125998815Y-61151185D01*
X126095506Y-61230537D01*
X126205820Y-61289502D01*
X126325518Y-61325812D01*
X126450000Y-61338072D01*
X126614250Y-61335000D01*
X126773000Y-61176250D01*
X126773000Y-60427000D01*
X127027000Y-60427000D01*
X127027000Y-61176250D01*
X127185750Y-61335000D01*
X127350000Y-61338072D01*
X127474482Y-61325812D01*
X127594180Y-61289502D01*
X127704494Y-61230537D01*
X127723531Y-61214914D01*
X127773815Y-61276185D01*
X127870506Y-61355537D01*
X127980820Y-61414502D01*
X128100518Y-61450812D01*
X128225000Y-61463072D01*
X128414250Y-61460000D01*
X128573000Y-61301250D01*
X128573000Y-60502000D01*
X128827000Y-60502000D01*
X128827000Y-61301250D01*
X128985750Y-61460000D01*
X129175000Y-61463072D01*
X129299482Y-61450812D01*
X129419180Y-61414502D01*
X129529494Y-61355537D01*
X129615231Y-61285174D01*
X129670506Y-61330537D01*
X129780820Y-61389502D01*
X129900518Y-61425812D01*
X130025000Y-61438072D01*
X130214250Y-61435000D01*
X130373000Y-61276250D01*
X130373000Y-60477000D01*
X129548750Y-60477000D01*
X129523750Y-60502000D01*
X128827000Y-60502000D01*
X128573000Y-60502000D01*
X127901250Y-60502000D01*
X127826250Y-60427000D01*
X127027000Y-60427000D01*
X126773000Y-60427000D01*
X125973750Y-60427000D01*
X125815000Y-60585750D01*
X125811928Y-60700000D01*
X124435000Y-60700000D01*
X124435000Y-60386595D01*
X124450000Y-60388072D01*
X125350000Y-60388072D01*
X125474482Y-60375812D01*
X125594180Y-60339502D01*
X125704494Y-60280537D01*
X125801185Y-60201185D01*
X125880537Y-60104494D01*
X125889143Y-60088393D01*
X125973750Y-60173000D01*
G37*
%TD.AperFunction*%
D24*
X115119463Y-60054494D02*
X115198815Y-60151185D01*
X115295506Y-60230537D01*
X115405820Y-60289502D01*
X115525518Y-60325812D01*
X115650000Y-60338072D01*
X116550000Y-60338072D01*
X116674482Y-60325812D01*
X116794180Y-60289502D01*
X116904494Y-60230537D01*
X117001185Y-60151185D01*
X117080537Y-60054494D01*
X117089143Y-60038393D01*
X117173750Y-60123000D01*
X117973000Y-60123000D01*
X117973000Y-60103000D01*
X118227000Y-60103000D01*
X118227000Y-60123000D01*
X118823750Y-60123000D01*
X118948750Y-60248000D01*
X119773000Y-60248000D01*
X119773000Y-60228000D01*
X120027000Y-60228000D01*
X120027000Y-60248000D01*
X120851250Y-60248000D01*
X120876250Y-60223000D01*
X121573000Y-60223000D01*
X121573000Y-60203000D01*
X121827000Y-60203000D01*
X121827000Y-60223000D01*
X121847000Y-60223000D01*
X121847000Y-60477000D01*
X121827000Y-60477000D01*
X121827000Y-61276250D01*
X121985750Y-61435000D01*
X122175000Y-61438072D01*
X122299482Y-61425812D01*
X122419180Y-61389502D01*
X122529494Y-61330537D01*
X122626185Y-61251185D01*
X122665000Y-61203888D01*
X122665001Y-62065000D01*
X122316579Y-62065000D01*
X121550414Y-61298836D01*
X121573000Y-61276250D01*
X121573000Y-60477000D01*
X120748750Y-60477000D01*
X120723750Y-60502000D01*
X120027000Y-60502000D01*
X120027000Y-60522000D01*
X119773000Y-60522000D01*
X119773000Y-60502000D01*
X119151250Y-60502000D01*
X119026250Y-60377000D01*
X118227000Y-60377000D01*
X118227000Y-60397000D01*
X117973000Y-60397000D01*
X117973000Y-60377000D01*
X117173750Y-60377000D01*
X117015000Y-60535750D01*
X117011928Y-60650000D01*
X117023254Y-60765000D01*
X114488454Y-60765000D01*
X114440256Y-60732795D01*
X114343453Y-60692698D01*
X114363405Y-60668386D01*
X114445472Y-60514850D01*
X114496008Y-60348254D01*
X114513072Y-60175000D01*
X114513072Y-59985000D01*
X115082317Y-59985000D01*
X115119463Y-60054494D01*
%TA.AperFunction,Conductor*%
D25*
G36*
X115119463Y-60054494D02*
G01*
X115198815Y-60151185D01*
X115295506Y-60230537D01*
X115405820Y-60289502D01*
X115525518Y-60325812D01*
X115650000Y-60338072D01*
X116550000Y-60338072D01*
X116674482Y-60325812D01*
X116794180Y-60289502D01*
X116904494Y-60230537D01*
X117001185Y-60151185D01*
X117080537Y-60054494D01*
X117089143Y-60038393D01*
X117173750Y-60123000D01*
X117973000Y-60123000D01*
X117973000Y-60103000D01*
X118227000Y-60103000D01*
X118227000Y-60123000D01*
X118823750Y-60123000D01*
X118948750Y-60248000D01*
X119773000Y-60248000D01*
X119773000Y-60228000D01*
X120027000Y-60228000D01*
X120027000Y-60248000D01*
X120851250Y-60248000D01*
X120876250Y-60223000D01*
X121573000Y-60223000D01*
X121573000Y-60203000D01*
X121827000Y-60203000D01*
X121827000Y-60223000D01*
X121847000Y-60223000D01*
X121847000Y-60477000D01*
X121827000Y-60477000D01*
X121827000Y-61276250D01*
X121985750Y-61435000D01*
X122175000Y-61438072D01*
X122299482Y-61425812D01*
X122419180Y-61389502D01*
X122529494Y-61330537D01*
X122626185Y-61251185D01*
X122665000Y-61203888D01*
X122665001Y-62065000D01*
X122316579Y-62065000D01*
X121550414Y-61298836D01*
X121573000Y-61276250D01*
X121573000Y-60477000D01*
X120748750Y-60477000D01*
X120723750Y-60502000D01*
X120027000Y-60502000D01*
X120027000Y-60522000D01*
X119773000Y-60522000D01*
X119773000Y-60502000D01*
X119151250Y-60502000D01*
X119026250Y-60377000D01*
X118227000Y-60377000D01*
X118227000Y-60397000D01*
X117973000Y-60397000D01*
X117973000Y-60377000D01*
X117173750Y-60377000D01*
X117015000Y-60535750D01*
X117011928Y-60650000D01*
X117023254Y-60765000D01*
X114488454Y-60765000D01*
X114440256Y-60732795D01*
X114343453Y-60692698D01*
X114363405Y-60668386D01*
X114445472Y-60514850D01*
X114496008Y-60348254D01*
X114513072Y-60175000D01*
X114513072Y-59985000D01*
X115082317Y-59985000D01*
X115119463Y-60054494D01*
G37*
%TD.AperFunction*%
%TD*%
M02*
