M48
; DRILL file {KiCad 5.1.9+dfsg1-1~bpo10+1} date Sun May 16 10:46:34 2021
; FORMAT={-:-/ absolute / inch / decimal}
; #@! TF.CreationDate,2021-05-16T10:46:34+08:00
; #@! TF.GenerationSoftware,Kicad,Pcbnew,5.1.9+dfsg1-1~bpo10+1
; #@! TF.FileFunction,Plated,1,2,PTH
FMAT,2
INCH
T1C0.0157
T2C0.0236
T3C0.0299
T4C0.0300
T5C0.0315
T6C0.0335
%
G90
G05
T1
X4.0906Y-3.3031
X4.0965Y-3.1772
X4.1161Y-2.7165
X4.1161Y-2.8189
X4.2236Y-2.2555
X4.2531Y-2.7713
X4.3008Y-3.2728
X4.4579Y-3.2752
X4.4862Y-2.4272
X4.4862Y-2.6083
X4.4862Y-2.8268
X4.4862Y-2.9488
X4.5193Y-2.2524
X4.5335Y-3.1752
X4.5354Y-3.0374
X4.5394Y-2.9272
X4.5413Y-2.8425
X4.5965Y-2.5413
X4.7185Y-2.6791
X4.7303Y-2.9823
X4.7303Y-3.126
X4.7874Y-2.6792
X4.8169Y-2.4311
X4.8268Y-2.6791
X4.9154Y-2.9508
X4.9488Y-2.5236
X4.9547Y-2.9823
X4.9547Y-3.1358
X4.9892Y-2.6959
X5.0551Y-3.1772
X5.0988Y-2.2504
X5.1024Y-2.4843
X5.1437Y-2.7579
X5.2016Y-3.3146
X5.2972Y-2.8484
X5.3287Y-2.9823
X5.3573Y-2.6073
X5.3622Y-2.8031
X5.3878Y-2.9163
X5.4547Y-3.1508
X5.4571Y-3.2768
X5.5295Y-2.7234
X5.5295Y-2.9134
X5.5669Y-2.8071
X5.5669Y-3.0177
X5.5974Y-2.688
X5.628Y-2.7835
X5.6299Y-2.872
X5.6634Y-2.2756
X5.6772Y-2.5118
X5.7441Y-2.5374
X5.7673Y-3.2031
X5.8051Y-2.5374
X5.8386Y-2.7421
X5.8921Y-3.1232
X5.9173Y-2.5404
X5.9783Y-2.5394
X6.0366Y-3.2169
X6.0413Y-2.2795
T4
X5.3583Y-2.4488
X5.437Y-2.4488
X5.5157Y-2.4488
T5
X4.7539Y-3.2067
X4.9461Y-3.2067
X5.7008Y-2.7224
X5.7008Y-2.8224
X5.7008Y-2.9224
X5.7008Y-3.0224
X6.0008Y-2.7224
X6.0008Y-2.8224
X6.0008Y-2.9224
X6.0008Y-3.0224
T6
X4.1836Y-2.3898
X4.1836Y-2.5866
T2
G00X4.0635Y-2.3504
M15
G01X4.091Y-2.3504
M16
G05
G00X4.091Y-2.626
M15
G01X4.0635Y-2.626
M16
G05
T3
G00X5.2677Y-2.4634
M15
G01X5.2677Y-2.4343
M16
G05
G00X5.6063Y-2.463
M15
G01X5.6063Y-2.4339
M16
G05
T0
M30
