%TF.GenerationSoftware,KiCad,Pcbnew,5.1.9+dfsg1-1~bpo10+1*%
%TF.CreationDate,2021-05-09T13:01:11+08:00*%
%TF.ProjectId,serprog,73657270-726f-4672-9e6b-696361645f70,rev?*%
%TF.SameCoordinates,Original*%
%TF.FileFunction,Copper,L2,Bot*%
%TF.FilePolarity,Positive*%
%FSLAX46Y46*%
G04 Gerber Fmt 4.6, Leading zero omitted, Abs format (unit mm)*
G04 Created by KiCad (PCBNEW 5.1.9+dfsg1-1~bpo10+1) date 2021-05-09 13:01:11*
%MOMM*%
%LPD*%
G01*
G04 APERTURE LIST*
%TA.AperFunction,ComponentPad*%
%ADD10C,1.450000*%
%TD*%
%TA.AperFunction,ComponentPad*%
%ADD11O,1.900000X1.200000*%
%TD*%
%TA.AperFunction,SMDPad,CuDef*%
%ADD12C,1.000000*%
%TD*%
%TA.AperFunction,ComponentPad*%
%ADD13O,1.600000X1.600000*%
%TD*%
%TA.AperFunction,ComponentPad*%
%ADD14R,1.600000X1.600000*%
%TD*%
%TA.AperFunction,ComponentPad*%
%ADD15C,1.500000*%
%TD*%
%TA.AperFunction,ComponentPad*%
%ADD16O,1.400000X2.200000*%
%TD*%
%TA.AperFunction,ComponentPad*%
%ADD17C,1.524000*%
%TD*%
%TA.AperFunction,ViaPad*%
%ADD18C,0.800000*%
%TD*%
%TA.AperFunction,Conductor*%
%ADD19C,0.250000*%
%TD*%
%TA.AperFunction,Conductor*%
%ADD20C,0.500000*%
%TD*%
%TA.AperFunction,Conductor*%
%ADD21C,0.254000*%
%TD*%
%TA.AperFunction,Conductor*%
%ADD22C,0.100000*%
%TD*%
G04 APERTURE END LIST*
D10*
%TO.P,J1,6*%
%TO.N,GND*%
X106262500Y-60700000D03*
X106262500Y-65700000D03*
D11*
X103562500Y-59700000D03*
X103562500Y-66700000D03*
%TD*%
D12*
%TO.P,RX,1*%
%TO.N,USART1_RX*%
X124480000Y-70000000D03*
%TD*%
%TO.P,TX,1*%
%TO.N,USART1_TX*%
X127020000Y-70000000D03*
%TD*%
%TO.P,3V3,1*%
%TO.N,+3V3*%
X119400000Y-70000000D03*
%TD*%
%TO.P,G,1*%
%TO.N,GND*%
X121940000Y-70000000D03*
%TD*%
D13*
%TO.P,U4,8*%
%TO.N,FLASH_VCC*%
X152420000Y-69150000D03*
%TO.P,U4,4*%
%TO.N,GND*%
X144800000Y-76770000D03*
%TO.P,U4,7*%
%TO.N,FLASH_VCC*%
X152420000Y-71690000D03*
%TO.P,U4,3*%
X144800000Y-74230000D03*
%TO.P,U4,6*%
%TO.N,FLASH_SCK*%
X152420000Y-74230000D03*
%TO.P,U4,2*%
%TO.N,FLASH_MISO*%
X144800000Y-71690000D03*
%TO.P,U4,5*%
%TO.N,FLASH_MOSI*%
X152420000Y-76770000D03*
D14*
%TO.P,U4,1*%
%TO.N,FLASH_NSS*%
X144800000Y-69150000D03*
%TD*%
D15*
%TO.P,Y1,2*%
%TO.N,OSC_O*%
X125630000Y-81450000D03*
%TO.P,Y1,1*%
%TO.N,OSC_I*%
X120750000Y-81450000D03*
%TD*%
D16*
%TO.P,SW1,*%
%TO.N,*%
X142400000Y-62190000D03*
X133800000Y-62200000D03*
D17*
%TO.P,SW1,3*%
%TO.N,+1V8*%
X140100000Y-62200000D03*
%TO.P,SW1,2*%
%TO.N,FLASH_VCC*%
X138100000Y-62200000D03*
%TO.P,SW1,1*%
%TO.N,+3V3*%
X136100000Y-62200000D03*
%TD*%
D18*
%TO.N,GND*%
X124850000Y-74950002D03*
X115150000Y-80650000D03*
X128400000Y-80700000D03*
X127300000Y-61850000D03*
X117700000Y-65350000D03*
X119850000Y-68050000D03*
X122350000Y-61750000D03*
X104550000Y-69000000D03*
X104550000Y-71600000D03*
X108030000Y-70390000D03*
X104050000Y-80700000D03*
X103900000Y-83900000D03*
X142150000Y-66200000D03*
X143950000Y-65100000D03*
X143850000Y-57800000D03*
X153450000Y-57900000D03*
X146490000Y-81360000D03*
X138610000Y-83230000D03*
X138550000Y-80030000D03*
X153330000Y-81710000D03*
X149660000Y-79330000D03*
X115350000Y-72000000D03*
X115300000Y-74650000D03*
X125700000Y-64100000D03*
X128850000Y-64600000D03*
X130650000Y-70050000D03*
X142950000Y-70700000D03*
X143000000Y-72950000D03*
X146950000Y-66900000D03*
X115220000Y-77860000D03*
X109240000Y-83130000D03*
X113230000Y-83190000D03*
X129510000Y-57160000D03*
X114790000Y-57210000D03*
X107280000Y-57290000D03*
X132120000Y-84190000D03*
%TO.N,nRST*%
X120150000Y-75750000D03*
X120150000Y-79400000D03*
%TO.N,+3V3*%
X134550000Y-72350000D03*
X113950000Y-66250000D03*
X113950000Y-72100000D03*
X113950000Y-61650000D03*
X113950000Y-76000000D03*
%TO.N,FLASH_VCC*%
X135900000Y-66550000D03*
X135900000Y-75750002D03*
X138900000Y-59250000D03*
%TO.N,USART1_RX*%
X123640000Y-68740000D03*
%TO.N,USART1_TX*%
X126140000Y-68730000D03*
%TO.N,FLASH_NSS*%
X145900000Y-64450000D03*
X140450000Y-74000000D03*
X140450000Y-69300000D03*
%TO.N,FLASH_SCK*%
X151850000Y-64500000D03*
%TO.N,FLASH_MOSI*%
X149850000Y-64500000D03*
X141400000Y-76650000D03*
X141400000Y-70700000D03*
%TO.N,FLASH_MISO*%
X147850000Y-64450000D03*
%TO.N,PA0*%
X125850000Y-75750000D03*
X125850000Y-79650000D03*
%TD*%
D19*
%TO.N,nRST*%
X120150000Y-79400000D02*
X120150000Y-75750000D01*
D20*
%TO.N,+3V3*%
X134550000Y-72350000D02*
X134550000Y-72350000D01*
X134550000Y-64000000D02*
X134550000Y-72350000D01*
X136100000Y-62200000D02*
X136100000Y-62450000D01*
X136100000Y-62450000D02*
X134550000Y-64000000D01*
X113950000Y-66250000D02*
X113950000Y-61650000D01*
X113950000Y-61650000D02*
X113950000Y-61650000D01*
X113950000Y-72100000D02*
X113950000Y-76000000D01*
X113960000Y-70000000D02*
X113950000Y-69990000D01*
X119400000Y-70000000D02*
X113960000Y-70000000D01*
X113950000Y-66250000D02*
X113950000Y-69990000D01*
X113950000Y-69990000D02*
X113950000Y-72100000D01*
%TO.N,FLASH_VCC*%
X135900000Y-75850000D02*
X135900000Y-75850000D01*
X135900000Y-66550000D02*
X135900000Y-75750002D01*
X135900000Y-64400000D02*
X138100000Y-62200000D01*
X135900000Y-66550000D02*
X135900000Y-64400000D01*
X138100000Y-62200000D02*
X138100000Y-60050000D01*
X138100000Y-60050000D02*
X138900000Y-59250000D01*
X138900000Y-59250000D02*
X138900000Y-59250000D01*
D19*
%TO.N,USART1_RX*%
X124480000Y-69250000D02*
X124480000Y-70000000D01*
X123640000Y-68740000D02*
X123970000Y-68740000D01*
X123970000Y-68740000D02*
X124480000Y-69250000D01*
%TO.N,USART1_TX*%
X127020000Y-69390000D02*
X127020000Y-70000000D01*
X126140000Y-68730000D02*
X126360000Y-68730000D01*
X126360000Y-68730000D02*
X127020000Y-69390000D01*
%TO.N,FLASH_NSS*%
X140450000Y-74000000D02*
X140450000Y-69300000D01*
X145900000Y-68050000D02*
X144800000Y-69150000D01*
X145900000Y-64450000D02*
X145900000Y-68050000D01*
%TO.N,FLASH_SCK*%
X151280000Y-74230000D02*
X152420000Y-74230000D01*
X151850000Y-64500000D02*
X150450000Y-65900000D01*
X150450000Y-73400000D02*
X151280000Y-74230000D01*
X150450000Y-65900000D02*
X150450000Y-73400000D01*
%TO.N,FLASH_MOSI*%
X141400000Y-70700000D02*
X141400000Y-76650000D01*
X149850000Y-74200000D02*
X152420000Y-76770000D01*
X149850000Y-64500000D02*
X149850000Y-74200000D01*
%TO.N,FLASH_MISO*%
X145960000Y-71690000D02*
X144800000Y-71690000D01*
X147850000Y-64450000D02*
X147850000Y-69800000D01*
X147850000Y-69800000D02*
X145960000Y-71690000D01*
%TO.N,PA0*%
X125850000Y-75750000D02*
X125850000Y-79650000D01*
%TD*%
D21*
%TO.N,GND*%
X154440000Y-84640000D02*
X102760000Y-84640000D01*
X102760000Y-67850016D01*
X102847004Y-67886493D01*
X103085500Y-67935000D01*
X103435500Y-67935000D01*
X103435500Y-66827000D01*
X103689500Y-66827000D01*
X103689500Y-67935000D01*
X104039500Y-67935000D01*
X104277996Y-67886493D01*
X104502446Y-67792390D01*
X104704225Y-67656307D01*
X104875578Y-67483474D01*
X105009921Y-67280533D01*
X105102091Y-67055282D01*
X105105962Y-67017609D01*
X104981231Y-66827000D01*
X103689500Y-66827000D01*
X103435500Y-66827000D01*
X103415500Y-66827000D01*
X103415500Y-66639133D01*
X105502972Y-66639133D01*
X105565465Y-66875450D01*
X105808178Y-66988850D01*
X106068349Y-67052719D01*
X106335982Y-67064604D01*
X106600791Y-67024048D01*
X106852600Y-66932609D01*
X106959535Y-66875450D01*
X107022028Y-66639133D01*
X106262500Y-65879605D01*
X105502972Y-66639133D01*
X103415500Y-66639133D01*
X103415500Y-66573000D01*
X103435500Y-66573000D01*
X103435500Y-65465000D01*
X103689500Y-65465000D01*
X103689500Y-66573000D01*
X104981231Y-66573000D01*
X105095003Y-66399138D01*
X105323367Y-66459528D01*
X106082895Y-65700000D01*
X106442105Y-65700000D01*
X107201633Y-66459528D01*
X107437950Y-66397035D01*
X107551350Y-66154322D01*
X107615219Y-65894151D01*
X107627104Y-65626518D01*
X107586548Y-65361709D01*
X107495109Y-65109900D01*
X107437950Y-65002965D01*
X107201633Y-64940472D01*
X106442105Y-65700000D01*
X106082895Y-65700000D01*
X105323367Y-64940472D01*
X105087050Y-65002965D01*
X104973650Y-65245678D01*
X104909781Y-65505849D01*
X104897896Y-65773482D01*
X104933115Y-66003442D01*
X104875578Y-65916526D01*
X104704225Y-65743693D01*
X104502446Y-65607610D01*
X104277996Y-65513507D01*
X104039500Y-65465000D01*
X103689500Y-65465000D01*
X103435500Y-65465000D01*
X103085500Y-65465000D01*
X102847004Y-65513507D01*
X102760000Y-65549984D01*
X102760000Y-64760867D01*
X105502972Y-64760867D01*
X106262500Y-65520395D01*
X107022028Y-64760867D01*
X106959535Y-64524550D01*
X106716822Y-64411150D01*
X106456651Y-64347281D01*
X106189018Y-64335396D01*
X105924209Y-64375952D01*
X105672400Y-64467391D01*
X105565465Y-64524550D01*
X105502972Y-64760867D01*
X102760000Y-64760867D01*
X102760000Y-61639133D01*
X105502972Y-61639133D01*
X105565465Y-61875450D01*
X105808178Y-61988850D01*
X106068349Y-62052719D01*
X106335982Y-62064604D01*
X106600791Y-62024048D01*
X106852600Y-61932609D01*
X106959535Y-61875450D01*
X107022028Y-61639133D01*
X106930956Y-61548061D01*
X112915000Y-61548061D01*
X112915000Y-61751939D01*
X112954774Y-61951898D01*
X113032795Y-62140256D01*
X113065001Y-62188456D01*
X113065000Y-65711545D01*
X113032795Y-65759744D01*
X112954774Y-65948102D01*
X112915000Y-66148061D01*
X112915000Y-66351939D01*
X112954774Y-66551898D01*
X113032795Y-66740256D01*
X113065000Y-66788455D01*
X113065001Y-69946514D01*
X113065000Y-69946524D01*
X113065000Y-69946531D01*
X113060719Y-69990000D01*
X113065000Y-70033469D01*
X113065001Y-71561545D01*
X113032795Y-71609744D01*
X112954774Y-71798102D01*
X112915000Y-71998061D01*
X112915000Y-72201939D01*
X112954774Y-72401898D01*
X113032795Y-72590256D01*
X113065000Y-72638455D01*
X113065001Y-75461544D01*
X113032795Y-75509744D01*
X112954774Y-75698102D01*
X112915000Y-75898061D01*
X112915000Y-76101939D01*
X112954774Y-76301898D01*
X113032795Y-76490256D01*
X113146063Y-76659774D01*
X113290226Y-76803937D01*
X113459744Y-76917205D01*
X113648102Y-76995226D01*
X113848061Y-77035000D01*
X114051939Y-77035000D01*
X114251898Y-76995226D01*
X114440256Y-76917205D01*
X114609774Y-76803937D01*
X114753937Y-76659774D01*
X114867205Y-76490256D01*
X114945226Y-76301898D01*
X114985000Y-76101939D01*
X114985000Y-75898061D01*
X114945226Y-75698102D01*
X114924499Y-75648061D01*
X119115000Y-75648061D01*
X119115000Y-75851939D01*
X119154774Y-76051898D01*
X119232795Y-76240256D01*
X119346063Y-76409774D01*
X119390001Y-76453712D01*
X119390000Y-78696289D01*
X119346063Y-78740226D01*
X119232795Y-78909744D01*
X119154774Y-79098102D01*
X119115000Y-79298061D01*
X119115000Y-79501939D01*
X119154774Y-79701898D01*
X119232795Y-79890256D01*
X119346063Y-80059774D01*
X119490226Y-80203937D01*
X119659744Y-80317205D01*
X119846679Y-80394636D01*
X119674201Y-80567114D01*
X119522629Y-80793957D01*
X119418225Y-81046011D01*
X119365000Y-81313589D01*
X119365000Y-81586411D01*
X119418225Y-81853989D01*
X119522629Y-82106043D01*
X119674201Y-82332886D01*
X119867114Y-82525799D01*
X120093957Y-82677371D01*
X120346011Y-82781775D01*
X120613589Y-82835000D01*
X120886411Y-82835000D01*
X121153989Y-82781775D01*
X121406043Y-82677371D01*
X121632886Y-82525799D01*
X121825799Y-82332886D01*
X121977371Y-82106043D01*
X122081775Y-81853989D01*
X122135000Y-81586411D01*
X122135000Y-81313589D01*
X124245000Y-81313589D01*
X124245000Y-81586411D01*
X124298225Y-81853989D01*
X124402629Y-82106043D01*
X124554201Y-82332886D01*
X124747114Y-82525799D01*
X124973957Y-82677371D01*
X125226011Y-82781775D01*
X125493589Y-82835000D01*
X125766411Y-82835000D01*
X126033989Y-82781775D01*
X126286043Y-82677371D01*
X126512886Y-82525799D01*
X126705799Y-82332886D01*
X126857371Y-82106043D01*
X126961775Y-81853989D01*
X127015000Y-81586411D01*
X127015000Y-81313589D01*
X126961775Y-81046011D01*
X126857371Y-80793957D01*
X126705799Y-80567114D01*
X126551198Y-80412513D01*
X126653937Y-80309774D01*
X126767205Y-80140256D01*
X126845226Y-79951898D01*
X126885000Y-79751939D01*
X126885000Y-79548061D01*
X126845226Y-79348102D01*
X126767205Y-79159744D01*
X126653937Y-78990226D01*
X126610000Y-78946289D01*
X126610000Y-76453711D01*
X126653937Y-76409774D01*
X126767205Y-76240256D01*
X126845226Y-76051898D01*
X126885000Y-75851939D01*
X126885000Y-75648061D01*
X126845226Y-75448102D01*
X126767205Y-75259744D01*
X126653937Y-75090226D01*
X126509774Y-74946063D01*
X126340256Y-74832795D01*
X126151898Y-74754774D01*
X125951939Y-74715000D01*
X125748061Y-74715000D01*
X125548102Y-74754774D01*
X125359744Y-74832795D01*
X125190226Y-74946063D01*
X125046063Y-75090226D01*
X124932795Y-75259744D01*
X124854774Y-75448102D01*
X124815000Y-75648061D01*
X124815000Y-75851939D01*
X124854774Y-76051898D01*
X124932795Y-76240256D01*
X125046063Y-76409774D01*
X125090000Y-76453711D01*
X125090001Y-78946288D01*
X125046063Y-78990226D01*
X124932795Y-79159744D01*
X124854774Y-79348102D01*
X124815000Y-79548061D01*
X124815000Y-79751939D01*
X124854774Y-79951898D01*
X124932795Y-80140256D01*
X124984826Y-80218127D01*
X124973957Y-80222629D01*
X124747114Y-80374201D01*
X124554201Y-80567114D01*
X124402629Y-80793957D01*
X124298225Y-81046011D01*
X124245000Y-81313589D01*
X122135000Y-81313589D01*
X122081775Y-81046011D01*
X121977371Y-80793957D01*
X121825799Y-80567114D01*
X121632886Y-80374201D01*
X121406043Y-80222629D01*
X121153989Y-80118225D01*
X120938375Y-80075336D01*
X120953937Y-80059774D01*
X121067205Y-79890256D01*
X121145226Y-79701898D01*
X121185000Y-79501939D01*
X121185000Y-79298061D01*
X121145226Y-79098102D01*
X121067205Y-78909744D01*
X120953937Y-78740226D01*
X120910000Y-78696289D01*
X120910000Y-76453711D01*
X120953937Y-76409774D01*
X121067205Y-76240256D01*
X121145226Y-76051898D01*
X121185000Y-75851939D01*
X121185000Y-75648061D01*
X121145226Y-75448102D01*
X121067205Y-75259744D01*
X120953937Y-75090226D01*
X120809774Y-74946063D01*
X120640256Y-74832795D01*
X120451898Y-74754774D01*
X120251939Y-74715000D01*
X120048061Y-74715000D01*
X119848102Y-74754774D01*
X119659744Y-74832795D01*
X119490226Y-74946063D01*
X119346063Y-75090226D01*
X119232795Y-75259744D01*
X119154774Y-75448102D01*
X119115000Y-75648061D01*
X114924499Y-75648061D01*
X114867205Y-75509744D01*
X114835000Y-75461546D01*
X114835000Y-72638454D01*
X114867205Y-72590256D01*
X114945226Y-72401898D01*
X114985000Y-72201939D01*
X114985000Y-71998061D01*
X114945226Y-71798102D01*
X114867205Y-71609744D01*
X114835000Y-71561546D01*
X114835000Y-70885000D01*
X118681550Y-70885000D01*
X118862376Y-71005824D01*
X119068933Y-71091383D01*
X119288212Y-71135000D01*
X119511788Y-71135000D01*
X119731067Y-71091383D01*
X119937624Y-71005824D01*
X120123520Y-70881612D01*
X120226966Y-70778166D01*
X121341439Y-70778166D01*
X121376550Y-70991588D01*
X121580826Y-71082458D01*
X121798905Y-71131731D01*
X122022406Y-71137511D01*
X122242740Y-71099577D01*
X122451440Y-71019387D01*
X122503450Y-70991588D01*
X122538561Y-70778166D01*
X121940000Y-70179605D01*
X121341439Y-70778166D01*
X120226966Y-70778166D01*
X120281612Y-70723520D01*
X120405824Y-70537624D01*
X120491383Y-70331067D01*
X120535000Y-70111788D01*
X120535000Y-70082406D01*
X120802489Y-70082406D01*
X120840423Y-70302740D01*
X120920613Y-70511440D01*
X120948412Y-70563450D01*
X121161834Y-70598561D01*
X121760395Y-70000000D01*
X121161834Y-69401439D01*
X120948412Y-69436550D01*
X120857542Y-69640826D01*
X120808269Y-69858905D01*
X120802489Y-70082406D01*
X120535000Y-70082406D01*
X120535000Y-69888212D01*
X120491383Y-69668933D01*
X120405824Y-69462376D01*
X120281612Y-69276480D01*
X120226966Y-69221834D01*
X121341439Y-69221834D01*
X121940000Y-69820395D01*
X121954143Y-69806253D01*
X122133748Y-69985858D01*
X122119605Y-70000000D01*
X122718166Y-70598561D01*
X122931588Y-70563450D01*
X123022458Y-70359174D01*
X123071731Y-70141095D01*
X123077511Y-69917594D01*
X123039577Y-69697260D01*
X122980816Y-69544331D01*
X123149744Y-69657205D01*
X123338102Y-69735226D01*
X123374010Y-69742368D01*
X123345000Y-69888212D01*
X123345000Y-70111788D01*
X123388617Y-70331067D01*
X123474176Y-70537624D01*
X123598388Y-70723520D01*
X123756480Y-70881612D01*
X123942376Y-71005824D01*
X124148933Y-71091383D01*
X124368212Y-71135000D01*
X124591788Y-71135000D01*
X124811067Y-71091383D01*
X125017624Y-71005824D01*
X125203520Y-70881612D01*
X125361612Y-70723520D01*
X125485824Y-70537624D01*
X125571383Y-70331067D01*
X125615000Y-70111788D01*
X125615000Y-69888212D01*
X125571383Y-69668933D01*
X125528951Y-69566494D01*
X125649744Y-69647205D01*
X125838102Y-69725226D01*
X125914401Y-69740403D01*
X125885000Y-69888212D01*
X125885000Y-70111788D01*
X125928617Y-70331067D01*
X126014176Y-70537624D01*
X126138388Y-70723520D01*
X126296480Y-70881612D01*
X126482376Y-71005824D01*
X126688933Y-71091383D01*
X126908212Y-71135000D01*
X127131788Y-71135000D01*
X127351067Y-71091383D01*
X127557624Y-71005824D01*
X127743520Y-70881612D01*
X127901612Y-70723520D01*
X128025824Y-70537624D01*
X128111383Y-70331067D01*
X128155000Y-70111788D01*
X128155000Y-69888212D01*
X128111383Y-69668933D01*
X128025824Y-69462376D01*
X127901612Y-69276480D01*
X127743520Y-69118388D01*
X127728827Y-69108571D01*
X127725546Y-69097753D01*
X127700554Y-69050997D01*
X127654974Y-68965723D01*
X127583799Y-68878997D01*
X127560001Y-68849999D01*
X127531004Y-68826202D01*
X127135803Y-68431001D01*
X127135226Y-68428102D01*
X127057205Y-68239744D01*
X126943937Y-68070226D01*
X126799774Y-67926063D01*
X126630256Y-67812795D01*
X126441898Y-67734774D01*
X126241939Y-67695000D01*
X126038061Y-67695000D01*
X125838102Y-67734774D01*
X125649744Y-67812795D01*
X125480226Y-67926063D01*
X125336063Y-68070226D01*
X125222795Y-68239744D01*
X125144774Y-68428102D01*
X125105000Y-68628061D01*
X125105000Y-68813570D01*
X125080031Y-68783146D01*
X125020001Y-68709999D01*
X124990998Y-68686197D01*
X124559086Y-68254285D01*
X124557205Y-68249744D01*
X124443937Y-68080226D01*
X124299774Y-67936063D01*
X124130256Y-67822795D01*
X123941898Y-67744774D01*
X123741939Y-67705000D01*
X123538061Y-67705000D01*
X123338102Y-67744774D01*
X123149744Y-67822795D01*
X122980226Y-67936063D01*
X122836063Y-68080226D01*
X122722795Y-68249744D01*
X122644774Y-68438102D01*
X122605000Y-68638061D01*
X122605000Y-68841939D01*
X122644774Y-69041898D01*
X122680728Y-69128698D01*
X122656211Y-69104181D01*
X122538561Y-69221831D01*
X122503450Y-69008412D01*
X122299174Y-68917542D01*
X122081095Y-68868269D01*
X121857594Y-68862489D01*
X121637260Y-68900423D01*
X121428560Y-68980613D01*
X121376550Y-69008412D01*
X121341439Y-69221834D01*
X120226966Y-69221834D01*
X120123520Y-69118388D01*
X119937624Y-68994176D01*
X119731067Y-68908617D01*
X119511788Y-68865000D01*
X119288212Y-68865000D01*
X119068933Y-68908617D01*
X118862376Y-68994176D01*
X118681550Y-69115000D01*
X114835000Y-69115000D01*
X114835000Y-66788454D01*
X114867205Y-66740256D01*
X114945226Y-66551898D01*
X114985000Y-66351939D01*
X114985000Y-66148061D01*
X114945226Y-65948102D01*
X114867205Y-65759744D01*
X114835000Y-65711546D01*
X114835000Y-62188454D01*
X114867205Y-62140256D01*
X114945226Y-61951898D01*
X114985000Y-61751939D01*
X114985000Y-61734422D01*
X132465000Y-61734422D01*
X132465000Y-62665579D01*
X132484317Y-62861706D01*
X132560653Y-63113354D01*
X132684618Y-63345275D01*
X132851446Y-63548555D01*
X133054726Y-63715382D01*
X133286647Y-63839347D01*
X133538295Y-63915683D01*
X133667766Y-63928435D01*
X133665000Y-63956524D01*
X133665000Y-63956531D01*
X133660719Y-64000000D01*
X133665000Y-64043469D01*
X133665001Y-71811544D01*
X133632795Y-71859744D01*
X133554774Y-72048102D01*
X133515000Y-72248061D01*
X133515000Y-72451939D01*
X133554774Y-72651898D01*
X133632795Y-72840256D01*
X133746063Y-73009774D01*
X133890226Y-73153937D01*
X134059744Y-73267205D01*
X134248102Y-73345226D01*
X134448061Y-73385000D01*
X134651939Y-73385000D01*
X134851898Y-73345226D01*
X135015001Y-73277666D01*
X135015001Y-75211546D01*
X134982795Y-75259746D01*
X134904774Y-75448104D01*
X134865000Y-75648063D01*
X134865000Y-75851941D01*
X134904774Y-76051900D01*
X134982795Y-76240258D01*
X135096063Y-76409776D01*
X135240226Y-76553939D01*
X135409744Y-76667207D01*
X135598102Y-76745228D01*
X135798061Y-76785002D01*
X136001939Y-76785002D01*
X136201898Y-76745228D01*
X136390256Y-76667207D01*
X136559774Y-76553939D01*
X136703937Y-76409776D01*
X136817205Y-76240258D01*
X136895226Y-76051900D01*
X136935000Y-75851941D01*
X136935000Y-75648063D01*
X136895226Y-75448104D01*
X136817205Y-75259746D01*
X136785000Y-75211548D01*
X136785000Y-69198061D01*
X139415000Y-69198061D01*
X139415000Y-69401939D01*
X139454774Y-69601898D01*
X139532795Y-69790256D01*
X139646063Y-69959774D01*
X139690001Y-70003712D01*
X139690000Y-73296289D01*
X139646063Y-73340226D01*
X139532795Y-73509744D01*
X139454774Y-73698102D01*
X139415000Y-73898061D01*
X139415000Y-74101939D01*
X139454774Y-74301898D01*
X139532795Y-74490256D01*
X139646063Y-74659774D01*
X139790226Y-74803937D01*
X139959744Y-74917205D01*
X140148102Y-74995226D01*
X140348061Y-75035000D01*
X140551939Y-75035000D01*
X140640001Y-75017484D01*
X140640001Y-75946288D01*
X140596063Y-75990226D01*
X140482795Y-76159744D01*
X140404774Y-76348102D01*
X140365000Y-76548061D01*
X140365000Y-76751939D01*
X140404774Y-76951898D01*
X140482795Y-77140256D01*
X140596063Y-77309774D01*
X140740226Y-77453937D01*
X140909744Y-77567205D01*
X141098102Y-77645226D01*
X141298061Y-77685000D01*
X141501939Y-77685000D01*
X141701898Y-77645226D01*
X141890256Y-77567205D01*
X142059774Y-77453937D01*
X142203937Y-77309774D01*
X142317205Y-77140256D01*
X142325993Y-77119039D01*
X143408096Y-77119039D01*
X143448754Y-77253087D01*
X143568963Y-77507420D01*
X143736481Y-77733414D01*
X143944869Y-77922385D01*
X144186119Y-78067070D01*
X144450960Y-78161909D01*
X144673000Y-78040624D01*
X144673000Y-76897000D01*
X144927000Y-76897000D01*
X144927000Y-78040624D01*
X145149040Y-78161909D01*
X145413881Y-78067070D01*
X145655131Y-77922385D01*
X145863519Y-77733414D01*
X146031037Y-77507420D01*
X146151246Y-77253087D01*
X146191904Y-77119039D01*
X146069915Y-76897000D01*
X144927000Y-76897000D01*
X144673000Y-76897000D01*
X143530085Y-76897000D01*
X143408096Y-77119039D01*
X142325993Y-77119039D01*
X142395226Y-76951898D01*
X142435000Y-76751939D01*
X142435000Y-76548061D01*
X142395226Y-76348102D01*
X142317205Y-76159744D01*
X142203937Y-75990226D01*
X142160000Y-75946289D01*
X142160000Y-71403711D01*
X142203937Y-71359774D01*
X142317205Y-71190256D01*
X142395226Y-71001898D01*
X142435000Y-70801939D01*
X142435000Y-70598061D01*
X142395226Y-70398102D01*
X142317205Y-70209744D01*
X142203937Y-70040226D01*
X142059774Y-69896063D01*
X141890256Y-69782795D01*
X141701898Y-69704774D01*
X141501939Y-69665000D01*
X141419088Y-69665000D01*
X141445226Y-69601898D01*
X141485000Y-69401939D01*
X141485000Y-69198061D01*
X141445226Y-68998102D01*
X141367205Y-68809744D01*
X141253937Y-68640226D01*
X141109774Y-68496063D01*
X140940256Y-68382795D01*
X140861083Y-68350000D01*
X143361928Y-68350000D01*
X143361928Y-69950000D01*
X143374188Y-70074482D01*
X143410498Y-70194180D01*
X143469463Y-70304494D01*
X143548815Y-70401185D01*
X143645506Y-70480537D01*
X143755820Y-70539502D01*
X143875518Y-70575812D01*
X143883961Y-70576643D01*
X143685363Y-70775241D01*
X143528320Y-71010273D01*
X143420147Y-71271426D01*
X143365000Y-71548665D01*
X143365000Y-71831335D01*
X143420147Y-72108574D01*
X143528320Y-72369727D01*
X143685363Y-72604759D01*
X143885241Y-72804637D01*
X144117759Y-72960000D01*
X143885241Y-73115363D01*
X143685363Y-73315241D01*
X143528320Y-73550273D01*
X143420147Y-73811426D01*
X143365000Y-74088665D01*
X143365000Y-74371335D01*
X143420147Y-74648574D01*
X143528320Y-74909727D01*
X143685363Y-75144759D01*
X143885241Y-75344637D01*
X144120273Y-75501680D01*
X144130865Y-75506067D01*
X143944869Y-75617615D01*
X143736481Y-75806586D01*
X143568963Y-76032580D01*
X143448754Y-76286913D01*
X143408096Y-76420961D01*
X143530085Y-76643000D01*
X144673000Y-76643000D01*
X144673000Y-76623000D01*
X144927000Y-76623000D01*
X144927000Y-76643000D01*
X146069915Y-76643000D01*
X146191904Y-76420961D01*
X146151246Y-76286913D01*
X146031037Y-76032580D01*
X145863519Y-75806586D01*
X145655131Y-75617615D01*
X145469135Y-75506067D01*
X145479727Y-75501680D01*
X145714759Y-75344637D01*
X145914637Y-75144759D01*
X146071680Y-74909727D01*
X146179853Y-74648574D01*
X146235000Y-74371335D01*
X146235000Y-74088665D01*
X146179853Y-73811426D01*
X146071680Y-73550273D01*
X145914637Y-73315241D01*
X145714759Y-73115363D01*
X145482241Y-72960000D01*
X145714759Y-72804637D01*
X145914637Y-72604759D01*
X146019502Y-72447816D01*
X146108986Y-72439003D01*
X146252247Y-72395546D01*
X146384276Y-72324974D01*
X146500001Y-72230001D01*
X146523804Y-72200997D01*
X148361003Y-70363799D01*
X148390001Y-70340001D01*
X148484974Y-70224276D01*
X148555546Y-70092247D01*
X148599003Y-69948986D01*
X148610000Y-69837333D01*
X148610000Y-69837325D01*
X148613676Y-69800000D01*
X148610000Y-69762675D01*
X148610000Y-65153711D01*
X148653937Y-65109774D01*
X148767205Y-64940256D01*
X148844957Y-64752546D01*
X148854774Y-64801898D01*
X148932795Y-64990256D01*
X149046063Y-65159774D01*
X149090000Y-65203711D01*
X149090001Y-74162668D01*
X149086324Y-74200000D01*
X149090001Y-74237333D01*
X149100998Y-74348986D01*
X149110098Y-74378985D01*
X149144454Y-74492246D01*
X149215026Y-74624276D01*
X149286201Y-74711002D01*
X149310000Y-74740001D01*
X149338998Y-74763799D01*
X151021312Y-76446114D01*
X150985000Y-76628665D01*
X150985000Y-76911335D01*
X151040147Y-77188574D01*
X151148320Y-77449727D01*
X151305363Y-77684759D01*
X151505241Y-77884637D01*
X151740273Y-78041680D01*
X152001426Y-78149853D01*
X152278665Y-78205000D01*
X152561335Y-78205000D01*
X152838574Y-78149853D01*
X153099727Y-78041680D01*
X153334759Y-77884637D01*
X153534637Y-77684759D01*
X153691680Y-77449727D01*
X153799853Y-77188574D01*
X153855000Y-76911335D01*
X153855000Y-76628665D01*
X153799853Y-76351426D01*
X153691680Y-76090273D01*
X153534637Y-75855241D01*
X153334759Y-75655363D01*
X153102241Y-75500000D01*
X153334759Y-75344637D01*
X153534637Y-75144759D01*
X153691680Y-74909727D01*
X153799853Y-74648574D01*
X153855000Y-74371335D01*
X153855000Y-74088665D01*
X153799853Y-73811426D01*
X153691680Y-73550273D01*
X153534637Y-73315241D01*
X153334759Y-73115363D01*
X153102241Y-72960000D01*
X153334759Y-72804637D01*
X153534637Y-72604759D01*
X153691680Y-72369727D01*
X153799853Y-72108574D01*
X153855000Y-71831335D01*
X153855000Y-71548665D01*
X153799853Y-71271426D01*
X153691680Y-71010273D01*
X153534637Y-70775241D01*
X153334759Y-70575363D01*
X153102241Y-70420000D01*
X153334759Y-70264637D01*
X153534637Y-70064759D01*
X153691680Y-69829727D01*
X153799853Y-69568574D01*
X153855000Y-69291335D01*
X153855000Y-69008665D01*
X153799853Y-68731426D01*
X153691680Y-68470273D01*
X153534637Y-68235241D01*
X153334759Y-68035363D01*
X153099727Y-67878320D01*
X152838574Y-67770147D01*
X152561335Y-67715000D01*
X152278665Y-67715000D01*
X152001426Y-67770147D01*
X151740273Y-67878320D01*
X151505241Y-68035363D01*
X151305363Y-68235241D01*
X151210000Y-68377962D01*
X151210000Y-66214801D01*
X151889802Y-65535000D01*
X151951939Y-65535000D01*
X152151898Y-65495226D01*
X152340256Y-65417205D01*
X152509774Y-65303937D01*
X152653937Y-65159774D01*
X152767205Y-64990256D01*
X152845226Y-64801898D01*
X152885000Y-64601939D01*
X152885000Y-64398061D01*
X152845226Y-64198102D01*
X152767205Y-64009744D01*
X152653937Y-63840226D01*
X152509774Y-63696063D01*
X152340256Y-63582795D01*
X152151898Y-63504774D01*
X151951939Y-63465000D01*
X151748061Y-63465000D01*
X151548102Y-63504774D01*
X151359744Y-63582795D01*
X151190226Y-63696063D01*
X151046063Y-63840226D01*
X150932795Y-64009744D01*
X150854774Y-64198102D01*
X150850000Y-64222103D01*
X150845226Y-64198102D01*
X150767205Y-64009744D01*
X150653937Y-63840226D01*
X150509774Y-63696063D01*
X150340256Y-63582795D01*
X150151898Y-63504774D01*
X149951939Y-63465000D01*
X149748061Y-63465000D01*
X149548102Y-63504774D01*
X149359744Y-63582795D01*
X149190226Y-63696063D01*
X149046063Y-63840226D01*
X148932795Y-64009744D01*
X148855043Y-64197454D01*
X148845226Y-64148102D01*
X148767205Y-63959744D01*
X148653937Y-63790226D01*
X148509774Y-63646063D01*
X148340256Y-63532795D01*
X148151898Y-63454774D01*
X147951939Y-63415000D01*
X147748061Y-63415000D01*
X147548102Y-63454774D01*
X147359744Y-63532795D01*
X147190226Y-63646063D01*
X147046063Y-63790226D01*
X146932795Y-63959744D01*
X146875000Y-64099272D01*
X146817205Y-63959744D01*
X146703937Y-63790226D01*
X146559774Y-63646063D01*
X146390256Y-63532795D01*
X146201898Y-63454774D01*
X146001939Y-63415000D01*
X145798061Y-63415000D01*
X145598102Y-63454774D01*
X145409744Y-63532795D01*
X145240226Y-63646063D01*
X145096063Y-63790226D01*
X144982795Y-63959744D01*
X144904774Y-64148102D01*
X144865000Y-64348061D01*
X144865000Y-64551939D01*
X144904774Y-64751898D01*
X144982795Y-64940256D01*
X145096063Y-65109774D01*
X145140000Y-65153711D01*
X145140001Y-67711928D01*
X144000000Y-67711928D01*
X143875518Y-67724188D01*
X143755820Y-67760498D01*
X143645506Y-67819463D01*
X143548815Y-67898815D01*
X143469463Y-67995506D01*
X143410498Y-68105820D01*
X143374188Y-68225518D01*
X143361928Y-68350000D01*
X140861083Y-68350000D01*
X140751898Y-68304774D01*
X140551939Y-68265000D01*
X140348061Y-68265000D01*
X140148102Y-68304774D01*
X139959744Y-68382795D01*
X139790226Y-68496063D01*
X139646063Y-68640226D01*
X139532795Y-68809744D01*
X139454774Y-68998102D01*
X139415000Y-69198061D01*
X136785000Y-69198061D01*
X136785000Y-67088454D01*
X136817205Y-67040256D01*
X136895226Y-66851898D01*
X136935000Y-66651939D01*
X136935000Y-66448061D01*
X136895226Y-66248102D01*
X136817205Y-66059744D01*
X136785000Y-66011546D01*
X136785000Y-64766578D01*
X137955878Y-63595701D01*
X137962408Y-63597000D01*
X138237592Y-63597000D01*
X138507490Y-63543314D01*
X138761727Y-63438005D01*
X138990535Y-63285120D01*
X139100000Y-63175655D01*
X139209465Y-63285120D01*
X139438273Y-63438005D01*
X139692510Y-63543314D01*
X139962408Y-63597000D01*
X140237592Y-63597000D01*
X140507490Y-63543314D01*
X140761727Y-63438005D01*
X140990535Y-63285120D01*
X141164710Y-63110945D01*
X141284618Y-63335275D01*
X141451446Y-63538555D01*
X141654726Y-63705382D01*
X141886647Y-63829347D01*
X142138295Y-63905683D01*
X142400000Y-63931459D01*
X142661706Y-63905683D01*
X142913354Y-63829347D01*
X143145275Y-63705382D01*
X143348555Y-63538555D01*
X143515382Y-63335275D01*
X143639347Y-63103354D01*
X143715683Y-62851706D01*
X143735000Y-62655578D01*
X143735000Y-61724421D01*
X143715683Y-61528294D01*
X143639347Y-61276646D01*
X143515382Y-61044725D01*
X143348555Y-60841445D01*
X143145274Y-60674618D01*
X142913353Y-60550653D01*
X142661705Y-60474317D01*
X142400000Y-60448541D01*
X142138294Y-60474317D01*
X141886646Y-60550653D01*
X141654725Y-60674618D01*
X141451445Y-60841445D01*
X141284618Y-61044726D01*
X141160653Y-61276647D01*
X141158709Y-61283054D01*
X140990535Y-61114880D01*
X140761727Y-60961995D01*
X140507490Y-60856686D01*
X140237592Y-60803000D01*
X139962408Y-60803000D01*
X139692510Y-60856686D01*
X139438273Y-60961995D01*
X139209465Y-61114880D01*
X139100000Y-61224345D01*
X138990535Y-61114880D01*
X138985000Y-61111182D01*
X138985000Y-60416578D01*
X139145044Y-60256535D01*
X139201898Y-60245226D01*
X139390256Y-60167205D01*
X139559774Y-60053937D01*
X139703937Y-59909774D01*
X139817205Y-59740256D01*
X139895226Y-59551898D01*
X139935000Y-59351939D01*
X139935000Y-59148061D01*
X139895226Y-58948102D01*
X139817205Y-58759744D01*
X139703937Y-58590226D01*
X139559774Y-58446063D01*
X139390256Y-58332795D01*
X139201898Y-58254774D01*
X139001939Y-58215000D01*
X138798061Y-58215000D01*
X138598102Y-58254774D01*
X138409744Y-58332795D01*
X138240226Y-58446063D01*
X138096063Y-58590226D01*
X137982795Y-58759744D01*
X137904774Y-58948102D01*
X137893465Y-59004956D01*
X137504951Y-59393471D01*
X137471184Y-59421183D01*
X137443471Y-59454951D01*
X137443468Y-59454954D01*
X137360590Y-59555941D01*
X137278412Y-59709687D01*
X137227805Y-59876510D01*
X137210719Y-60050000D01*
X137215001Y-60093479D01*
X137215001Y-61111181D01*
X137209465Y-61114880D01*
X137100000Y-61224345D01*
X136990535Y-61114880D01*
X136761727Y-60961995D01*
X136507490Y-60856686D01*
X136237592Y-60803000D01*
X135962408Y-60803000D01*
X135692510Y-60856686D01*
X135438273Y-60961995D01*
X135209465Y-61114880D01*
X135038773Y-61285572D01*
X134915382Y-61054725D01*
X134748555Y-60851445D01*
X134545274Y-60684618D01*
X134313353Y-60560653D01*
X134061705Y-60484317D01*
X133800000Y-60458541D01*
X133538294Y-60484317D01*
X133286646Y-60560653D01*
X133054725Y-60684618D01*
X132851445Y-60851445D01*
X132684618Y-61054726D01*
X132560653Y-61286647D01*
X132484317Y-61538295D01*
X132465000Y-61734422D01*
X114985000Y-61734422D01*
X114985000Y-61548061D01*
X114945226Y-61348102D01*
X114867205Y-61159744D01*
X114753937Y-60990226D01*
X114609774Y-60846063D01*
X114440256Y-60732795D01*
X114251898Y-60654774D01*
X114051939Y-60615000D01*
X113848061Y-60615000D01*
X113648102Y-60654774D01*
X113459744Y-60732795D01*
X113290226Y-60846063D01*
X113146063Y-60990226D01*
X113032795Y-61159744D01*
X112954774Y-61348102D01*
X112915000Y-61548061D01*
X106930956Y-61548061D01*
X106262500Y-60879605D01*
X105502972Y-61639133D01*
X102760000Y-61639133D01*
X102760000Y-60850016D01*
X102847004Y-60886493D01*
X103085500Y-60935000D01*
X103435500Y-60935000D01*
X103435500Y-59827000D01*
X103689500Y-59827000D01*
X103689500Y-60935000D01*
X104039500Y-60935000D01*
X104277996Y-60886493D01*
X104502446Y-60792390D01*
X104704225Y-60656307D01*
X104875578Y-60483474D01*
X104938671Y-60388164D01*
X104909781Y-60505849D01*
X104897896Y-60773482D01*
X104938452Y-61038291D01*
X105029891Y-61290100D01*
X105087050Y-61397035D01*
X105323367Y-61459528D01*
X106082895Y-60700000D01*
X106442105Y-60700000D01*
X107201633Y-61459528D01*
X107437950Y-61397035D01*
X107551350Y-61154322D01*
X107615219Y-60894151D01*
X107627104Y-60626518D01*
X107586548Y-60361709D01*
X107495109Y-60109900D01*
X107437950Y-60002965D01*
X107201633Y-59940472D01*
X106442105Y-60700000D01*
X106082895Y-60700000D01*
X105323367Y-59940472D01*
X105095003Y-60000862D01*
X104981231Y-59827000D01*
X103689500Y-59827000D01*
X103435500Y-59827000D01*
X103415500Y-59827000D01*
X103415500Y-59760867D01*
X105502972Y-59760867D01*
X106262500Y-60520395D01*
X107022028Y-59760867D01*
X106959535Y-59524550D01*
X106716822Y-59411150D01*
X106456651Y-59347281D01*
X106189018Y-59335396D01*
X105924209Y-59375952D01*
X105672400Y-59467391D01*
X105565465Y-59524550D01*
X105502972Y-59760867D01*
X103415500Y-59760867D01*
X103415500Y-59573000D01*
X103435500Y-59573000D01*
X103435500Y-58465000D01*
X103689500Y-58465000D01*
X103689500Y-59573000D01*
X104981231Y-59573000D01*
X105105962Y-59382391D01*
X105102091Y-59344718D01*
X105009921Y-59119467D01*
X104875578Y-58916526D01*
X104704225Y-58743693D01*
X104502446Y-58607610D01*
X104277996Y-58513507D01*
X104039500Y-58465000D01*
X103689500Y-58465000D01*
X103435500Y-58465000D01*
X103085500Y-58465000D01*
X102847004Y-58513507D01*
X102760000Y-58549984D01*
X102760000Y-56460000D01*
X154440001Y-56460000D01*
X154440000Y-84640000D01*
%TA.AperFunction,Conductor*%
D22*
G36*
X154440000Y-84640000D02*
G01*
X102760000Y-84640000D01*
X102760000Y-67850016D01*
X102847004Y-67886493D01*
X103085500Y-67935000D01*
X103435500Y-67935000D01*
X103435500Y-66827000D01*
X103689500Y-66827000D01*
X103689500Y-67935000D01*
X104039500Y-67935000D01*
X104277996Y-67886493D01*
X104502446Y-67792390D01*
X104704225Y-67656307D01*
X104875578Y-67483474D01*
X105009921Y-67280533D01*
X105102091Y-67055282D01*
X105105962Y-67017609D01*
X104981231Y-66827000D01*
X103689500Y-66827000D01*
X103435500Y-66827000D01*
X103415500Y-66827000D01*
X103415500Y-66639133D01*
X105502972Y-66639133D01*
X105565465Y-66875450D01*
X105808178Y-66988850D01*
X106068349Y-67052719D01*
X106335982Y-67064604D01*
X106600791Y-67024048D01*
X106852600Y-66932609D01*
X106959535Y-66875450D01*
X107022028Y-66639133D01*
X106262500Y-65879605D01*
X105502972Y-66639133D01*
X103415500Y-66639133D01*
X103415500Y-66573000D01*
X103435500Y-66573000D01*
X103435500Y-65465000D01*
X103689500Y-65465000D01*
X103689500Y-66573000D01*
X104981231Y-66573000D01*
X105095003Y-66399138D01*
X105323367Y-66459528D01*
X106082895Y-65700000D01*
X106442105Y-65700000D01*
X107201633Y-66459528D01*
X107437950Y-66397035D01*
X107551350Y-66154322D01*
X107615219Y-65894151D01*
X107627104Y-65626518D01*
X107586548Y-65361709D01*
X107495109Y-65109900D01*
X107437950Y-65002965D01*
X107201633Y-64940472D01*
X106442105Y-65700000D01*
X106082895Y-65700000D01*
X105323367Y-64940472D01*
X105087050Y-65002965D01*
X104973650Y-65245678D01*
X104909781Y-65505849D01*
X104897896Y-65773482D01*
X104933115Y-66003442D01*
X104875578Y-65916526D01*
X104704225Y-65743693D01*
X104502446Y-65607610D01*
X104277996Y-65513507D01*
X104039500Y-65465000D01*
X103689500Y-65465000D01*
X103435500Y-65465000D01*
X103085500Y-65465000D01*
X102847004Y-65513507D01*
X102760000Y-65549984D01*
X102760000Y-64760867D01*
X105502972Y-64760867D01*
X106262500Y-65520395D01*
X107022028Y-64760867D01*
X106959535Y-64524550D01*
X106716822Y-64411150D01*
X106456651Y-64347281D01*
X106189018Y-64335396D01*
X105924209Y-64375952D01*
X105672400Y-64467391D01*
X105565465Y-64524550D01*
X105502972Y-64760867D01*
X102760000Y-64760867D01*
X102760000Y-61639133D01*
X105502972Y-61639133D01*
X105565465Y-61875450D01*
X105808178Y-61988850D01*
X106068349Y-62052719D01*
X106335982Y-62064604D01*
X106600791Y-62024048D01*
X106852600Y-61932609D01*
X106959535Y-61875450D01*
X107022028Y-61639133D01*
X106930956Y-61548061D01*
X112915000Y-61548061D01*
X112915000Y-61751939D01*
X112954774Y-61951898D01*
X113032795Y-62140256D01*
X113065001Y-62188456D01*
X113065000Y-65711545D01*
X113032795Y-65759744D01*
X112954774Y-65948102D01*
X112915000Y-66148061D01*
X112915000Y-66351939D01*
X112954774Y-66551898D01*
X113032795Y-66740256D01*
X113065000Y-66788455D01*
X113065001Y-69946514D01*
X113065000Y-69946524D01*
X113065000Y-69946531D01*
X113060719Y-69990000D01*
X113065000Y-70033469D01*
X113065001Y-71561545D01*
X113032795Y-71609744D01*
X112954774Y-71798102D01*
X112915000Y-71998061D01*
X112915000Y-72201939D01*
X112954774Y-72401898D01*
X113032795Y-72590256D01*
X113065000Y-72638455D01*
X113065001Y-75461544D01*
X113032795Y-75509744D01*
X112954774Y-75698102D01*
X112915000Y-75898061D01*
X112915000Y-76101939D01*
X112954774Y-76301898D01*
X113032795Y-76490256D01*
X113146063Y-76659774D01*
X113290226Y-76803937D01*
X113459744Y-76917205D01*
X113648102Y-76995226D01*
X113848061Y-77035000D01*
X114051939Y-77035000D01*
X114251898Y-76995226D01*
X114440256Y-76917205D01*
X114609774Y-76803937D01*
X114753937Y-76659774D01*
X114867205Y-76490256D01*
X114945226Y-76301898D01*
X114985000Y-76101939D01*
X114985000Y-75898061D01*
X114945226Y-75698102D01*
X114924499Y-75648061D01*
X119115000Y-75648061D01*
X119115000Y-75851939D01*
X119154774Y-76051898D01*
X119232795Y-76240256D01*
X119346063Y-76409774D01*
X119390001Y-76453712D01*
X119390000Y-78696289D01*
X119346063Y-78740226D01*
X119232795Y-78909744D01*
X119154774Y-79098102D01*
X119115000Y-79298061D01*
X119115000Y-79501939D01*
X119154774Y-79701898D01*
X119232795Y-79890256D01*
X119346063Y-80059774D01*
X119490226Y-80203937D01*
X119659744Y-80317205D01*
X119846679Y-80394636D01*
X119674201Y-80567114D01*
X119522629Y-80793957D01*
X119418225Y-81046011D01*
X119365000Y-81313589D01*
X119365000Y-81586411D01*
X119418225Y-81853989D01*
X119522629Y-82106043D01*
X119674201Y-82332886D01*
X119867114Y-82525799D01*
X120093957Y-82677371D01*
X120346011Y-82781775D01*
X120613589Y-82835000D01*
X120886411Y-82835000D01*
X121153989Y-82781775D01*
X121406043Y-82677371D01*
X121632886Y-82525799D01*
X121825799Y-82332886D01*
X121977371Y-82106043D01*
X122081775Y-81853989D01*
X122135000Y-81586411D01*
X122135000Y-81313589D01*
X124245000Y-81313589D01*
X124245000Y-81586411D01*
X124298225Y-81853989D01*
X124402629Y-82106043D01*
X124554201Y-82332886D01*
X124747114Y-82525799D01*
X124973957Y-82677371D01*
X125226011Y-82781775D01*
X125493589Y-82835000D01*
X125766411Y-82835000D01*
X126033989Y-82781775D01*
X126286043Y-82677371D01*
X126512886Y-82525799D01*
X126705799Y-82332886D01*
X126857371Y-82106043D01*
X126961775Y-81853989D01*
X127015000Y-81586411D01*
X127015000Y-81313589D01*
X126961775Y-81046011D01*
X126857371Y-80793957D01*
X126705799Y-80567114D01*
X126551198Y-80412513D01*
X126653937Y-80309774D01*
X126767205Y-80140256D01*
X126845226Y-79951898D01*
X126885000Y-79751939D01*
X126885000Y-79548061D01*
X126845226Y-79348102D01*
X126767205Y-79159744D01*
X126653937Y-78990226D01*
X126610000Y-78946289D01*
X126610000Y-76453711D01*
X126653937Y-76409774D01*
X126767205Y-76240256D01*
X126845226Y-76051898D01*
X126885000Y-75851939D01*
X126885000Y-75648061D01*
X126845226Y-75448102D01*
X126767205Y-75259744D01*
X126653937Y-75090226D01*
X126509774Y-74946063D01*
X126340256Y-74832795D01*
X126151898Y-74754774D01*
X125951939Y-74715000D01*
X125748061Y-74715000D01*
X125548102Y-74754774D01*
X125359744Y-74832795D01*
X125190226Y-74946063D01*
X125046063Y-75090226D01*
X124932795Y-75259744D01*
X124854774Y-75448102D01*
X124815000Y-75648061D01*
X124815000Y-75851939D01*
X124854774Y-76051898D01*
X124932795Y-76240256D01*
X125046063Y-76409774D01*
X125090000Y-76453711D01*
X125090001Y-78946288D01*
X125046063Y-78990226D01*
X124932795Y-79159744D01*
X124854774Y-79348102D01*
X124815000Y-79548061D01*
X124815000Y-79751939D01*
X124854774Y-79951898D01*
X124932795Y-80140256D01*
X124984826Y-80218127D01*
X124973957Y-80222629D01*
X124747114Y-80374201D01*
X124554201Y-80567114D01*
X124402629Y-80793957D01*
X124298225Y-81046011D01*
X124245000Y-81313589D01*
X122135000Y-81313589D01*
X122081775Y-81046011D01*
X121977371Y-80793957D01*
X121825799Y-80567114D01*
X121632886Y-80374201D01*
X121406043Y-80222629D01*
X121153989Y-80118225D01*
X120938375Y-80075336D01*
X120953937Y-80059774D01*
X121067205Y-79890256D01*
X121145226Y-79701898D01*
X121185000Y-79501939D01*
X121185000Y-79298061D01*
X121145226Y-79098102D01*
X121067205Y-78909744D01*
X120953937Y-78740226D01*
X120910000Y-78696289D01*
X120910000Y-76453711D01*
X120953937Y-76409774D01*
X121067205Y-76240256D01*
X121145226Y-76051898D01*
X121185000Y-75851939D01*
X121185000Y-75648061D01*
X121145226Y-75448102D01*
X121067205Y-75259744D01*
X120953937Y-75090226D01*
X120809774Y-74946063D01*
X120640256Y-74832795D01*
X120451898Y-74754774D01*
X120251939Y-74715000D01*
X120048061Y-74715000D01*
X119848102Y-74754774D01*
X119659744Y-74832795D01*
X119490226Y-74946063D01*
X119346063Y-75090226D01*
X119232795Y-75259744D01*
X119154774Y-75448102D01*
X119115000Y-75648061D01*
X114924499Y-75648061D01*
X114867205Y-75509744D01*
X114835000Y-75461546D01*
X114835000Y-72638454D01*
X114867205Y-72590256D01*
X114945226Y-72401898D01*
X114985000Y-72201939D01*
X114985000Y-71998061D01*
X114945226Y-71798102D01*
X114867205Y-71609744D01*
X114835000Y-71561546D01*
X114835000Y-70885000D01*
X118681550Y-70885000D01*
X118862376Y-71005824D01*
X119068933Y-71091383D01*
X119288212Y-71135000D01*
X119511788Y-71135000D01*
X119731067Y-71091383D01*
X119937624Y-71005824D01*
X120123520Y-70881612D01*
X120226966Y-70778166D01*
X121341439Y-70778166D01*
X121376550Y-70991588D01*
X121580826Y-71082458D01*
X121798905Y-71131731D01*
X122022406Y-71137511D01*
X122242740Y-71099577D01*
X122451440Y-71019387D01*
X122503450Y-70991588D01*
X122538561Y-70778166D01*
X121940000Y-70179605D01*
X121341439Y-70778166D01*
X120226966Y-70778166D01*
X120281612Y-70723520D01*
X120405824Y-70537624D01*
X120491383Y-70331067D01*
X120535000Y-70111788D01*
X120535000Y-70082406D01*
X120802489Y-70082406D01*
X120840423Y-70302740D01*
X120920613Y-70511440D01*
X120948412Y-70563450D01*
X121161834Y-70598561D01*
X121760395Y-70000000D01*
X121161834Y-69401439D01*
X120948412Y-69436550D01*
X120857542Y-69640826D01*
X120808269Y-69858905D01*
X120802489Y-70082406D01*
X120535000Y-70082406D01*
X120535000Y-69888212D01*
X120491383Y-69668933D01*
X120405824Y-69462376D01*
X120281612Y-69276480D01*
X120226966Y-69221834D01*
X121341439Y-69221834D01*
X121940000Y-69820395D01*
X121954143Y-69806253D01*
X122133748Y-69985858D01*
X122119605Y-70000000D01*
X122718166Y-70598561D01*
X122931588Y-70563450D01*
X123022458Y-70359174D01*
X123071731Y-70141095D01*
X123077511Y-69917594D01*
X123039577Y-69697260D01*
X122980816Y-69544331D01*
X123149744Y-69657205D01*
X123338102Y-69735226D01*
X123374010Y-69742368D01*
X123345000Y-69888212D01*
X123345000Y-70111788D01*
X123388617Y-70331067D01*
X123474176Y-70537624D01*
X123598388Y-70723520D01*
X123756480Y-70881612D01*
X123942376Y-71005824D01*
X124148933Y-71091383D01*
X124368212Y-71135000D01*
X124591788Y-71135000D01*
X124811067Y-71091383D01*
X125017624Y-71005824D01*
X125203520Y-70881612D01*
X125361612Y-70723520D01*
X125485824Y-70537624D01*
X125571383Y-70331067D01*
X125615000Y-70111788D01*
X125615000Y-69888212D01*
X125571383Y-69668933D01*
X125528951Y-69566494D01*
X125649744Y-69647205D01*
X125838102Y-69725226D01*
X125914401Y-69740403D01*
X125885000Y-69888212D01*
X125885000Y-70111788D01*
X125928617Y-70331067D01*
X126014176Y-70537624D01*
X126138388Y-70723520D01*
X126296480Y-70881612D01*
X126482376Y-71005824D01*
X126688933Y-71091383D01*
X126908212Y-71135000D01*
X127131788Y-71135000D01*
X127351067Y-71091383D01*
X127557624Y-71005824D01*
X127743520Y-70881612D01*
X127901612Y-70723520D01*
X128025824Y-70537624D01*
X128111383Y-70331067D01*
X128155000Y-70111788D01*
X128155000Y-69888212D01*
X128111383Y-69668933D01*
X128025824Y-69462376D01*
X127901612Y-69276480D01*
X127743520Y-69118388D01*
X127728827Y-69108571D01*
X127725546Y-69097753D01*
X127700554Y-69050997D01*
X127654974Y-68965723D01*
X127583799Y-68878997D01*
X127560001Y-68849999D01*
X127531004Y-68826202D01*
X127135803Y-68431001D01*
X127135226Y-68428102D01*
X127057205Y-68239744D01*
X126943937Y-68070226D01*
X126799774Y-67926063D01*
X126630256Y-67812795D01*
X126441898Y-67734774D01*
X126241939Y-67695000D01*
X126038061Y-67695000D01*
X125838102Y-67734774D01*
X125649744Y-67812795D01*
X125480226Y-67926063D01*
X125336063Y-68070226D01*
X125222795Y-68239744D01*
X125144774Y-68428102D01*
X125105000Y-68628061D01*
X125105000Y-68813570D01*
X125080031Y-68783146D01*
X125020001Y-68709999D01*
X124990998Y-68686197D01*
X124559086Y-68254285D01*
X124557205Y-68249744D01*
X124443937Y-68080226D01*
X124299774Y-67936063D01*
X124130256Y-67822795D01*
X123941898Y-67744774D01*
X123741939Y-67705000D01*
X123538061Y-67705000D01*
X123338102Y-67744774D01*
X123149744Y-67822795D01*
X122980226Y-67936063D01*
X122836063Y-68080226D01*
X122722795Y-68249744D01*
X122644774Y-68438102D01*
X122605000Y-68638061D01*
X122605000Y-68841939D01*
X122644774Y-69041898D01*
X122680728Y-69128698D01*
X122656211Y-69104181D01*
X122538561Y-69221831D01*
X122503450Y-69008412D01*
X122299174Y-68917542D01*
X122081095Y-68868269D01*
X121857594Y-68862489D01*
X121637260Y-68900423D01*
X121428560Y-68980613D01*
X121376550Y-69008412D01*
X121341439Y-69221834D01*
X120226966Y-69221834D01*
X120123520Y-69118388D01*
X119937624Y-68994176D01*
X119731067Y-68908617D01*
X119511788Y-68865000D01*
X119288212Y-68865000D01*
X119068933Y-68908617D01*
X118862376Y-68994176D01*
X118681550Y-69115000D01*
X114835000Y-69115000D01*
X114835000Y-66788454D01*
X114867205Y-66740256D01*
X114945226Y-66551898D01*
X114985000Y-66351939D01*
X114985000Y-66148061D01*
X114945226Y-65948102D01*
X114867205Y-65759744D01*
X114835000Y-65711546D01*
X114835000Y-62188454D01*
X114867205Y-62140256D01*
X114945226Y-61951898D01*
X114985000Y-61751939D01*
X114985000Y-61734422D01*
X132465000Y-61734422D01*
X132465000Y-62665579D01*
X132484317Y-62861706D01*
X132560653Y-63113354D01*
X132684618Y-63345275D01*
X132851446Y-63548555D01*
X133054726Y-63715382D01*
X133286647Y-63839347D01*
X133538295Y-63915683D01*
X133667766Y-63928435D01*
X133665000Y-63956524D01*
X133665000Y-63956531D01*
X133660719Y-64000000D01*
X133665000Y-64043469D01*
X133665001Y-71811544D01*
X133632795Y-71859744D01*
X133554774Y-72048102D01*
X133515000Y-72248061D01*
X133515000Y-72451939D01*
X133554774Y-72651898D01*
X133632795Y-72840256D01*
X133746063Y-73009774D01*
X133890226Y-73153937D01*
X134059744Y-73267205D01*
X134248102Y-73345226D01*
X134448061Y-73385000D01*
X134651939Y-73385000D01*
X134851898Y-73345226D01*
X135015001Y-73277666D01*
X135015001Y-75211546D01*
X134982795Y-75259746D01*
X134904774Y-75448104D01*
X134865000Y-75648063D01*
X134865000Y-75851941D01*
X134904774Y-76051900D01*
X134982795Y-76240258D01*
X135096063Y-76409776D01*
X135240226Y-76553939D01*
X135409744Y-76667207D01*
X135598102Y-76745228D01*
X135798061Y-76785002D01*
X136001939Y-76785002D01*
X136201898Y-76745228D01*
X136390256Y-76667207D01*
X136559774Y-76553939D01*
X136703937Y-76409776D01*
X136817205Y-76240258D01*
X136895226Y-76051900D01*
X136935000Y-75851941D01*
X136935000Y-75648063D01*
X136895226Y-75448104D01*
X136817205Y-75259746D01*
X136785000Y-75211548D01*
X136785000Y-69198061D01*
X139415000Y-69198061D01*
X139415000Y-69401939D01*
X139454774Y-69601898D01*
X139532795Y-69790256D01*
X139646063Y-69959774D01*
X139690001Y-70003712D01*
X139690000Y-73296289D01*
X139646063Y-73340226D01*
X139532795Y-73509744D01*
X139454774Y-73698102D01*
X139415000Y-73898061D01*
X139415000Y-74101939D01*
X139454774Y-74301898D01*
X139532795Y-74490256D01*
X139646063Y-74659774D01*
X139790226Y-74803937D01*
X139959744Y-74917205D01*
X140148102Y-74995226D01*
X140348061Y-75035000D01*
X140551939Y-75035000D01*
X140640001Y-75017484D01*
X140640001Y-75946288D01*
X140596063Y-75990226D01*
X140482795Y-76159744D01*
X140404774Y-76348102D01*
X140365000Y-76548061D01*
X140365000Y-76751939D01*
X140404774Y-76951898D01*
X140482795Y-77140256D01*
X140596063Y-77309774D01*
X140740226Y-77453937D01*
X140909744Y-77567205D01*
X141098102Y-77645226D01*
X141298061Y-77685000D01*
X141501939Y-77685000D01*
X141701898Y-77645226D01*
X141890256Y-77567205D01*
X142059774Y-77453937D01*
X142203937Y-77309774D01*
X142317205Y-77140256D01*
X142325993Y-77119039D01*
X143408096Y-77119039D01*
X143448754Y-77253087D01*
X143568963Y-77507420D01*
X143736481Y-77733414D01*
X143944869Y-77922385D01*
X144186119Y-78067070D01*
X144450960Y-78161909D01*
X144673000Y-78040624D01*
X144673000Y-76897000D01*
X144927000Y-76897000D01*
X144927000Y-78040624D01*
X145149040Y-78161909D01*
X145413881Y-78067070D01*
X145655131Y-77922385D01*
X145863519Y-77733414D01*
X146031037Y-77507420D01*
X146151246Y-77253087D01*
X146191904Y-77119039D01*
X146069915Y-76897000D01*
X144927000Y-76897000D01*
X144673000Y-76897000D01*
X143530085Y-76897000D01*
X143408096Y-77119039D01*
X142325993Y-77119039D01*
X142395226Y-76951898D01*
X142435000Y-76751939D01*
X142435000Y-76548061D01*
X142395226Y-76348102D01*
X142317205Y-76159744D01*
X142203937Y-75990226D01*
X142160000Y-75946289D01*
X142160000Y-71403711D01*
X142203937Y-71359774D01*
X142317205Y-71190256D01*
X142395226Y-71001898D01*
X142435000Y-70801939D01*
X142435000Y-70598061D01*
X142395226Y-70398102D01*
X142317205Y-70209744D01*
X142203937Y-70040226D01*
X142059774Y-69896063D01*
X141890256Y-69782795D01*
X141701898Y-69704774D01*
X141501939Y-69665000D01*
X141419088Y-69665000D01*
X141445226Y-69601898D01*
X141485000Y-69401939D01*
X141485000Y-69198061D01*
X141445226Y-68998102D01*
X141367205Y-68809744D01*
X141253937Y-68640226D01*
X141109774Y-68496063D01*
X140940256Y-68382795D01*
X140861083Y-68350000D01*
X143361928Y-68350000D01*
X143361928Y-69950000D01*
X143374188Y-70074482D01*
X143410498Y-70194180D01*
X143469463Y-70304494D01*
X143548815Y-70401185D01*
X143645506Y-70480537D01*
X143755820Y-70539502D01*
X143875518Y-70575812D01*
X143883961Y-70576643D01*
X143685363Y-70775241D01*
X143528320Y-71010273D01*
X143420147Y-71271426D01*
X143365000Y-71548665D01*
X143365000Y-71831335D01*
X143420147Y-72108574D01*
X143528320Y-72369727D01*
X143685363Y-72604759D01*
X143885241Y-72804637D01*
X144117759Y-72960000D01*
X143885241Y-73115363D01*
X143685363Y-73315241D01*
X143528320Y-73550273D01*
X143420147Y-73811426D01*
X143365000Y-74088665D01*
X143365000Y-74371335D01*
X143420147Y-74648574D01*
X143528320Y-74909727D01*
X143685363Y-75144759D01*
X143885241Y-75344637D01*
X144120273Y-75501680D01*
X144130865Y-75506067D01*
X143944869Y-75617615D01*
X143736481Y-75806586D01*
X143568963Y-76032580D01*
X143448754Y-76286913D01*
X143408096Y-76420961D01*
X143530085Y-76643000D01*
X144673000Y-76643000D01*
X144673000Y-76623000D01*
X144927000Y-76623000D01*
X144927000Y-76643000D01*
X146069915Y-76643000D01*
X146191904Y-76420961D01*
X146151246Y-76286913D01*
X146031037Y-76032580D01*
X145863519Y-75806586D01*
X145655131Y-75617615D01*
X145469135Y-75506067D01*
X145479727Y-75501680D01*
X145714759Y-75344637D01*
X145914637Y-75144759D01*
X146071680Y-74909727D01*
X146179853Y-74648574D01*
X146235000Y-74371335D01*
X146235000Y-74088665D01*
X146179853Y-73811426D01*
X146071680Y-73550273D01*
X145914637Y-73315241D01*
X145714759Y-73115363D01*
X145482241Y-72960000D01*
X145714759Y-72804637D01*
X145914637Y-72604759D01*
X146019502Y-72447816D01*
X146108986Y-72439003D01*
X146252247Y-72395546D01*
X146384276Y-72324974D01*
X146500001Y-72230001D01*
X146523804Y-72200997D01*
X148361003Y-70363799D01*
X148390001Y-70340001D01*
X148484974Y-70224276D01*
X148555546Y-70092247D01*
X148599003Y-69948986D01*
X148610000Y-69837333D01*
X148610000Y-69837325D01*
X148613676Y-69800000D01*
X148610000Y-69762675D01*
X148610000Y-65153711D01*
X148653937Y-65109774D01*
X148767205Y-64940256D01*
X148844957Y-64752546D01*
X148854774Y-64801898D01*
X148932795Y-64990256D01*
X149046063Y-65159774D01*
X149090000Y-65203711D01*
X149090001Y-74162668D01*
X149086324Y-74200000D01*
X149090001Y-74237333D01*
X149100998Y-74348986D01*
X149110098Y-74378985D01*
X149144454Y-74492246D01*
X149215026Y-74624276D01*
X149286201Y-74711002D01*
X149310000Y-74740001D01*
X149338998Y-74763799D01*
X151021312Y-76446114D01*
X150985000Y-76628665D01*
X150985000Y-76911335D01*
X151040147Y-77188574D01*
X151148320Y-77449727D01*
X151305363Y-77684759D01*
X151505241Y-77884637D01*
X151740273Y-78041680D01*
X152001426Y-78149853D01*
X152278665Y-78205000D01*
X152561335Y-78205000D01*
X152838574Y-78149853D01*
X153099727Y-78041680D01*
X153334759Y-77884637D01*
X153534637Y-77684759D01*
X153691680Y-77449727D01*
X153799853Y-77188574D01*
X153855000Y-76911335D01*
X153855000Y-76628665D01*
X153799853Y-76351426D01*
X153691680Y-76090273D01*
X153534637Y-75855241D01*
X153334759Y-75655363D01*
X153102241Y-75500000D01*
X153334759Y-75344637D01*
X153534637Y-75144759D01*
X153691680Y-74909727D01*
X153799853Y-74648574D01*
X153855000Y-74371335D01*
X153855000Y-74088665D01*
X153799853Y-73811426D01*
X153691680Y-73550273D01*
X153534637Y-73315241D01*
X153334759Y-73115363D01*
X153102241Y-72960000D01*
X153334759Y-72804637D01*
X153534637Y-72604759D01*
X153691680Y-72369727D01*
X153799853Y-72108574D01*
X153855000Y-71831335D01*
X153855000Y-71548665D01*
X153799853Y-71271426D01*
X153691680Y-71010273D01*
X153534637Y-70775241D01*
X153334759Y-70575363D01*
X153102241Y-70420000D01*
X153334759Y-70264637D01*
X153534637Y-70064759D01*
X153691680Y-69829727D01*
X153799853Y-69568574D01*
X153855000Y-69291335D01*
X153855000Y-69008665D01*
X153799853Y-68731426D01*
X153691680Y-68470273D01*
X153534637Y-68235241D01*
X153334759Y-68035363D01*
X153099727Y-67878320D01*
X152838574Y-67770147D01*
X152561335Y-67715000D01*
X152278665Y-67715000D01*
X152001426Y-67770147D01*
X151740273Y-67878320D01*
X151505241Y-68035363D01*
X151305363Y-68235241D01*
X151210000Y-68377962D01*
X151210000Y-66214801D01*
X151889802Y-65535000D01*
X151951939Y-65535000D01*
X152151898Y-65495226D01*
X152340256Y-65417205D01*
X152509774Y-65303937D01*
X152653937Y-65159774D01*
X152767205Y-64990256D01*
X152845226Y-64801898D01*
X152885000Y-64601939D01*
X152885000Y-64398061D01*
X152845226Y-64198102D01*
X152767205Y-64009744D01*
X152653937Y-63840226D01*
X152509774Y-63696063D01*
X152340256Y-63582795D01*
X152151898Y-63504774D01*
X151951939Y-63465000D01*
X151748061Y-63465000D01*
X151548102Y-63504774D01*
X151359744Y-63582795D01*
X151190226Y-63696063D01*
X151046063Y-63840226D01*
X150932795Y-64009744D01*
X150854774Y-64198102D01*
X150850000Y-64222103D01*
X150845226Y-64198102D01*
X150767205Y-64009744D01*
X150653937Y-63840226D01*
X150509774Y-63696063D01*
X150340256Y-63582795D01*
X150151898Y-63504774D01*
X149951939Y-63465000D01*
X149748061Y-63465000D01*
X149548102Y-63504774D01*
X149359744Y-63582795D01*
X149190226Y-63696063D01*
X149046063Y-63840226D01*
X148932795Y-64009744D01*
X148855043Y-64197454D01*
X148845226Y-64148102D01*
X148767205Y-63959744D01*
X148653937Y-63790226D01*
X148509774Y-63646063D01*
X148340256Y-63532795D01*
X148151898Y-63454774D01*
X147951939Y-63415000D01*
X147748061Y-63415000D01*
X147548102Y-63454774D01*
X147359744Y-63532795D01*
X147190226Y-63646063D01*
X147046063Y-63790226D01*
X146932795Y-63959744D01*
X146875000Y-64099272D01*
X146817205Y-63959744D01*
X146703937Y-63790226D01*
X146559774Y-63646063D01*
X146390256Y-63532795D01*
X146201898Y-63454774D01*
X146001939Y-63415000D01*
X145798061Y-63415000D01*
X145598102Y-63454774D01*
X145409744Y-63532795D01*
X145240226Y-63646063D01*
X145096063Y-63790226D01*
X144982795Y-63959744D01*
X144904774Y-64148102D01*
X144865000Y-64348061D01*
X144865000Y-64551939D01*
X144904774Y-64751898D01*
X144982795Y-64940256D01*
X145096063Y-65109774D01*
X145140000Y-65153711D01*
X145140001Y-67711928D01*
X144000000Y-67711928D01*
X143875518Y-67724188D01*
X143755820Y-67760498D01*
X143645506Y-67819463D01*
X143548815Y-67898815D01*
X143469463Y-67995506D01*
X143410498Y-68105820D01*
X143374188Y-68225518D01*
X143361928Y-68350000D01*
X140861083Y-68350000D01*
X140751898Y-68304774D01*
X140551939Y-68265000D01*
X140348061Y-68265000D01*
X140148102Y-68304774D01*
X139959744Y-68382795D01*
X139790226Y-68496063D01*
X139646063Y-68640226D01*
X139532795Y-68809744D01*
X139454774Y-68998102D01*
X139415000Y-69198061D01*
X136785000Y-69198061D01*
X136785000Y-67088454D01*
X136817205Y-67040256D01*
X136895226Y-66851898D01*
X136935000Y-66651939D01*
X136935000Y-66448061D01*
X136895226Y-66248102D01*
X136817205Y-66059744D01*
X136785000Y-66011546D01*
X136785000Y-64766578D01*
X137955878Y-63595701D01*
X137962408Y-63597000D01*
X138237592Y-63597000D01*
X138507490Y-63543314D01*
X138761727Y-63438005D01*
X138990535Y-63285120D01*
X139100000Y-63175655D01*
X139209465Y-63285120D01*
X139438273Y-63438005D01*
X139692510Y-63543314D01*
X139962408Y-63597000D01*
X140237592Y-63597000D01*
X140507490Y-63543314D01*
X140761727Y-63438005D01*
X140990535Y-63285120D01*
X141164710Y-63110945D01*
X141284618Y-63335275D01*
X141451446Y-63538555D01*
X141654726Y-63705382D01*
X141886647Y-63829347D01*
X142138295Y-63905683D01*
X142400000Y-63931459D01*
X142661706Y-63905683D01*
X142913354Y-63829347D01*
X143145275Y-63705382D01*
X143348555Y-63538555D01*
X143515382Y-63335275D01*
X143639347Y-63103354D01*
X143715683Y-62851706D01*
X143735000Y-62655578D01*
X143735000Y-61724421D01*
X143715683Y-61528294D01*
X143639347Y-61276646D01*
X143515382Y-61044725D01*
X143348555Y-60841445D01*
X143145274Y-60674618D01*
X142913353Y-60550653D01*
X142661705Y-60474317D01*
X142400000Y-60448541D01*
X142138294Y-60474317D01*
X141886646Y-60550653D01*
X141654725Y-60674618D01*
X141451445Y-60841445D01*
X141284618Y-61044726D01*
X141160653Y-61276647D01*
X141158709Y-61283054D01*
X140990535Y-61114880D01*
X140761727Y-60961995D01*
X140507490Y-60856686D01*
X140237592Y-60803000D01*
X139962408Y-60803000D01*
X139692510Y-60856686D01*
X139438273Y-60961995D01*
X139209465Y-61114880D01*
X139100000Y-61224345D01*
X138990535Y-61114880D01*
X138985000Y-61111182D01*
X138985000Y-60416578D01*
X139145044Y-60256535D01*
X139201898Y-60245226D01*
X139390256Y-60167205D01*
X139559774Y-60053937D01*
X139703937Y-59909774D01*
X139817205Y-59740256D01*
X139895226Y-59551898D01*
X139935000Y-59351939D01*
X139935000Y-59148061D01*
X139895226Y-58948102D01*
X139817205Y-58759744D01*
X139703937Y-58590226D01*
X139559774Y-58446063D01*
X139390256Y-58332795D01*
X139201898Y-58254774D01*
X139001939Y-58215000D01*
X138798061Y-58215000D01*
X138598102Y-58254774D01*
X138409744Y-58332795D01*
X138240226Y-58446063D01*
X138096063Y-58590226D01*
X137982795Y-58759744D01*
X137904774Y-58948102D01*
X137893465Y-59004956D01*
X137504951Y-59393471D01*
X137471184Y-59421183D01*
X137443471Y-59454951D01*
X137443468Y-59454954D01*
X137360590Y-59555941D01*
X137278412Y-59709687D01*
X137227805Y-59876510D01*
X137210719Y-60050000D01*
X137215001Y-60093479D01*
X137215001Y-61111181D01*
X137209465Y-61114880D01*
X137100000Y-61224345D01*
X136990535Y-61114880D01*
X136761727Y-60961995D01*
X136507490Y-60856686D01*
X136237592Y-60803000D01*
X135962408Y-60803000D01*
X135692510Y-60856686D01*
X135438273Y-60961995D01*
X135209465Y-61114880D01*
X135038773Y-61285572D01*
X134915382Y-61054725D01*
X134748555Y-60851445D01*
X134545274Y-60684618D01*
X134313353Y-60560653D01*
X134061705Y-60484317D01*
X133800000Y-60458541D01*
X133538294Y-60484317D01*
X133286646Y-60560653D01*
X133054725Y-60684618D01*
X132851445Y-60851445D01*
X132684618Y-61054726D01*
X132560653Y-61286647D01*
X132484317Y-61538295D01*
X132465000Y-61734422D01*
X114985000Y-61734422D01*
X114985000Y-61548061D01*
X114945226Y-61348102D01*
X114867205Y-61159744D01*
X114753937Y-60990226D01*
X114609774Y-60846063D01*
X114440256Y-60732795D01*
X114251898Y-60654774D01*
X114051939Y-60615000D01*
X113848061Y-60615000D01*
X113648102Y-60654774D01*
X113459744Y-60732795D01*
X113290226Y-60846063D01*
X113146063Y-60990226D01*
X113032795Y-61159744D01*
X112954774Y-61348102D01*
X112915000Y-61548061D01*
X106930956Y-61548061D01*
X106262500Y-60879605D01*
X105502972Y-61639133D01*
X102760000Y-61639133D01*
X102760000Y-60850016D01*
X102847004Y-60886493D01*
X103085500Y-60935000D01*
X103435500Y-60935000D01*
X103435500Y-59827000D01*
X103689500Y-59827000D01*
X103689500Y-60935000D01*
X104039500Y-60935000D01*
X104277996Y-60886493D01*
X104502446Y-60792390D01*
X104704225Y-60656307D01*
X104875578Y-60483474D01*
X104938671Y-60388164D01*
X104909781Y-60505849D01*
X104897896Y-60773482D01*
X104938452Y-61038291D01*
X105029891Y-61290100D01*
X105087050Y-61397035D01*
X105323367Y-61459528D01*
X106082895Y-60700000D01*
X106442105Y-60700000D01*
X107201633Y-61459528D01*
X107437950Y-61397035D01*
X107551350Y-61154322D01*
X107615219Y-60894151D01*
X107627104Y-60626518D01*
X107586548Y-60361709D01*
X107495109Y-60109900D01*
X107437950Y-60002965D01*
X107201633Y-59940472D01*
X106442105Y-60700000D01*
X106082895Y-60700000D01*
X105323367Y-59940472D01*
X105095003Y-60000862D01*
X104981231Y-59827000D01*
X103689500Y-59827000D01*
X103435500Y-59827000D01*
X103415500Y-59827000D01*
X103415500Y-59760867D01*
X105502972Y-59760867D01*
X106262500Y-60520395D01*
X107022028Y-59760867D01*
X106959535Y-59524550D01*
X106716822Y-59411150D01*
X106456651Y-59347281D01*
X106189018Y-59335396D01*
X105924209Y-59375952D01*
X105672400Y-59467391D01*
X105565465Y-59524550D01*
X105502972Y-59760867D01*
X103415500Y-59760867D01*
X103415500Y-59573000D01*
X103435500Y-59573000D01*
X103435500Y-58465000D01*
X103689500Y-58465000D01*
X103689500Y-59573000D01*
X104981231Y-59573000D01*
X105105962Y-59382391D01*
X105102091Y-59344718D01*
X105009921Y-59119467D01*
X104875578Y-58916526D01*
X104704225Y-58743693D01*
X104502446Y-58607610D01*
X104277996Y-58513507D01*
X104039500Y-58465000D01*
X103689500Y-58465000D01*
X103435500Y-58465000D01*
X103085500Y-58465000D01*
X102847004Y-58513507D01*
X102760000Y-58549984D01*
X102760000Y-56460000D01*
X154440001Y-56460000D01*
X154440000Y-84640000D01*
G37*
%TD.AperFunction*%
D21*
X146932795Y-64940256D02*
X147046063Y-65109774D01*
X147090000Y-65153711D01*
X147090001Y-69485197D01*
X145857297Y-70717901D01*
X145716039Y-70576643D01*
X145724482Y-70575812D01*
X145844180Y-70539502D01*
X145954494Y-70480537D01*
X146051185Y-70401185D01*
X146130537Y-70304494D01*
X146189502Y-70194180D01*
X146225812Y-70074482D01*
X146238072Y-69950000D01*
X146238072Y-68786730D01*
X146411003Y-68613799D01*
X146440001Y-68590001D01*
X146472011Y-68550997D01*
X146534974Y-68474277D01*
X146605546Y-68342247D01*
X146649003Y-68198986D01*
X146660000Y-68087333D01*
X146660000Y-68087323D01*
X146663676Y-68050000D01*
X146660000Y-68012677D01*
X146660000Y-65153711D01*
X146703937Y-65109774D01*
X146817205Y-64940256D01*
X146875000Y-64800728D01*
X146932795Y-64940256D01*
%TA.AperFunction,Conductor*%
D22*
G36*
X146932795Y-64940256D02*
G01*
X147046063Y-65109774D01*
X147090000Y-65153711D01*
X147090001Y-69485197D01*
X145857297Y-70717901D01*
X145716039Y-70576643D01*
X145724482Y-70575812D01*
X145844180Y-70539502D01*
X145954494Y-70480537D01*
X146051185Y-70401185D01*
X146130537Y-70304494D01*
X146189502Y-70194180D01*
X146225812Y-70074482D01*
X146238072Y-69950000D01*
X146238072Y-68786730D01*
X146411003Y-68613799D01*
X146440001Y-68590001D01*
X146472011Y-68550997D01*
X146534974Y-68474277D01*
X146605546Y-68342247D01*
X146649003Y-68198986D01*
X146660000Y-68087333D01*
X146660000Y-68087323D01*
X146663676Y-68050000D01*
X146660000Y-68012677D01*
X146660000Y-65153711D01*
X146703937Y-65109774D01*
X146817205Y-64940256D01*
X146875000Y-64800728D01*
X146932795Y-64940256D01*
G37*
%TD.AperFunction*%
%TD*%
M02*
