%TF.GenerationSoftware,KiCad,Pcbnew,5.1.9+dfsg1-1~bpo10+1*%
%TF.CreationDate,2021-05-09T13:01:11+08:00*%
%TF.ProjectId,serprog,73657270-726f-4672-9e6b-696361645f70,rev?*%
%TF.SameCoordinates,Original*%
%TF.FileFunction,Soldermask,Top*%
%TF.FilePolarity,Negative*%
%FSLAX46Y46*%
G04 Gerber Fmt 4.6, Leading zero omitted, Abs format (unit mm)*
G04 Created by KiCad (PCBNEW 5.1.9+dfsg1-1~bpo10+1) date 2021-05-09 13:01:11*
%MOMM*%
%LPD*%
G01*
G04 APERTURE LIST*
%ADD10R,1.900000X1.500000*%
%ADD11C,1.450000*%
%ADD12R,1.350000X0.400000*%
%ADD13O,1.900000X1.200000*%
%ADD14R,1.900000X1.200000*%
%ADD15O,1.600000X1.600000*%
%ADD16R,1.600000X1.600000*%
%ADD17C,1.500000*%
%ADD18O,1.400000X2.200000*%
%ADD19C,1.524000*%
%ADD20R,0.900000X0.800000*%
G04 APERTURE END LIST*
D10*
%TO.C,J1*%
X103562500Y-64200000D03*
D11*
X106262500Y-60700000D03*
D12*
X106262500Y-62550000D03*
X106262500Y-61900000D03*
X106262500Y-64500000D03*
X106262500Y-63850000D03*
X106262500Y-63200000D03*
D11*
X106262500Y-65700000D03*
D10*
X103562500Y-62200000D03*
D13*
X103562500Y-59700000D03*
X103562500Y-66700000D03*
D14*
X103562500Y-66100000D03*
X103562500Y-60300000D03*
%TD*%
D15*
%TO.C,U4*%
X152420000Y-69150000D03*
X144800000Y-76770000D03*
X152420000Y-71690000D03*
X144800000Y-74230000D03*
X152420000Y-74230000D03*
X144800000Y-71690000D03*
X152420000Y-76770000D03*
D16*
X144800000Y-69150000D03*
%TD*%
D17*
%TO.C,Y1*%
X125630000Y-81450000D03*
X120750000Y-81450000D03*
%TD*%
%TO.C,U5*%
G36*
G01*
X118125000Y-75600000D02*
X116725000Y-75600000D01*
G75*
G02*
X116650000Y-75525000I0J75000D01*
G01*
X116650000Y-75375000D01*
G75*
G02*
X116725000Y-75300000I75000J0D01*
G01*
X118125000Y-75300000D01*
G75*
G02*
X118200000Y-75375000I0J-75000D01*
G01*
X118200000Y-75525000D01*
G75*
G02*
X118125000Y-75600000I-75000J0D01*
G01*
G37*
G36*
G01*
X118125000Y-75100000D02*
X116725000Y-75100000D01*
G75*
G02*
X116650000Y-75025000I0J75000D01*
G01*
X116650000Y-74875000D01*
G75*
G02*
X116725000Y-74800000I75000J0D01*
G01*
X118125000Y-74800000D01*
G75*
G02*
X118200000Y-74875000I0J-75000D01*
G01*
X118200000Y-75025000D01*
G75*
G02*
X118125000Y-75100000I-75000J0D01*
G01*
G37*
G36*
G01*
X118125000Y-74600000D02*
X116725000Y-74600000D01*
G75*
G02*
X116650000Y-74525000I0J75000D01*
G01*
X116650000Y-74375000D01*
G75*
G02*
X116725000Y-74300000I75000J0D01*
G01*
X118125000Y-74300000D01*
G75*
G02*
X118200000Y-74375000I0J-75000D01*
G01*
X118200000Y-74525000D01*
G75*
G02*
X118125000Y-74600000I-75000J0D01*
G01*
G37*
G36*
G01*
X118125000Y-74100000D02*
X116725000Y-74100000D01*
G75*
G02*
X116650000Y-74025000I0J75000D01*
G01*
X116650000Y-73875000D01*
G75*
G02*
X116725000Y-73800000I75000J0D01*
G01*
X118125000Y-73800000D01*
G75*
G02*
X118200000Y-73875000I0J-75000D01*
G01*
X118200000Y-74025000D01*
G75*
G02*
X118125000Y-74100000I-75000J0D01*
G01*
G37*
G36*
G01*
X118125000Y-73600000D02*
X116725000Y-73600000D01*
G75*
G02*
X116650000Y-73525000I0J75000D01*
G01*
X116650000Y-73375000D01*
G75*
G02*
X116725000Y-73300000I75000J0D01*
G01*
X118125000Y-73300000D01*
G75*
G02*
X118200000Y-73375000I0J-75000D01*
G01*
X118200000Y-73525000D01*
G75*
G02*
X118125000Y-73600000I-75000J0D01*
G01*
G37*
G36*
G01*
X118125000Y-73100000D02*
X116725000Y-73100000D01*
G75*
G02*
X116650000Y-73025000I0J75000D01*
G01*
X116650000Y-72875000D01*
G75*
G02*
X116725000Y-72800000I75000J0D01*
G01*
X118125000Y-72800000D01*
G75*
G02*
X118200000Y-72875000I0J-75000D01*
G01*
X118200000Y-73025000D01*
G75*
G02*
X118125000Y-73100000I-75000J0D01*
G01*
G37*
G36*
G01*
X118125000Y-72600000D02*
X116725000Y-72600000D01*
G75*
G02*
X116650000Y-72525000I0J75000D01*
G01*
X116650000Y-72375000D01*
G75*
G02*
X116725000Y-72300000I75000J0D01*
G01*
X118125000Y-72300000D01*
G75*
G02*
X118200000Y-72375000I0J-75000D01*
G01*
X118200000Y-72525000D01*
G75*
G02*
X118125000Y-72600000I-75000J0D01*
G01*
G37*
G36*
G01*
X118125000Y-72100000D02*
X116725000Y-72100000D01*
G75*
G02*
X116650000Y-72025000I0J75000D01*
G01*
X116650000Y-71875000D01*
G75*
G02*
X116725000Y-71800000I75000J0D01*
G01*
X118125000Y-71800000D01*
G75*
G02*
X118200000Y-71875000I0J-75000D01*
G01*
X118200000Y-72025000D01*
G75*
G02*
X118125000Y-72100000I-75000J0D01*
G01*
G37*
G36*
G01*
X118125000Y-71600000D02*
X116725000Y-71600000D01*
G75*
G02*
X116650000Y-71525000I0J75000D01*
G01*
X116650000Y-71375000D01*
G75*
G02*
X116725000Y-71300000I75000J0D01*
G01*
X118125000Y-71300000D01*
G75*
G02*
X118200000Y-71375000I0J-75000D01*
G01*
X118200000Y-71525000D01*
G75*
G02*
X118125000Y-71600000I-75000J0D01*
G01*
G37*
G36*
G01*
X118125000Y-71100000D02*
X116725000Y-71100000D01*
G75*
G02*
X116650000Y-71025000I0J75000D01*
G01*
X116650000Y-70875000D01*
G75*
G02*
X116725000Y-70800000I75000J0D01*
G01*
X118125000Y-70800000D01*
G75*
G02*
X118200000Y-70875000I0J-75000D01*
G01*
X118200000Y-71025000D01*
G75*
G02*
X118125000Y-71100000I-75000J0D01*
G01*
G37*
G36*
G01*
X118125000Y-70600000D02*
X116725000Y-70600000D01*
G75*
G02*
X116650000Y-70525000I0J75000D01*
G01*
X116650000Y-70375000D01*
G75*
G02*
X116725000Y-70300000I75000J0D01*
G01*
X118125000Y-70300000D01*
G75*
G02*
X118200000Y-70375000I0J-75000D01*
G01*
X118200000Y-70525000D01*
G75*
G02*
X118125000Y-70600000I-75000J0D01*
G01*
G37*
G36*
G01*
X118125000Y-70100000D02*
X116725000Y-70100000D01*
G75*
G02*
X116650000Y-70025000I0J75000D01*
G01*
X116650000Y-69875000D01*
G75*
G02*
X116725000Y-69800000I75000J0D01*
G01*
X118125000Y-69800000D01*
G75*
G02*
X118200000Y-69875000I0J-75000D01*
G01*
X118200000Y-70025000D01*
G75*
G02*
X118125000Y-70100000I-75000J0D01*
G01*
G37*
G36*
G01*
X118125000Y-69600000D02*
X116725000Y-69600000D01*
G75*
G02*
X116650000Y-69525000I0J75000D01*
G01*
X116650000Y-69375000D01*
G75*
G02*
X116725000Y-69300000I75000J0D01*
G01*
X118125000Y-69300000D01*
G75*
G02*
X118200000Y-69375000I0J-75000D01*
G01*
X118200000Y-69525000D01*
G75*
G02*
X118125000Y-69600000I-75000J0D01*
G01*
G37*
G36*
G01*
X118125000Y-69100000D02*
X116725000Y-69100000D01*
G75*
G02*
X116650000Y-69025000I0J75000D01*
G01*
X116650000Y-68875000D01*
G75*
G02*
X116725000Y-68800000I75000J0D01*
G01*
X118125000Y-68800000D01*
G75*
G02*
X118200000Y-68875000I0J-75000D01*
G01*
X118200000Y-69025000D01*
G75*
G02*
X118125000Y-69100000I-75000J0D01*
G01*
G37*
G36*
G01*
X118125000Y-68600000D02*
X116725000Y-68600000D01*
G75*
G02*
X116650000Y-68525000I0J75000D01*
G01*
X116650000Y-68375000D01*
G75*
G02*
X116725000Y-68300000I75000J0D01*
G01*
X118125000Y-68300000D01*
G75*
G02*
X118200000Y-68375000I0J-75000D01*
G01*
X118200000Y-68525000D01*
G75*
G02*
X118125000Y-68600000I-75000J0D01*
G01*
G37*
G36*
G01*
X118125000Y-68100000D02*
X116725000Y-68100000D01*
G75*
G02*
X116650000Y-68025000I0J75000D01*
G01*
X116650000Y-67875000D01*
G75*
G02*
X116725000Y-67800000I75000J0D01*
G01*
X118125000Y-67800000D01*
G75*
G02*
X118200000Y-67875000I0J-75000D01*
G01*
X118200000Y-68025000D01*
G75*
G02*
X118125000Y-68100000I-75000J0D01*
G01*
G37*
G36*
G01*
X119425000Y-66800000D02*
X119275000Y-66800000D01*
G75*
G02*
X119200000Y-66725000I0J75000D01*
G01*
X119200000Y-65325000D01*
G75*
G02*
X119275000Y-65250000I75000J0D01*
G01*
X119425000Y-65250000D01*
G75*
G02*
X119500000Y-65325000I0J-75000D01*
G01*
X119500000Y-66725000D01*
G75*
G02*
X119425000Y-66800000I-75000J0D01*
G01*
G37*
G36*
G01*
X119925000Y-66800000D02*
X119775000Y-66800000D01*
G75*
G02*
X119700000Y-66725000I0J75000D01*
G01*
X119700000Y-65325000D01*
G75*
G02*
X119775000Y-65250000I75000J0D01*
G01*
X119925000Y-65250000D01*
G75*
G02*
X120000000Y-65325000I0J-75000D01*
G01*
X120000000Y-66725000D01*
G75*
G02*
X119925000Y-66800000I-75000J0D01*
G01*
G37*
G36*
G01*
X120425000Y-66800000D02*
X120275000Y-66800000D01*
G75*
G02*
X120200000Y-66725000I0J75000D01*
G01*
X120200000Y-65325000D01*
G75*
G02*
X120275000Y-65250000I75000J0D01*
G01*
X120425000Y-65250000D01*
G75*
G02*
X120500000Y-65325000I0J-75000D01*
G01*
X120500000Y-66725000D01*
G75*
G02*
X120425000Y-66800000I-75000J0D01*
G01*
G37*
G36*
G01*
X120925000Y-66800000D02*
X120775000Y-66800000D01*
G75*
G02*
X120700000Y-66725000I0J75000D01*
G01*
X120700000Y-65325000D01*
G75*
G02*
X120775000Y-65250000I75000J0D01*
G01*
X120925000Y-65250000D01*
G75*
G02*
X121000000Y-65325000I0J-75000D01*
G01*
X121000000Y-66725000D01*
G75*
G02*
X120925000Y-66800000I-75000J0D01*
G01*
G37*
G36*
G01*
X121425000Y-66800000D02*
X121275000Y-66800000D01*
G75*
G02*
X121200000Y-66725000I0J75000D01*
G01*
X121200000Y-65325000D01*
G75*
G02*
X121275000Y-65250000I75000J0D01*
G01*
X121425000Y-65250000D01*
G75*
G02*
X121500000Y-65325000I0J-75000D01*
G01*
X121500000Y-66725000D01*
G75*
G02*
X121425000Y-66800000I-75000J0D01*
G01*
G37*
G36*
G01*
X121925000Y-66800000D02*
X121775000Y-66800000D01*
G75*
G02*
X121700000Y-66725000I0J75000D01*
G01*
X121700000Y-65325000D01*
G75*
G02*
X121775000Y-65250000I75000J0D01*
G01*
X121925000Y-65250000D01*
G75*
G02*
X122000000Y-65325000I0J-75000D01*
G01*
X122000000Y-66725000D01*
G75*
G02*
X121925000Y-66800000I-75000J0D01*
G01*
G37*
G36*
G01*
X122425000Y-66800000D02*
X122275000Y-66800000D01*
G75*
G02*
X122200000Y-66725000I0J75000D01*
G01*
X122200000Y-65325000D01*
G75*
G02*
X122275000Y-65250000I75000J0D01*
G01*
X122425000Y-65250000D01*
G75*
G02*
X122500000Y-65325000I0J-75000D01*
G01*
X122500000Y-66725000D01*
G75*
G02*
X122425000Y-66800000I-75000J0D01*
G01*
G37*
G36*
G01*
X122925000Y-66800000D02*
X122775000Y-66800000D01*
G75*
G02*
X122700000Y-66725000I0J75000D01*
G01*
X122700000Y-65325000D01*
G75*
G02*
X122775000Y-65250000I75000J0D01*
G01*
X122925000Y-65250000D01*
G75*
G02*
X123000000Y-65325000I0J-75000D01*
G01*
X123000000Y-66725000D01*
G75*
G02*
X122925000Y-66800000I-75000J0D01*
G01*
G37*
G36*
G01*
X123425000Y-66800000D02*
X123275000Y-66800000D01*
G75*
G02*
X123200000Y-66725000I0J75000D01*
G01*
X123200000Y-65325000D01*
G75*
G02*
X123275000Y-65250000I75000J0D01*
G01*
X123425000Y-65250000D01*
G75*
G02*
X123500000Y-65325000I0J-75000D01*
G01*
X123500000Y-66725000D01*
G75*
G02*
X123425000Y-66800000I-75000J0D01*
G01*
G37*
G36*
G01*
X123925000Y-66800000D02*
X123775000Y-66800000D01*
G75*
G02*
X123700000Y-66725000I0J75000D01*
G01*
X123700000Y-65325000D01*
G75*
G02*
X123775000Y-65250000I75000J0D01*
G01*
X123925000Y-65250000D01*
G75*
G02*
X124000000Y-65325000I0J-75000D01*
G01*
X124000000Y-66725000D01*
G75*
G02*
X123925000Y-66800000I-75000J0D01*
G01*
G37*
G36*
G01*
X124425000Y-66800000D02*
X124275000Y-66800000D01*
G75*
G02*
X124200000Y-66725000I0J75000D01*
G01*
X124200000Y-65325000D01*
G75*
G02*
X124275000Y-65250000I75000J0D01*
G01*
X124425000Y-65250000D01*
G75*
G02*
X124500000Y-65325000I0J-75000D01*
G01*
X124500000Y-66725000D01*
G75*
G02*
X124425000Y-66800000I-75000J0D01*
G01*
G37*
G36*
G01*
X124925000Y-66800000D02*
X124775000Y-66800000D01*
G75*
G02*
X124700000Y-66725000I0J75000D01*
G01*
X124700000Y-65325000D01*
G75*
G02*
X124775000Y-65250000I75000J0D01*
G01*
X124925000Y-65250000D01*
G75*
G02*
X125000000Y-65325000I0J-75000D01*
G01*
X125000000Y-66725000D01*
G75*
G02*
X124925000Y-66800000I-75000J0D01*
G01*
G37*
G36*
G01*
X125425000Y-66800000D02*
X125275000Y-66800000D01*
G75*
G02*
X125200000Y-66725000I0J75000D01*
G01*
X125200000Y-65325000D01*
G75*
G02*
X125275000Y-65250000I75000J0D01*
G01*
X125425000Y-65250000D01*
G75*
G02*
X125500000Y-65325000I0J-75000D01*
G01*
X125500000Y-66725000D01*
G75*
G02*
X125425000Y-66800000I-75000J0D01*
G01*
G37*
G36*
G01*
X125925000Y-66800000D02*
X125775000Y-66800000D01*
G75*
G02*
X125700000Y-66725000I0J75000D01*
G01*
X125700000Y-65325000D01*
G75*
G02*
X125775000Y-65250000I75000J0D01*
G01*
X125925000Y-65250000D01*
G75*
G02*
X126000000Y-65325000I0J-75000D01*
G01*
X126000000Y-66725000D01*
G75*
G02*
X125925000Y-66800000I-75000J0D01*
G01*
G37*
G36*
G01*
X126425000Y-66800000D02*
X126275000Y-66800000D01*
G75*
G02*
X126200000Y-66725000I0J75000D01*
G01*
X126200000Y-65325000D01*
G75*
G02*
X126275000Y-65250000I75000J0D01*
G01*
X126425000Y-65250000D01*
G75*
G02*
X126500000Y-65325000I0J-75000D01*
G01*
X126500000Y-66725000D01*
G75*
G02*
X126425000Y-66800000I-75000J0D01*
G01*
G37*
G36*
G01*
X126925000Y-66800000D02*
X126775000Y-66800000D01*
G75*
G02*
X126700000Y-66725000I0J75000D01*
G01*
X126700000Y-65325000D01*
G75*
G02*
X126775000Y-65250000I75000J0D01*
G01*
X126925000Y-65250000D01*
G75*
G02*
X127000000Y-65325000I0J-75000D01*
G01*
X127000000Y-66725000D01*
G75*
G02*
X126925000Y-66800000I-75000J0D01*
G01*
G37*
G36*
G01*
X129475000Y-68100000D02*
X128075000Y-68100000D01*
G75*
G02*
X128000000Y-68025000I0J75000D01*
G01*
X128000000Y-67875000D01*
G75*
G02*
X128075000Y-67800000I75000J0D01*
G01*
X129475000Y-67800000D01*
G75*
G02*
X129550000Y-67875000I0J-75000D01*
G01*
X129550000Y-68025000D01*
G75*
G02*
X129475000Y-68100000I-75000J0D01*
G01*
G37*
G36*
G01*
X129475000Y-68600000D02*
X128075000Y-68600000D01*
G75*
G02*
X128000000Y-68525000I0J75000D01*
G01*
X128000000Y-68375000D01*
G75*
G02*
X128075000Y-68300000I75000J0D01*
G01*
X129475000Y-68300000D01*
G75*
G02*
X129550000Y-68375000I0J-75000D01*
G01*
X129550000Y-68525000D01*
G75*
G02*
X129475000Y-68600000I-75000J0D01*
G01*
G37*
G36*
G01*
X129475000Y-69100000D02*
X128075000Y-69100000D01*
G75*
G02*
X128000000Y-69025000I0J75000D01*
G01*
X128000000Y-68875000D01*
G75*
G02*
X128075000Y-68800000I75000J0D01*
G01*
X129475000Y-68800000D01*
G75*
G02*
X129550000Y-68875000I0J-75000D01*
G01*
X129550000Y-69025000D01*
G75*
G02*
X129475000Y-69100000I-75000J0D01*
G01*
G37*
G36*
G01*
X129475000Y-69600000D02*
X128075000Y-69600000D01*
G75*
G02*
X128000000Y-69525000I0J75000D01*
G01*
X128000000Y-69375000D01*
G75*
G02*
X128075000Y-69300000I75000J0D01*
G01*
X129475000Y-69300000D01*
G75*
G02*
X129550000Y-69375000I0J-75000D01*
G01*
X129550000Y-69525000D01*
G75*
G02*
X129475000Y-69600000I-75000J0D01*
G01*
G37*
G36*
G01*
X129475000Y-70100000D02*
X128075000Y-70100000D01*
G75*
G02*
X128000000Y-70025000I0J75000D01*
G01*
X128000000Y-69875000D01*
G75*
G02*
X128075000Y-69800000I75000J0D01*
G01*
X129475000Y-69800000D01*
G75*
G02*
X129550000Y-69875000I0J-75000D01*
G01*
X129550000Y-70025000D01*
G75*
G02*
X129475000Y-70100000I-75000J0D01*
G01*
G37*
G36*
G01*
X129475000Y-70600000D02*
X128075000Y-70600000D01*
G75*
G02*
X128000000Y-70525000I0J75000D01*
G01*
X128000000Y-70375000D01*
G75*
G02*
X128075000Y-70300000I75000J0D01*
G01*
X129475000Y-70300000D01*
G75*
G02*
X129550000Y-70375000I0J-75000D01*
G01*
X129550000Y-70525000D01*
G75*
G02*
X129475000Y-70600000I-75000J0D01*
G01*
G37*
G36*
G01*
X129475000Y-71100000D02*
X128075000Y-71100000D01*
G75*
G02*
X128000000Y-71025000I0J75000D01*
G01*
X128000000Y-70875000D01*
G75*
G02*
X128075000Y-70800000I75000J0D01*
G01*
X129475000Y-70800000D01*
G75*
G02*
X129550000Y-70875000I0J-75000D01*
G01*
X129550000Y-71025000D01*
G75*
G02*
X129475000Y-71100000I-75000J0D01*
G01*
G37*
G36*
G01*
X129475000Y-71600000D02*
X128075000Y-71600000D01*
G75*
G02*
X128000000Y-71525000I0J75000D01*
G01*
X128000000Y-71375000D01*
G75*
G02*
X128075000Y-71300000I75000J0D01*
G01*
X129475000Y-71300000D01*
G75*
G02*
X129550000Y-71375000I0J-75000D01*
G01*
X129550000Y-71525000D01*
G75*
G02*
X129475000Y-71600000I-75000J0D01*
G01*
G37*
G36*
G01*
X129475000Y-72100000D02*
X128075000Y-72100000D01*
G75*
G02*
X128000000Y-72025000I0J75000D01*
G01*
X128000000Y-71875000D01*
G75*
G02*
X128075000Y-71800000I75000J0D01*
G01*
X129475000Y-71800000D01*
G75*
G02*
X129550000Y-71875000I0J-75000D01*
G01*
X129550000Y-72025000D01*
G75*
G02*
X129475000Y-72100000I-75000J0D01*
G01*
G37*
G36*
G01*
X129475000Y-72600000D02*
X128075000Y-72600000D01*
G75*
G02*
X128000000Y-72525000I0J75000D01*
G01*
X128000000Y-72375000D01*
G75*
G02*
X128075000Y-72300000I75000J0D01*
G01*
X129475000Y-72300000D01*
G75*
G02*
X129550000Y-72375000I0J-75000D01*
G01*
X129550000Y-72525000D01*
G75*
G02*
X129475000Y-72600000I-75000J0D01*
G01*
G37*
G36*
G01*
X129475000Y-73100000D02*
X128075000Y-73100000D01*
G75*
G02*
X128000000Y-73025000I0J75000D01*
G01*
X128000000Y-72875000D01*
G75*
G02*
X128075000Y-72800000I75000J0D01*
G01*
X129475000Y-72800000D01*
G75*
G02*
X129550000Y-72875000I0J-75000D01*
G01*
X129550000Y-73025000D01*
G75*
G02*
X129475000Y-73100000I-75000J0D01*
G01*
G37*
G36*
G01*
X129475000Y-73600000D02*
X128075000Y-73600000D01*
G75*
G02*
X128000000Y-73525000I0J75000D01*
G01*
X128000000Y-73375000D01*
G75*
G02*
X128075000Y-73300000I75000J0D01*
G01*
X129475000Y-73300000D01*
G75*
G02*
X129550000Y-73375000I0J-75000D01*
G01*
X129550000Y-73525000D01*
G75*
G02*
X129475000Y-73600000I-75000J0D01*
G01*
G37*
G36*
G01*
X129475000Y-74100000D02*
X128075000Y-74100000D01*
G75*
G02*
X128000000Y-74025000I0J75000D01*
G01*
X128000000Y-73875000D01*
G75*
G02*
X128075000Y-73800000I75000J0D01*
G01*
X129475000Y-73800000D01*
G75*
G02*
X129550000Y-73875000I0J-75000D01*
G01*
X129550000Y-74025000D01*
G75*
G02*
X129475000Y-74100000I-75000J0D01*
G01*
G37*
G36*
G01*
X129475000Y-74600000D02*
X128075000Y-74600000D01*
G75*
G02*
X128000000Y-74525000I0J75000D01*
G01*
X128000000Y-74375000D01*
G75*
G02*
X128075000Y-74300000I75000J0D01*
G01*
X129475000Y-74300000D01*
G75*
G02*
X129550000Y-74375000I0J-75000D01*
G01*
X129550000Y-74525000D01*
G75*
G02*
X129475000Y-74600000I-75000J0D01*
G01*
G37*
G36*
G01*
X129475000Y-75100000D02*
X128075000Y-75100000D01*
G75*
G02*
X128000000Y-75025000I0J75000D01*
G01*
X128000000Y-74875000D01*
G75*
G02*
X128075000Y-74800000I75000J0D01*
G01*
X129475000Y-74800000D01*
G75*
G02*
X129550000Y-74875000I0J-75000D01*
G01*
X129550000Y-75025000D01*
G75*
G02*
X129475000Y-75100000I-75000J0D01*
G01*
G37*
G36*
G01*
X129475000Y-75600000D02*
X128075000Y-75600000D01*
G75*
G02*
X128000000Y-75525000I0J75000D01*
G01*
X128000000Y-75375000D01*
G75*
G02*
X128075000Y-75300000I75000J0D01*
G01*
X129475000Y-75300000D01*
G75*
G02*
X129550000Y-75375000I0J-75000D01*
G01*
X129550000Y-75525000D01*
G75*
G02*
X129475000Y-75600000I-75000J0D01*
G01*
G37*
G36*
G01*
X126925000Y-78150000D02*
X126775000Y-78150000D01*
G75*
G02*
X126700000Y-78075000I0J75000D01*
G01*
X126700000Y-76675000D01*
G75*
G02*
X126775000Y-76600000I75000J0D01*
G01*
X126925000Y-76600000D01*
G75*
G02*
X127000000Y-76675000I0J-75000D01*
G01*
X127000000Y-78075000D01*
G75*
G02*
X126925000Y-78150000I-75000J0D01*
G01*
G37*
G36*
G01*
X126425000Y-78150000D02*
X126275000Y-78150000D01*
G75*
G02*
X126200000Y-78075000I0J75000D01*
G01*
X126200000Y-76675000D01*
G75*
G02*
X126275000Y-76600000I75000J0D01*
G01*
X126425000Y-76600000D01*
G75*
G02*
X126500000Y-76675000I0J-75000D01*
G01*
X126500000Y-78075000D01*
G75*
G02*
X126425000Y-78150000I-75000J0D01*
G01*
G37*
G36*
G01*
X125925000Y-78150000D02*
X125775000Y-78150000D01*
G75*
G02*
X125700000Y-78075000I0J75000D01*
G01*
X125700000Y-76675000D01*
G75*
G02*
X125775000Y-76600000I75000J0D01*
G01*
X125925000Y-76600000D01*
G75*
G02*
X126000000Y-76675000I0J-75000D01*
G01*
X126000000Y-78075000D01*
G75*
G02*
X125925000Y-78150000I-75000J0D01*
G01*
G37*
G36*
G01*
X125425000Y-78150000D02*
X125275000Y-78150000D01*
G75*
G02*
X125200000Y-78075000I0J75000D01*
G01*
X125200000Y-76675000D01*
G75*
G02*
X125275000Y-76600000I75000J0D01*
G01*
X125425000Y-76600000D01*
G75*
G02*
X125500000Y-76675000I0J-75000D01*
G01*
X125500000Y-78075000D01*
G75*
G02*
X125425000Y-78150000I-75000J0D01*
G01*
G37*
G36*
G01*
X124925000Y-78150000D02*
X124775000Y-78150000D01*
G75*
G02*
X124700000Y-78075000I0J75000D01*
G01*
X124700000Y-76675000D01*
G75*
G02*
X124775000Y-76600000I75000J0D01*
G01*
X124925000Y-76600000D01*
G75*
G02*
X125000000Y-76675000I0J-75000D01*
G01*
X125000000Y-78075000D01*
G75*
G02*
X124925000Y-78150000I-75000J0D01*
G01*
G37*
G36*
G01*
X124425000Y-78150000D02*
X124275000Y-78150000D01*
G75*
G02*
X124200000Y-78075000I0J75000D01*
G01*
X124200000Y-76675000D01*
G75*
G02*
X124275000Y-76600000I75000J0D01*
G01*
X124425000Y-76600000D01*
G75*
G02*
X124500000Y-76675000I0J-75000D01*
G01*
X124500000Y-78075000D01*
G75*
G02*
X124425000Y-78150000I-75000J0D01*
G01*
G37*
G36*
G01*
X123925000Y-78150000D02*
X123775000Y-78150000D01*
G75*
G02*
X123700000Y-78075000I0J75000D01*
G01*
X123700000Y-76675000D01*
G75*
G02*
X123775000Y-76600000I75000J0D01*
G01*
X123925000Y-76600000D01*
G75*
G02*
X124000000Y-76675000I0J-75000D01*
G01*
X124000000Y-78075000D01*
G75*
G02*
X123925000Y-78150000I-75000J0D01*
G01*
G37*
G36*
G01*
X123425000Y-78150000D02*
X123275000Y-78150000D01*
G75*
G02*
X123200000Y-78075000I0J75000D01*
G01*
X123200000Y-76675000D01*
G75*
G02*
X123275000Y-76600000I75000J0D01*
G01*
X123425000Y-76600000D01*
G75*
G02*
X123500000Y-76675000I0J-75000D01*
G01*
X123500000Y-78075000D01*
G75*
G02*
X123425000Y-78150000I-75000J0D01*
G01*
G37*
G36*
G01*
X122925000Y-78150000D02*
X122775000Y-78150000D01*
G75*
G02*
X122700000Y-78075000I0J75000D01*
G01*
X122700000Y-76675000D01*
G75*
G02*
X122775000Y-76600000I75000J0D01*
G01*
X122925000Y-76600000D01*
G75*
G02*
X123000000Y-76675000I0J-75000D01*
G01*
X123000000Y-78075000D01*
G75*
G02*
X122925000Y-78150000I-75000J0D01*
G01*
G37*
G36*
G01*
X122425000Y-78150000D02*
X122275000Y-78150000D01*
G75*
G02*
X122200000Y-78075000I0J75000D01*
G01*
X122200000Y-76675000D01*
G75*
G02*
X122275000Y-76600000I75000J0D01*
G01*
X122425000Y-76600000D01*
G75*
G02*
X122500000Y-76675000I0J-75000D01*
G01*
X122500000Y-78075000D01*
G75*
G02*
X122425000Y-78150000I-75000J0D01*
G01*
G37*
G36*
G01*
X121925000Y-78150000D02*
X121775000Y-78150000D01*
G75*
G02*
X121700000Y-78075000I0J75000D01*
G01*
X121700000Y-76675000D01*
G75*
G02*
X121775000Y-76600000I75000J0D01*
G01*
X121925000Y-76600000D01*
G75*
G02*
X122000000Y-76675000I0J-75000D01*
G01*
X122000000Y-78075000D01*
G75*
G02*
X121925000Y-78150000I-75000J0D01*
G01*
G37*
G36*
G01*
X121425000Y-78150000D02*
X121275000Y-78150000D01*
G75*
G02*
X121200000Y-78075000I0J75000D01*
G01*
X121200000Y-76675000D01*
G75*
G02*
X121275000Y-76600000I75000J0D01*
G01*
X121425000Y-76600000D01*
G75*
G02*
X121500000Y-76675000I0J-75000D01*
G01*
X121500000Y-78075000D01*
G75*
G02*
X121425000Y-78150000I-75000J0D01*
G01*
G37*
G36*
G01*
X120925000Y-78150000D02*
X120775000Y-78150000D01*
G75*
G02*
X120700000Y-78075000I0J75000D01*
G01*
X120700000Y-76675000D01*
G75*
G02*
X120775000Y-76600000I75000J0D01*
G01*
X120925000Y-76600000D01*
G75*
G02*
X121000000Y-76675000I0J-75000D01*
G01*
X121000000Y-78075000D01*
G75*
G02*
X120925000Y-78150000I-75000J0D01*
G01*
G37*
G36*
G01*
X120425000Y-78150000D02*
X120275000Y-78150000D01*
G75*
G02*
X120200000Y-78075000I0J75000D01*
G01*
X120200000Y-76675000D01*
G75*
G02*
X120275000Y-76600000I75000J0D01*
G01*
X120425000Y-76600000D01*
G75*
G02*
X120500000Y-76675000I0J-75000D01*
G01*
X120500000Y-78075000D01*
G75*
G02*
X120425000Y-78150000I-75000J0D01*
G01*
G37*
G36*
G01*
X119925000Y-78150000D02*
X119775000Y-78150000D01*
G75*
G02*
X119700000Y-78075000I0J75000D01*
G01*
X119700000Y-76675000D01*
G75*
G02*
X119775000Y-76600000I75000J0D01*
G01*
X119925000Y-76600000D01*
G75*
G02*
X120000000Y-76675000I0J-75000D01*
G01*
X120000000Y-78075000D01*
G75*
G02*
X119925000Y-78150000I-75000J0D01*
G01*
G37*
G36*
G01*
X119425000Y-78150000D02*
X119275000Y-78150000D01*
G75*
G02*
X119200000Y-78075000I0J75000D01*
G01*
X119200000Y-76675000D01*
G75*
G02*
X119275000Y-76600000I75000J0D01*
G01*
X119425000Y-76600000D01*
G75*
G02*
X119500000Y-76675000I0J-75000D01*
G01*
X119500000Y-78075000D01*
G75*
G02*
X119425000Y-78150000I-75000J0D01*
G01*
G37*
%TD*%
%TO.C,R11*%
G36*
G01*
X151575000Y-61175000D02*
X152125000Y-61175000D01*
G75*
G02*
X152325000Y-61375000I0J-200000D01*
G01*
X152325000Y-61775000D01*
G75*
G02*
X152125000Y-61975000I-200000J0D01*
G01*
X151575000Y-61975000D01*
G75*
G02*
X151375000Y-61775000I0J200000D01*
G01*
X151375000Y-61375000D01*
G75*
G02*
X151575000Y-61175000I200000J0D01*
G01*
G37*
G36*
G01*
X151575000Y-62825000D02*
X152125000Y-62825000D01*
G75*
G02*
X152325000Y-63025000I0J-200000D01*
G01*
X152325000Y-63425000D01*
G75*
G02*
X152125000Y-63625000I-200000J0D01*
G01*
X151575000Y-63625000D01*
G75*
G02*
X151375000Y-63425000I0J200000D01*
G01*
X151375000Y-63025000D01*
G75*
G02*
X151575000Y-62825000I200000J0D01*
G01*
G37*
%TD*%
%TO.C,C1*%
G36*
G01*
X110500000Y-79775000D02*
X110000000Y-79775000D01*
G75*
G02*
X109775000Y-79550000I0J225000D01*
G01*
X109775000Y-79100000D01*
G75*
G02*
X110000000Y-78875000I225000J0D01*
G01*
X110500000Y-78875000D01*
G75*
G02*
X110725000Y-79100000I0J-225000D01*
G01*
X110725000Y-79550000D01*
G75*
G02*
X110500000Y-79775000I-225000J0D01*
G01*
G37*
G36*
G01*
X110500000Y-78225000D02*
X110000000Y-78225000D01*
G75*
G02*
X109775000Y-78000000I0J225000D01*
G01*
X109775000Y-77550000D01*
G75*
G02*
X110000000Y-77325000I225000J0D01*
G01*
X110500000Y-77325000D01*
G75*
G02*
X110725000Y-77550000I0J-225000D01*
G01*
X110725000Y-78000000D01*
G75*
G02*
X110500000Y-78225000I-225000J0D01*
G01*
G37*
%TD*%
%TO.C,C2*%
G36*
G01*
X116550000Y-81150000D02*
X116050000Y-81150000D01*
G75*
G02*
X115825000Y-80925000I0J225000D01*
G01*
X115825000Y-80475000D01*
G75*
G02*
X116050000Y-80250000I225000J0D01*
G01*
X116550000Y-80250000D01*
G75*
G02*
X116775000Y-80475000I0J-225000D01*
G01*
X116775000Y-80925000D01*
G75*
G02*
X116550000Y-81150000I-225000J0D01*
G01*
G37*
G36*
G01*
X116550000Y-82700000D02*
X116050000Y-82700000D01*
G75*
G02*
X115825000Y-82475000I0J225000D01*
G01*
X115825000Y-82025000D01*
G75*
G02*
X116050000Y-81800000I225000J0D01*
G01*
X116550000Y-81800000D01*
G75*
G02*
X116775000Y-82025000I0J-225000D01*
G01*
X116775000Y-82475000D01*
G75*
G02*
X116550000Y-82700000I-225000J0D01*
G01*
G37*
%TD*%
%TO.C,C3*%
G36*
G01*
X130350000Y-82675000D02*
X129850000Y-82675000D01*
G75*
G02*
X129625000Y-82450000I0J225000D01*
G01*
X129625000Y-82000000D01*
G75*
G02*
X129850000Y-81775000I225000J0D01*
G01*
X130350000Y-81775000D01*
G75*
G02*
X130575000Y-82000000I0J-225000D01*
G01*
X130575000Y-82450000D01*
G75*
G02*
X130350000Y-82675000I-225000J0D01*
G01*
G37*
G36*
G01*
X130350000Y-81125000D02*
X129850000Y-81125000D01*
G75*
G02*
X129625000Y-80900000I0J225000D01*
G01*
X129625000Y-80450000D01*
G75*
G02*
X129850000Y-80225000I225000J0D01*
G01*
X130350000Y-80225000D01*
G75*
G02*
X130575000Y-80450000I0J-225000D01*
G01*
X130575000Y-80900000D01*
G75*
G02*
X130350000Y-81125000I-225000J0D01*
G01*
G37*
%TD*%
%TO.C,C4*%
G36*
G01*
X128450000Y-59925000D02*
X128950000Y-59925000D01*
G75*
G02*
X129175000Y-60150000I0J-225000D01*
G01*
X129175000Y-60600000D01*
G75*
G02*
X128950000Y-60825000I-225000J0D01*
G01*
X128450000Y-60825000D01*
G75*
G02*
X128225000Y-60600000I0J225000D01*
G01*
X128225000Y-60150000D01*
G75*
G02*
X128450000Y-59925000I225000J0D01*
G01*
G37*
G36*
G01*
X128450000Y-58375000D02*
X128950000Y-58375000D01*
G75*
G02*
X129175000Y-58600000I0J-225000D01*
G01*
X129175000Y-59050000D01*
G75*
G02*
X128950000Y-59275000I-225000J0D01*
G01*
X128450000Y-59275000D01*
G75*
G02*
X128225000Y-59050000I0J225000D01*
G01*
X128225000Y-58600000D01*
G75*
G02*
X128450000Y-58375000I225000J0D01*
G01*
G37*
%TD*%
%TO.C,C5*%
G36*
G01*
X119650000Y-58375000D02*
X120150000Y-58375000D01*
G75*
G02*
X120375000Y-58600000I0J-225000D01*
G01*
X120375000Y-59050000D01*
G75*
G02*
X120150000Y-59275000I-225000J0D01*
G01*
X119650000Y-59275000D01*
G75*
G02*
X119425000Y-59050000I0J225000D01*
G01*
X119425000Y-58600000D01*
G75*
G02*
X119650000Y-58375000I225000J0D01*
G01*
G37*
G36*
G01*
X119650000Y-59925000D02*
X120150000Y-59925000D01*
G75*
G02*
X120375000Y-60150000I0J-225000D01*
G01*
X120375000Y-60600000D01*
G75*
G02*
X120150000Y-60825000I-225000J0D01*
G01*
X119650000Y-60825000D01*
G75*
G02*
X119425000Y-60600000I0J225000D01*
G01*
X119425000Y-60150000D01*
G75*
G02*
X119650000Y-59925000I225000J0D01*
G01*
G37*
%TD*%
%TO.C,C6*%
G36*
G01*
X110775000Y-75750000D02*
X110775000Y-76250000D01*
G75*
G02*
X110550000Y-76475000I-225000J0D01*
G01*
X110100000Y-76475000D01*
G75*
G02*
X109875000Y-76250000I0J225000D01*
G01*
X109875000Y-75750000D01*
G75*
G02*
X110100000Y-75525000I225000J0D01*
G01*
X110550000Y-75525000D01*
G75*
G02*
X110775000Y-75750000I0J-225000D01*
G01*
G37*
G36*
G01*
X112325000Y-75750000D02*
X112325000Y-76250000D01*
G75*
G02*
X112100000Y-76475000I-225000J0D01*
G01*
X111650000Y-76475000D01*
G75*
G02*
X111425000Y-76250000I0J225000D01*
G01*
X111425000Y-75750000D01*
G75*
G02*
X111650000Y-75525000I225000J0D01*
G01*
X112100000Y-75525000D01*
G75*
G02*
X112325000Y-75750000I0J-225000D01*
G01*
G37*
%TD*%
%TO.C,C7*%
G36*
G01*
X134225000Y-75500000D02*
X134225000Y-76000000D01*
G75*
G02*
X134000000Y-76225000I-225000J0D01*
G01*
X133550000Y-76225000D01*
G75*
G02*
X133325000Y-76000000I0J225000D01*
G01*
X133325000Y-75500000D01*
G75*
G02*
X133550000Y-75275000I225000J0D01*
G01*
X134000000Y-75275000D01*
G75*
G02*
X134225000Y-75500000I0J-225000D01*
G01*
G37*
G36*
G01*
X132675000Y-75500000D02*
X132675000Y-76000000D01*
G75*
G02*
X132450000Y-76225000I-225000J0D01*
G01*
X132000000Y-76225000D01*
G75*
G02*
X131775000Y-76000000I0J225000D01*
G01*
X131775000Y-75500000D01*
G75*
G02*
X132000000Y-75275000I225000J0D01*
G01*
X132450000Y-75275000D01*
G75*
G02*
X132675000Y-75500000I0J-225000D01*
G01*
G37*
%TD*%
%TO.C,C8*%
G36*
G01*
X130250000Y-58350000D02*
X130750000Y-58350000D01*
G75*
G02*
X130975000Y-58575000I0J-225000D01*
G01*
X130975000Y-59025000D01*
G75*
G02*
X130750000Y-59250000I-225000J0D01*
G01*
X130250000Y-59250000D01*
G75*
G02*
X130025000Y-59025000I0J225000D01*
G01*
X130025000Y-58575000D01*
G75*
G02*
X130250000Y-58350000I225000J0D01*
G01*
G37*
G36*
G01*
X130250000Y-59900000D02*
X130750000Y-59900000D01*
G75*
G02*
X130975000Y-60125000I0J-225000D01*
G01*
X130975000Y-60575000D01*
G75*
G02*
X130750000Y-60800000I-225000J0D01*
G01*
X130250000Y-60800000D01*
G75*
G02*
X130025000Y-60575000I0J225000D01*
G01*
X130025000Y-60125000D01*
G75*
G02*
X130250000Y-59900000I225000J0D01*
G01*
G37*
%TD*%
%TO.C,C9*%
G36*
G01*
X121450000Y-59900000D02*
X121950000Y-59900000D01*
G75*
G02*
X122175000Y-60125000I0J-225000D01*
G01*
X122175000Y-60575000D01*
G75*
G02*
X121950000Y-60800000I-225000J0D01*
G01*
X121450000Y-60800000D01*
G75*
G02*
X121225000Y-60575000I0J225000D01*
G01*
X121225000Y-60125000D01*
G75*
G02*
X121450000Y-59900000I225000J0D01*
G01*
G37*
G36*
G01*
X121450000Y-58350000D02*
X121950000Y-58350000D01*
G75*
G02*
X122175000Y-58575000I0J-225000D01*
G01*
X122175000Y-59025000D01*
G75*
G02*
X121950000Y-59250000I-225000J0D01*
G01*
X121450000Y-59250000D01*
G75*
G02*
X121225000Y-59025000I0J225000D01*
G01*
X121225000Y-58575000D01*
G75*
G02*
X121450000Y-58350000I225000J0D01*
G01*
G37*
%TD*%
%TO.C,C10*%
G36*
G01*
X136525000Y-76000000D02*
X136525000Y-75500000D01*
G75*
G02*
X136750000Y-75275000I225000J0D01*
G01*
X137200000Y-75275000D01*
G75*
G02*
X137425000Y-75500000I0J-225000D01*
G01*
X137425000Y-76000000D01*
G75*
G02*
X137200000Y-76225000I-225000J0D01*
G01*
X136750000Y-76225000D01*
G75*
G02*
X136525000Y-76000000I0J225000D01*
G01*
G37*
G36*
G01*
X138075000Y-76000000D02*
X138075000Y-75500000D01*
G75*
G02*
X138300000Y-75275000I225000J0D01*
G01*
X138750000Y-75275000D01*
G75*
G02*
X138975000Y-75500000I0J-225000D01*
G01*
X138975000Y-76000000D01*
G75*
G02*
X138750000Y-76225000I-225000J0D01*
G01*
X138300000Y-76225000D01*
G75*
G02*
X138075000Y-76000000I0J225000D01*
G01*
G37*
%TD*%
%TO.C,C11*%
G36*
G01*
X138075000Y-77850000D02*
X138075000Y-77350000D01*
G75*
G02*
X138300000Y-77125000I225000J0D01*
G01*
X138750000Y-77125000D01*
G75*
G02*
X138975000Y-77350000I0J-225000D01*
G01*
X138975000Y-77850000D01*
G75*
G02*
X138750000Y-78075000I-225000J0D01*
G01*
X138300000Y-78075000D01*
G75*
G02*
X138075000Y-77850000I0J225000D01*
G01*
G37*
G36*
G01*
X136525000Y-77850000D02*
X136525000Y-77350000D01*
G75*
G02*
X136750000Y-77125000I225000J0D01*
G01*
X137200000Y-77125000D01*
G75*
G02*
X137425000Y-77350000I0J-225000D01*
G01*
X137425000Y-77850000D01*
G75*
G02*
X137200000Y-78075000I-225000J0D01*
G01*
X136750000Y-78075000D01*
G75*
G02*
X136525000Y-77850000I0J225000D01*
G01*
G37*
%TD*%
%TO.C,C12*%
G36*
G01*
X132675000Y-77350000D02*
X132675000Y-77850000D01*
G75*
G02*
X132450000Y-78075000I-225000J0D01*
G01*
X132000000Y-78075000D01*
G75*
G02*
X131775000Y-77850000I0J225000D01*
G01*
X131775000Y-77350000D01*
G75*
G02*
X132000000Y-77125000I225000J0D01*
G01*
X132450000Y-77125000D01*
G75*
G02*
X132675000Y-77350000I0J-225000D01*
G01*
G37*
G36*
G01*
X134225000Y-77350000D02*
X134225000Y-77850000D01*
G75*
G02*
X134000000Y-78075000I-225000J0D01*
G01*
X133550000Y-78075000D01*
G75*
G02*
X133325000Y-77850000I0J225000D01*
G01*
X133325000Y-77350000D01*
G75*
G02*
X133550000Y-77125000I225000J0D01*
G01*
X134000000Y-77125000D01*
G75*
G02*
X134225000Y-77350000I0J-225000D01*
G01*
G37*
%TD*%
%TO.C,C13*%
G36*
G01*
X131825000Y-66800000D02*
X131825000Y-66300000D01*
G75*
G02*
X132050000Y-66075000I225000J0D01*
G01*
X132500000Y-66075000D01*
G75*
G02*
X132725000Y-66300000I0J-225000D01*
G01*
X132725000Y-66800000D01*
G75*
G02*
X132500000Y-67025000I-225000J0D01*
G01*
X132050000Y-67025000D01*
G75*
G02*
X131825000Y-66800000I0J225000D01*
G01*
G37*
G36*
G01*
X133375000Y-66800000D02*
X133375000Y-66300000D01*
G75*
G02*
X133600000Y-66075000I225000J0D01*
G01*
X134050000Y-66075000D01*
G75*
G02*
X134275000Y-66300000I0J-225000D01*
G01*
X134275000Y-66800000D01*
G75*
G02*
X134050000Y-67025000I-225000J0D01*
G01*
X133600000Y-67025000D01*
G75*
G02*
X133375000Y-66800000I0J225000D01*
G01*
G37*
%TD*%
%TO.C,C14*%
G36*
G01*
X115850000Y-65150000D02*
X115350000Y-65150000D01*
G75*
G02*
X115125000Y-64925000I0J225000D01*
G01*
X115125000Y-64475000D01*
G75*
G02*
X115350000Y-64250000I225000J0D01*
G01*
X115850000Y-64250000D01*
G75*
G02*
X116075000Y-64475000I0J-225000D01*
G01*
X116075000Y-64925000D01*
G75*
G02*
X115850000Y-65150000I-225000J0D01*
G01*
G37*
G36*
G01*
X115850000Y-66700000D02*
X115350000Y-66700000D01*
G75*
G02*
X115125000Y-66475000I0J225000D01*
G01*
X115125000Y-66025000D01*
G75*
G02*
X115350000Y-65800000I225000J0D01*
G01*
X115850000Y-65800000D01*
G75*
G02*
X116075000Y-66025000I0J-225000D01*
G01*
X116075000Y-66475000D01*
G75*
G02*
X115850000Y-66700000I-225000J0D01*
G01*
G37*
%TD*%
%TO.C,D1*%
G36*
G01*
X134706250Y-81050000D02*
X134193750Y-81050000D01*
G75*
G02*
X133975000Y-80831250I0J218750D01*
G01*
X133975000Y-80393750D01*
G75*
G02*
X134193750Y-80175000I218750J0D01*
G01*
X134706250Y-80175000D01*
G75*
G02*
X134925000Y-80393750I0J-218750D01*
G01*
X134925000Y-80831250D01*
G75*
G02*
X134706250Y-81050000I-218750J0D01*
G01*
G37*
G36*
G01*
X134706250Y-82625000D02*
X134193750Y-82625000D01*
G75*
G02*
X133975000Y-82406250I0J218750D01*
G01*
X133975000Y-81968750D01*
G75*
G02*
X134193750Y-81750000I218750J0D01*
G01*
X134706250Y-81750000D01*
G75*
G02*
X134925000Y-81968750I0J-218750D01*
G01*
X134925000Y-82406250D01*
G75*
G02*
X134706250Y-82625000I-218750J0D01*
G01*
G37*
%TD*%
%TO.C,D2*%
G36*
G01*
X136756250Y-82625000D02*
X136243750Y-82625000D01*
G75*
G02*
X136025000Y-82406250I0J218750D01*
G01*
X136025000Y-81968750D01*
G75*
G02*
X136243750Y-81750000I218750J0D01*
G01*
X136756250Y-81750000D01*
G75*
G02*
X136975000Y-81968750I0J-218750D01*
G01*
X136975000Y-82406250D01*
G75*
G02*
X136756250Y-82625000I-218750J0D01*
G01*
G37*
G36*
G01*
X136756250Y-81050000D02*
X136243750Y-81050000D01*
G75*
G02*
X136025000Y-80831250I0J218750D01*
G01*
X136025000Y-80393750D01*
G75*
G02*
X136243750Y-80175000I218750J0D01*
G01*
X136756250Y-80175000D01*
G75*
G02*
X136975000Y-80393750I0J-218750D01*
G01*
X136975000Y-80831250D01*
G75*
G02*
X136756250Y-81050000I-218750J0D01*
G01*
G37*
%TD*%
%TO.C,F1*%
G36*
G01*
X112625000Y-60175000D02*
X112625000Y-58025000D01*
G75*
G02*
X112875000Y-57775000I250000J0D01*
G01*
X113625000Y-57775000D01*
G75*
G02*
X113875000Y-58025000I0J-250000D01*
G01*
X113875000Y-60175000D01*
G75*
G02*
X113625000Y-60425000I-250000J0D01*
G01*
X112875000Y-60425000D01*
G75*
G02*
X112625000Y-60175000I0J250000D01*
G01*
G37*
G36*
G01*
X109825000Y-60175000D02*
X109825000Y-58025000D01*
G75*
G02*
X110075000Y-57775000I250000J0D01*
G01*
X110825000Y-57775000D01*
G75*
G02*
X111075000Y-58025000I0J-250000D01*
G01*
X111075000Y-60175000D01*
G75*
G02*
X110825000Y-60425000I-250000J0D01*
G01*
X110075000Y-60425000D01*
G75*
G02*
X109825000Y-60175000I0J250000D01*
G01*
G37*
%TD*%
%TO.C,R1*%
G36*
G01*
X111525000Y-74325000D02*
X111525000Y-73775000D01*
G75*
G02*
X111725000Y-73575000I200000J0D01*
G01*
X112125000Y-73575000D01*
G75*
G02*
X112325000Y-73775000I0J-200000D01*
G01*
X112325000Y-74325000D01*
G75*
G02*
X112125000Y-74525000I-200000J0D01*
G01*
X111725000Y-74525000D01*
G75*
G02*
X111525000Y-74325000I0J200000D01*
G01*
G37*
G36*
G01*
X109875000Y-74325000D02*
X109875000Y-73775000D01*
G75*
G02*
X110075000Y-73575000I200000J0D01*
G01*
X110475000Y-73575000D01*
G75*
G02*
X110675000Y-73775000I0J-200000D01*
G01*
X110675000Y-74325000D01*
G75*
G02*
X110475000Y-74525000I-200000J0D01*
G01*
X110075000Y-74525000D01*
G75*
G02*
X109875000Y-74325000I0J200000D01*
G01*
G37*
%TD*%
%TO.C,R2*%
G36*
G01*
X111525000Y-72375000D02*
X111525000Y-71825000D01*
G75*
G02*
X111725000Y-71625000I200000J0D01*
G01*
X112125000Y-71625000D01*
G75*
G02*
X112325000Y-71825000I0J-200000D01*
G01*
X112325000Y-72375000D01*
G75*
G02*
X112125000Y-72575000I-200000J0D01*
G01*
X111725000Y-72575000D01*
G75*
G02*
X111525000Y-72375000I0J200000D01*
G01*
G37*
G36*
G01*
X109875000Y-72375000D02*
X109875000Y-71825000D01*
G75*
G02*
X110075000Y-71625000I200000J0D01*
G01*
X110475000Y-71625000D01*
G75*
G02*
X110675000Y-71825000I0J-200000D01*
G01*
X110675000Y-72375000D01*
G75*
G02*
X110475000Y-72575000I-200000J0D01*
G01*
X110075000Y-72575000D01*
G75*
G02*
X109875000Y-72375000I0J200000D01*
G01*
G37*
%TD*%
%TO.C,R3*%
G36*
G01*
X110675000Y-69875000D02*
X110675000Y-70425000D01*
G75*
G02*
X110475000Y-70625000I-200000J0D01*
G01*
X110075000Y-70625000D01*
G75*
G02*
X109875000Y-70425000I0J200000D01*
G01*
X109875000Y-69875000D01*
G75*
G02*
X110075000Y-69675000I200000J0D01*
G01*
X110475000Y-69675000D01*
G75*
G02*
X110675000Y-69875000I0J-200000D01*
G01*
G37*
G36*
G01*
X112325000Y-69875000D02*
X112325000Y-70425000D01*
G75*
G02*
X112125000Y-70625000I-200000J0D01*
G01*
X111725000Y-70625000D01*
G75*
G02*
X111525000Y-70425000I0J200000D01*
G01*
X111525000Y-69875000D01*
G75*
G02*
X111725000Y-69675000I200000J0D01*
G01*
X112125000Y-69675000D01*
G75*
G02*
X112325000Y-69875000I0J-200000D01*
G01*
G37*
%TD*%
%TO.C,R4*%
G36*
G01*
X111625000Y-78975000D02*
X112175000Y-78975000D01*
G75*
G02*
X112375000Y-79175000I0J-200000D01*
G01*
X112375000Y-79575000D01*
G75*
G02*
X112175000Y-79775000I-200000J0D01*
G01*
X111625000Y-79775000D01*
G75*
G02*
X111425000Y-79575000I0J200000D01*
G01*
X111425000Y-79175000D01*
G75*
G02*
X111625000Y-78975000I200000J0D01*
G01*
G37*
G36*
G01*
X111625000Y-77325000D02*
X112175000Y-77325000D01*
G75*
G02*
X112375000Y-77525000I0J-200000D01*
G01*
X112375000Y-77925000D01*
G75*
G02*
X112175000Y-78125000I-200000J0D01*
G01*
X111625000Y-78125000D01*
G75*
G02*
X111425000Y-77925000I0J200000D01*
G01*
X111425000Y-77525000D01*
G75*
G02*
X111625000Y-77325000I200000J0D01*
G01*
G37*
%TD*%
%TO.C,R5*%
G36*
G01*
X112300000Y-62225000D02*
X112300000Y-62775000D01*
G75*
G02*
X112100000Y-62975000I-200000J0D01*
G01*
X111700000Y-62975000D01*
G75*
G02*
X111500000Y-62775000I0J200000D01*
G01*
X111500000Y-62225000D01*
G75*
G02*
X111700000Y-62025000I200000J0D01*
G01*
X112100000Y-62025000D01*
G75*
G02*
X112300000Y-62225000I0J-200000D01*
G01*
G37*
G36*
G01*
X110650000Y-62225000D02*
X110650000Y-62775000D01*
G75*
G02*
X110450000Y-62975000I-200000J0D01*
G01*
X110050000Y-62975000D01*
G75*
G02*
X109850000Y-62775000I0J200000D01*
G01*
X109850000Y-62225000D01*
G75*
G02*
X110050000Y-62025000I200000J0D01*
G01*
X110450000Y-62025000D01*
G75*
G02*
X110650000Y-62225000I0J-200000D01*
G01*
G37*
%TD*%
%TO.C,R6*%
G36*
G01*
X112300000Y-67925000D02*
X112300000Y-68475000D01*
G75*
G02*
X112100000Y-68675000I-200000J0D01*
G01*
X111700000Y-68675000D01*
G75*
G02*
X111500000Y-68475000I0J200000D01*
G01*
X111500000Y-67925000D01*
G75*
G02*
X111700000Y-67725000I200000J0D01*
G01*
X112100000Y-67725000D01*
G75*
G02*
X112300000Y-67925000I0J-200000D01*
G01*
G37*
G36*
G01*
X110650000Y-67925000D02*
X110650000Y-68475000D01*
G75*
G02*
X110450000Y-68675000I-200000J0D01*
G01*
X110050000Y-68675000D01*
G75*
G02*
X109850000Y-68475000I0J200000D01*
G01*
X109850000Y-67925000D01*
G75*
G02*
X110050000Y-67725000I200000J0D01*
G01*
X110450000Y-67725000D01*
G75*
G02*
X110650000Y-67925000I0J-200000D01*
G01*
G37*
%TD*%
%TO.C,R7*%
G36*
G01*
X109850000Y-64675000D02*
X109850000Y-64125000D01*
G75*
G02*
X110050000Y-63925000I200000J0D01*
G01*
X110450000Y-63925000D01*
G75*
G02*
X110650000Y-64125000I0J-200000D01*
G01*
X110650000Y-64675000D01*
G75*
G02*
X110450000Y-64875000I-200000J0D01*
G01*
X110050000Y-64875000D01*
G75*
G02*
X109850000Y-64675000I0J200000D01*
G01*
G37*
G36*
G01*
X111500000Y-64675000D02*
X111500000Y-64125000D01*
G75*
G02*
X111700000Y-63925000I200000J0D01*
G01*
X112100000Y-63925000D01*
G75*
G02*
X112300000Y-64125000I0J-200000D01*
G01*
X112300000Y-64675000D01*
G75*
G02*
X112100000Y-64875000I-200000J0D01*
G01*
X111700000Y-64875000D01*
G75*
G02*
X111500000Y-64675000I0J200000D01*
G01*
G37*
%TD*%
%TO.C,R8*%
G36*
G01*
X138175000Y-66825000D02*
X138175000Y-66275000D01*
G75*
G02*
X138375000Y-66075000I200000J0D01*
G01*
X138775000Y-66075000D01*
G75*
G02*
X138975000Y-66275000I0J-200000D01*
G01*
X138975000Y-66825000D01*
G75*
G02*
X138775000Y-67025000I-200000J0D01*
G01*
X138375000Y-67025000D01*
G75*
G02*
X138175000Y-66825000I0J200000D01*
G01*
G37*
G36*
G01*
X136525000Y-66825000D02*
X136525000Y-66275000D01*
G75*
G02*
X136725000Y-66075000I200000J0D01*
G01*
X137125000Y-66075000D01*
G75*
G02*
X137325000Y-66275000I0J-200000D01*
G01*
X137325000Y-66825000D01*
G75*
G02*
X137125000Y-67025000I-200000J0D01*
G01*
X136725000Y-67025000D01*
G75*
G02*
X136525000Y-66825000I0J200000D01*
G01*
G37*
%TD*%
%TO.C,R9*%
G36*
G01*
X109850000Y-66575000D02*
X109850000Y-66025000D01*
G75*
G02*
X110050000Y-65825000I200000J0D01*
G01*
X110450000Y-65825000D01*
G75*
G02*
X110650000Y-66025000I0J-200000D01*
G01*
X110650000Y-66575000D01*
G75*
G02*
X110450000Y-66775000I-200000J0D01*
G01*
X110050000Y-66775000D01*
G75*
G02*
X109850000Y-66575000I0J200000D01*
G01*
G37*
G36*
G01*
X111500000Y-66575000D02*
X111500000Y-66025000D01*
G75*
G02*
X111700000Y-65825000I200000J0D01*
G01*
X112100000Y-65825000D01*
G75*
G02*
X112300000Y-66025000I0J-200000D01*
G01*
X112300000Y-66575000D01*
G75*
G02*
X112100000Y-66775000I-200000J0D01*
G01*
X111700000Y-66775000D01*
G75*
G02*
X111500000Y-66575000I0J200000D01*
G01*
G37*
%TD*%
%TO.C,R10*%
G36*
G01*
X145625000Y-62825000D02*
X146175000Y-62825000D01*
G75*
G02*
X146375000Y-63025000I0J-200000D01*
G01*
X146375000Y-63425000D01*
G75*
G02*
X146175000Y-63625000I-200000J0D01*
G01*
X145625000Y-63625000D01*
G75*
G02*
X145425000Y-63425000I0J200000D01*
G01*
X145425000Y-63025000D01*
G75*
G02*
X145625000Y-62825000I200000J0D01*
G01*
G37*
G36*
G01*
X145625000Y-61175000D02*
X146175000Y-61175000D01*
G75*
G02*
X146375000Y-61375000I0J-200000D01*
G01*
X146375000Y-61775000D01*
G75*
G02*
X146175000Y-61975000I-200000J0D01*
G01*
X145625000Y-61975000D01*
G75*
G02*
X145425000Y-61775000I0J200000D01*
G01*
X145425000Y-61375000D01*
G75*
G02*
X145625000Y-61175000I200000J0D01*
G01*
G37*
%TD*%
%TO.C,R12*%
G36*
G01*
X147575000Y-62825000D02*
X148125000Y-62825000D01*
G75*
G02*
X148325000Y-63025000I0J-200000D01*
G01*
X148325000Y-63425000D01*
G75*
G02*
X148125000Y-63625000I-200000J0D01*
G01*
X147575000Y-63625000D01*
G75*
G02*
X147375000Y-63425000I0J200000D01*
G01*
X147375000Y-63025000D01*
G75*
G02*
X147575000Y-62825000I200000J0D01*
G01*
G37*
G36*
G01*
X147575000Y-61175000D02*
X148125000Y-61175000D01*
G75*
G02*
X148325000Y-61375000I0J-200000D01*
G01*
X148325000Y-61775000D01*
G75*
G02*
X148125000Y-61975000I-200000J0D01*
G01*
X147575000Y-61975000D01*
G75*
G02*
X147375000Y-61775000I0J200000D01*
G01*
X147375000Y-61375000D01*
G75*
G02*
X147575000Y-61175000I200000J0D01*
G01*
G37*
%TD*%
%TO.C,R13*%
G36*
G01*
X149575000Y-61175000D02*
X150125000Y-61175000D01*
G75*
G02*
X150325000Y-61375000I0J-200000D01*
G01*
X150325000Y-61775000D01*
G75*
G02*
X150125000Y-61975000I-200000J0D01*
G01*
X149575000Y-61975000D01*
G75*
G02*
X149375000Y-61775000I0J200000D01*
G01*
X149375000Y-61375000D01*
G75*
G02*
X149575000Y-61175000I200000J0D01*
G01*
G37*
G36*
G01*
X149575000Y-62825000D02*
X150125000Y-62825000D01*
G75*
G02*
X150325000Y-63025000I0J-200000D01*
G01*
X150325000Y-63425000D01*
G75*
G02*
X150125000Y-63625000I-200000J0D01*
G01*
X149575000Y-63625000D01*
G75*
G02*
X149375000Y-63425000I0J200000D01*
G01*
X149375000Y-63025000D01*
G75*
G02*
X149575000Y-62825000I200000J0D01*
G01*
G37*
%TD*%
%TO.C,R14*%
G36*
G01*
X131975000Y-80225000D02*
X132525000Y-80225000D01*
G75*
G02*
X132725000Y-80425000I0J-200000D01*
G01*
X132725000Y-80825000D01*
G75*
G02*
X132525000Y-81025000I-200000J0D01*
G01*
X131975000Y-81025000D01*
G75*
G02*
X131775000Y-80825000I0J200000D01*
G01*
X131775000Y-80425000D01*
G75*
G02*
X131975000Y-80225000I200000J0D01*
G01*
G37*
G36*
G01*
X131975000Y-81875000D02*
X132525000Y-81875000D01*
G75*
G02*
X132725000Y-82075000I0J-200000D01*
G01*
X132725000Y-82475000D01*
G75*
G02*
X132525000Y-82675000I-200000J0D01*
G01*
X131975000Y-82675000D01*
G75*
G02*
X131775000Y-82475000I0J200000D01*
G01*
X131775000Y-82075000D01*
G75*
G02*
X131975000Y-81875000I200000J0D01*
G01*
G37*
%TD*%
D18*
%TO.C,SW1*%
X142400000Y-62190000D03*
X133800000Y-62200000D03*
D19*
X140100000Y-62200000D03*
X138100000Y-62200000D03*
X136100000Y-62200000D03*
%TD*%
%TO.C,U1*%
G36*
G01*
X133275000Y-73925000D02*
X133275000Y-74125000D01*
G75*
G02*
X133175000Y-74225000I-100000J0D01*
G01*
X131900000Y-74225000D01*
G75*
G02*
X131800000Y-74125000I0J100000D01*
G01*
X131800000Y-73925000D01*
G75*
G02*
X131900000Y-73825000I100000J0D01*
G01*
X133175000Y-73825000D01*
G75*
G02*
X133275000Y-73925000I0J-100000D01*
G01*
G37*
G36*
G01*
X133275000Y-73275000D02*
X133275000Y-73475000D01*
G75*
G02*
X133175000Y-73575000I-100000J0D01*
G01*
X131900000Y-73575000D01*
G75*
G02*
X131800000Y-73475000I0J100000D01*
G01*
X131800000Y-73275000D01*
G75*
G02*
X131900000Y-73175000I100000J0D01*
G01*
X133175000Y-73175000D01*
G75*
G02*
X133275000Y-73275000I0J-100000D01*
G01*
G37*
G36*
G01*
X133275000Y-72625000D02*
X133275000Y-72825000D01*
G75*
G02*
X133175000Y-72925000I-100000J0D01*
G01*
X131900000Y-72925000D01*
G75*
G02*
X131800000Y-72825000I0J100000D01*
G01*
X131800000Y-72625000D01*
G75*
G02*
X131900000Y-72525000I100000J0D01*
G01*
X133175000Y-72525000D01*
G75*
G02*
X133275000Y-72625000I0J-100000D01*
G01*
G37*
G36*
G01*
X133275000Y-71975000D02*
X133275000Y-72175000D01*
G75*
G02*
X133175000Y-72275000I-100000J0D01*
G01*
X131900000Y-72275000D01*
G75*
G02*
X131800000Y-72175000I0J100000D01*
G01*
X131800000Y-71975000D01*
G75*
G02*
X131900000Y-71875000I100000J0D01*
G01*
X133175000Y-71875000D01*
G75*
G02*
X133275000Y-71975000I0J-100000D01*
G01*
G37*
G36*
G01*
X133275000Y-71325000D02*
X133275000Y-71525000D01*
G75*
G02*
X133175000Y-71625000I-100000J0D01*
G01*
X131900000Y-71625000D01*
G75*
G02*
X131800000Y-71525000I0J100000D01*
G01*
X131800000Y-71325000D01*
G75*
G02*
X131900000Y-71225000I100000J0D01*
G01*
X133175000Y-71225000D01*
G75*
G02*
X133275000Y-71325000I0J-100000D01*
G01*
G37*
G36*
G01*
X133275000Y-70675000D02*
X133275000Y-70875000D01*
G75*
G02*
X133175000Y-70975000I-100000J0D01*
G01*
X131900000Y-70975000D01*
G75*
G02*
X131800000Y-70875000I0J100000D01*
G01*
X131800000Y-70675000D01*
G75*
G02*
X131900000Y-70575000I100000J0D01*
G01*
X133175000Y-70575000D01*
G75*
G02*
X133275000Y-70675000I0J-100000D01*
G01*
G37*
G36*
G01*
X133275000Y-70025000D02*
X133275000Y-70225000D01*
G75*
G02*
X133175000Y-70325000I-100000J0D01*
G01*
X131900000Y-70325000D01*
G75*
G02*
X131800000Y-70225000I0J100000D01*
G01*
X131800000Y-70025000D01*
G75*
G02*
X131900000Y-69925000I100000J0D01*
G01*
X133175000Y-69925000D01*
G75*
G02*
X133275000Y-70025000I0J-100000D01*
G01*
G37*
G36*
G01*
X133275000Y-69375000D02*
X133275000Y-69575000D01*
G75*
G02*
X133175000Y-69675000I-100000J0D01*
G01*
X131900000Y-69675000D01*
G75*
G02*
X131800000Y-69575000I0J100000D01*
G01*
X131800000Y-69375000D01*
G75*
G02*
X131900000Y-69275000I100000J0D01*
G01*
X133175000Y-69275000D01*
G75*
G02*
X133275000Y-69375000I0J-100000D01*
G01*
G37*
G36*
G01*
X133275000Y-68725000D02*
X133275000Y-68925000D01*
G75*
G02*
X133175000Y-69025000I-100000J0D01*
G01*
X131900000Y-69025000D01*
G75*
G02*
X131800000Y-68925000I0J100000D01*
G01*
X131800000Y-68725000D01*
G75*
G02*
X131900000Y-68625000I100000J0D01*
G01*
X133175000Y-68625000D01*
G75*
G02*
X133275000Y-68725000I0J-100000D01*
G01*
G37*
G36*
G01*
X133275000Y-68075000D02*
X133275000Y-68275000D01*
G75*
G02*
X133175000Y-68375000I-100000J0D01*
G01*
X131900000Y-68375000D01*
G75*
G02*
X131800000Y-68275000I0J100000D01*
G01*
X131800000Y-68075000D01*
G75*
G02*
X131900000Y-67975000I100000J0D01*
G01*
X133175000Y-67975000D01*
G75*
G02*
X133275000Y-68075000I0J-100000D01*
G01*
G37*
G36*
G01*
X139000000Y-68075000D02*
X139000000Y-68275000D01*
G75*
G02*
X138900000Y-68375000I-100000J0D01*
G01*
X137625000Y-68375000D01*
G75*
G02*
X137525000Y-68275000I0J100000D01*
G01*
X137525000Y-68075000D01*
G75*
G02*
X137625000Y-67975000I100000J0D01*
G01*
X138900000Y-67975000D01*
G75*
G02*
X139000000Y-68075000I0J-100000D01*
G01*
G37*
G36*
G01*
X139000000Y-68725000D02*
X139000000Y-68925000D01*
G75*
G02*
X138900000Y-69025000I-100000J0D01*
G01*
X137625000Y-69025000D01*
G75*
G02*
X137525000Y-68925000I0J100000D01*
G01*
X137525000Y-68725000D01*
G75*
G02*
X137625000Y-68625000I100000J0D01*
G01*
X138900000Y-68625000D01*
G75*
G02*
X139000000Y-68725000I0J-100000D01*
G01*
G37*
G36*
G01*
X139000000Y-69375000D02*
X139000000Y-69575000D01*
G75*
G02*
X138900000Y-69675000I-100000J0D01*
G01*
X137625000Y-69675000D01*
G75*
G02*
X137525000Y-69575000I0J100000D01*
G01*
X137525000Y-69375000D01*
G75*
G02*
X137625000Y-69275000I100000J0D01*
G01*
X138900000Y-69275000D01*
G75*
G02*
X139000000Y-69375000I0J-100000D01*
G01*
G37*
G36*
G01*
X139000000Y-70025000D02*
X139000000Y-70225000D01*
G75*
G02*
X138900000Y-70325000I-100000J0D01*
G01*
X137625000Y-70325000D01*
G75*
G02*
X137525000Y-70225000I0J100000D01*
G01*
X137525000Y-70025000D01*
G75*
G02*
X137625000Y-69925000I100000J0D01*
G01*
X138900000Y-69925000D01*
G75*
G02*
X139000000Y-70025000I0J-100000D01*
G01*
G37*
G36*
G01*
X139000000Y-70675000D02*
X139000000Y-70875000D01*
G75*
G02*
X138900000Y-70975000I-100000J0D01*
G01*
X137625000Y-70975000D01*
G75*
G02*
X137525000Y-70875000I0J100000D01*
G01*
X137525000Y-70675000D01*
G75*
G02*
X137625000Y-70575000I100000J0D01*
G01*
X138900000Y-70575000D01*
G75*
G02*
X139000000Y-70675000I0J-100000D01*
G01*
G37*
G36*
G01*
X139000000Y-71325000D02*
X139000000Y-71525000D01*
G75*
G02*
X138900000Y-71625000I-100000J0D01*
G01*
X137625000Y-71625000D01*
G75*
G02*
X137525000Y-71525000I0J100000D01*
G01*
X137525000Y-71325000D01*
G75*
G02*
X137625000Y-71225000I100000J0D01*
G01*
X138900000Y-71225000D01*
G75*
G02*
X139000000Y-71325000I0J-100000D01*
G01*
G37*
G36*
G01*
X139000000Y-71975000D02*
X139000000Y-72175000D01*
G75*
G02*
X138900000Y-72275000I-100000J0D01*
G01*
X137625000Y-72275000D01*
G75*
G02*
X137525000Y-72175000I0J100000D01*
G01*
X137525000Y-71975000D01*
G75*
G02*
X137625000Y-71875000I100000J0D01*
G01*
X138900000Y-71875000D01*
G75*
G02*
X139000000Y-71975000I0J-100000D01*
G01*
G37*
G36*
G01*
X139000000Y-72625000D02*
X139000000Y-72825000D01*
G75*
G02*
X138900000Y-72925000I-100000J0D01*
G01*
X137625000Y-72925000D01*
G75*
G02*
X137525000Y-72825000I0J100000D01*
G01*
X137525000Y-72625000D01*
G75*
G02*
X137625000Y-72525000I100000J0D01*
G01*
X138900000Y-72525000D01*
G75*
G02*
X139000000Y-72625000I0J-100000D01*
G01*
G37*
G36*
G01*
X139000000Y-73275000D02*
X139000000Y-73475000D01*
G75*
G02*
X138900000Y-73575000I-100000J0D01*
G01*
X137625000Y-73575000D01*
G75*
G02*
X137525000Y-73475000I0J100000D01*
G01*
X137525000Y-73275000D01*
G75*
G02*
X137625000Y-73175000I100000J0D01*
G01*
X138900000Y-73175000D01*
G75*
G02*
X139000000Y-73275000I0J-100000D01*
G01*
G37*
G36*
G01*
X139000000Y-73925000D02*
X139000000Y-74125000D01*
G75*
G02*
X138900000Y-74225000I-100000J0D01*
G01*
X137625000Y-74225000D01*
G75*
G02*
X137525000Y-74125000I0J100000D01*
G01*
X137525000Y-73925000D01*
G75*
G02*
X137625000Y-73825000I100000J0D01*
G01*
X138900000Y-73825000D01*
G75*
G02*
X139000000Y-73925000I0J-100000D01*
G01*
G37*
%TD*%
D20*
%TO.C,U2*%
X126900000Y-60300000D03*
X126900000Y-58400000D03*
X124900000Y-59350000D03*
%TD*%
%TO.C,U3*%
X116100000Y-59300000D03*
X118100000Y-58350000D03*
X118100000Y-60250000D03*
%TD*%
M02*
